G04 Layer: TopSilkscreenLayer*
G04 Panelize: , Column: 1, Row: 1, Board Size: 60mm x 122mm, Panelized Board Size: 60mm x 122mm*
G04 EasyEDA v6.5.51, 2025-09-17 09:30:02*
G04 3c8b50ddb4cd48f1b3394102e02f4c31,3c8b1c4139ec4bbbaae9228842dbec63,10*
G04 Gerber Generator version 0.2*
G04 Scale: 100 percent, Rotated: No, Reflected: No *
G04 Dimensions in millimeters *
G04 leading zeros omitted , absolute positions ,4 integer and 5 decimal *
%FSLAX45Y45*%
%MOMM*%

%ADD10C,0.3000*%
%ADD11C,0.2000*%
%ADD12C,0.1524*%
%ADD13C,0.2032*%
%ADD14C,0.5000*%
%ADD15C,0.2540*%
%ADD16C,0.0114*%

%LPD*%
G36*
X947724Y-627989D02*
G01*
X945946Y-653897D01*
X949502Y-656183D01*
X951687Y-654710D01*
X953922Y-653694D01*
X956259Y-653084D01*
X958900Y-652881D01*
X963726Y-653745D01*
X967536Y-656336D01*
X969975Y-660501D01*
X970838Y-666089D01*
X969822Y-671779D01*
X967181Y-676097D01*
X963320Y-678840D01*
X958646Y-679805D01*
X953973Y-679297D01*
X950214Y-677875D01*
X947166Y-675843D01*
X944676Y-673455D01*
X941374Y-677519D01*
X944473Y-680161D01*
X948334Y-682548D01*
X953160Y-684225D01*
X959154Y-684885D01*
X965809Y-683615D01*
X971600Y-679907D01*
X975614Y-673963D01*
X977188Y-665835D01*
X975817Y-657809D01*
X972210Y-652272D01*
X966876Y-649071D01*
X960424Y-648055D01*
X957935Y-648208D01*
X955700Y-648614D01*
X953668Y-649325D01*
X951788Y-650341D01*
X953312Y-633323D01*
X974394Y-633323D01*
X974394Y-627989D01*
G37*
G36*
X981252Y-627989D02*
G01*
X999286Y-683869D01*
X1006398Y-683869D01*
X1024178Y-627989D01*
X1017828Y-627989D01*
X1003096Y-677265D01*
X1002842Y-677265D01*
X987856Y-627989D01*
G37*
G36*
X969060Y-880973D02*
G01*
X963726Y-881481D01*
X958900Y-883005D01*
X954633Y-885444D01*
X950925Y-888796D01*
X947978Y-892962D01*
X945743Y-897890D01*
X944371Y-903579D01*
X943914Y-909929D01*
X944371Y-916330D01*
X945692Y-922070D01*
X947877Y-926998D01*
X950823Y-931164D01*
X954430Y-934466D01*
X958697Y-936904D01*
X963472Y-938377D01*
X968806Y-938885D01*
X974039Y-938377D01*
X978712Y-937056D01*
X982675Y-935024D01*
X985824Y-932535D01*
X985824Y-909421D01*
X967790Y-909421D01*
X967790Y-914501D01*
X979982Y-914501D01*
X979982Y-929741D01*
X977900Y-931265D01*
X975309Y-932383D01*
X972362Y-933043D01*
X969314Y-933297D01*
X961186Y-931621D01*
X955192Y-926947D01*
X951484Y-919581D01*
X950264Y-909929D01*
X951585Y-900176D01*
X955395Y-892810D01*
X961390Y-888187D01*
X969314Y-886561D01*
X973277Y-887018D01*
X976528Y-888187D01*
X979220Y-889863D01*
X981506Y-891895D01*
X985062Y-887831D01*
X982268Y-885342D01*
X978763Y-883158D01*
X974394Y-881583D01*
G37*
G36*
X999286Y-881989D02*
G01*
X999286Y-937869D01*
X1005128Y-937869D01*
X1005027Y-903071D01*
X1004366Y-890371D01*
X1004874Y-890371D01*
X1010970Y-901801D01*
X1031798Y-937869D01*
X1038402Y-937869D01*
X1038402Y-881989D01*
X1032306Y-881989D01*
X1032357Y-916635D01*
X1033322Y-929741D01*
X1032814Y-929741D01*
X1026718Y-918311D01*
X1005636Y-881989D01*
G37*
G36*
X1053896Y-881989D02*
G01*
X1053896Y-887323D01*
X1067104Y-887323D01*
X1071880Y-887679D01*
X1075994Y-888796D01*
X1079449Y-890625D01*
X1082243Y-893165D01*
X1084427Y-896366D01*
X1085951Y-900176D01*
X1086866Y-904646D01*
X1087170Y-909675D01*
X1086866Y-914755D01*
X1085951Y-919276D01*
X1084427Y-923239D01*
X1082243Y-926541D01*
X1079449Y-929233D01*
X1075994Y-931164D01*
X1071880Y-932383D01*
X1067104Y-932789D01*
X1060246Y-932789D01*
X1060246Y-887323D01*
X1053896Y-887323D01*
X1053896Y-937869D01*
X1067866Y-937869D01*
X1073861Y-937361D01*
X1079093Y-935939D01*
X1083513Y-933551D01*
X1087170Y-930351D01*
X1090066Y-926287D01*
X1092098Y-921461D01*
X1093317Y-915924D01*
X1093774Y-909675D01*
X1093317Y-903427D01*
X1092098Y-897940D01*
X1090015Y-893216D01*
X1087170Y-889253D01*
X1083462Y-886104D01*
X1078992Y-883869D01*
X1073658Y-882446D01*
X1067612Y-881989D01*
G37*
G36*
X959154Y-1134973D02*
G01*
X954633Y-1135481D01*
X950518Y-1136954D01*
X946861Y-1139037D01*
X943660Y-1141577D01*
X947216Y-1145641D01*
X949655Y-1143508D01*
X952449Y-1141780D01*
X955548Y-1140612D01*
X958900Y-1140053D01*
X962964Y-1140815D01*
X966012Y-1142746D01*
X967892Y-1145641D01*
X968552Y-1149451D01*
X967740Y-1153718D01*
X965047Y-1157173D01*
X960170Y-1159510D01*
X952804Y-1160373D01*
X952804Y-1165199D01*
X961034Y-1166063D01*
X966520Y-1168450D01*
X969619Y-1172159D01*
X970584Y-1176883D01*
X969721Y-1181354D01*
X967282Y-1184808D01*
X963625Y-1187043D01*
X958900Y-1187805D01*
X954328Y-1187246D01*
X950569Y-1185722D01*
X947470Y-1183640D01*
X944930Y-1181201D01*
X941628Y-1185265D01*
X944626Y-1188059D01*
X948486Y-1190498D01*
X953363Y-1192225D01*
X959408Y-1192885D01*
X966216Y-1191768D01*
X971753Y-1188618D01*
X975512Y-1183538D01*
X976934Y-1176883D01*
X975969Y-1171651D01*
X973429Y-1167485D01*
X969619Y-1164437D01*
X964996Y-1162659D01*
X964996Y-1162405D01*
X969010Y-1160424D01*
X972108Y-1157478D01*
X974140Y-1153668D01*
X974902Y-1148943D01*
X973734Y-1143000D01*
X970432Y-1138631D01*
X965453Y-1135888D01*
G37*
G36*
X1044244Y-1134973D02*
G01*
X1039571Y-1135481D01*
X1035507Y-1136954D01*
X1031951Y-1139037D01*
X1028750Y-1141577D01*
X1032052Y-1145641D01*
X1034643Y-1143508D01*
X1037539Y-1141780D01*
X1040637Y-1140612D01*
X1043990Y-1140053D01*
X1047953Y-1140815D01*
X1051001Y-1142746D01*
X1052931Y-1145641D01*
X1053642Y-1149451D01*
X1052830Y-1153718D01*
X1050137Y-1157173D01*
X1045260Y-1159510D01*
X1037894Y-1160373D01*
X1037894Y-1165199D01*
X1046124Y-1166063D01*
X1051610Y-1168450D01*
X1054709Y-1172159D01*
X1055674Y-1176883D01*
X1054811Y-1181354D01*
X1052372Y-1184808D01*
X1048715Y-1187043D01*
X1043990Y-1187805D01*
X1039418Y-1187246D01*
X1035608Y-1185722D01*
X1032459Y-1183640D01*
X1029766Y-1181201D01*
X1026718Y-1185265D01*
X1029716Y-1188059D01*
X1033576Y-1190498D01*
X1038352Y-1192225D01*
X1044244Y-1192885D01*
X1051153Y-1191768D01*
X1056690Y-1188618D01*
X1060399Y-1183538D01*
X1061770Y-1176883D01*
X1060805Y-1171651D01*
X1058316Y-1167485D01*
X1054557Y-1164437D01*
X1050086Y-1162659D01*
X1050086Y-1162405D01*
X1054100Y-1160424D01*
X1057198Y-1157478D01*
X1059230Y-1153668D01*
X1059992Y-1148943D01*
X1058824Y-1143000D01*
X1055522Y-1138631D01*
X1050544Y-1135888D01*
G37*
G36*
X981252Y-1135989D02*
G01*
X999286Y-1191869D01*
X1006398Y-1191869D01*
X1024178Y-1135989D01*
X1017828Y-1135989D01*
X1003096Y-1185265D01*
X1002842Y-1185265D01*
X987856Y-1135989D01*
G37*
D10*
X1647952Y-148638D02*
G01*
X1647952Y-291894D01*
X1600200Y-148638D02*
G01*
X1695450Y-148638D01*
X1740662Y-148638D02*
G01*
X1740662Y-291894D01*
X1740662Y-148638D02*
G01*
X1829307Y-148638D01*
X1740662Y-216710D02*
G01*
X1795018Y-216710D01*
X1740662Y-291894D02*
G01*
X1829307Y-291894D01*
X1976374Y-182674D02*
G01*
X1969770Y-168958D01*
X1956054Y-155496D01*
X1942338Y-148638D01*
X1915160Y-148638D01*
X1901444Y-155496D01*
X1887728Y-168958D01*
X1881123Y-182674D01*
X1874265Y-203248D01*
X1874265Y-237284D01*
X1881123Y-257604D01*
X1887728Y-271320D01*
X1901444Y-285036D01*
X1915160Y-291894D01*
X1942338Y-291894D01*
X1956054Y-285036D01*
X1969770Y-271320D01*
X1976374Y-257604D01*
X2021586Y-148638D02*
G01*
X2021586Y-291894D01*
X2021586Y-291894D02*
G01*
X2103374Y-291894D01*
X2202941Y-148638D02*
G01*
X2148331Y-291894D01*
X2202941Y-148638D02*
G01*
X2257297Y-291894D01*
X2168652Y-244142D02*
G01*
X2236977Y-244142D01*
X2302256Y-148638D02*
G01*
X2302256Y-291894D01*
X2302256Y-148638D02*
G01*
X2350008Y-148638D01*
X2370581Y-155496D01*
X2384297Y-168958D01*
X2390902Y-182674D01*
X2397759Y-203248D01*
X2397759Y-237284D01*
X2390902Y-257604D01*
X2384297Y-271320D01*
X2370581Y-285036D01*
X2350008Y-291894D01*
X2302256Y-291894D01*
X2483611Y-148638D02*
G01*
X2470150Y-155496D01*
X2456434Y-168958D01*
X2449575Y-182674D01*
X2442718Y-203248D01*
X2442718Y-237284D01*
X2449575Y-257604D01*
X2456434Y-271320D01*
X2470150Y-285036D01*
X2483611Y-291894D01*
X2511043Y-291894D01*
X2524759Y-285036D01*
X2538222Y-271320D01*
X2545079Y-257604D01*
X2551938Y-237284D01*
X2551938Y-203248D01*
X2545079Y-182674D01*
X2538222Y-168958D01*
X2524759Y-155496D01*
X2511043Y-148638D01*
X2483611Y-148638D01*
X2701797Y-148638D02*
G01*
X2701797Y-291894D01*
X2701797Y-148638D02*
G01*
X2756408Y-291894D01*
X2811018Y-148638D02*
G01*
X2756408Y-291894D01*
X2811018Y-148638D02*
G01*
X2811018Y-291894D01*
X2910586Y-148638D02*
G01*
X2855975Y-291894D01*
X2910586Y-148638D02*
G01*
X2965195Y-291894D01*
X2876550Y-244142D02*
G01*
X2944622Y-244142D01*
X3112261Y-182674D02*
G01*
X3105658Y-168958D01*
X3091941Y-155496D01*
X3078225Y-148638D01*
X3051047Y-148638D01*
X3037331Y-155496D01*
X3023615Y-168958D01*
X3017011Y-182674D01*
X3010154Y-203248D01*
X3010154Y-237284D01*
X3017011Y-257604D01*
X3023615Y-271320D01*
X3037331Y-285036D01*
X3051047Y-291894D01*
X3078225Y-291894D01*
X3091941Y-285036D01*
X3105658Y-271320D01*
X3112261Y-257604D01*
X3157474Y-148638D02*
G01*
X3157474Y-291894D01*
X3157474Y-148638D02*
G01*
X3218688Y-148638D01*
X3239261Y-155496D01*
X3246120Y-162354D01*
X3252724Y-175816D01*
X3252724Y-189532D01*
X3246120Y-203248D01*
X3239261Y-209852D01*
X3218688Y-216710D01*
X3157474Y-216710D01*
X3204972Y-216710D02*
G01*
X3252724Y-291894D01*
X3338829Y-148638D02*
G01*
X3325113Y-155496D01*
X3311397Y-168958D01*
X3304540Y-182674D01*
X3297936Y-203248D01*
X3297936Y-237284D01*
X3304540Y-257604D01*
X3311397Y-271320D01*
X3325113Y-285036D01*
X3338829Y-291894D01*
X3366008Y-291894D01*
X3379724Y-285036D01*
X3393186Y-271320D01*
X3400043Y-257604D01*
X3406902Y-237284D01*
X3406902Y-203248D01*
X3400043Y-182674D01*
X3393186Y-168958D01*
X3379724Y-155496D01*
X3366008Y-148638D01*
X3338829Y-148638D01*
X3557015Y-148638D02*
G01*
X3557015Y-291894D01*
X3557015Y-148638D02*
G01*
X3618229Y-148638D01*
X3638804Y-155496D01*
X3645661Y-162354D01*
X3652265Y-175816D01*
X3652265Y-189532D01*
X3645661Y-203248D01*
X3638804Y-209852D01*
X3618229Y-216710D01*
X3557015Y-216710D02*
G01*
X3618229Y-216710D01*
X3638804Y-223568D01*
X3645661Y-230426D01*
X3652265Y-244142D01*
X3652265Y-264462D01*
X3645661Y-278178D01*
X3638804Y-285036D01*
X3618229Y-291894D01*
X3557015Y-291894D01*
X3697477Y-148638D02*
G01*
X3697477Y-291894D01*
X3697477Y-148638D02*
G01*
X3786124Y-148638D01*
X3697477Y-216710D02*
G01*
X3751834Y-216710D01*
X3697477Y-291894D02*
G01*
X3786124Y-291894D01*
X3878834Y-148638D02*
G01*
X3878834Y-291894D01*
X3831081Y-148638D02*
G01*
X3926331Y-148638D01*
X4025900Y-148638D02*
G01*
X3971543Y-291894D01*
X4025900Y-148638D02*
G01*
X4080509Y-291894D01*
X3991863Y-244142D02*
G01*
X4060190Y-244142D01*
X4230624Y-196390D02*
G01*
X4271518Y-291894D01*
X4312411Y-196390D02*
G01*
X4271518Y-291894D01*
X4398263Y-148638D02*
G01*
X4377943Y-155496D01*
X4364227Y-175816D01*
X4357370Y-209852D01*
X4357370Y-230426D01*
X4364227Y-264462D01*
X4377943Y-285036D01*
X4398263Y-291894D01*
X4411979Y-291894D01*
X4432300Y-285036D01*
X4446015Y-264462D01*
X4452874Y-230426D01*
X4452874Y-209852D01*
X4446015Y-175816D01*
X4432300Y-155496D01*
X4411979Y-148638D01*
X4398263Y-148638D01*
X4504690Y-257604D02*
G01*
X4497831Y-264462D01*
X4504690Y-271320D01*
X4511547Y-264462D01*
X4504690Y-257604D01*
X4563363Y-182674D02*
G01*
X4563363Y-175816D01*
X4569968Y-162354D01*
X4576825Y-155496D01*
X4590541Y-148638D01*
X4617720Y-148638D01*
X4631436Y-155496D01*
X4638293Y-162354D01*
X4645152Y-175816D01*
X4645152Y-189532D01*
X4638293Y-203248D01*
X4624577Y-223568D01*
X4556506Y-291894D01*
X4652009Y-291894D01*
D11*
X5449567Y-3099795D02*
G01*
X5544817Y-3099795D01*
X5449567Y-3099795D02*
G01*
X5449567Y-3040867D01*
X5495033Y-3099795D02*
G01*
X5495033Y-3063473D01*
X5449567Y-3010895D02*
G01*
X5544817Y-3010895D01*
X5449567Y-3010895D02*
G01*
X5449567Y-2951713D01*
X5495033Y-3010895D02*
G01*
X5495033Y-2974319D01*
X5544817Y-3010895D02*
G01*
X5544817Y-2951713D01*
X5449567Y-2921741D02*
G01*
X5544817Y-2921741D01*
X5449567Y-2859765D02*
G01*
X5544817Y-2859765D01*
X5449567Y-2891769D02*
G01*
X5449567Y-2828015D01*
X5449567Y-2770865D02*
G01*
X5454139Y-2779755D01*
X5463029Y-2788899D01*
X5472173Y-2793471D01*
X5485889Y-2798043D01*
X5508495Y-2798043D01*
X5522211Y-2793471D01*
X5531355Y-2788899D01*
X5540499Y-2779755D01*
X5544817Y-2770865D01*
X5544817Y-2752577D01*
X5540499Y-2743433D01*
X5531355Y-2734543D01*
X5522211Y-2729971D01*
X5508495Y-2725399D01*
X5485889Y-2725399D01*
X5472173Y-2729971D01*
X5463029Y-2734543D01*
X5454139Y-2743433D01*
X5449567Y-2752577D01*
X5449567Y-2770865D01*
X5449567Y-2625323D02*
G01*
X5544817Y-2625323D01*
X5449567Y-2625323D02*
G01*
X5449567Y-2584429D01*
X5454139Y-2570713D01*
X5458457Y-2566141D01*
X5467601Y-2561823D01*
X5481317Y-2561823D01*
X5490461Y-2566141D01*
X5495033Y-2570713D01*
X5499605Y-2584429D01*
X5499605Y-2625323D01*
X5449567Y-2504419D02*
G01*
X5454139Y-2513563D01*
X5463029Y-2522707D01*
X5472173Y-2527279D01*
X5485889Y-2531597D01*
X5508495Y-2531597D01*
X5522211Y-2527279D01*
X5531355Y-2522707D01*
X5540499Y-2513563D01*
X5544817Y-2504419D01*
X5544817Y-2486131D01*
X5540499Y-2477241D01*
X5531355Y-2468097D01*
X5522211Y-2463525D01*
X5508495Y-2458953D01*
X5485889Y-2458953D01*
X5472173Y-2463525D01*
X5463029Y-2468097D01*
X5454139Y-2477241D01*
X5449567Y-2486131D01*
X5449567Y-2504419D01*
X5449567Y-2428981D02*
G01*
X5544817Y-2428981D01*
X5449567Y-2428981D02*
G01*
X5449567Y-2388087D01*
X5454139Y-2374371D01*
X5458457Y-2369799D01*
X5467601Y-2365227D01*
X5476745Y-2365227D01*
X5485889Y-2369799D01*
X5490461Y-2374371D01*
X5495033Y-2388087D01*
X5495033Y-2428981D01*
X5495033Y-2397231D02*
G01*
X5544817Y-2365227D01*
X5490461Y-2330683D02*
G01*
X5495033Y-2335255D01*
X5499605Y-2330683D01*
X5495033Y-2326365D01*
X5490461Y-2330683D01*
X5522211Y-2330683D02*
G01*
X5526783Y-2335255D01*
X5531355Y-2330683D01*
X5526783Y-2326365D01*
X5522211Y-2330683D01*
X5650989Y-3099795D02*
G01*
X5746493Y-3099795D01*
X5650989Y-3099795D02*
G01*
X5746493Y-3036295D01*
X5650989Y-3036295D02*
G01*
X5746493Y-3036295D01*
X5650989Y-3006323D02*
G01*
X5746493Y-3006323D01*
X5673849Y-2908025D02*
G01*
X5664705Y-2912597D01*
X5655561Y-2921741D01*
X5650989Y-2930885D01*
X5650989Y-2948919D01*
X5655561Y-2958063D01*
X5664705Y-2967207D01*
X5673849Y-2971779D01*
X5687565Y-2976351D01*
X5710171Y-2976351D01*
X5723887Y-2971779D01*
X5733031Y-2967207D01*
X5741921Y-2958063D01*
X5746493Y-2948919D01*
X5746493Y-2930885D01*
X5741921Y-2921741D01*
X5733031Y-2912597D01*
X5723887Y-2908025D01*
X5650989Y-2850875D02*
G01*
X5655561Y-2859765D01*
X5664705Y-2868909D01*
X5673849Y-2873481D01*
X5687565Y-2878053D01*
X5710171Y-2878053D01*
X5723887Y-2873481D01*
X5733031Y-2868909D01*
X5741921Y-2859765D01*
X5746493Y-2850875D01*
X5746493Y-2832587D01*
X5741921Y-2823443D01*
X5733031Y-2814553D01*
X5723887Y-2809981D01*
X5710171Y-2805409D01*
X5687565Y-2805409D01*
X5673849Y-2809981D01*
X5664705Y-2814553D01*
X5655561Y-2823443D01*
X5650989Y-2832587D01*
X5650989Y-2850875D01*
X5650989Y-2775437D02*
G01*
X5746493Y-2775437D01*
X5746493Y-2775437D02*
G01*
X5746493Y-2720827D01*
X5650989Y-2654533D02*
G01*
X5746493Y-2690855D01*
X5650989Y-2654533D02*
G01*
X5746493Y-2617957D01*
X5714743Y-2677139D02*
G01*
X5714743Y-2631673D01*
X5664705Y-2524485D02*
G01*
X5655561Y-2533629D01*
X5650989Y-2547091D01*
X5650989Y-2565379D01*
X5655561Y-2579095D01*
X5664705Y-2587985D01*
X5673849Y-2587985D01*
X5682993Y-2583413D01*
X5687565Y-2579095D01*
X5691883Y-2569951D01*
X5701027Y-2542519D01*
X5705599Y-2533629D01*
X5710171Y-2529057D01*
X5719315Y-2524485D01*
X5733031Y-2524485D01*
X5741921Y-2533629D01*
X5746493Y-2547091D01*
X5746493Y-2565379D01*
X5741921Y-2579095D01*
X5733031Y-2587985D01*
X5650989Y-2424409D02*
G01*
X5746493Y-2424409D01*
X5650989Y-2424409D02*
G01*
X5746493Y-2360909D01*
X5650989Y-2360909D02*
G01*
X5746493Y-2360909D01*
X5650989Y-2294361D02*
G01*
X5746493Y-2330683D01*
X5650989Y-2294361D02*
G01*
X5746493Y-2258039D01*
X5714743Y-2317221D02*
G01*
X5714743Y-2271755D01*
X5664705Y-2164313D02*
G01*
X5655561Y-2173457D01*
X5650989Y-2187173D01*
X5650989Y-2205461D01*
X5655561Y-2218923D01*
X5664705Y-2228067D01*
X5673849Y-2228067D01*
X5682993Y-2223495D01*
X5687565Y-2218923D01*
X5691883Y-2209779D01*
X5701027Y-2182601D01*
X5705599Y-2173457D01*
X5710171Y-2168885D01*
X5719315Y-2164313D01*
X5733031Y-2164313D01*
X5741921Y-2173457D01*
X5746493Y-2187173D01*
X5746493Y-2205461D01*
X5741921Y-2218923D01*
X5733031Y-2228067D01*
X5650989Y-2098019D02*
G01*
X5746493Y-2134341D01*
X5650989Y-2098019D02*
G01*
X5746493Y-2061697D01*
X5714743Y-2120879D02*
G01*
X5714743Y-2075413D01*
X5650989Y-2031725D02*
G01*
X5746493Y-2031725D01*
X5650989Y-2031725D02*
G01*
X5650989Y-1990831D01*
X5655561Y-1977115D01*
X5660133Y-1972543D01*
X5669277Y-1967971D01*
X5678421Y-1967971D01*
X5687565Y-1972543D01*
X5691883Y-1977115D01*
X5696455Y-1990831D01*
X5696455Y-2031725D01*
X5696455Y-1999975D02*
G01*
X5746493Y-1967971D01*
X5650989Y-1937999D02*
G01*
X5746493Y-1937999D01*
X5650989Y-1880849D02*
G01*
X5655561Y-1889993D01*
X5664705Y-1898883D01*
X5673849Y-1903455D01*
X5687565Y-1908027D01*
X5710171Y-1908027D01*
X5723887Y-1903455D01*
X5733031Y-1898883D01*
X5741921Y-1889993D01*
X5746493Y-1880849D01*
X5746493Y-1862561D01*
X5741921Y-1853417D01*
X5733031Y-1844527D01*
X5723887Y-1839955D01*
X5710171Y-1835383D01*
X5687565Y-1835383D01*
X5673849Y-1839955D01*
X5664705Y-1844527D01*
X5655561Y-1853417D01*
X5650989Y-1862561D01*
X5650989Y-1880849D01*
X5650989Y-1735307D02*
G01*
X5746493Y-1735307D01*
X5650989Y-1735307D02*
G01*
X5650989Y-1676125D01*
X5696455Y-1735307D02*
G01*
X5696455Y-1698985D01*
X5650989Y-1646153D02*
G01*
X5746493Y-1646153D01*
X5650989Y-1646153D02*
G01*
X5650989Y-1587225D01*
X5696455Y-1646153D02*
G01*
X5696455Y-1609831D01*
X5746493Y-1646153D02*
G01*
X5746493Y-1587225D01*
X5650989Y-1557253D02*
G01*
X5746493Y-1557253D01*
X5650989Y-1557253D02*
G01*
X5650989Y-1516359D01*
X5655561Y-1502643D01*
X5660133Y-1498071D01*
X5669277Y-1493499D01*
X5678421Y-1493499D01*
X5687565Y-1498071D01*
X5691883Y-1502643D01*
X5696455Y-1516359D01*
X5696455Y-1557253D01*
X5696455Y-1525249D02*
G01*
X5746493Y-1493499D01*
X5650989Y-1463527D02*
G01*
X5746493Y-1463527D01*
X5650989Y-1463527D02*
G01*
X5650989Y-1422633D01*
X5655561Y-1408917D01*
X5660133Y-1404345D01*
X5669277Y-1399773D01*
X5678421Y-1399773D01*
X5687565Y-1404345D01*
X5691883Y-1408917D01*
X5696455Y-1422633D01*
X5696455Y-1463527D01*
X5696455Y-1431777D02*
G01*
X5746493Y-1399773D01*
X5650989Y-1369801D02*
G01*
X5746493Y-1369801D01*
X5650989Y-1369801D02*
G01*
X5650989Y-1310873D01*
X5696455Y-1369801D02*
G01*
X5696455Y-1333479D01*
X5746493Y-1369801D02*
G01*
X5746493Y-1310873D01*
X5650989Y-1280901D02*
G01*
X5746493Y-1280901D01*
X5650989Y-1250675D02*
G01*
X5746493Y-1250675D01*
X5650989Y-1250675D02*
G01*
X5650989Y-1209781D01*
X5655561Y-1196319D01*
X5660133Y-1191747D01*
X5669277Y-1187175D01*
X5678421Y-1187175D01*
X5687565Y-1191747D01*
X5691883Y-1196319D01*
X5696455Y-1209781D01*
X5696455Y-1250675D01*
X5696455Y-1218925D02*
G01*
X5746493Y-1187175D01*
X5650989Y-1120881D02*
G01*
X5746493Y-1157203D01*
X5650989Y-1120881D02*
G01*
X5746493Y-1084305D01*
X5714743Y-1143487D02*
G01*
X5714743Y-1098021D01*
X1700047Y-11699163D02*
G01*
X1700047Y-11794413D01*
X1700047Y-11699163D02*
G01*
X1758975Y-11699163D01*
X1700047Y-11744629D02*
G01*
X1736369Y-11744629D01*
X1700047Y-11794413D02*
G01*
X1758975Y-11794413D01*
X1789201Y-11730913D02*
G01*
X1789201Y-11794413D01*
X1789201Y-11748947D02*
G01*
X1802663Y-11735485D01*
X1811807Y-11730913D01*
X1825523Y-11730913D01*
X1834667Y-11735485D01*
X1838985Y-11748947D01*
X1838985Y-11794413D01*
X1838985Y-11748947D02*
G01*
X1852701Y-11735485D01*
X1861845Y-11730913D01*
X1875561Y-11730913D01*
X1884451Y-11735485D01*
X1889023Y-11748947D01*
X1889023Y-11794413D01*
X2043709Y-11744629D02*
G01*
X2034565Y-11735485D01*
X2025421Y-11730913D01*
X2011705Y-11730913D01*
X2002815Y-11735485D01*
X1993671Y-11744629D01*
X1989099Y-11758091D01*
X1989099Y-11767235D01*
X1993671Y-11780951D01*
X2002815Y-11790095D01*
X2011705Y-11794413D01*
X2025421Y-11794413D01*
X2034565Y-11790095D01*
X2043709Y-11780951D01*
X2096287Y-11730913D02*
G01*
X2087143Y-11735485D01*
X2078253Y-11744629D01*
X2073681Y-11758091D01*
X2073681Y-11767235D01*
X2078253Y-11780951D01*
X2087143Y-11790095D01*
X2096287Y-11794413D01*
X2110003Y-11794413D01*
X2119147Y-11790095D01*
X2128291Y-11780951D01*
X2132609Y-11767235D01*
X2132609Y-11758091D01*
X2128291Y-11744629D01*
X2119147Y-11735485D01*
X2110003Y-11730913D01*
X2096287Y-11730913D01*
X2162835Y-11699163D02*
G01*
X2162835Y-11794413D01*
X2247163Y-11730913D02*
G01*
X2247163Y-11794413D01*
X2247163Y-11744629D02*
G01*
X2238273Y-11735485D01*
X2229129Y-11730913D01*
X2215413Y-11730913D01*
X2206269Y-11735485D01*
X2197379Y-11744629D01*
X2192807Y-11758091D01*
X2192807Y-11767235D01*
X2197379Y-11780951D01*
X2206269Y-11790095D01*
X2215413Y-11794413D01*
X2229129Y-11794413D01*
X2238273Y-11790095D01*
X2247163Y-11780951D01*
X2277389Y-11699163D02*
G01*
X2277389Y-11794413D01*
X2277389Y-11744629D02*
G01*
X2286279Y-11735485D01*
X2295423Y-11730913D01*
X2309139Y-11730913D01*
X2318283Y-11735485D01*
X2327173Y-11744629D01*
X2331745Y-11758091D01*
X2331745Y-11767235D01*
X2327173Y-11780951D01*
X2318283Y-11790095D01*
X2309139Y-11794413D01*
X2295423Y-11794413D01*
X2286279Y-11790095D01*
X2277389Y-11780951D01*
X2384577Y-11730913D02*
G01*
X2375433Y-11735485D01*
X2366289Y-11744629D01*
X2361717Y-11758091D01*
X2361717Y-11767235D01*
X2366289Y-11780951D01*
X2375433Y-11790095D01*
X2384577Y-11794413D01*
X2398293Y-11794413D01*
X2407183Y-11790095D01*
X2416327Y-11780951D01*
X2420899Y-11767235D01*
X2420899Y-11758091D01*
X2416327Y-11744629D01*
X2407183Y-11735485D01*
X2398293Y-11730913D01*
X2384577Y-11730913D01*
X2450871Y-11730913D02*
G01*
X2450871Y-11794413D01*
X2450871Y-11758091D02*
G01*
X2455443Y-11744629D01*
X2464587Y-11735485D01*
X2473731Y-11730913D01*
X2487193Y-11730913D01*
X2571775Y-11730913D02*
G01*
X2571775Y-11794413D01*
X2571775Y-11744629D02*
G01*
X2562631Y-11735485D01*
X2553741Y-11730913D01*
X2540025Y-11730913D01*
X2530881Y-11735485D01*
X2521737Y-11744629D01*
X2517165Y-11758091D01*
X2517165Y-11767235D01*
X2521737Y-11780951D01*
X2530881Y-11790095D01*
X2540025Y-11794413D01*
X2553741Y-11794413D01*
X2562631Y-11790095D01*
X2571775Y-11780951D01*
X2656357Y-11744629D02*
G01*
X2647213Y-11735485D01*
X2638069Y-11730913D01*
X2624607Y-11730913D01*
X2615463Y-11735485D01*
X2606319Y-11744629D01*
X2601747Y-11758091D01*
X2601747Y-11767235D01*
X2606319Y-11780951D01*
X2615463Y-11790095D01*
X2624607Y-11794413D01*
X2638069Y-11794413D01*
X2647213Y-11790095D01*
X2656357Y-11780951D01*
X2740939Y-11730913D02*
G01*
X2740939Y-11794413D01*
X2740939Y-11744629D02*
G01*
X2731795Y-11735485D01*
X2722651Y-11730913D01*
X2709189Y-11730913D01*
X2700045Y-11735485D01*
X2690901Y-11744629D01*
X2686329Y-11758091D01*
X2686329Y-11767235D01*
X2690901Y-11780951D01*
X2700045Y-11790095D01*
X2709189Y-11794413D01*
X2722651Y-11794413D01*
X2731795Y-11790095D01*
X2740939Y-11780951D01*
X2793517Y-11730913D02*
G01*
X2784627Y-11735485D01*
X2775483Y-11744629D01*
X2770911Y-11758091D01*
X2770911Y-11767235D01*
X2775483Y-11780951D01*
X2784627Y-11790095D01*
X2793517Y-11794413D01*
X2807233Y-11794413D01*
X2816377Y-11790095D01*
X2825521Y-11780951D01*
X2830093Y-11767235D01*
X2830093Y-11758091D01*
X2825521Y-11744629D01*
X2816377Y-11735485D01*
X2807233Y-11730913D01*
X2793517Y-11730913D01*
X2984525Y-11744629D02*
G01*
X2975381Y-11735485D01*
X2966237Y-11730913D01*
X2952775Y-11730913D01*
X2943631Y-11735485D01*
X2934487Y-11744629D01*
X2929915Y-11758091D01*
X2929915Y-11767235D01*
X2934487Y-11780951D01*
X2943631Y-11790095D01*
X2952775Y-11794413D01*
X2966237Y-11794413D01*
X2975381Y-11790095D01*
X2984525Y-11780951D01*
X3037357Y-11730913D02*
G01*
X3028213Y-11735485D01*
X3019069Y-11744629D01*
X3014497Y-11758091D01*
X3014497Y-11767235D01*
X3019069Y-11780951D01*
X3028213Y-11790095D01*
X3037357Y-11794413D01*
X3050819Y-11794413D01*
X3059963Y-11790095D01*
X3069107Y-11780951D01*
X3073679Y-11767235D01*
X3073679Y-11758091D01*
X3069107Y-11744629D01*
X3059963Y-11735485D01*
X3050819Y-11730913D01*
X3037357Y-11730913D01*
X3103651Y-11730913D02*
G01*
X3103651Y-11794413D01*
X3103651Y-11748947D02*
G01*
X3117367Y-11735485D01*
X3126257Y-11730913D01*
X3139973Y-11730913D01*
X3149117Y-11735485D01*
X3153689Y-11748947D01*
X3153689Y-11794413D01*
X3153689Y-11748947D02*
G01*
X3167151Y-11735485D01*
X3176295Y-11730913D01*
X3190011Y-11730913D01*
X3199155Y-11735485D01*
X3203727Y-11748947D01*
X3203727Y-11794413D01*
X3238271Y-11740057D02*
G01*
X3233699Y-11744629D01*
X3238271Y-11748947D01*
X3242843Y-11744629D01*
X3238271Y-11740057D01*
X3238271Y-11771807D02*
G01*
X3233699Y-11776379D01*
X3238271Y-11780951D01*
X3242843Y-11776379D01*
X3238271Y-11771807D01*
X3378987Y-11699163D02*
G01*
X3342665Y-11794413D01*
X3378987Y-11699163D02*
G01*
X3415563Y-11794413D01*
X3356381Y-11762663D02*
G01*
X3401847Y-11762663D01*
X3445535Y-11699163D02*
G01*
X3445535Y-11794413D01*
X3475507Y-11730913D02*
G01*
X3502685Y-11794413D01*
X3530117Y-11730913D02*
G01*
X3502685Y-11794413D01*
X3614445Y-11730913D02*
G01*
X3614445Y-11794413D01*
X3614445Y-11744629D02*
G01*
X3605555Y-11735485D01*
X3596411Y-11730913D01*
X3582695Y-11730913D01*
X3573551Y-11735485D01*
X3564661Y-11744629D01*
X3560089Y-11758091D01*
X3560089Y-11767235D01*
X3564661Y-11780951D01*
X3573551Y-11790095D01*
X3582695Y-11794413D01*
X3596411Y-11794413D01*
X3605555Y-11790095D01*
X3614445Y-11780951D01*
X3644417Y-11730913D02*
G01*
X3644417Y-11794413D01*
X3644417Y-11758091D02*
G01*
X3648989Y-11744629D01*
X3658133Y-11735485D01*
X3667277Y-11730913D01*
X3680993Y-11730913D01*
X3733571Y-11730913D02*
G01*
X3724427Y-11735485D01*
X3715537Y-11744629D01*
X3710965Y-11758091D01*
X3710965Y-11767235D01*
X3715537Y-11780951D01*
X3724427Y-11790095D01*
X3733571Y-11794413D01*
X3747287Y-11794413D01*
X3756431Y-11790095D01*
X3765321Y-11780951D01*
X3769893Y-11767235D01*
X3769893Y-11758091D01*
X3765321Y-11744629D01*
X3756431Y-11735485D01*
X3747287Y-11730913D01*
X3733571Y-11730913D01*
X3869969Y-11699163D02*
G01*
X3869969Y-11794413D01*
X3869969Y-11699163D02*
G01*
X3910863Y-11699163D01*
X3924579Y-11703735D01*
X3929151Y-11708053D01*
X3933723Y-11717197D01*
X3933723Y-11726341D01*
X3929151Y-11735485D01*
X3924579Y-11740057D01*
X3910863Y-11744629D01*
X3869969Y-11744629D01*
X3901719Y-11744629D02*
G01*
X3933723Y-11794413D01*
X4018051Y-11730913D02*
G01*
X4018051Y-11794413D01*
X4018051Y-11744629D02*
G01*
X4009161Y-11735485D01*
X4000017Y-11730913D01*
X3986301Y-11730913D01*
X3977157Y-11735485D01*
X3968267Y-11744629D01*
X3963695Y-11758091D01*
X3963695Y-11767235D01*
X3968267Y-11780951D01*
X3977157Y-11790095D01*
X3986301Y-11794413D01*
X4000017Y-11794413D01*
X4009161Y-11790095D01*
X4018051Y-11780951D01*
X4102633Y-11699163D02*
G01*
X4102633Y-11794413D01*
X4102633Y-11744629D02*
G01*
X4093743Y-11735485D01*
X4084599Y-11730913D01*
X4070883Y-11730913D01*
X4061739Y-11735485D01*
X4052595Y-11744629D01*
X4048277Y-11758091D01*
X4048277Y-11767235D01*
X4052595Y-11780951D01*
X4061739Y-11790095D01*
X4070883Y-11794413D01*
X4084599Y-11794413D01*
X4093743Y-11790095D01*
X4102633Y-11780951D01*
X4187215Y-11730913D02*
G01*
X4187215Y-11794413D01*
X4187215Y-11744629D02*
G01*
X4178071Y-11735485D01*
X4169181Y-11730913D01*
X4155465Y-11730913D01*
X4146321Y-11735485D01*
X4137177Y-11744629D01*
X4132605Y-11758091D01*
X4132605Y-11767235D01*
X4137177Y-11780951D01*
X4146321Y-11790095D01*
X4155465Y-11794413D01*
X4169181Y-11794413D01*
X4178071Y-11790095D01*
X4187215Y-11780951D01*
X4217187Y-11730913D02*
G01*
X4244619Y-11794413D01*
X4271797Y-11730913D02*
G01*
X4244619Y-11794413D01*
X4301769Y-11758091D02*
G01*
X4356379Y-11758091D01*
X4356379Y-11748947D01*
X4351807Y-11740057D01*
X4347235Y-11735485D01*
X4338091Y-11730913D01*
X4324629Y-11730913D01*
X4315485Y-11735485D01*
X4306341Y-11744629D01*
X4301769Y-11758091D01*
X4301769Y-11767235D01*
X4306341Y-11780951D01*
X4315485Y-11790095D01*
X4324629Y-11794413D01*
X4338091Y-11794413D01*
X4347235Y-11790095D01*
X4356379Y-11780951D01*
X4386351Y-11699163D02*
G01*
X4386351Y-11794413D01*
X4416323Y-11699163D02*
G01*
X4416323Y-11794413D01*
X4446295Y-11699163D02*
G01*
X4450867Y-11703735D01*
X4455439Y-11699163D01*
X4450867Y-11694591D01*
X4446295Y-11699163D01*
X4450867Y-11730913D02*
G01*
X4450867Y-11794413D01*
X4555515Y-11758091D02*
G01*
X4609871Y-11758091D01*
X4609871Y-11748947D01*
X4605553Y-11740057D01*
X4600981Y-11735485D01*
X4591837Y-11730913D01*
X4578121Y-11730913D01*
X4568977Y-11735485D01*
X4560087Y-11744629D01*
X4555515Y-11758091D01*
X4555515Y-11767235D01*
X4560087Y-11780951D01*
X4568977Y-11790095D01*
X4578121Y-11794413D01*
X4591837Y-11794413D01*
X4600981Y-11790095D01*
X4609871Y-11780951D01*
X2329967Y-11900585D02*
G01*
X2329967Y-11996089D01*
X2329967Y-11996089D02*
G01*
X2384577Y-11996089D01*
X2469159Y-11932589D02*
G01*
X2469159Y-11996089D01*
X2469159Y-11946051D02*
G01*
X2460015Y-11936907D01*
X2450871Y-11932589D01*
X2437155Y-11932589D01*
X2428265Y-11936907D01*
X2419121Y-11946051D01*
X2414549Y-11959767D01*
X2414549Y-11968911D01*
X2419121Y-11982373D01*
X2428265Y-11991517D01*
X2437155Y-11996089D01*
X2450871Y-11996089D01*
X2460015Y-11991517D01*
X2469159Y-11982373D01*
X2499131Y-11900585D02*
G01*
X2499131Y-11996089D01*
X2499131Y-11946051D02*
G01*
X2508275Y-11936907D01*
X2517165Y-11932589D01*
X2530881Y-11932589D01*
X2540025Y-11936907D01*
X2549169Y-11946051D01*
X2553741Y-11959767D01*
X2553741Y-11968911D01*
X2549169Y-11982373D01*
X2540025Y-11991517D01*
X2530881Y-11996089D01*
X2517165Y-11996089D01*
X2508275Y-11991517D01*
X2499131Y-11982373D01*
X2653563Y-11900585D02*
G01*
X2653563Y-11996089D01*
X2653563Y-11900585D02*
G01*
X2689885Y-11996089D01*
X2726461Y-11900585D02*
G01*
X2689885Y-11996089D01*
X2726461Y-11900585D02*
G01*
X2726461Y-11996089D01*
X2810789Y-11932589D02*
G01*
X2810789Y-11996089D01*
X2810789Y-11946051D02*
G01*
X2801899Y-11936907D01*
X2792755Y-11932589D01*
X2779039Y-11932589D01*
X2769895Y-11936907D01*
X2761005Y-11946051D01*
X2756433Y-11959767D01*
X2756433Y-11968911D01*
X2761005Y-11982373D01*
X2769895Y-11991517D01*
X2779039Y-11996089D01*
X2792755Y-11996089D01*
X2801899Y-11991517D01*
X2810789Y-11982373D01*
X2841015Y-11900585D02*
G01*
X2841015Y-11996089D01*
X2886481Y-11932589D02*
G01*
X2841015Y-11978055D01*
X2859049Y-11959767D02*
G01*
X2890799Y-11996089D01*
X2921025Y-11959767D02*
G01*
X2975381Y-11959767D01*
X2975381Y-11950623D01*
X2970809Y-11941479D01*
X2966237Y-11936907D01*
X2957347Y-11932589D01*
X2943631Y-11932589D01*
X2934487Y-11936907D01*
X2925343Y-11946051D01*
X2921025Y-11959767D01*
X2921025Y-11968911D01*
X2925343Y-11982373D01*
X2934487Y-11991517D01*
X2943631Y-11996089D01*
X2957347Y-11996089D01*
X2966237Y-11991517D01*
X2975381Y-11982373D01*
X3005353Y-11932589D02*
G01*
X3005353Y-11996089D01*
X3005353Y-11959767D02*
G01*
X3009925Y-11946051D01*
X3019069Y-11936907D01*
X3028213Y-11932589D01*
X3041929Y-11932589D01*
X3141751Y-11900585D02*
G01*
X3141751Y-11996089D01*
X3208299Y-11900585D02*
G01*
X3199155Y-11900585D01*
X3190011Y-11905157D01*
X3185439Y-11918873D01*
X3185439Y-11996089D01*
X3171723Y-11932589D02*
G01*
X3203727Y-11932589D01*
X3238271Y-11959767D02*
G01*
X3292627Y-11959767D01*
X3292627Y-11950623D01*
X3288055Y-11941479D01*
X3283737Y-11936907D01*
X3274593Y-11932589D01*
X3260877Y-11932589D01*
X3251733Y-11936907D01*
X3242843Y-11946051D01*
X3238271Y-11959767D01*
X3238271Y-11968911D01*
X3242843Y-11982373D01*
X3251733Y-11991517D01*
X3260877Y-11996089D01*
X3274593Y-11996089D01*
X3283737Y-11991517D01*
X3292627Y-11982373D01*
X3372637Y-11946051D02*
G01*
X3368065Y-11936907D01*
X3354603Y-11932589D01*
X3340887Y-11932589D01*
X3327171Y-11936907D01*
X3322599Y-11946051D01*
X3327171Y-11955195D01*
X3336315Y-11959767D01*
X3359175Y-11964339D01*
X3368065Y-11968911D01*
X3372637Y-11978055D01*
X3372637Y-11982373D01*
X3368065Y-11991517D01*
X3354603Y-11996089D01*
X3340887Y-11996089D01*
X3327171Y-11991517D01*
X3322599Y-11982373D01*
X3536467Y-11914301D02*
G01*
X3527323Y-11905157D01*
X3513607Y-11900585D01*
X3495573Y-11900585D01*
X3481857Y-11905157D01*
X3472713Y-11914301D01*
X3472713Y-11923445D01*
X3477285Y-11932589D01*
X3481857Y-11936907D01*
X3491001Y-11941479D01*
X3518179Y-11950623D01*
X3527323Y-11955195D01*
X3531895Y-11959767D01*
X3536467Y-11968911D01*
X3536467Y-11982373D01*
X3527323Y-11991517D01*
X3513607Y-11996089D01*
X3495573Y-11996089D01*
X3481857Y-11991517D01*
X3472713Y-11982373D01*
X3566439Y-11959767D02*
G01*
X3620795Y-11959767D01*
X3620795Y-11950623D01*
X3616477Y-11941479D01*
X3611905Y-11936907D01*
X3602761Y-11932589D01*
X3589045Y-11932589D01*
X3579901Y-11936907D01*
X3571011Y-11946051D01*
X3566439Y-11959767D01*
X3566439Y-11968911D01*
X3571011Y-11982373D01*
X3579901Y-11991517D01*
X3589045Y-11996089D01*
X3602761Y-11996089D01*
X3611905Y-11991517D01*
X3620795Y-11982373D01*
X3651021Y-11932589D02*
G01*
X3651021Y-11996089D01*
X3651021Y-11959767D02*
G01*
X3655339Y-11946051D01*
X3664483Y-11936907D01*
X3673627Y-11932589D01*
X3687343Y-11932589D01*
X3717315Y-11932589D02*
G01*
X3717315Y-11996089D01*
X3717315Y-11959767D02*
G01*
X3721887Y-11946051D01*
X3730777Y-11936907D01*
X3739921Y-11932589D01*
X3753637Y-11932589D01*
X3838219Y-11932589D02*
G01*
X3838219Y-11996089D01*
X3838219Y-11946051D02*
G01*
X3829075Y-11936907D01*
X3819931Y-11932589D01*
X3806469Y-11932589D01*
X3797325Y-11936907D01*
X3788181Y-11946051D01*
X3783609Y-11959767D01*
X3783609Y-11968911D01*
X3788181Y-11982373D01*
X3797325Y-11991517D01*
X3806469Y-11996089D01*
X3819931Y-11996089D01*
X3829075Y-11991517D01*
X3838219Y-11982373D01*
X299237Y-3200019D02*
G01*
X394741Y-3200019D01*
X299237Y-3200019D02*
G01*
X299237Y-3159125D01*
X303809Y-3145409D01*
X308381Y-3140837D01*
X317525Y-3136264D01*
X326669Y-3136264D01*
X335559Y-3140837D01*
X340131Y-3145409D01*
X344703Y-3159125D01*
X344703Y-3200019D01*
X344703Y-3168014D02*
G01*
X394741Y-3136264D01*
X299237Y-3106293D02*
G01*
X394741Y-3106293D01*
X299237Y-3106293D02*
G01*
X299237Y-3065398D01*
X303809Y-3051682D01*
X308381Y-3047111D01*
X317525Y-3042793D01*
X330987Y-3042793D01*
X340131Y-3047111D01*
X344703Y-3051682D01*
X349275Y-3065398D01*
X349275Y-3106293D01*
X322097Y-3008248D02*
G01*
X317525Y-3008248D01*
X308381Y-3003677D01*
X303809Y-2999104D01*
X299237Y-2989961D01*
X299237Y-2971672D01*
X303809Y-2962782D01*
X308381Y-2958211D01*
X317525Y-2953638D01*
X326669Y-2953638D01*
X335559Y-2958211D01*
X349275Y-2967101D01*
X394741Y-3012567D01*
X394741Y-2949067D01*
X299237Y-2891662D02*
G01*
X303809Y-2905379D01*
X317525Y-2914522D01*
X340131Y-2919095D01*
X353847Y-2919095D01*
X376453Y-2914522D01*
X390169Y-2905379D01*
X394741Y-2891662D01*
X394741Y-2882772D01*
X390169Y-2869056D01*
X376453Y-2859912D01*
X353847Y-2855340D01*
X340131Y-2855340D01*
X317525Y-2859912D01*
X303809Y-2869056D01*
X299237Y-2882772D01*
X299237Y-2891662D01*
X299237Y-2779903D02*
G01*
X362991Y-2825369D01*
X362991Y-2757296D01*
X299237Y-2779903D02*
G01*
X394741Y-2779903D01*
X299237Y-2699893D02*
G01*
X303809Y-2713609D01*
X317525Y-2722753D01*
X340131Y-2727325D01*
X353847Y-2727325D01*
X376453Y-2722753D01*
X390169Y-2713609D01*
X394741Y-2699893D01*
X394741Y-2690748D01*
X390169Y-2677287D01*
X376453Y-2668143D01*
X353847Y-2663570D01*
X340131Y-2663570D01*
X317525Y-2668143D01*
X303809Y-2677287D01*
X299237Y-2690748D01*
X299237Y-2699893D01*
X299237Y-2499995D02*
G01*
X394741Y-2563495D01*
X299237Y-2563495D02*
G01*
X299237Y-2499995D01*
X394741Y-2563495D02*
G01*
X394741Y-2499995D01*
X299237Y-2470022D02*
G01*
X394741Y-2470022D01*
X299237Y-2470022D02*
G01*
X299237Y-2410840D01*
X344703Y-2470022D02*
G01*
X344703Y-2433701D01*
X394741Y-2470022D02*
G01*
X394741Y-2410840D01*
X299237Y-2380869D02*
G01*
X394741Y-2380869D01*
X299237Y-2380869D02*
G01*
X299237Y-2339975D01*
X303809Y-2326259D01*
X308381Y-2321687D01*
X317525Y-2317114D01*
X326669Y-2317114D01*
X335559Y-2321687D01*
X340131Y-2326259D01*
X344703Y-2339975D01*
X344703Y-2380869D01*
X344703Y-2349119D02*
G01*
X394741Y-2317114D01*
X299237Y-2259964D02*
G01*
X303809Y-2269109D01*
X312953Y-2278253D01*
X322097Y-2282570D01*
X335559Y-2287143D01*
X358419Y-2287143D01*
X372135Y-2282570D01*
X381025Y-2278253D01*
X390169Y-2269109D01*
X394741Y-2259964D01*
X394741Y-2241677D01*
X390169Y-2232787D01*
X381025Y-2223643D01*
X372135Y-2219070D01*
X358419Y-2214498D01*
X335559Y-2214498D01*
X322097Y-2219070D01*
X312953Y-2223643D01*
X303809Y-2232787D01*
X299237Y-2241677D01*
X299237Y-2259964D01*
X281203Y-2114422D02*
G01*
X426491Y-2114422D01*
X312953Y-1950846D02*
G01*
X303809Y-1959990D01*
X299237Y-1973706D01*
X299237Y-1991740D01*
X303809Y-2005456D01*
X312953Y-2014601D01*
X322097Y-2014601D01*
X330987Y-2010029D01*
X335559Y-2005456D01*
X340131Y-1996312D01*
X349275Y-1969135D01*
X353847Y-1959990D01*
X358419Y-1955419D01*
X367563Y-1950846D01*
X381025Y-1950846D01*
X390169Y-1959990D01*
X394741Y-1973706D01*
X394741Y-1991740D01*
X390169Y-2005456D01*
X381025Y-2014601D01*
X299237Y-1920875D02*
G01*
X394741Y-1898014D01*
X299237Y-1875409D02*
G01*
X394741Y-1898014D01*
X299237Y-1875409D02*
G01*
X394741Y-1852548D01*
X299237Y-1829943D02*
G01*
X394741Y-1852548D01*
X299237Y-1799970D02*
G01*
X394741Y-1799970D01*
X299237Y-1738248D02*
G01*
X394741Y-1738248D01*
X299237Y-1769998D02*
G01*
X299237Y-1706245D01*
X322097Y-1608201D02*
G01*
X312953Y-1612772D01*
X303809Y-1621662D01*
X299237Y-1630806D01*
X299237Y-1649095D01*
X303809Y-1658238D01*
X312953Y-1667129D01*
X322097Y-1671701D01*
X335559Y-1676272D01*
X358419Y-1676272D01*
X372135Y-1671701D01*
X381025Y-1667129D01*
X390169Y-1658238D01*
X394741Y-1649095D01*
X394741Y-1630806D01*
X390169Y-1621662D01*
X381025Y-1612772D01*
X372135Y-1608201D01*
X299237Y-1578229D02*
G01*
X394741Y-1578229D01*
X299237Y-1514475D02*
G01*
X394741Y-1514475D01*
X344703Y-1578229D02*
G01*
X344703Y-1514475D01*
X299237Y-1414398D02*
G01*
X394741Y-1414398D01*
X299237Y-1414398D02*
G01*
X299237Y-1373504D01*
X303809Y-1360043D01*
X308381Y-1355470D01*
X317525Y-1350898D01*
X326669Y-1350898D01*
X335559Y-1355470D01*
X340131Y-1360043D01*
X344703Y-1373504D01*
X344703Y-1414398D02*
G01*
X344703Y-1373504D01*
X349275Y-1360043D01*
X353847Y-1355470D01*
X362991Y-1350898D01*
X376453Y-1350898D01*
X385597Y-1355470D01*
X390169Y-1360043D01*
X394741Y-1373504D01*
X394741Y-1414398D01*
X299237Y-1320927D02*
G01*
X394741Y-1320927D01*
X299237Y-1320927D02*
G01*
X299237Y-1280032D01*
X303809Y-1266317D01*
X308381Y-1261745D01*
X317525Y-1257172D01*
X326669Y-1257172D01*
X335559Y-1261745D01*
X340131Y-1266317D01*
X344703Y-1280032D01*
X344703Y-1320927D01*
X344703Y-1288922D02*
G01*
X394741Y-1257172D01*
X299237Y-1200022D02*
G01*
X303809Y-1208912D01*
X312953Y-1218056D01*
X322097Y-1222629D01*
X335559Y-1227201D01*
X358419Y-1227201D01*
X372135Y-1222629D01*
X381025Y-1218056D01*
X390169Y-1208912D01*
X394741Y-1200022D01*
X394741Y-1181735D01*
X390169Y-1172590D01*
X381025Y-1163701D01*
X372135Y-1159129D01*
X358419Y-1154556D01*
X335559Y-1154556D01*
X322097Y-1159129D01*
X312953Y-1163701D01*
X303809Y-1172590D01*
X299237Y-1181735D01*
X299237Y-1200022D01*
X299237Y-1124585D02*
G01*
X394741Y-1101725D01*
X299237Y-1079119D02*
G01*
X394741Y-1101725D01*
X299237Y-1079119D02*
G01*
X394741Y-1056259D01*
X299237Y-1033653D02*
G01*
X394741Y-1056259D01*
X299237Y-1003680D02*
G01*
X394741Y-1003680D01*
X299237Y-1003680D02*
G01*
X394741Y-939927D01*
X299237Y-939927D02*
G01*
X394741Y-939927D01*
D12*
X4011358Y-2374757D02*
G01*
X4000944Y-2364343D01*
X3985450Y-2359263D01*
X3964622Y-2359263D01*
X3949128Y-2364343D01*
X3938714Y-2374757D01*
X3938714Y-2385171D01*
X3943794Y-2395585D01*
X3949128Y-2400919D01*
X3959542Y-2405999D01*
X3990784Y-2416413D01*
X4000944Y-2421493D01*
X4006278Y-2426827D01*
X4011358Y-2437241D01*
X4011358Y-2452735D01*
X4000944Y-2463149D01*
X3985450Y-2468229D01*
X3964622Y-2468229D01*
X3949128Y-2463149D01*
X3938714Y-2452735D01*
X4045648Y-2359263D02*
G01*
X4071810Y-2468229D01*
X4097718Y-2359263D02*
G01*
X4071810Y-2468229D01*
X4097718Y-2359263D02*
G01*
X4123626Y-2468229D01*
X4149534Y-2359263D02*
G01*
X4123626Y-2468229D01*
X4183824Y-2380091D02*
G01*
X4194238Y-2374757D01*
X4209986Y-2359263D01*
X4209986Y-2468229D01*
X4254690Y-2359263D02*
G01*
X4311840Y-2359263D01*
X4280598Y-2400919D01*
X4296092Y-2400919D01*
X4306506Y-2405999D01*
X4311840Y-2411079D01*
X4316920Y-2426827D01*
X4316920Y-2437241D01*
X4311840Y-2452735D01*
X4301426Y-2463149D01*
X4285678Y-2468229D01*
X4270184Y-2468229D01*
X4254690Y-2463149D01*
X4249356Y-2458069D01*
X4244276Y-2447655D01*
X1180998Y-9332264D02*
G01*
X1180998Y-9441230D01*
X1180998Y-9332264D02*
G01*
X1217320Y-9332264D01*
X1233068Y-9337344D01*
X1243228Y-9347758D01*
X1248562Y-9358172D01*
X1253642Y-9373920D01*
X1253642Y-9399828D01*
X1248562Y-9415322D01*
X1243228Y-9425736D01*
X1233068Y-9436150D01*
X1217320Y-9441230D01*
X1180998Y-9441230D01*
X1287932Y-9353092D02*
G01*
X1298346Y-9347758D01*
X1314094Y-9332264D01*
X1314094Y-9441230D01*
X2980994Y-9332264D02*
G01*
X2980994Y-9441230D01*
X2980994Y-9332264D02*
G01*
X3017316Y-9332264D01*
X3033064Y-9337344D01*
X3043224Y-9347758D01*
X3048558Y-9358172D01*
X3053638Y-9373920D01*
X3053638Y-9399828D01*
X3048558Y-9415322D01*
X3043224Y-9425736D01*
X3033064Y-9436150D01*
X3017316Y-9441230D01*
X2980994Y-9441230D01*
X3093262Y-9358172D02*
G01*
X3093262Y-9353092D01*
X3098342Y-9342678D01*
X3103676Y-9337344D01*
X3114090Y-9332264D01*
X3134664Y-9332264D01*
X3145078Y-9337344D01*
X3150412Y-9342678D01*
X3155492Y-9353092D01*
X3155492Y-9363506D01*
X3150412Y-9373920D01*
X3139998Y-9389414D01*
X3087928Y-9441230D01*
X3160826Y-9441230D01*
X4780991Y-9332264D02*
G01*
X4780991Y-9441230D01*
X4780991Y-9332264D02*
G01*
X4817313Y-9332264D01*
X4833061Y-9337344D01*
X4843221Y-9347758D01*
X4848555Y-9358172D01*
X4853635Y-9373920D01*
X4853635Y-9399828D01*
X4848555Y-9415322D01*
X4843221Y-9425736D01*
X4833061Y-9436150D01*
X4817313Y-9441230D01*
X4780991Y-9441230D01*
X4898339Y-9332264D02*
G01*
X4955489Y-9332264D01*
X4924501Y-9373920D01*
X4939995Y-9373920D01*
X4950409Y-9379000D01*
X4955489Y-9384080D01*
X4960823Y-9399828D01*
X4960823Y-9410242D01*
X4955489Y-9425736D01*
X4945075Y-9436150D01*
X4929581Y-9441230D01*
X4914087Y-9441230D01*
X4898339Y-9436150D01*
X4893259Y-9431070D01*
X4887925Y-9420656D01*
X1180998Y-7232269D02*
G01*
X1180998Y-7341235D01*
X1180998Y-7232269D02*
G01*
X1217320Y-7232269D01*
X1233068Y-7237348D01*
X1243228Y-7247762D01*
X1248562Y-7258177D01*
X1253642Y-7273925D01*
X1253642Y-7299833D01*
X1248562Y-7315327D01*
X1243228Y-7325740D01*
X1233068Y-7336154D01*
X1217320Y-7341235D01*
X1180998Y-7341235D01*
X1340002Y-7232269D02*
G01*
X1287932Y-7304912D01*
X1365910Y-7304912D01*
X1340002Y-7232269D02*
G01*
X1340002Y-7341235D01*
X2980994Y-7232269D02*
G01*
X2980994Y-7341235D01*
X2980994Y-7232269D02*
G01*
X3017316Y-7232269D01*
X3033064Y-7237348D01*
X3043224Y-7247762D01*
X3048558Y-7258177D01*
X3053638Y-7273925D01*
X3053638Y-7299833D01*
X3048558Y-7315327D01*
X3043224Y-7325740D01*
X3033064Y-7336154D01*
X3017316Y-7341235D01*
X2980994Y-7341235D01*
X3150412Y-7232269D02*
G01*
X3098342Y-7232269D01*
X3093262Y-7279004D01*
X3098342Y-7273925D01*
X3114090Y-7268590D01*
X3129584Y-7268590D01*
X3145078Y-7273925D01*
X3155492Y-7284085D01*
X3160826Y-7299833D01*
X3160826Y-7310246D01*
X3155492Y-7325740D01*
X3145078Y-7336154D01*
X3129584Y-7341235D01*
X3114090Y-7341235D01*
X3098342Y-7336154D01*
X3093262Y-7331075D01*
X3087928Y-7320661D01*
X4780991Y-7232269D02*
G01*
X4780991Y-7341235D01*
X4780991Y-7232269D02*
G01*
X4817313Y-7232269D01*
X4833061Y-7237348D01*
X4843221Y-7247762D01*
X4848555Y-7258177D01*
X4853635Y-7273925D01*
X4853635Y-7299833D01*
X4848555Y-7315327D01*
X4843221Y-7325740D01*
X4833061Y-7336154D01*
X4817313Y-7341235D01*
X4780991Y-7341235D01*
X4950409Y-7247762D02*
G01*
X4945075Y-7237348D01*
X4929581Y-7232269D01*
X4919167Y-7232269D01*
X4903673Y-7237348D01*
X4893259Y-7253096D01*
X4887925Y-7279004D01*
X4887925Y-7304912D01*
X4893259Y-7325740D01*
X4903673Y-7336154D01*
X4919167Y-7341235D01*
X4924501Y-7341235D01*
X4939995Y-7336154D01*
X4950409Y-7325740D01*
X4955489Y-7310246D01*
X4955489Y-7304912D01*
X4950409Y-7289419D01*
X4939995Y-7279004D01*
X4924501Y-7273925D01*
X4919167Y-7273925D01*
X4903673Y-7279004D01*
X4893259Y-7289419D01*
X4887925Y-7304912D01*
X1180998Y-5132273D02*
G01*
X1180998Y-5241239D01*
X1180998Y-5132273D02*
G01*
X1217320Y-5132273D01*
X1233068Y-5137353D01*
X1243228Y-5147767D01*
X1248562Y-5158181D01*
X1253642Y-5173929D01*
X1253642Y-5199837D01*
X1248562Y-5215331D01*
X1243228Y-5225745D01*
X1233068Y-5236159D01*
X1217320Y-5241239D01*
X1180998Y-5241239D01*
X1360830Y-5132273D02*
G01*
X1308760Y-5241239D01*
X1287932Y-5132273D02*
G01*
X1360830Y-5132273D01*
X2980994Y-5132273D02*
G01*
X2980994Y-5241239D01*
X2980994Y-5132273D02*
G01*
X3017316Y-5132273D01*
X3033064Y-5137353D01*
X3043224Y-5147767D01*
X3048558Y-5158181D01*
X3053638Y-5173929D01*
X3053638Y-5199837D01*
X3048558Y-5215331D01*
X3043224Y-5225745D01*
X3033064Y-5236159D01*
X3017316Y-5241239D01*
X2980994Y-5241239D01*
X3114090Y-5132273D02*
G01*
X3098342Y-5137353D01*
X3093262Y-5147767D01*
X3093262Y-5158181D01*
X3098342Y-5168595D01*
X3108756Y-5173929D01*
X3129584Y-5179009D01*
X3145078Y-5184089D01*
X3155492Y-5194503D01*
X3160826Y-5204917D01*
X3160826Y-5220665D01*
X3155492Y-5231079D01*
X3150412Y-5236159D01*
X3134664Y-5241239D01*
X3114090Y-5241239D01*
X3098342Y-5236159D01*
X3093262Y-5231079D01*
X3087928Y-5220665D01*
X3087928Y-5204917D01*
X3093262Y-5194503D01*
X3103676Y-5184089D01*
X3119170Y-5179009D01*
X3139998Y-5173929D01*
X3150412Y-5168595D01*
X3155492Y-5158181D01*
X3155492Y-5147767D01*
X3150412Y-5137353D01*
X3134664Y-5132273D01*
X3114090Y-5132273D01*
X4780991Y-5132273D02*
G01*
X4780991Y-5241239D01*
X4780991Y-5132273D02*
G01*
X4817313Y-5132273D01*
X4833061Y-5137353D01*
X4843221Y-5147767D01*
X4848555Y-5158181D01*
X4853635Y-5173929D01*
X4853635Y-5199837D01*
X4848555Y-5215331D01*
X4843221Y-5225745D01*
X4833061Y-5236159D01*
X4817313Y-5241239D01*
X4780991Y-5241239D01*
X4955489Y-5168595D02*
G01*
X4950409Y-5184089D01*
X4939995Y-5194503D01*
X4924501Y-5199837D01*
X4919167Y-5199837D01*
X4903673Y-5194503D01*
X4893259Y-5184089D01*
X4887925Y-5168595D01*
X4887925Y-5163515D01*
X4893259Y-5147767D01*
X4903673Y-5137353D01*
X4919167Y-5132273D01*
X4924501Y-5132273D01*
X4939995Y-5137353D01*
X4950409Y-5147767D01*
X4955489Y-5168595D01*
X4955489Y-5194503D01*
X4950409Y-5220665D01*
X4939995Y-5236159D01*
X4924501Y-5241239D01*
X4914087Y-5241239D01*
X4898339Y-5236159D01*
X4893259Y-5225745D01*
X1180998Y-3132277D02*
G01*
X1180998Y-3241243D01*
X1180998Y-3132277D02*
G01*
X1217320Y-3132277D01*
X1233068Y-3137357D01*
X1243228Y-3147771D01*
X1248562Y-3158185D01*
X1253642Y-3173933D01*
X1253642Y-3199841D01*
X1248562Y-3215335D01*
X1243228Y-3225749D01*
X1233068Y-3236163D01*
X1217320Y-3241243D01*
X1180998Y-3241243D01*
X1287932Y-3153105D02*
G01*
X1298346Y-3147771D01*
X1314094Y-3132277D01*
X1314094Y-3241243D01*
X1379372Y-3132277D02*
G01*
X1363878Y-3137357D01*
X1353464Y-3153105D01*
X1348384Y-3179013D01*
X1348384Y-3194507D01*
X1353464Y-3220669D01*
X1363878Y-3236163D01*
X1379372Y-3241243D01*
X1389786Y-3241243D01*
X1405534Y-3236163D01*
X1415948Y-3220669D01*
X1421028Y-3194507D01*
X1421028Y-3179013D01*
X1415948Y-3153105D01*
X1405534Y-3137357D01*
X1389786Y-3132277D01*
X1379372Y-3132277D01*
X2980994Y-3032277D02*
G01*
X2980994Y-3141243D01*
X2980994Y-3032277D02*
G01*
X3017316Y-3032277D01*
X3033064Y-3037357D01*
X3043224Y-3047771D01*
X3048558Y-3058185D01*
X3053638Y-3073933D01*
X3053638Y-3099841D01*
X3048558Y-3115335D01*
X3043224Y-3125749D01*
X3033064Y-3136163D01*
X3017316Y-3141243D01*
X2980994Y-3141243D01*
X3087928Y-3053105D02*
G01*
X3098342Y-3047771D01*
X3114090Y-3032277D01*
X3114090Y-3141243D01*
X3148380Y-3053105D02*
G01*
X3158794Y-3047771D01*
X3174288Y-3032277D01*
X3174288Y-3141243D01*
X4780991Y-3132277D02*
G01*
X4780991Y-3241243D01*
X4780991Y-3132277D02*
G01*
X4817313Y-3132277D01*
X4833061Y-3137357D01*
X4843221Y-3147771D01*
X4848555Y-3158185D01*
X4853635Y-3173933D01*
X4853635Y-3199841D01*
X4848555Y-3215335D01*
X4843221Y-3225749D01*
X4833061Y-3236163D01*
X4817313Y-3241243D01*
X4780991Y-3241243D01*
X4887925Y-3153105D02*
G01*
X4898339Y-3147771D01*
X4914087Y-3132277D01*
X4914087Y-3241243D01*
X4953457Y-3158185D02*
G01*
X4953457Y-3153105D01*
X4958791Y-3142691D01*
X4963871Y-3137357D01*
X4974285Y-3132277D01*
X4995113Y-3132277D01*
X5005527Y-3137357D01*
X5010607Y-3142691D01*
X5015941Y-3153105D01*
X5015941Y-3163519D01*
X5010607Y-3173933D01*
X5000193Y-3189427D01*
X4948377Y-3241243D01*
X5021021Y-3241243D01*
X799972Y-384530D02*
G01*
X799972Y-462508D01*
X805306Y-478256D01*
X815467Y-488670D01*
X831214Y-493750D01*
X841629Y-493750D01*
X857122Y-488670D01*
X867537Y-478256D01*
X872617Y-462508D01*
X872617Y-384530D01*
X906906Y-405358D02*
G01*
X917320Y-400278D01*
X933069Y-384530D01*
X933069Y-493750D01*
D13*
X1396756Y-684773D02*
G01*
X1396756Y-752845D01*
X1401328Y-766561D01*
X1410472Y-775705D01*
X1423934Y-780277D01*
X1433078Y-780277D01*
X1446794Y-775705D01*
X1455938Y-766561D01*
X1460510Y-752845D01*
X1460510Y-684773D01*
X1553982Y-698235D02*
G01*
X1544838Y-689345D01*
X1531376Y-684773D01*
X1513088Y-684773D01*
X1499626Y-689345D01*
X1490482Y-698235D01*
X1490482Y-707379D01*
X1495054Y-716523D01*
X1499626Y-721095D01*
X1508516Y-725667D01*
X1535948Y-734811D01*
X1544838Y-739129D01*
X1549410Y-743701D01*
X1553982Y-752845D01*
X1553982Y-766561D01*
X1544838Y-775705D01*
X1531376Y-780277D01*
X1513088Y-780277D01*
X1499626Y-775705D01*
X1490482Y-766561D01*
X1583954Y-684773D02*
G01*
X1583954Y-780277D01*
X1583954Y-684773D02*
G01*
X1624848Y-684773D01*
X1638564Y-689345D01*
X1643136Y-693917D01*
X1647708Y-702807D01*
X1647708Y-711951D01*
X1643136Y-721095D01*
X1638564Y-725667D01*
X1624848Y-730239D01*
X1583954Y-730239D02*
G01*
X1624848Y-730239D01*
X1638564Y-734811D01*
X1643136Y-739129D01*
X1647708Y-748273D01*
X1647708Y-761989D01*
X1643136Y-771133D01*
X1638564Y-775705D01*
X1624848Y-780277D01*
X1583954Y-780277D01*
X1677680Y-739129D02*
G01*
X1759468Y-739129D01*
X1857766Y-707379D02*
G01*
X1853194Y-698235D01*
X1844050Y-689345D01*
X1834906Y-684773D01*
X1816872Y-684773D01*
X1807728Y-689345D01*
X1798584Y-698235D01*
X1794012Y-707379D01*
X1789440Y-721095D01*
X1789440Y-743701D01*
X1794012Y-757417D01*
X1798584Y-766561D01*
X1807728Y-775705D01*
X1816872Y-780277D01*
X1834906Y-780277D01*
X1844050Y-775705D01*
X1853194Y-766561D01*
X1857766Y-757417D01*
D12*
X1572869Y-3800297D02*
G01*
X1562455Y-3789883D01*
X1546707Y-3784549D01*
X1526133Y-3784549D01*
X1510385Y-3789883D01*
X1499971Y-3800297D01*
X1499971Y-3810711D01*
X1505305Y-3820871D01*
X1510385Y-3826205D01*
X1520799Y-3831285D01*
X1552041Y-3841699D01*
X1562455Y-3847033D01*
X1567535Y-3852113D01*
X1572869Y-3862527D01*
X1572869Y-3878021D01*
X1562455Y-3888435D01*
X1546707Y-3893769D01*
X1526133Y-3893769D01*
X1510385Y-3888435D01*
X1499971Y-3878021D01*
X1607159Y-3784549D02*
G01*
X1633067Y-3893769D01*
X1658975Y-3784549D02*
G01*
X1633067Y-3893769D01*
X1658975Y-3784549D02*
G01*
X1684883Y-3893769D01*
X1711045Y-3784549D02*
G01*
X1684883Y-3893769D01*
X1745335Y-3805377D02*
G01*
X1755749Y-3800297D01*
X1771243Y-3784549D01*
X1771243Y-3893769D01*
X1836775Y-3784549D02*
G01*
X1821027Y-3789883D01*
X1810613Y-3805377D01*
X1805533Y-3831285D01*
X1805533Y-3847033D01*
X1810613Y-3872941D01*
X1821027Y-3888435D01*
X1836775Y-3893769D01*
X1847189Y-3893769D01*
X1862683Y-3888435D01*
X1873097Y-3872941D01*
X1878177Y-3847033D01*
X1878177Y-3831285D01*
X1873097Y-3805377D01*
X1862683Y-3789883D01*
X1847189Y-3784549D01*
X1836775Y-3784549D01*
X5172608Y-3800297D02*
G01*
X5162448Y-3789883D01*
X5146700Y-3784549D01*
X5125872Y-3784549D01*
X5110378Y-3789883D01*
X5099964Y-3800297D01*
X5099964Y-3810711D01*
X5105298Y-3820871D01*
X5110378Y-3826205D01*
X5120792Y-3831285D01*
X5152034Y-3841699D01*
X5162448Y-3847033D01*
X5167528Y-3852113D01*
X5172608Y-3862527D01*
X5172608Y-3878021D01*
X5162448Y-3888435D01*
X5146700Y-3893769D01*
X5125872Y-3893769D01*
X5110378Y-3888435D01*
X5099964Y-3878021D01*
X5206898Y-3784549D02*
G01*
X5233060Y-3893769D01*
X5258968Y-3784549D02*
G01*
X5233060Y-3893769D01*
X5258968Y-3784549D02*
G01*
X5284876Y-3893769D01*
X5311038Y-3784549D02*
G01*
X5284876Y-3893769D01*
X5345328Y-3805377D02*
G01*
X5355488Y-3800297D01*
X5371236Y-3784549D01*
X5371236Y-3893769D01*
X5410606Y-3810711D02*
G01*
X5410606Y-3805377D01*
X5415940Y-3794963D01*
X5421020Y-3789883D01*
X5431434Y-3784549D01*
X5452262Y-3784549D01*
X5462676Y-3789883D01*
X5467756Y-3794963D01*
X5473090Y-3805377D01*
X5473090Y-3815791D01*
X5467756Y-3826205D01*
X5457342Y-3841699D01*
X5405526Y-3893769D01*
X5478170Y-3893769D01*
X3372535Y-3800195D02*
G01*
X3362121Y-3789781D01*
X3346627Y-3784701D01*
X3325799Y-3784701D01*
X3310305Y-3789781D01*
X3299891Y-3800195D01*
X3299891Y-3810609D01*
X3304971Y-3821023D01*
X3310305Y-3826357D01*
X3320719Y-3831437D01*
X3351961Y-3841851D01*
X3362121Y-3846931D01*
X3367455Y-3852265D01*
X3372535Y-3862679D01*
X3372535Y-3878173D01*
X3362121Y-3888587D01*
X3346627Y-3893667D01*
X3325799Y-3893667D01*
X3310305Y-3888587D01*
X3299891Y-3878173D01*
X3406825Y-3784701D02*
G01*
X3432987Y-3893667D01*
X3458895Y-3784701D02*
G01*
X3432987Y-3893667D01*
X3458895Y-3784701D02*
G01*
X3484803Y-3893667D01*
X3510711Y-3784701D02*
G01*
X3484803Y-3893667D01*
X3545001Y-3805529D02*
G01*
X3555415Y-3800195D01*
X3571163Y-3784701D01*
X3571163Y-3893667D01*
X3605453Y-3805529D02*
G01*
X3615867Y-3800195D01*
X3631361Y-3784701D01*
X3631361Y-3893667D01*
X1572666Y-10000284D02*
G01*
X1562252Y-9989870D01*
X1546758Y-9984536D01*
X1525930Y-9984536D01*
X1510182Y-9989870D01*
X1500022Y-10000284D01*
X1500022Y-10010698D01*
X1505102Y-10021112D01*
X1510182Y-10026192D01*
X1520596Y-10031526D01*
X1551838Y-10041686D01*
X1562252Y-10047020D01*
X1567332Y-10052100D01*
X1572666Y-10062514D01*
X1572666Y-10078262D01*
X1562252Y-10088676D01*
X1546758Y-10093756D01*
X1525930Y-10093756D01*
X1510182Y-10088676D01*
X1500022Y-10078262D01*
X1606956Y-9984536D02*
G01*
X1632864Y-10093756D01*
X1658772Y-9984536D02*
G01*
X1632864Y-10093756D01*
X1658772Y-9984536D02*
G01*
X1684934Y-10093756D01*
X1710842Y-9984536D02*
G01*
X1684934Y-10093756D01*
X1745132Y-10005364D02*
G01*
X1755546Y-10000284D01*
X1771040Y-9984536D01*
X1771040Y-10093756D01*
X3372510Y-10000284D02*
G01*
X3362350Y-9989870D01*
X3346602Y-9984536D01*
X3325774Y-9984536D01*
X3310280Y-9989870D01*
X3299866Y-10000284D01*
X3299866Y-10010698D01*
X3305200Y-10021112D01*
X3310280Y-10026192D01*
X3320694Y-10031526D01*
X3351936Y-10041686D01*
X3362350Y-10047020D01*
X3367430Y-10052100D01*
X3372510Y-10062514D01*
X3372510Y-10078262D01*
X3362350Y-10088676D01*
X3346602Y-10093756D01*
X3325774Y-10093756D01*
X3310280Y-10088676D01*
X3299866Y-10078262D01*
X3406800Y-9984536D02*
G01*
X3432962Y-10093756D01*
X3458870Y-9984536D02*
G01*
X3432962Y-10093756D01*
X3458870Y-9984536D02*
G01*
X3484778Y-10093756D01*
X3510940Y-9984536D02*
G01*
X3484778Y-10093756D01*
X3550310Y-10010698D02*
G01*
X3550310Y-10005364D01*
X3555390Y-9994950D01*
X3560724Y-9989870D01*
X3571138Y-9984536D01*
X3591966Y-9984536D01*
X3602380Y-9989870D01*
X3607460Y-9994950D01*
X3612540Y-10005364D01*
X3612540Y-10015778D01*
X3607460Y-10026192D01*
X3597046Y-10041686D01*
X3545230Y-10093756D01*
X3617874Y-10093756D01*
X5172608Y-10000284D02*
G01*
X5162194Y-9989870D01*
X5146700Y-9984536D01*
X5125872Y-9984536D01*
X5110378Y-9989870D01*
X5099964Y-10000284D01*
X5099964Y-10010698D01*
X5105044Y-10021112D01*
X5110378Y-10026192D01*
X5120792Y-10031526D01*
X5151780Y-10041686D01*
X5162194Y-10047020D01*
X5167528Y-10052100D01*
X5172608Y-10062514D01*
X5172608Y-10078262D01*
X5162194Y-10088676D01*
X5146700Y-10093756D01*
X5125872Y-10093756D01*
X5110378Y-10088676D01*
X5099964Y-10078262D01*
X5206898Y-9984536D02*
G01*
X5232806Y-10093756D01*
X5258968Y-9984536D02*
G01*
X5232806Y-10093756D01*
X5258968Y-9984536D02*
G01*
X5284876Y-10093756D01*
X5310784Y-9984536D02*
G01*
X5284876Y-10093756D01*
X5355488Y-9984536D02*
G01*
X5412638Y-9984536D01*
X5381396Y-10026192D01*
X5397144Y-10026192D01*
X5407558Y-10031526D01*
X5412638Y-10036606D01*
X5417972Y-10052100D01*
X5417972Y-10062514D01*
X5412638Y-10078262D01*
X5402224Y-10088676D01*
X5386730Y-10093756D01*
X5370982Y-10093756D01*
X5355488Y-10088676D01*
X5350408Y-10083342D01*
X5345074Y-10072928D01*
X1572666Y-7900212D02*
G01*
X1562252Y-7889798D01*
X1546758Y-7884718D01*
X1525930Y-7884718D01*
X1510182Y-7889798D01*
X1500022Y-7900212D01*
X1500022Y-7910626D01*
X1505102Y-7921040D01*
X1510182Y-7926120D01*
X1520596Y-7931454D01*
X1551838Y-7941868D01*
X1562252Y-7946948D01*
X1567332Y-7952282D01*
X1572666Y-7962696D01*
X1572666Y-7978190D01*
X1562252Y-7988604D01*
X1546758Y-7993684D01*
X1525930Y-7993684D01*
X1510182Y-7988604D01*
X1500022Y-7978190D01*
X1606956Y-7884718D02*
G01*
X1632864Y-7993684D01*
X1658772Y-7884718D02*
G01*
X1632864Y-7993684D01*
X1658772Y-7884718D02*
G01*
X1684934Y-7993684D01*
X1710842Y-7884718D02*
G01*
X1684934Y-7993684D01*
X1797202Y-7884718D02*
G01*
X1745132Y-7957362D01*
X1823110Y-7957362D01*
X1797202Y-7884718D02*
G01*
X1797202Y-7993684D01*
X3372510Y-7900212D02*
G01*
X3362350Y-7889798D01*
X3346602Y-7884718D01*
X3325774Y-7884718D01*
X3310280Y-7889798D01*
X3299866Y-7900212D01*
X3299866Y-7910626D01*
X3305200Y-7921040D01*
X3310280Y-7926120D01*
X3320694Y-7931454D01*
X3351936Y-7941868D01*
X3362350Y-7946948D01*
X3367430Y-7952282D01*
X3372510Y-7962696D01*
X3372510Y-7978190D01*
X3362350Y-7988604D01*
X3346602Y-7993684D01*
X3325774Y-7993684D01*
X3310280Y-7988604D01*
X3299866Y-7978190D01*
X3406800Y-7884718D02*
G01*
X3432962Y-7993684D01*
X3458870Y-7884718D02*
G01*
X3432962Y-7993684D01*
X3458870Y-7884718D02*
G01*
X3484778Y-7993684D01*
X3510940Y-7884718D02*
G01*
X3484778Y-7993684D01*
X3607460Y-7884718D02*
G01*
X3555390Y-7884718D01*
X3550310Y-7931454D01*
X3555390Y-7926120D01*
X3571138Y-7921040D01*
X3586632Y-7921040D01*
X3602380Y-7926120D01*
X3612540Y-7936534D01*
X3617874Y-7952282D01*
X3617874Y-7962696D01*
X3612540Y-7978190D01*
X3602380Y-7988604D01*
X3586632Y-7993684D01*
X3571138Y-7993684D01*
X3555390Y-7988604D01*
X3550310Y-7983270D01*
X3545230Y-7973110D01*
X5172608Y-7900212D02*
G01*
X5162194Y-7889798D01*
X5146700Y-7884718D01*
X5125872Y-7884718D01*
X5110378Y-7889798D01*
X5099964Y-7900212D01*
X5099964Y-7910626D01*
X5105044Y-7921040D01*
X5110378Y-7926120D01*
X5120792Y-7931454D01*
X5151780Y-7941868D01*
X5162194Y-7946948D01*
X5167528Y-7952282D01*
X5172608Y-7962696D01*
X5172608Y-7978190D01*
X5162194Y-7988604D01*
X5146700Y-7993684D01*
X5125872Y-7993684D01*
X5110378Y-7988604D01*
X5099964Y-7978190D01*
X5206898Y-7884718D02*
G01*
X5232806Y-7993684D01*
X5258968Y-7884718D02*
G01*
X5232806Y-7993684D01*
X5258968Y-7884718D02*
G01*
X5284876Y-7993684D01*
X5310784Y-7884718D02*
G01*
X5284876Y-7993684D01*
X5407558Y-7900212D02*
G01*
X5402224Y-7889798D01*
X5386730Y-7884718D01*
X5376316Y-7884718D01*
X5360822Y-7889798D01*
X5350408Y-7905546D01*
X5345074Y-7931454D01*
X5345074Y-7957362D01*
X5350408Y-7978190D01*
X5360822Y-7988604D01*
X5376316Y-7993684D01*
X5381396Y-7993684D01*
X5397144Y-7988604D01*
X5407558Y-7978190D01*
X5412638Y-7962696D01*
X5412638Y-7957362D01*
X5407558Y-7941868D01*
X5397144Y-7931454D01*
X5381396Y-7926120D01*
X5376316Y-7926120D01*
X5360822Y-7931454D01*
X5350408Y-7941868D01*
X5345074Y-7957362D01*
X1572666Y-5800140D02*
G01*
X1562252Y-5789980D01*
X1546758Y-5784646D01*
X1525930Y-5784646D01*
X1510436Y-5789980D01*
X1500022Y-5800140D01*
X1500022Y-5810554D01*
X1505102Y-5820968D01*
X1510436Y-5826302D01*
X1520850Y-5831382D01*
X1551838Y-5841796D01*
X1562252Y-5847130D01*
X1567586Y-5852210D01*
X1572666Y-5862624D01*
X1572666Y-5878118D01*
X1562252Y-5888532D01*
X1546758Y-5893866D01*
X1525930Y-5893866D01*
X1510436Y-5888532D01*
X1500022Y-5878118D01*
X1606956Y-5784646D02*
G01*
X1633118Y-5893866D01*
X1659026Y-5784646D02*
G01*
X1633118Y-5893866D01*
X1659026Y-5784646D02*
G01*
X1684934Y-5893866D01*
X1710842Y-5784646D02*
G01*
X1684934Y-5893866D01*
X1818030Y-5784646D02*
G01*
X1765960Y-5893866D01*
X1745132Y-5784646D02*
G01*
X1818030Y-5784646D01*
X3372764Y-5800140D02*
G01*
X3362350Y-5789980D01*
X3346856Y-5784646D01*
X3326028Y-5784646D01*
X3310280Y-5789980D01*
X3300120Y-5800140D01*
X3300120Y-5810554D01*
X3305200Y-5820968D01*
X3310280Y-5826302D01*
X3320694Y-5831382D01*
X3351936Y-5841796D01*
X3362350Y-5847130D01*
X3367430Y-5852210D01*
X3372764Y-5862624D01*
X3372764Y-5878118D01*
X3362350Y-5888532D01*
X3346856Y-5893866D01*
X3326028Y-5893866D01*
X3310280Y-5888532D01*
X3300120Y-5878118D01*
X3407054Y-5784646D02*
G01*
X3432962Y-5893866D01*
X3458870Y-5784646D02*
G01*
X3432962Y-5893866D01*
X3458870Y-5784646D02*
G01*
X3485032Y-5893866D01*
X3510940Y-5784646D02*
G01*
X3485032Y-5893866D01*
X3571138Y-5784646D02*
G01*
X3555644Y-5789980D01*
X3550310Y-5800140D01*
X3550310Y-5810554D01*
X3555644Y-5820968D01*
X3566058Y-5826302D01*
X3586886Y-5831382D01*
X3602380Y-5836716D01*
X3612794Y-5847130D01*
X3617874Y-5857290D01*
X3617874Y-5873038D01*
X3612794Y-5883452D01*
X3607460Y-5888532D01*
X3591966Y-5893866D01*
X3571138Y-5893866D01*
X3555644Y-5888532D01*
X3550310Y-5883452D01*
X3545230Y-5873038D01*
X3545230Y-5857290D01*
X3550310Y-5847130D01*
X3560724Y-5836716D01*
X3576472Y-5831382D01*
X3597300Y-5826302D01*
X3607460Y-5820968D01*
X3612794Y-5810554D01*
X3612794Y-5800140D01*
X3607460Y-5789980D01*
X3591966Y-5784646D01*
X3571138Y-5784646D01*
X5172608Y-5800140D02*
G01*
X5162448Y-5789980D01*
X5146700Y-5784646D01*
X5125872Y-5784646D01*
X5110378Y-5789980D01*
X5099964Y-5800140D01*
X5099964Y-5810554D01*
X5105298Y-5820968D01*
X5110378Y-5826302D01*
X5120792Y-5831382D01*
X5152034Y-5841796D01*
X5162448Y-5847130D01*
X5167528Y-5852210D01*
X5172608Y-5862624D01*
X5172608Y-5878118D01*
X5162448Y-5888532D01*
X5146700Y-5893866D01*
X5125872Y-5893866D01*
X5110378Y-5888532D01*
X5099964Y-5878118D01*
X5206898Y-5784646D02*
G01*
X5233060Y-5893866D01*
X5258968Y-5784646D02*
G01*
X5233060Y-5893866D01*
X5258968Y-5784646D02*
G01*
X5284876Y-5893866D01*
X5311038Y-5784646D02*
G01*
X5284876Y-5893866D01*
X5412638Y-5820968D02*
G01*
X5407558Y-5836716D01*
X5397144Y-5847130D01*
X5381650Y-5852210D01*
X5376316Y-5852210D01*
X5360822Y-5847130D01*
X5350408Y-5836716D01*
X5345328Y-5820968D01*
X5345328Y-5815888D01*
X5350408Y-5800140D01*
X5360822Y-5789980D01*
X5376316Y-5784646D01*
X5381650Y-5784646D01*
X5397144Y-5789980D01*
X5407558Y-5800140D01*
X5412638Y-5820968D01*
X5412638Y-5847130D01*
X5407558Y-5873038D01*
X5397144Y-5888532D01*
X5381650Y-5893866D01*
X5371236Y-5893866D01*
X5355488Y-5888532D01*
X5350408Y-5878118D01*
D14*
X3899994Y-11399987D02*
G01*
X3899994Y-11499977D01*
X3999984Y-11499977D02*
G01*
X3799994Y-11499977D01*
X1999995Y-11499977D02*
G01*
X2199995Y-11499977D01*
X2099995Y-11399982D02*
G01*
X2099995Y-11499977D01*
D11*
X2624996Y-11799976D02*
G01*
X2624996Y-11824980D01*
X2699992Y-11699976D02*
G01*
X2749999Y-11699976D01*
D14*
X2099889Y-5500004D02*
G01*
X2099995Y-5299989D01*
X3899992Y-5499988D02*
G01*
X3899992Y-5299994D01*
X3898226Y-7350013D02*
G01*
X3898226Y-7550007D01*
X2099889Y-3500008D02*
G01*
X2099889Y-3400021D01*
X1999899Y-3400021D02*
G01*
X2199888Y-3400021D01*
X3899890Y-3500015D02*
G01*
X3899890Y-3400021D01*
X3999890Y-3400021D02*
G01*
X3799890Y-3400021D01*
X3999890Y-5400017D02*
G01*
X3799890Y-5400017D01*
X1999899Y-5400017D02*
G01*
X2199888Y-5400017D01*
X3798239Y-7450013D02*
G01*
X3998229Y-7450013D01*
X3799890Y-9550008D02*
G01*
X3999877Y-9550008D01*
X3899877Y-9450009D02*
G01*
X3899877Y-9650003D01*
X1999899Y-9550008D02*
G01*
X2199888Y-9550008D01*
X2099889Y-9450009D02*
G01*
X2099889Y-9650003D01*
X2099889Y-7350005D02*
G01*
X2099889Y-7550007D01*
X1999899Y-7450007D02*
G01*
X2199888Y-7450007D01*
D15*
X4724996Y-1278379D02*
G01*
X4724996Y-1019995D01*
X4724996Y-1778378D02*
G01*
X4724996Y-1421640D01*
X4724996Y-2189998D02*
G01*
X4724996Y-1921639D01*
X4309785Y-1019995D02*
G01*
X4724996Y-1019995D01*
X3524999Y-2189998D02*
G01*
X3946387Y-2189998D01*
X4303608Y-2189998D02*
G01*
X4724996Y-2189998D01*
X3524999Y-1019995D02*
G01*
X3524999Y-2189998D01*
X3524999Y-1019995D02*
G01*
X3940210Y-1019995D01*
X1344498Y-9498380D02*
G01*
X1344498Y-9701580D01*
D11*
X1001598Y-9485680D02*
G01*
X1401597Y-9485680D01*
X1401597Y-9705670D01*
X1001598Y-9705670D01*
X1001598Y-9485680D01*
D15*
X3144494Y-9498380D02*
G01*
X3144494Y-9701580D01*
D11*
X2801594Y-9485680D02*
G01*
X3201593Y-9485680D01*
X3201593Y-9705670D01*
X2801594Y-9705670D01*
X2801594Y-9485680D01*
D15*
X4944490Y-9498380D02*
G01*
X4944490Y-9701580D01*
D11*
X4601590Y-9485680D02*
G01*
X5001590Y-9485680D01*
X5001590Y-9705670D01*
X4601590Y-9705670D01*
X4601590Y-9485680D01*
D15*
X1344498Y-7398385D02*
G01*
X1344498Y-7601585D01*
D11*
X1001598Y-7385685D02*
G01*
X1401597Y-7385685D01*
X1401597Y-7605674D01*
X1001598Y-7605674D01*
X1001598Y-7385685D01*
D15*
X3144494Y-7398385D02*
G01*
X3144494Y-7601585D01*
D11*
X2801594Y-7385685D02*
G01*
X3201593Y-7385685D01*
X3201593Y-7605674D01*
X2801594Y-7605674D01*
X2801594Y-7385685D01*
D15*
X4944490Y-7398385D02*
G01*
X4944490Y-7601585D01*
D11*
X4601590Y-7385685D02*
G01*
X5001590Y-7385685D01*
X5001590Y-7605674D01*
X4601590Y-7605674D01*
X4601590Y-7385685D01*
D15*
X1344498Y-5298389D02*
G01*
X1344498Y-5501589D01*
D11*
X1001598Y-5285689D02*
G01*
X1401597Y-5285689D01*
X1401597Y-5505678D01*
X1001598Y-5505678D01*
X1001598Y-5285689D01*
D15*
X3144494Y-5298389D02*
G01*
X3144494Y-5501589D01*
D11*
X2801594Y-5285689D02*
G01*
X3201593Y-5285689D01*
X3201593Y-5505678D01*
X2801594Y-5505678D01*
X2801594Y-5285689D01*
D15*
X4944490Y-5298389D02*
G01*
X4944490Y-5501589D01*
D11*
X4601590Y-5285689D02*
G01*
X5001590Y-5285689D01*
X5001590Y-5505678D01*
X4601590Y-5505678D01*
X4601590Y-5285689D01*
D15*
X1344498Y-3298393D02*
G01*
X1344498Y-3501593D01*
D11*
X1001598Y-3285693D02*
G01*
X1401597Y-3285693D01*
X1401597Y-3505682D01*
X1001598Y-3505682D01*
X1001598Y-3285693D01*
D15*
X3144494Y-3198393D02*
G01*
X3144494Y-3401593D01*
D11*
X2801594Y-3185693D02*
G01*
X3201593Y-3185693D01*
X3201593Y-3405682D01*
X2801594Y-3405682D01*
X2801594Y-3185693D01*
D15*
X4944490Y-3298393D02*
G01*
X4944490Y-3501593D01*
D11*
X4601590Y-3285693D02*
G01*
X5001590Y-3285693D01*
X5001590Y-3505682D01*
X4601590Y-3505682D01*
X4601590Y-3285693D01*
D15*
X1169949Y-1050020D02*
G01*
X2029970Y-1050008D01*
X2029970Y-435013D02*
G01*
X2029970Y-1050008D01*
X1169949Y-435081D02*
G01*
X2029970Y-435013D01*
X1169967Y-435013D02*
G01*
X1169967Y-1050008D01*
X2399967Y-525007D02*
G01*
X2029968Y-525007D01*
X699965Y-625007D02*
G01*
X699996Y-2775016D01*
X2499967Y-625007D02*
G01*
X2499967Y-2775003D01*
X2399967Y-2875010D02*
G01*
X799970Y-2875010D01*
X1169964Y-525007D02*
G01*
X799970Y-525007D01*
D14*
X1700049Y-5164990D02*
G01*
X1815048Y-5164990D01*
X699998Y-5164990D02*
G01*
X585000Y-5164990D01*
X1699999Y-3634994D02*
G01*
X1814997Y-3634994D01*
X585000Y-3634994D02*
G01*
X699998Y-3634994D01*
X434949Y-5014991D02*
G01*
X434949Y-3784991D01*
X1965045Y-3784991D02*
G01*
X1965045Y-5014991D01*
X5300042Y-5164990D02*
G01*
X5415041Y-5164990D01*
X4299991Y-5164990D02*
G01*
X4184992Y-5164990D01*
X5299991Y-3634994D02*
G01*
X5414990Y-3634994D01*
X4184992Y-3634994D02*
G01*
X4299991Y-3634994D01*
X4034942Y-5014991D02*
G01*
X4034942Y-3784991D01*
X5565038Y-3784991D02*
G01*
X5565038Y-5014991D01*
X3499944Y-5165016D02*
G01*
X3614943Y-5165016D01*
X2499893Y-5165016D02*
G01*
X2384894Y-5165016D01*
X3499893Y-3635019D02*
G01*
X3614892Y-3635019D01*
X2384894Y-3635019D02*
G01*
X2499893Y-3635019D01*
X2234844Y-5015016D02*
G01*
X2234844Y-3785016D01*
X3764940Y-3785016D02*
G01*
X3764940Y-5015016D01*
X1699846Y-11364978D02*
G01*
X1814845Y-11364978D01*
X699795Y-11364978D02*
G01*
X584796Y-11364978D01*
X1699795Y-9834981D02*
G01*
X1814794Y-9834981D01*
X584796Y-9834981D02*
G01*
X699795Y-9834981D01*
X434746Y-11214978D02*
G01*
X434746Y-9984978D01*
X1964842Y-9984978D02*
G01*
X1964842Y-11214978D01*
X3499944Y-11364978D02*
G01*
X3614943Y-11364978D01*
X2499893Y-11364978D02*
G01*
X2384894Y-11364978D01*
X3499893Y-9834981D02*
G01*
X3614892Y-9834981D01*
X2384894Y-9834981D02*
G01*
X2499893Y-9834981D01*
X2234844Y-11214978D02*
G01*
X2234844Y-9984978D01*
X3764940Y-9984978D02*
G01*
X3764940Y-11214978D01*
X5300042Y-11364978D02*
G01*
X5415041Y-11364978D01*
X4299991Y-11364978D02*
G01*
X4184992Y-11364978D01*
X5299991Y-9834981D02*
G01*
X5414990Y-9834981D01*
X4184992Y-9834981D02*
G01*
X4299991Y-9834981D01*
X4034942Y-11214978D02*
G01*
X4034942Y-9984978D01*
X5565038Y-9984978D02*
G01*
X5565038Y-11214978D01*
X1699846Y-9264906D02*
G01*
X1814845Y-9264906D01*
X699795Y-9264906D02*
G01*
X584796Y-9264906D01*
X1699795Y-7734909D02*
G01*
X1814794Y-7734909D01*
X584796Y-7734909D02*
G01*
X699795Y-7734909D01*
X434746Y-9114906D02*
G01*
X434746Y-7884906D01*
X1964842Y-7884906D02*
G01*
X1964842Y-9114906D01*
X3499944Y-9264906D02*
G01*
X3614943Y-9264906D01*
X2499893Y-9264906D02*
G01*
X2384894Y-9264906D01*
X3499893Y-7734909D02*
G01*
X3614892Y-7734909D01*
X2384894Y-7734909D02*
G01*
X2499893Y-7734909D01*
X2234844Y-9114906D02*
G01*
X2234844Y-7884906D01*
X3764940Y-7884906D02*
G01*
X3764940Y-9114906D01*
X5300042Y-9264906D02*
G01*
X5415041Y-9264906D01*
X4299991Y-9264906D02*
G01*
X4184992Y-9264906D01*
X5299991Y-7734909D02*
G01*
X5414990Y-7734909D01*
X4184992Y-7734909D02*
G01*
X4299991Y-7734909D01*
X4034942Y-9114906D02*
G01*
X4034942Y-7884906D01*
X5565038Y-7884906D02*
G01*
X5565038Y-9114906D01*
X1699846Y-7165088D02*
G01*
X1814845Y-7165088D01*
X699795Y-7165088D02*
G01*
X584796Y-7165088D01*
X1699795Y-5635091D02*
G01*
X1814794Y-5635091D01*
X584796Y-5635091D02*
G01*
X699795Y-5635091D01*
X434746Y-7015088D02*
G01*
X434746Y-5785088D01*
X1964842Y-5785088D02*
G01*
X1964842Y-7015088D01*
X3499944Y-7165088D02*
G01*
X3614943Y-7165088D01*
X2499893Y-7165088D02*
G01*
X2384894Y-7165088D01*
X3499893Y-5635091D02*
G01*
X3614892Y-5635091D01*
X2384894Y-5635091D02*
G01*
X2499893Y-5635091D01*
X2234844Y-7015088D02*
G01*
X2234844Y-5785088D01*
X3764940Y-5785088D02*
G01*
X3764940Y-7015088D01*
X5300042Y-7165088D02*
G01*
X5415041Y-7165088D01*
X4299991Y-7165088D02*
G01*
X4184992Y-7165088D01*
X5299991Y-5635091D02*
G01*
X5414990Y-5635091D01*
X4184992Y-5635091D02*
G01*
X4299991Y-5635091D01*
X4034942Y-7015088D02*
G01*
X4034942Y-5785088D01*
X5565038Y-5785088D02*
G01*
X5565038Y-7015088D01*
D15*
G75*
G01*
X799965Y-525005D02*
G03*
X699966Y-625005I0J-100000D01*
G75*
G01*
X2399960Y-2875006D02*
G03*
X2499959Y-2775006I0J100000D01*
G75*
G01*
X2499959Y-625010D02*
G03*
X2399960Y-525010I-99999J0D01*
G75*
G01*
X699988Y-2775016D02*
G03*
X799988Y-2875023I100000J-8D01*
D14*
G75*
G01*
X1964997Y-3784991D02*
G03*
X1814998Y-3634994I-149999J-3D01*
G75*
G01*
X1815048Y-5164991D02*
G03*
X1965046Y-5014991I-2J150000D01*
G75*
G01*
X435000Y-5014994D02*
G03*
X585000Y-5164991I150000J3D01*
G75*
G01*
X584947Y-3634991D02*
G03*
X434950Y-3784991I2J-150000D01*
G75*
G01*
X5564990Y-3784991D02*
G03*
X5414990Y-3634994I-150000J-3D01*
G75*
G01*
X5415041Y-5164991D02*
G03*
X5565038Y-5014991I-2J150000D01*
G75*
G01*
X4034993Y-5014994D02*
G03*
X4184993Y-5164991I150000J3D01*
G75*
G01*
X4184940Y-3634991D02*
G03*
X4034942Y-3784991I2J-150000D01*
G75*
G01*
X3764892Y-3785017D02*
G03*
X3614892Y-3635019I-150000J-2D01*
G75*
G01*
X3614943Y-5165016D02*
G03*
X3764940Y-5015017I-2J149999D01*
G75*
G01*
X2234895Y-5015019D02*
G03*
X2384895Y-5165016I150000J2D01*
G75*
G01*
X2384842Y-3635017D02*
G03*
X2234844Y-3785017I2J-150000D01*
G75*
G01*
X1964794Y-9984979D02*
G03*
X1814794Y-9834982I-150000J-2D01*
G75*
G01*
X1814845Y-11364979D02*
G03*
X1964842Y-11214979I-2J150000D01*
G75*
G01*
X434797Y-11214981D02*
G03*
X584797Y-11364979I150000J2D01*
G75*
G01*
X584744Y-9834979D02*
G03*
X434746Y-9984979I2J-150000D01*
G75*
G01*
X3764892Y-9984979D02*
G03*
X3614892Y-9834982I-150000J-2D01*
G75*
G01*
X3614943Y-11364979D02*
G03*
X3764940Y-11214979I-2J150000D01*
G75*
G01*
X2234895Y-11214981D02*
G03*
X2384895Y-11364979I150000J2D01*
G75*
G01*
X2384842Y-9834979D02*
G03*
X2234844Y-9984979I2J-150000D01*
G75*
G01*
X5564990Y-9984979D02*
G03*
X5414990Y-9834982I-150000J-2D01*
G75*
G01*
X5415041Y-11364979D02*
G03*
X5565038Y-11214979I-2J150000D01*
G75*
G01*
X4034993Y-11214981D02*
G03*
X4184993Y-11364979I150000J2D01*
G75*
G01*
X4184940Y-9834979D02*
G03*
X4034942Y-9984979I2J-150000D01*
G75*
G01*
X1964794Y-7884907D02*
G03*
X1814794Y-7734910I-150000J-2D01*
G75*
G01*
X1814845Y-9264907D02*
G03*
X1964842Y-9114907I-2J150000D01*
G75*
G01*
X434797Y-9114909D02*
G03*
X584797Y-9264907I150000J2D01*
G75*
G01*
X584744Y-7734907D02*
G03*
X434746Y-7884907I2J-150000D01*
G75*
G01*
X3764892Y-7884907D02*
G03*
X3614892Y-7734910I-150000J-2D01*
G75*
G01*
X3614943Y-9264907D02*
G03*
X3764940Y-9114907I-2J150000D01*
G75*
G01*
X2234895Y-9114909D02*
G03*
X2384895Y-9264907I150000J2D01*
G75*
G01*
X2384842Y-7734907D02*
G03*
X2234844Y-7884907I2J-150000D01*
G75*
G01*
X5564990Y-7884907D02*
G03*
X5414990Y-7734910I-150000J-2D01*
G75*
G01*
X5415041Y-9264907D02*
G03*
X5565038Y-9114907I-2J150000D01*
G75*
G01*
X4034993Y-9114909D02*
G03*
X4184993Y-9264907I150000J2D01*
G75*
G01*
X4184940Y-7734907D02*
G03*
X4034942Y-7884907I2J-150000D01*
G75*
G01*
X1964794Y-5785089D02*
G03*
X1814794Y-5635092I-150000J-2D01*
G75*
G01*
X1814845Y-7165089D02*
G03*
X1964842Y-7015089I-2J150000D01*
G75*
G01*
X434797Y-7015091D02*
G03*
X584797Y-7165089I150000J2D01*
G75*
G01*
X584744Y-5635089D02*
G03*
X434746Y-5785089I2J-150000D01*
G75*
G01*
X3764892Y-5785089D02*
G03*
X3614892Y-5635092I-150000J-2D01*
G75*
G01*
X3614943Y-7165089D02*
G03*
X3764940Y-7015089I-2J150000D01*
G75*
G01*
X2234895Y-7015091D02*
G03*
X2384895Y-7165089I150000J2D01*
G75*
G01*
X2384842Y-5635089D02*
G03*
X2234844Y-5785089I2J-150000D01*
G75*
G01*
X5564990Y-5785089D02*
G03*
X5414990Y-5635092I-150000J-2D01*
G75*
G01*
X5415041Y-7165089D02*
G03*
X5565038Y-7015089I-2J150000D01*
G75*
G01*
X4034993Y-7015091D02*
G03*
X4184993Y-7165089I150000J2D01*
G75*
G01*
X4184940Y-5635089D02*
G03*
X4034942Y-5785089I2J-150000D01*
G75*
G01
X5899988Y-11799976D02*
G03X5899988Y-11799976I-299999J0D01*
G75*
G01
X699999Y-11799976D02*
G03X699999Y-11799976I-299999J0D01*
G75*
G01
X699999Y-399999D02*
G03X699999Y-399999I-299999J0D01*
G75*
G01
X5899988Y-399999D02*
G03X5899988Y-399999I-299999J0D01*
D15*
G75*
G01
X5300243Y-1599997D02*
G03X5300243Y-1599997I-1175258J0D01*
G75*
G01
X4219880Y-1610004D02*
G03X4219880Y-1610004I-94869J0D01*
G75*
G01
X4389018Y-1610004D02*
G03X4389018Y-1610004I-264008J0D01*
D14*
G75*
G01
X1499997Y-4399991D02*
G03X1499997Y-4399991I-299999J0D01*
G75*
G01
X5099990Y-4399991D02*
G03X5099990Y-4399991I-299999J0D01*
G75*
G01
X3299892Y-4400017D02*
G03X3299892Y-4400017I-299999J0D01*
G75*
G01
X1499794Y-10599979D02*
G03X1499794Y-10599979I-299999J0D01*
G75*
G01
X3299892Y-10599979D02*
G03X3299892Y-10599979I-299999J0D01*
G75*
G01
X5099990Y-10599979D02*
G03X5099990Y-10599979I-299999J0D01*
G75*
G01
X1499794Y-8499907D02*
G03X1499794Y-8499907I-299999J0D01*
G75*
G01
X3299892Y-8499907D02*
G03X3299892Y-8499907I-299999J0D01*
G75*
G01
X5099990Y-8499907D02*
G03X5099990Y-8499907I-299999J0D01*
G75*
G01
X1499794Y-6400089D02*
G03X1499794Y-6400089I-299999J0D01*
G75*
G01
X3299892Y-6400089D02*
G03X3299892Y-6400089I-299999J0D01*
G75*
G01
X5099990Y-6400089D02*
G03X5099990Y-6400089I-299999J0D01*
M02*
