G04 Layer: BottomLayer*
G04 Panelize: , Column: 1, Row: 1, Board Size: 60mm x 122mm, Panelized Board Size: 60mm x 122mm*
G04 EasyEDA v6.5.51, 2025-09-17 09:30:02*
G04 3c8b50ddb4cd48f1b3394102e02f4c31,3c8b1c4139ec4bbbaae9228842dbec63,10*
G04 Gerber Generator version 0.2*
G04 Scale: 100 percent, Rotated: No, Reflected: No *
G04 Dimensions in millimeters *
G04 leading zeros omitted , absolute positions ,4 integer and 5 decimal *
%FSLAX45Y45*%
%MOMM*%

%ADD10C,0.5000*%
%ADD11C,2.0000*%
%ADD12C,1.0000*%
%ADD13C,1.8000*%
%ADD14C,4.5000*%
%ADD15C,4.0000*%
%ADD16C,0.0104*%

%LPD*%
G36*
X3374999Y-1249984D02*
G01*
X3175000Y-1325016D01*
X3175000Y-1375003D01*
X3374999Y-1449984D01*
G37*
G36*
X3406648Y-1755139D02*
G01*
X3193643Y-1761642D01*
X3176930Y-1811629D01*
X3343300Y-1944878D01*
G37*
G36*
X3374999Y-1499971D02*
G01*
X3374999Y-1699971D01*
X3574999Y-1624990D01*
X3574999Y-1575003D01*
G37*
G36*
X4799990Y-1699971D02*
G01*
X4725009Y-1850034D01*
X4925009Y-1849983D01*
X4849977Y-1699971D01*
G37*
G36*
X4850028Y-1253185D02*
G01*
X4637836Y-1274978D01*
X4624933Y-1324965D01*
X4799990Y-1446834D01*
G37*
G36*
X1709521Y-9454997D02*
G01*
X1536344Y-9536379D01*
X1663649Y-9663582D01*
X1744929Y-9490303D01*
G37*
G36*
X709980Y-9599980D02*
G01*
X775004Y-9779965D01*
X824992Y-9779965D01*
X890016Y-9599980D01*
G37*
G36*
X3374999Y-9419996D02*
G01*
X3309975Y-9599980D01*
X3490010Y-9599980D01*
X3424986Y-9419996D01*
G37*
G36*
X2509977Y-9599980D02*
G01*
X2575001Y-9779965D01*
X2624988Y-9779965D01*
X2690012Y-9599980D01*
G37*
G36*
X5090363Y-9455048D02*
G01*
X5055006Y-9490405D01*
X5136388Y-9663633D01*
X5263642Y-9536328D01*
G37*
G36*
X4309973Y-9599980D02*
G01*
X4374997Y-9779965D01*
X4424984Y-9779965D01*
X4490008Y-9599980D01*
G37*
G36*
X1709521Y-7354976D02*
G01*
X1536344Y-7436358D01*
X1663649Y-7563612D01*
X1744929Y-7390333D01*
G37*
G36*
X709980Y-7499959D02*
G01*
X775004Y-7679994D01*
X824992Y-7679994D01*
X890016Y-7499959D01*
G37*
G36*
X3463594Y-7436307D02*
G01*
X3336391Y-7563662D01*
X3509670Y-7644841D01*
X3545027Y-7609484D01*
G37*
G36*
X3374999Y-7319975D02*
G01*
X3309975Y-7499959D01*
X3490010Y-7499959D01*
X3424986Y-7319975D01*
G37*
G36*
X2509977Y-7499959D02*
G01*
X2575001Y-7679994D01*
X2624988Y-7679994D01*
X2690012Y-7499959D01*
G37*
G36*
X5090414Y-7355027D02*
G01*
X5055057Y-7390384D01*
X5136337Y-7563612D01*
X5263642Y-7436358D01*
G37*
G36*
X4309973Y-7499959D02*
G01*
X4374997Y-7679994D01*
X4424984Y-7679994D01*
X4490008Y-7499959D01*
G37*
G36*
X1709623Y-5255056D02*
G01*
X1536344Y-5336336D01*
X1663649Y-5463641D01*
X1744980Y-5290413D01*
G37*
G36*
X709980Y-5399989D02*
G01*
X775004Y-5579973D01*
X824992Y-5579973D01*
X890016Y-5399989D01*
G37*
G36*
X3490010Y-5399938D02*
G01*
X3309975Y-5399989D01*
X3375050Y-5579973D01*
X3425037Y-5579973D01*
G37*
G36*
X3374999Y-5220004D02*
G01*
X3309975Y-5399989D01*
X3490010Y-5399989D01*
X3424986Y-5220004D01*
G37*
G36*
X2509977Y-5399989D02*
G01*
X2575001Y-5579973D01*
X2624988Y-5579973D01*
X2690012Y-5399989D01*
G37*
G36*
X5090363Y-5255056D02*
G01*
X5055006Y-5290413D01*
X5136388Y-5463641D01*
X5263591Y-5336336D01*
G37*
G36*
X4309973Y-5399989D02*
G01*
X4374997Y-5579973D01*
X4424984Y-5579973D01*
X4490008Y-5399989D01*
G37*
G36*
X1709623Y-3255060D02*
G01*
X1536344Y-3336340D01*
X1663649Y-3463645D01*
X1744929Y-3290417D01*
G37*
G36*
X1575003Y-3220008D02*
G01*
X1509979Y-3399993D01*
X1690014Y-3399993D01*
X1624990Y-3220008D01*
G37*
G36*
X709980Y-3399993D02*
G01*
X775004Y-3579977D01*
X824992Y-3579977D01*
X890016Y-3399993D01*
G37*
G36*
X3375050Y-3119983D02*
G01*
X3309975Y-3299968D01*
X3490010Y-3300018D01*
X3425037Y-3119983D01*
G37*
G36*
X3375050Y-3119983D02*
G01*
X3309975Y-3299968D01*
X3490010Y-3300018D01*
X3425037Y-3119983D01*
G37*
G36*
X2509977Y-3299968D02*
G01*
X2575001Y-3480003D01*
X2624988Y-3480003D01*
X2690012Y-3299968D01*
G37*
G36*
X5199938Y-3309975D02*
G01*
X5100066Y-3375050D01*
X5100066Y-3425037D01*
X5200040Y-3490010D01*
G37*
G36*
X4309973Y-3399993D02*
G01*
X4374997Y-3579977D01*
X4424984Y-3579977D01*
X4490008Y-3399993D01*
G37*
G36*
X837996Y-848004D02*
G01*
X837996Y-1028039D01*
X1017981Y-963015D01*
X1017981Y-913028D01*
G37*
G36*
X837996Y-1356004D02*
G01*
X837996Y-1536039D01*
X1017981Y-1471015D01*
X1017981Y-1421028D01*
G37*
G36*
X837996Y-1610004D02*
G01*
X837996Y-1790039D01*
X1017981Y-1725015D01*
X1017981Y-1675028D01*
G37*
G36*
X837996Y-1864004D02*
G01*
X837996Y-2044039D01*
X1017981Y-1979015D01*
X1017981Y-1929028D01*
G37*
G36*
X837996Y-2118004D02*
G01*
X837996Y-2298039D01*
X1017981Y-2233015D01*
X1017981Y-2183028D01*
G37*
G36*
X2425649Y-874369D02*
G01*
X2298344Y-1001623D01*
X2471572Y-1083005D01*
X2506929Y-1047648D01*
G37*
G36*
X2425649Y-2398369D02*
G01*
X2298344Y-2525623D01*
X2471572Y-2607005D01*
X2506929Y-2571648D01*
G37*
G36*
X2413101Y-2133955D02*
G01*
X2310892Y-2282088D01*
X2495702Y-2331161D01*
X2524607Y-2289352D01*
G37*
G36*
X2427579Y-1892401D02*
G01*
X2296414Y-2015642D01*
X2467051Y-2102307D01*
X2503474Y-2068068D01*
G37*
G36*
X2401062Y-1364945D02*
G01*
X2322931Y-1527098D01*
X2512669Y-1548028D01*
X2535631Y-1500327D01*
G37*
G36*
X2417724Y-1121359D02*
G01*
X2306269Y-1262684D01*
X2487777Y-1323238D01*
X2518918Y-1283716D01*
G37*
G36*
X1509979Y-2716022D02*
G01*
X1575003Y-2896006D01*
X1624990Y-2896006D01*
X1690014Y-2716022D01*
G37*
G36*
X1199997Y-3669995D02*
G01*
X1199997Y-3849979D01*
X1379982Y-3784955D01*
X1379982Y-3734968D01*
G37*
G36*
X1109980Y-3759911D02*
G01*
X1174902Y-3899915D01*
X1224889Y-3899915D01*
X1290015Y-3760063D01*
G37*
G36*
X824992Y-3858310D02*
G01*
X775004Y-3866743D01*
X741273Y-4055008D01*
X918718Y-4024985D01*
G37*
G36*
X4799990Y-3669995D02*
G01*
X4799990Y-3849979D01*
X4979974Y-3784955D01*
X4979974Y-3734968D01*
G37*
G36*
X4846828Y-3683152D02*
G01*
X4753152Y-3836822D01*
X4940300Y-3875633D01*
X4967071Y-3831691D01*
G37*
G36*
X4424984Y-3858310D02*
G01*
X4374997Y-3866743D01*
X4341266Y-4055008D01*
X4518710Y-4024985D01*
G37*
G36*
X2999841Y-3669995D02*
G01*
X2999892Y-3850030D01*
X3179876Y-3784955D01*
X3179876Y-3734968D01*
G37*
G36*
X3089910Y-3759962D02*
G01*
X2909874Y-3760063D01*
X2975000Y-3900170D01*
X3024987Y-3900170D01*
G37*
G36*
X2624988Y-3858310D02*
G01*
X2575001Y-3866743D01*
X2541168Y-4054957D01*
X2718663Y-4025087D01*
G37*
G36*
X1069035Y-9833762D02*
G01*
X1039266Y-9874707D01*
X1146911Y-10032796D01*
X1252677Y-9887153D01*
G37*
G36*
X824992Y-10058247D02*
G01*
X775004Y-10066680D01*
X741019Y-10254894D01*
X918565Y-10225074D01*
G37*
G36*
X2975000Y-9779965D02*
G01*
X2909874Y-9959949D01*
X3089910Y-9960000D01*
X3024987Y-9779965D01*
G37*
G36*
X2624988Y-10058247D02*
G01*
X2575001Y-10066680D01*
X2541168Y-10254945D01*
X2718663Y-10225024D01*
G37*
G36*
X4820005Y-9872218D02*
G01*
X4779975Y-10047732D01*
X4969814Y-10024973D01*
X4981194Y-9974986D01*
G37*
G36*
X4424984Y-10058298D02*
G01*
X4374997Y-10066731D01*
X4341266Y-10254996D01*
X4518710Y-10224973D01*
G37*
G36*
X1174902Y-7679893D02*
G01*
X1109776Y-7859877D01*
X1289812Y-7859979D01*
X1224889Y-7679944D01*
G37*
G36*
X1289812Y-7859826D02*
G01*
X1109776Y-7859979D01*
X1174902Y-7999984D01*
X1224889Y-7999984D01*
G37*
G36*
X824992Y-7958175D02*
G01*
X775004Y-7966608D01*
X741019Y-8154822D01*
X918565Y-8125002D01*
G37*
G36*
X3089910Y-7859826D02*
G01*
X2909874Y-7859979D01*
X2975000Y-7999984D01*
X3024987Y-7999984D01*
G37*
G36*
X2624988Y-7958226D02*
G01*
X2575001Y-7966608D01*
X2541168Y-8154873D01*
X2718663Y-8124952D01*
G37*
G36*
X4960874Y-7774990D02*
G01*
X4770018Y-7775041D01*
X4829962Y-7944764D01*
X4978552Y-7824978D01*
G37*
G36*
X4424984Y-7958226D02*
G01*
X4374997Y-7966659D01*
X4341266Y-8154924D01*
X4518710Y-8124901D01*
G37*
G36*
X1289812Y-5760008D02*
G01*
X1109776Y-5760161D01*
X1174902Y-5900166D01*
X1224889Y-5900166D01*
G37*
G36*
X1174902Y-5580075D02*
G01*
X1109776Y-5760008D01*
X1289812Y-5760110D01*
X1224889Y-5580075D01*
G37*
G36*
X824992Y-5858408D02*
G01*
X775004Y-5866790D01*
X741019Y-6055004D01*
X918565Y-6025184D01*
G37*
G36*
X2975000Y-5580075D02*
G01*
X2909874Y-5760008D01*
X3089910Y-5760110D01*
X3024987Y-5580075D01*
G37*
G36*
X2624988Y-5858408D02*
G01*
X2575001Y-5866790D01*
X2541168Y-6055055D01*
X2718663Y-6025134D01*
G37*
G36*
X4960823Y-5675020D02*
G01*
X4769967Y-5675223D01*
X4830013Y-5844946D01*
X4978501Y-5725007D01*
G37*
G36*
X4424984Y-5858408D02*
G01*
X4374997Y-5866841D01*
X4341266Y-6055106D01*
X4518710Y-6025083D01*
G37*
D10*
X2361945Y-938021D02*
G01*
X2800095Y-1376171D01*
X2800095Y-1800097D01*
X3350006Y-2350007D01*
X5150104Y-2350007D01*
X5899911Y-3099815D01*
X5899911Y-10500105D01*
X5199888Y-11199876D01*
X4224781Y-11199876D01*
X3175000Y-10150094D01*
X3175000Y-9713213D01*
X2767075Y-9305289D01*
X2394711Y-9305289D01*
X1800097Y-9899904D01*
X1499870Y-9899904D01*
X1230376Y-9630410D01*
X1230376Y-9469628D01*
X1899920Y-8800084D01*
X3399790Y-8800084D01*
X3599941Y-8599931D01*
X3599941Y-7999984D01*
X3199891Y-7599934D01*
X3199891Y-7499858D01*
X2899918Y-7199884D01*
X2200147Y-7199884D01*
X1700021Y-7700010D01*
X1499870Y-7700010D01*
X1380236Y-7580121D01*
X1380236Y-7419847D01*
X1999995Y-6800087D01*
X3199891Y-6800087D01*
X3400043Y-6599936D01*
X3400043Y-5400039D01*
X2361945Y-1192021D02*
G01*
X2391918Y-1192021D01*
X2700020Y-1500123D01*
X2700020Y-1899920D01*
X3250184Y-2450084D01*
X5100065Y-2450084D01*
X5800090Y-3150107D01*
X5800090Y-10400029D01*
X5100065Y-11100054D01*
X4299965Y-11100054D01*
X3299968Y-10100055D01*
X3299968Y-9724897D01*
X3249929Y-9674860D01*
X3249929Y-9424924D01*
X2999993Y-9174987D01*
X2275077Y-9174987D01*
X1700021Y-9750044D01*
X1525015Y-9750044D01*
X1424939Y-9649968D01*
X1424939Y-9525000D01*
X2024888Y-8925052D01*
X3474974Y-8925052D01*
X3700018Y-8700008D01*
X3700018Y-7799831D01*
X3400043Y-7499858D01*
X5199888Y-3400044D02*
G01*
X4749800Y-2949955D01*
X3400043Y-2949955D01*
X3400043Y-3299968D01*
X3374897Y-1599945D02*
G01*
X4199890Y-1599945D01*
X4700015Y-2100071D01*
X4899913Y-2100071D01*
X5050027Y-1949957D01*
X5050027Y-1150112D01*
X4800091Y-899921D01*
X3150108Y-899921D01*
X2949956Y-700023D01*
X2949956Y-450087D01*
X2599943Y-100076D01*
X2100072Y-100076D01*
X1774952Y-424942D01*
X1774952Y-750062D01*
X1586992Y-938021D01*
X837945Y-938021D01*
X837945Y-1700021D02*
G01*
X1700021Y-1700021D01*
X1974850Y-1424939D01*
X1974850Y-525018D01*
X2200147Y-299973D01*
X2499868Y-299973D01*
X2750058Y-550418D01*
X2750058Y-800100D01*
X3100070Y-1150112D01*
X3500120Y-1150112D01*
X3750056Y-1400047D01*
X4525009Y-1400047D01*
X4824984Y-1700021D01*
X4824984Y-1849881D01*
X837945Y-1446021D02*
G01*
X1654047Y-1446021D01*
X1875028Y-1225042D01*
X1875028Y-474979D01*
X2150109Y-199897D01*
X2549906Y-199897D01*
X2849879Y-500126D01*
X2849879Y-750062D01*
X3150108Y-1050036D01*
X3549904Y-1050036D01*
X3799840Y-1299971D01*
X4774945Y-1299971D01*
X4824984Y-1350010D01*
X837945Y-1954021D02*
G01*
X1846071Y-1954021D01*
X2074925Y-1725168D01*
X2074925Y-575055D01*
X2249931Y-400050D01*
X2450084Y-400050D01*
X2649981Y-599947D01*
X2649981Y-849884D01*
X3150108Y-1350010D01*
X3374897Y-1350010D01*
X837945Y-2208021D02*
G01*
X1942084Y-2208021D01*
X2175002Y-1975104D01*
X2175002Y-625094D01*
X2299970Y-500126D01*
X2400045Y-500126D01*
X2549906Y-649986D01*
X2549906Y-899921D01*
X2899918Y-1249934D01*
X2899918Y-1700021D01*
X2986531Y-1786636D01*
X3311652Y-1786636D01*
X3374897Y-1849881D01*
X2361945Y-1446021D02*
G01*
X2446020Y-1446021D01*
X2599943Y-1599945D01*
X2599943Y-1999995D01*
X3149854Y-2549905D01*
X5049774Y-2549905D01*
X5700013Y-3200145D01*
X5700013Y-10299954D01*
X4999990Y-10999978D01*
X4400041Y-10999978D01*
X3400043Y-9999979D01*
X3400043Y-9599929D01*
X2361945Y-1954021D02*
G01*
X2361945Y-1961895D01*
X3050031Y-2649981D01*
X4999990Y-2649981D01*
X5599938Y-3249929D01*
X5599938Y-3599942D01*
X5439918Y-3759962D01*
X4800091Y-3759962D01*
X799998Y-3399993D02*
G01*
X799998Y-4009999D01*
X829995Y-4039996D01*
X2361945Y-2208021D02*
G01*
X2407920Y-2208021D01*
X2949956Y-2750057D01*
X4950206Y-2750057D01*
X5500115Y-3299968D01*
X5500115Y-3525012D01*
X5374893Y-3649979D01*
X4949952Y-3649979D01*
X4549902Y-3249929D01*
X4150106Y-3249929D01*
X3640074Y-3759962D01*
X2999993Y-3759962D01*
X2361945Y-2462021D02*
G01*
X2749804Y-2849879D01*
X4899659Y-2849879D01*
X5374893Y-3325113D01*
X5374893Y-3474973D01*
X5299963Y-3549904D01*
X5074920Y-3549904D01*
X4599940Y-3074923D01*
X4024884Y-3074923D01*
X3599941Y-3499865D01*
X3299968Y-3499865D01*
X2899918Y-3100070D01*
X2199893Y-3100070D01*
X1540002Y-3759962D01*
X1199895Y-3759962D01*
X3400043Y-3299968D02*
G01*
X3400043Y-2949955D01*
X2050034Y-2949955D01*
X1599945Y-3400044D01*
X1599996Y-2716021D02*
G01*
X1599996Y-3399993D01*
X4800091Y-3759962D02*
G01*
X4860036Y-3759962D01*
X5400040Y-4299965D01*
X5400040Y-5499862D01*
X5199888Y-5700013D01*
X4860036Y-5700013D01*
X4800091Y-5759957D01*
X5199989Y-7799984D02*
G01*
X5199989Y-9199981D01*
X5399989Y-9399981D01*
X5399989Y-9799980D01*
X5199989Y-9999979D01*
X4839995Y-9999979D01*
X4799990Y-9959975D01*
X5199989Y-5699988D02*
G01*
X5199989Y-6999986D01*
X5499988Y-7299985D01*
X5499988Y-7499985D01*
X5199989Y-7799984D01*
X4859909Y-7799984D01*
X4799990Y-7859903D01*
X3399993Y-7499985D02*
G01*
X3399995Y-7099988D01*
X1599945Y-7499858D02*
G01*
X1999995Y-7100062D01*
X4800091Y-7100062D01*
X5199888Y-7499858D01*
X3399993Y-5399989D02*
G01*
X3399993Y-4899913D01*
X1599945Y-5400039D02*
G01*
X2100072Y-4899913D01*
X4700015Y-4899913D01*
X5199888Y-5400039D01*
X4399991Y-9599980D02*
G01*
X4399991Y-10209987D01*
X4429988Y-10239984D01*
X2599994Y-9599980D02*
G01*
X2599994Y-10210088D01*
X2629890Y-10239984D01*
X799998Y-9599980D02*
G01*
X799998Y-10210190D01*
X829792Y-10239984D01*
X4399991Y-7499985D02*
G01*
X4399991Y-8109915D01*
X4429988Y-8139912D01*
X2599994Y-7499985D02*
G01*
X2599994Y-8110016D01*
X2629890Y-8139912D01*
X4399991Y-5399989D02*
G01*
X4399991Y-6010097D01*
X4429988Y-6040094D01*
X2599994Y-5399989D02*
G01*
X2599994Y-6010198D01*
X2629890Y-6040094D01*
X799998Y-5399989D02*
G01*
X799998Y-6010300D01*
X829792Y-6040094D01*
X799998Y-7499985D02*
G01*
X799998Y-8110118D01*
X829792Y-8139912D01*
X4399991Y-3399993D02*
G01*
X4399991Y-4009999D01*
X4429988Y-4039996D01*
X2599994Y-3299993D02*
G01*
X2599994Y-4010126D01*
X2629890Y-4040022D01*
X1199895Y-5759957D02*
G01*
X1199895Y-5900165D01*
X800100Y-6299962D01*
X800100Y-7000239D01*
X1199895Y-7400036D01*
X1199895Y-7860029D01*
X1199895Y-3759962D02*
G01*
X1199895Y-3899915D01*
X800100Y-4299965D01*
X800100Y-4800092D01*
X1199895Y-5199887D01*
X1199895Y-5759957D01*
X1199895Y-7860029D02*
G01*
X1199895Y-7999984D01*
X800100Y-8400034D01*
X800100Y-9000236D01*
X999997Y-9200134D01*
X999997Y-9800081D01*
X1160018Y-9960102D01*
X1199895Y-9960102D01*
X2999993Y-3759962D02*
G01*
X2999993Y-3900170D01*
X2199893Y-4700015D01*
X2050034Y-4700015D01*
X1450086Y-5299963D01*
X1450086Y-5299963D01*
X1449997Y-5299989D02*
G01*
X1450086Y-5299963D01*
X1450086Y-5550154D01*
X1499870Y-5599937D01*
X1999995Y-5599937D01*
X2400045Y-5199887D01*
X2700020Y-5199887D01*
X2999993Y-5499862D01*
X2999993Y-5759957D01*
X2999993Y-9960102D02*
G01*
X2999993Y-9700005D01*
X2724911Y-9424924D01*
X2450084Y-9424924D01*
X1875028Y-9999979D01*
X1450086Y-9999979D01*
X1150112Y-9700005D01*
X1150112Y-9174987D01*
X1700021Y-8625078D01*
X2374900Y-8625078D01*
X2999993Y-7999984D01*
X2999993Y-7860029D01*
X1499870Y-5599937D02*
G01*
X1800097Y-5899912D01*
X1800097Y-6599936D01*
X1299971Y-7100062D01*
X1299971Y-7724902D01*
X1700021Y-8124952D01*
X1700021Y-8625078D01*
X1599945Y-9599929D02*
G01*
X2149856Y-9050020D01*
X4649977Y-9050020D01*
X5199888Y-9599929D01*
X3399993Y-9599980D02*
G01*
X3399993Y-9050020D01*
D11*
G01*
X3374974Y-1350010D03*
G01*
X3374974Y-1850009D03*
G01*
X3374974Y-1599996D03*
G01*
X4825009Y-1850009D03*
G01*
X4825009Y-1350010D03*
D12*
G01*
X4125010Y-2150008D03*
G01*
X4125010Y-1050010D03*
D13*
G01*
X1599996Y-9599980D03*
G01*
X799998Y-9599980D03*
G01*
X3399993Y-9599980D03*
G01*
X2599994Y-9599980D03*
G01*
X5199989Y-9599980D03*
G01*
X4399991Y-9599980D03*
G01*
X1599996Y-7499985D03*
G01*
X799998Y-7499985D03*
G01*
X3399993Y-7499985D03*
G01*
X2599994Y-7499985D03*
G01*
X5199989Y-7499985D03*
G01*
X4399991Y-7499985D03*
G01*
X1599996Y-5399989D03*
G01*
X799998Y-5399989D03*
G01*
X3399993Y-5399989D03*
G01*
X2599994Y-5399989D03*
G01*
X5199989Y-5399989D03*
G01*
X4399991Y-5399989D03*
G01*
X1599996Y-3399993D03*
G01*
X799998Y-3399993D03*
G01*
X3399993Y-3299993D03*
G01*
X2599994Y-3299993D03*
G01*
X5199989Y-3399993D03*
G01*
X4399991Y-3399993D03*
G01*
X837996Y-684021D03*
G01*
X837996Y-938021D03*
G01*
X837996Y-1192021D03*
G01*
X837996Y-1446021D03*
G01*
X837996Y-1700021D03*
G01*
X837996Y-1954021D03*
G01*
X837996Y-2208021D03*
G01*
X837996Y-2462021D03*
G01*
X837996Y-2716021D03*
G01*
X1091996Y-2716021D03*
G01*
X2361996Y-938021D03*
G01*
X2107996Y-2716021D03*
G01*
X2361996Y-2716021D03*
G01*
X2361996Y-2462021D03*
G01*
X2361996Y-2208021D03*
G01*
X2361996Y-1954021D03*
G01*
X2361996Y-1700021D03*
G01*
X2361996Y-1446021D03*
G01*
X2361996Y-1192021D03*
G01*
X2361996Y-684021D03*
G01*
X1345996Y-2716021D03*
G01*
X1853996Y-2716021D03*
G01*
X1599996Y-2716021D03*
G01*
X1199997Y-3759987D03*
G01*
X829995Y-4039996D03*
D14*
G01*
X1199997Y-4399991D03*
D13*
G01*
X4799990Y-3759987D03*
G01*
X4429988Y-4039996D03*
D14*
G01*
X4799990Y-4399991D03*
D13*
G01*
X2999892Y-3760012D03*
G01*
X2629890Y-4040022D03*
D14*
G01*
X2999892Y-4400016D03*
D13*
G01*
X1199794Y-9959975D03*
G01*
X829792Y-10239984D03*
D14*
G01*
X1199794Y-10599978D03*
D13*
G01*
X2999892Y-9959975D03*
G01*
X2629890Y-10239984D03*
D14*
G01*
X2999892Y-10599978D03*
D13*
G01*
X4799990Y-9959975D03*
G01*
X4429988Y-10239984D03*
D14*
G01*
X4799990Y-10599978D03*
D13*
G01*
X1199794Y-7859903D03*
G01*
X829792Y-8139912D03*
D14*
G01*
X1199794Y-8499906D03*
D13*
G01*
X2999892Y-7859903D03*
G01*
X2629890Y-8139912D03*
D14*
G01*
X2999892Y-8499906D03*
D13*
G01*
X4799990Y-7859903D03*
G01*
X4429988Y-8139912D03*
D14*
G01*
X4799990Y-8499906D03*
D13*
G01*
X1199794Y-5760085D03*
G01*
X829792Y-6040094D03*
D14*
G01*
X1199794Y-6400088D03*
D13*
G01*
X2999892Y-5760085D03*
G01*
X2629890Y-6040094D03*
D14*
G01*
X2999892Y-6400088D03*
D13*
G01*
X4799990Y-5760085D03*
G01*
X4429988Y-6040094D03*
D14*
G01*
X4799990Y-6400088D03*
D15*
G01*
X399999Y-399999D03*
G01*
X5599988Y-399999D03*
G01*
X5599988Y-11799976D03*
G01*
X399999Y-11799976D03*
M02*
