G04 Layer: BoardOutlineLayer*
G04 EasyEDA v6.5.51, 2025-09-01 10:00:17*
G04 d25c321112d94009bea4b7554ae9d0e3,3c8b1c4139ec4bbbaae9228842dbec63,10*
G04 Gerber Generator version 0.2*
G04 Scale: 100 percent, Rotated: No, Reflected: No *
G04 Dimensions in millimeters *
G04 leading zeros omitted , absolute positions ,4 integer and 5 decimal *
%FSLAX45Y45*%
%MOMM*%

%ADD10C,0.2540*%
%ADD11C,0.0143*%
D10*
X5599988Y-2099995D02*
G01*
X5599983Y-899998D01*
X-101Y-11400005D02*
G01*
X0Y-2399995D01*
X5999988Y-2399995D02*
G01*
X5999891Y-11400005D01*
X399897Y-11799999D02*
G01*
X599899Y-11800004D01*
X5399890Y-11799999D02*
G01*
X5599892Y-11799999D01*
X899899Y-11500004D02*
G01*
X5099890Y-11500004D01*
X0Y-399999D02*
G01*
X0Y-599998D01*
X199994Y-699998D02*
G01*
X99999Y-699998D01*
X99999Y-2299995D02*
G01*
X199999Y-2299995D01*
X5799988Y-699998D02*
G01*
X5899988Y-699998D01*
X6000241Y-400050D02*
G01*
X5999988Y-599998D01*
X5799983Y-2299995D02*
G01*
X5899988Y-2299995D01*
X399994Y-899998D02*
G01*
X400006Y-2099993D01*
X399999Y0D02*
G01*
X5599988Y0D01*
G75*
G01*
X5299885Y-11700002D02*
G03*
X5099886Y-11500002I-199999J0D01*
G75*
G01*
X899897Y-11500002D02*
G03*
X699897Y-11700002I0J-200000D01*
G75*
G01*
X599897Y-11800004D02*
G03*
X699900Y-11700002I0J100002D01*
G75*
G01*
X5999881Y-11400000D02*
G02*
X5599882Y-11799999I-399999J0D01*
G75*
G01*
X399898Y-11800002D02*
G02*
X-102Y-11400003I0J399999D01*
G75*
G01*
X0Y-399999D02*
G02*
X399999Y0I399999J0D01*
G75*
G01*
X5299885Y-11700002D02*
G03*
X5399888Y-11800004I100003J0D01*
G75*
G01*
X5599989Y0D02*
G02*
X6000227Y-399999I239J-399999D01*
G75*
G01*
X5599989Y-2099996D02*
G03*
X5799988Y-2299995I199999J0D01*
G75*
G01*
X5799988Y-699999D02*
G03*
X5599989Y-899998I0J-199999D01*
G75*
G01*
X200000Y-2299995D02*
G03*
X399999Y-2099996I0J199999D01*
G75*
G01*
X399999Y-899998D02*
G03*
X200000Y-699999I-199999J0D01*
G75*
G01*
X5999988Y-2399995D02*
G03*
X5899988Y-2299995I-100000J0D01*
G75*
G01*
X5899988Y-699999D02*
G03*
X5999988Y-599999I0J100000D01*
G75*
G01*
X0Y-599999D02*
G03*
X100000Y-699999I100000J0D01*
G75*
G01*
X100000Y-2299995D02*
G03*
X0Y-2399995I0J-100000D01*

%LPD*%
M02*
