M48
METRIC,LZ,000.000
;FILE_FORMAT=3:3
;TYPE=PLATED
;Layer: PTH_Through
;EasyEDA v6.5.51, 2025-09-19 10:35:32
;a322cfbdb26646d094ce3ed81cfbf044,3c8b1c4139ec4bbbaae9228842dbec63,10
;Gerber Generator version 0.2
;Holesize 1 = 1.000 mm
T01C1.000
;Holesize 2 = 1.200 mm
T02C1.200
;Holesize 3 = 4.000 mm
T03C4.000
;Holesize 4 = 4.501 mm
T04C4.501
%
G05
G90
T01
X041250Y-021500
X041250Y-010500
X016000Y-096000
X008000Y-096000
X034000Y-096000
X026000Y-096000
X052000Y-096000
X044000Y-096000
X016000Y-075000
X008000Y-075000
X034000Y-075000
X026000Y-075000
X052000Y-075000
X044000Y-075000
X016000Y-054000
X008000Y-054000
X034000Y-054000
X026000Y-054000
X052000Y-054000
X044000Y-054000
X016000Y-034000
X008000Y-034000
X034000Y-033000
X026000Y-033000
X052000Y-034000
X044000Y-034000
X008380Y-005840
X008380Y-008380
X008380Y-010920
X008380Y-013460
X008380Y-016000
X008380Y-018540
X008380Y-021080
X008380Y-023620
X008380Y-026160
X010920Y-026160
X023620Y-008380
X021080Y-026160
X023620Y-026160
X023620Y-023620
X023620Y-021080
X023620Y-018540
X023620Y-016000
X023620Y-013460
X023620Y-010920
X023619Y-005840
X013460Y-026160
X018540Y-026160
X016000Y-026160
X012000Y-037600
X008300Y-040400
X048000Y-037600
X044300Y-040400
X029999Y-037600
X026299Y-040400
X011998Y-099600
X008298Y-102400
X029999Y-099600
X026299Y-102400
X048000Y-099600
X044300Y-102400
X011998Y-078599
X008298Y-081399
X029999Y-078599
X026299Y-081399
X048000Y-078599
X044300Y-081399
X011998Y-057601
X008298Y-060401
X029999Y-057601
X026299Y-060401
X048000Y-057601
X044300Y-060401
T02
X033750Y-013500
X033750Y-018500
X033750Y-016000
X048250Y-018500
X048250Y-013500
T03
X004000Y-004000
X056000Y-004000
X056000Y-118000
X004000Y-118000
T04
X012000Y-044000
X048000Y-044000
X029999Y-044000
X011998Y-106000
X029999Y-106000
X048000Y-106000
X011998Y-084999
X029999Y-084999
X048000Y-084999
X011998Y-064001
X029999Y-064001
X048000Y-064001
M30
