G04 Layer: TopSilkscreenLayer*
G04 Panelize: , Column: 1, Row: 1, Board Size: 60mm x 122mm, Panelized Board Size: 60mm x 122mm*
G04 EasyEDA v6.5.51, 2025-09-19 10:35:32*
G04 a322cfbdb26646d094ce3ed81cfbf044,3c8b1c4139ec4bbbaae9228842dbec63,10*
G04 Gerber Generator version 0.2*
G04 Scale: 100 percent, Rotated: No, Reflected: No *
G04 Dimensions in millimeters *
G04 leading zeros omitted , absolute positions ,4 integer and 5 decimal *
%FSLAX45Y45*%
%MOMM*%

%ADD10C,0.2000*%
%ADD11C,0.2032*%
%ADD12C,0.1524*%
%ADD13C,0.3000*%
%ADD14C,0.5000*%
%ADD15C,0.2540*%
%ADD16C,0.0152*%

%LPD*%
G36*
X283413Y-1470202D02*
G01*
X281178Y-1470964D01*
X278892Y-1472996D01*
X277723Y-1475435D01*
X277723Y-1521460D01*
X247446Y-1521460D01*
X247345Y-1475435D01*
X246278Y-1473200D01*
X244500Y-1471422D01*
X242468Y-1470355D01*
X225602Y-1470253D01*
X224383Y-1470609D01*
X222351Y-1471676D01*
X220624Y-1473657D01*
X219862Y-1475892D01*
X219862Y-1521460D01*
X206298Y-1521460D01*
X200101Y-1522222D01*
X195326Y-1523238D01*
X189839Y-1524863D01*
X185572Y-1526641D01*
X181254Y-1528826D01*
X176225Y-1531924D01*
X171653Y-1535379D01*
X166725Y-1540002D01*
X163322Y-1544066D01*
X160782Y-1547469D01*
X158038Y-1551838D01*
X154990Y-1557985D01*
X153263Y-1562608D01*
X151231Y-1570888D01*
X150571Y-1576222D01*
X150571Y-1590802D01*
X104292Y-1590903D01*
X101803Y-1592224D01*
X100025Y-1594307D01*
X99263Y-1596593D01*
X99415Y-1613357D01*
X100838Y-1615998D01*
X102666Y-1617421D01*
X104546Y-1618284D01*
X150571Y-1618386D01*
X150571Y-1648663D01*
X104902Y-1648663D01*
X102209Y-1649679D01*
X100025Y-1652117D01*
X99263Y-1654454D01*
X99415Y-1671218D01*
X100838Y-1673860D01*
X102666Y-1675282D01*
X104546Y-1676146D01*
X150571Y-1676247D01*
X150571Y-1706270D01*
X104749Y-1706372D01*
X102532Y-1707388D01*
X235864Y-1707388D01*
X235864Y-1605584D01*
X236829Y-1603908D01*
X239166Y-1602333D01*
X245160Y-1601114D01*
X259791Y-1601216D01*
X264261Y-1602282D01*
X266496Y-1603756D01*
X267462Y-1605330D01*
X267462Y-1698091D01*
X267970Y-1707794D01*
X268732Y-1713738D01*
X269697Y-1718818D01*
X271170Y-1724456D01*
X273304Y-1730298D01*
X275234Y-1734464D01*
X278028Y-1739341D01*
X282194Y-1744878D01*
X287121Y-1749856D01*
X292760Y-1754073D01*
X298094Y-1757121D01*
X304444Y-1759915D01*
X309829Y-1761642D01*
X317500Y-1763369D01*
X325932Y-1764588D01*
X333400Y-1764944D01*
X333400Y-1606042D01*
X334467Y-1603857D01*
X336448Y-1602536D01*
X341325Y-1601216D01*
X354990Y-1601012D01*
X359968Y-1601774D01*
X362661Y-1602740D01*
X364134Y-1603806D01*
X365099Y-1605686D01*
X365099Y-1764842D01*
X368960Y-1764842D01*
X378612Y-1763877D01*
X381965Y-1763369D01*
X389890Y-1761388D01*
X394309Y-1759813D01*
X399338Y-1757578D01*
X403809Y-1755038D01*
X408228Y-1752092D01*
X411632Y-1749348D01*
X416001Y-1744980D01*
X418998Y-1741322D01*
X421944Y-1736902D01*
X424688Y-1731772D01*
X426923Y-1726184D01*
X428802Y-1719732D01*
X430022Y-1713738D01*
X430834Y-1707845D01*
X431241Y-1698802D01*
X431292Y-1605330D01*
X432257Y-1603756D01*
X434492Y-1602282D01*
X438962Y-1601165D01*
X454609Y-1601165D01*
X459790Y-1602536D01*
X461822Y-1604010D01*
X462737Y-1606042D01*
X462788Y-1700530D01*
X462280Y-1708810D01*
X461518Y-1715414D01*
X460298Y-1722018D01*
X458622Y-1728876D01*
X456184Y-1735937D01*
X453237Y-1742744D01*
X449732Y-1749348D01*
X445262Y-1756054D01*
X441198Y-1761083D01*
X433832Y-1768449D01*
X426262Y-1774342D01*
X421385Y-1777492D01*
X414832Y-1781048D01*
X408432Y-1783842D01*
X402132Y-1786128D01*
X394766Y-1788261D01*
X389178Y-1789480D01*
X381609Y-1790750D01*
X375361Y-1791462D01*
X365099Y-1792071D01*
X365099Y-1837131D01*
X364439Y-1838706D01*
X363270Y-1839772D01*
X361035Y-1840788D01*
X356463Y-1841652D01*
X342036Y-1841652D01*
X337464Y-1840788D01*
X334772Y-1839468D01*
X333502Y-1837537D01*
X333400Y-1792071D01*
X322326Y-1791462D01*
X309575Y-1789734D01*
X296875Y-1786889D01*
X288594Y-1784096D01*
X282752Y-1781657D01*
X276098Y-1778304D01*
X269951Y-1774443D01*
X264414Y-1770278D01*
X257302Y-1763420D01*
X254050Y-1759610D01*
X249478Y-1753260D01*
X247142Y-1749348D01*
X244094Y-1743252D01*
X242011Y-1738375D01*
X240131Y-1732737D01*
X238658Y-1727403D01*
X237490Y-1721459D01*
X236524Y-1714449D01*
X235864Y-1707388D01*
X102311Y-1707489D01*
X100482Y-1709318D01*
X99415Y-1711299D01*
X99263Y-1728063D01*
X100076Y-1730552D01*
X102209Y-1732838D01*
X104749Y-1733956D01*
X150571Y-1734108D01*
X150571Y-1764131D01*
X104749Y-1764233D01*
X102311Y-1765350D01*
X100482Y-1767179D01*
X99415Y-1769110D01*
X99263Y-1785620D01*
X100025Y-1788210D01*
X102006Y-1790496D01*
X104038Y-1791614D01*
X150571Y-1791716D01*
X150571Y-1821992D01*
X104546Y-1822094D01*
X102666Y-1822957D01*
X100838Y-1824380D01*
X99415Y-1826971D01*
X99263Y-1843481D01*
X100025Y-1846072D01*
X102006Y-1848357D01*
X104038Y-1849424D01*
X150469Y-1849577D01*
X150723Y-1866036D01*
X152552Y-1875078D01*
X154787Y-1881936D01*
X158800Y-1889963D01*
X162407Y-1895144D01*
X166420Y-1900072D01*
X171043Y-1904441D01*
X174345Y-1907082D01*
X178968Y-1910283D01*
X184353Y-1913178D01*
X189738Y-1915464D01*
X195326Y-1917141D01*
X200101Y-1918157D01*
X206298Y-1918919D01*
X219862Y-1918919D01*
X219862Y-1964486D01*
X220624Y-1966722D01*
X222554Y-1968855D01*
X225501Y-1970176D01*
X242468Y-1970024D01*
X244500Y-1968957D01*
X246278Y-1967179D01*
X247345Y-1964893D01*
X247446Y-1918919D01*
X277723Y-1918919D01*
X277825Y-1965401D01*
X279196Y-1967687D01*
X281178Y-1969414D01*
X283413Y-1970176D01*
X299415Y-1970176D01*
X302107Y-1969160D01*
X304292Y-1966772D01*
X305206Y-1964893D01*
X305308Y-1918919D01*
X335483Y-1919020D01*
X335686Y-1965401D01*
X336600Y-1967128D01*
X338632Y-1969211D01*
X341223Y-1970176D01*
X357225Y-1970176D01*
X359460Y-1969414D01*
X361746Y-1967433D01*
X362813Y-1965401D01*
X363067Y-1919020D01*
X393192Y-1918919D01*
X393344Y-1964893D01*
X394462Y-1967280D01*
X396138Y-1968957D01*
X398221Y-1970024D01*
X415798Y-1970024D01*
X418287Y-1968754D01*
X419811Y-1966975D01*
X420674Y-1965401D01*
X420776Y-1918919D01*
X451053Y-1918919D01*
X451053Y-1963978D01*
X451815Y-1966468D01*
X453390Y-1968550D01*
X456031Y-1970024D01*
X473608Y-1970024D01*
X476148Y-1968703D01*
X477875Y-1966671D01*
X478637Y-1964486D01*
X478637Y-1918919D01*
X492201Y-1918919D01*
X498297Y-1918157D01*
X502869Y-1917192D01*
X508000Y-1915718D01*
X513435Y-1913483D01*
X519023Y-1910537D01*
X523443Y-1907590D01*
X526592Y-1905101D01*
X531317Y-1900834D01*
X536295Y-1894890D01*
X540207Y-1888998D01*
X543509Y-1882139D01*
X545287Y-1877364D01*
X546963Y-1870913D01*
X547776Y-1865782D01*
X548030Y-1849577D01*
X593547Y-1849577D01*
X595934Y-1848764D01*
X598474Y-1846224D01*
X599236Y-1843481D01*
X599084Y-1827225D01*
X598068Y-1824989D01*
X596239Y-1823161D01*
X594004Y-1822094D01*
X547979Y-1821992D01*
X547979Y-1791716D01*
X593547Y-1791716D01*
X595934Y-1790903D01*
X598373Y-1788414D01*
X599236Y-1785772D01*
X599236Y-1770329D01*
X598474Y-1767839D01*
X596290Y-1765401D01*
X593750Y-1764233D01*
X547979Y-1764131D01*
X547979Y-1734108D01*
X593750Y-1733956D01*
X596290Y-1732788D01*
X598474Y-1730400D01*
X599236Y-1727911D01*
X599236Y-1712468D01*
X598474Y-1709978D01*
X596290Y-1707540D01*
X593750Y-1706372D01*
X547979Y-1706270D01*
X547979Y-1676247D01*
X594004Y-1676146D01*
X596239Y-1675079D01*
X598017Y-1673301D01*
X599084Y-1671218D01*
X599084Y-1653641D01*
X597763Y-1651152D01*
X595731Y-1649425D01*
X593547Y-1648663D01*
X547979Y-1648663D01*
X547979Y-1618386D01*
X594004Y-1618284D01*
X596239Y-1617218D01*
X598017Y-1615440D01*
X599084Y-1613357D01*
X599084Y-1595831D01*
X597662Y-1593189D01*
X596239Y-1592021D01*
X594207Y-1590903D01*
X547979Y-1590802D01*
X547979Y-1578254D01*
X547471Y-1572869D01*
X546201Y-1566265D01*
X543610Y-1558290D01*
X540207Y-1551381D01*
X536295Y-1545539D01*
X532993Y-1541373D01*
X528066Y-1536446D01*
X523443Y-1532737D01*
X518058Y-1529232D01*
X511200Y-1525879D01*
X506374Y-1524101D01*
X499821Y-1522476D01*
X494893Y-1521663D01*
X478637Y-1521409D01*
X478535Y-1475232D01*
X476148Y-1471625D01*
X473608Y-1470355D01*
X456031Y-1470355D01*
X453440Y-1471777D01*
X452272Y-1473200D01*
X451154Y-1475232D01*
X451053Y-1521460D01*
X420776Y-1521460D01*
X420776Y-1475892D01*
X420014Y-1473657D01*
X418134Y-1471523D01*
X415798Y-1470355D01*
X399135Y-1470202D01*
X396392Y-1471218D01*
X394360Y-1473200D01*
X393344Y-1475435D01*
X393192Y-1521460D01*
X363067Y-1521358D01*
X362813Y-1474978D01*
X361746Y-1472946D01*
X359460Y-1470964D01*
X357225Y-1470202D01*
X341223Y-1470202D01*
X338632Y-1471168D01*
X336600Y-1473250D01*
X335686Y-1474978D01*
X335483Y-1521358D01*
X305308Y-1521460D01*
X305206Y-1475689D01*
X304088Y-1473250D01*
X302056Y-1471168D01*
X299415Y-1470202D01*
G37*
G36*
X199999Y-699262D02*
G01*
X199999Y-700735D01*
X205130Y-706120D01*
X204520Y-708558D01*
X198374Y-707898D01*
X185572Y-704240D01*
X181457Y-704088D01*
X181610Y-708202D01*
X182219Y-712165D01*
X181406Y-712978D01*
X168605Y-709320D01*
X160832Y-708761D01*
X155651Y-709879D01*
X153974Y-711098D01*
X156108Y-716026D01*
X156565Y-717550D01*
X153009Y-718413D01*
X137007Y-718972D01*
X133604Y-719937D01*
X134112Y-721512D01*
X139496Y-732637D01*
X140563Y-737768D01*
X139496Y-739038D01*
X132486Y-739546D01*
X131165Y-740867D01*
X133756Y-746150D01*
X147320Y-758545D01*
X145694Y-760323D01*
X143002Y-761746D01*
X135890Y-761187D01*
X136448Y-762762D01*
X138938Y-766419D01*
X147726Y-775766D01*
X149555Y-779373D01*
X148437Y-780288D01*
X143967Y-780846D01*
X142697Y-781862D01*
X146456Y-786587D01*
X152908Y-792276D01*
X161036Y-797864D01*
X160070Y-799642D01*
X158038Y-800912D01*
X155092Y-801522D01*
X154533Y-802436D01*
X156210Y-804316D01*
X162661Y-808685D01*
X176631Y-815746D01*
X176631Y-816610D01*
X170434Y-819556D01*
X170434Y-820928D01*
X192836Y-831951D01*
X193802Y-833628D01*
X190804Y-836066D01*
X190855Y-836726D01*
X194259Y-838453D01*
X198424Y-839469D01*
X213512Y-840486D01*
X218389Y-841451D01*
X217830Y-843787D01*
X215544Y-846531D01*
X215798Y-848004D01*
X229108Y-848258D01*
X239166Y-847242D01*
X247904Y-845362D01*
X257962Y-842162D01*
X267157Y-837590D01*
X272186Y-834237D01*
X279400Y-827379D01*
X283006Y-822096D01*
X285699Y-816406D01*
X287223Y-809548D01*
X278028Y-800760D01*
X266700Y-791210D01*
X255676Y-782980D01*
X233832Y-768451D01*
X191516Y-743254D01*
X192227Y-743254D01*
X207111Y-748893D01*
X223164Y-755700D01*
X239014Y-763422D01*
X252933Y-770940D01*
X264414Y-777748D01*
X282702Y-789889D01*
X296367Y-800150D01*
X305663Y-795528D01*
X311759Y-790498D01*
X314706Y-786231D01*
X316585Y-781558D01*
X316941Y-768451D01*
X315874Y-760984D01*
X313588Y-753160D01*
X308305Y-742137D01*
X301345Y-731824D01*
X295300Y-724052D01*
X291388Y-719785D01*
X289356Y-720445D01*
X287121Y-723950D01*
X285140Y-724560D01*
X281940Y-721512D01*
X275386Y-713841D01*
X268986Y-708507D01*
X267868Y-709422D01*
X267258Y-713587D01*
X265531Y-715314D01*
X263804Y-715314D01*
X261162Y-713282D01*
X253136Y-706323D01*
X248412Y-703884D01*
X247243Y-704850D01*
X246634Y-709015D01*
X244906Y-710742D01*
X243484Y-710742D01*
X231851Y-702360D01*
X225450Y-699262D01*
X224637Y-700125D01*
X223621Y-707288D01*
X222859Y-708406D01*
X216255Y-704138D01*
X208686Y-700582D01*
X202539Y-699312D01*
G37*
G36*
X470103Y-699262D02*
G01*
X464312Y-701497D01*
X456895Y-706069D01*
X453085Y-707948D01*
X449529Y-708507D01*
X447040Y-706526D01*
X446024Y-702513D01*
X444906Y-701598D01*
X440232Y-703986D01*
X431038Y-711758D01*
X429361Y-712978D01*
X427786Y-713028D01*
X426059Y-711301D01*
X425450Y-707136D01*
X424332Y-706221D01*
X421132Y-707644D01*
X408736Y-720140D01*
X406298Y-722274D01*
X401574Y-715213D01*
X398322Y-718312D01*
X391464Y-726084D01*
X384149Y-737006D01*
X381131Y-743254D01*
X498805Y-743254D01*
X498805Y-743712D01*
X498348Y-743712D01*
X498348Y-743254D01*
X381131Y-743254D01*
X378358Y-748995D01*
X375158Y-759104D01*
X374040Y-766216D01*
X374548Y-774242D01*
X375970Y-779780D01*
X378155Y-784758D01*
X382270Y-790295D01*
X386283Y-793597D01*
X390956Y-796442D01*
X394817Y-797763D01*
X405892Y-789990D01*
X421589Y-780084D01*
X431647Y-774039D01*
X441756Y-768400D01*
X464667Y-757072D01*
X481634Y-749808D01*
X497535Y-743712D01*
X497941Y-744067D01*
X491235Y-747522D01*
X469696Y-759460D01*
X456438Y-767283D01*
X441756Y-776833D01*
X432104Y-783793D01*
X425246Y-789228D01*
X412902Y-800049D01*
X403860Y-809142D01*
X406755Y-816356D01*
X411022Y-823264D01*
X418388Y-830935D01*
X423875Y-834847D01*
X433019Y-839419D01*
X440334Y-841857D01*
X447243Y-843584D01*
X461924Y-846582D01*
X475640Y-846582D01*
X477824Y-845413D01*
X477215Y-842518D01*
X477012Y-839317D01*
X480263Y-838250D01*
X494893Y-837184D01*
X499059Y-836168D01*
X502462Y-834440D01*
X502462Y-833729D01*
X500176Y-830630D01*
X500176Y-829919D01*
X502920Y-828497D01*
X517804Y-823569D01*
X523341Y-820369D01*
X525068Y-818438D01*
X522427Y-818438D01*
X519176Y-816813D01*
X519176Y-815492D01*
X532688Y-808482D01*
X537057Y-804926D01*
X539038Y-802640D01*
X538124Y-801522D01*
X533857Y-799033D01*
X532282Y-797712D01*
X535178Y-794004D01*
X545439Y-785520D01*
X548335Y-781812D01*
X543814Y-782370D01*
X541426Y-779983D01*
X541426Y-778814D01*
X555548Y-765048D01*
X557479Y-761187D01*
X556006Y-760374D01*
X551434Y-761085D01*
X549402Y-760323D01*
X548233Y-758901D01*
X549706Y-755853D01*
X559562Y-746150D01*
X562152Y-740867D01*
X560832Y-739597D01*
X553669Y-738936D01*
X552754Y-737412D01*
X553974Y-732942D01*
X560781Y-723036D01*
X562051Y-719937D01*
X558596Y-718972D01*
X542594Y-718413D01*
X539140Y-717550D01*
X539140Y-716737D01*
X541578Y-711149D01*
X541121Y-710742D01*
X535686Y-709726D01*
X526084Y-710234D01*
X514146Y-712927D01*
X513232Y-712063D01*
X513232Y-706831D01*
X514045Y-703732D01*
X507746Y-704392D01*
X495300Y-707999D01*
X490778Y-708202D01*
X490524Y-704240D01*
X493318Y-699871D01*
X493318Y-699262D01*
X490778Y-699312D01*
X484378Y-700633D01*
X476808Y-704291D01*
X470357Y-708456D01*
X469392Y-705916D01*
X469900Y-701344D01*
X470509Y-699262D01*
G37*
G36*
X353466Y-862888D02*
G01*
X339090Y-862990D01*
X333146Y-863752D01*
X323951Y-865733D01*
X314452Y-868832D01*
X302412Y-874674D01*
X291185Y-882192D01*
X282854Y-890117D01*
X278739Y-895908D01*
X275945Y-902462D01*
X275488Y-909929D01*
X277063Y-915365D01*
X279958Y-920750D01*
X287324Y-928268D01*
X295605Y-933805D01*
X306527Y-939292D01*
X314502Y-942187D01*
X323291Y-944422D01*
X337261Y-946505D01*
X361543Y-946505D01*
X367944Y-944930D01*
X379882Y-942644D01*
X386283Y-941171D01*
X394106Y-938834D01*
X401777Y-935278D01*
X409397Y-930249D01*
X415899Y-923137D01*
X419455Y-916076D01*
X420573Y-910793D01*
X420014Y-904798D01*
X418134Y-899312D01*
X414528Y-893267D01*
X407974Y-886256D01*
X399796Y-879805D01*
X392125Y-874877D01*
X383794Y-870661D01*
X374446Y-866952D01*
X364032Y-864260D01*
G37*
G36*
X242874Y-876249D02*
G01*
X232765Y-877011D01*
X223621Y-878484D01*
X213055Y-881278D01*
X204368Y-884529D01*
X194360Y-889558D01*
X187248Y-893978D01*
X180441Y-899007D01*
X174802Y-904036D01*
X167843Y-911707D01*
X162356Y-919886D01*
X157734Y-929081D01*
X154228Y-939698D01*
X152349Y-949502D01*
X151333Y-962863D01*
X151942Y-972261D01*
X154533Y-973785D01*
X158140Y-973785D01*
X171043Y-969264D01*
X188315Y-958545D01*
X197002Y-952550D01*
X205282Y-946200D01*
X230479Y-924407D01*
X244246Y-911555D01*
X252526Y-902512D01*
X259842Y-893826D01*
X264109Y-886510D01*
X265988Y-882243D01*
X266547Y-878128D01*
X263956Y-877569D01*
X255676Y-876706D01*
G37*
G36*
X449986Y-878992D02*
G01*
X441299Y-879805D01*
X434848Y-881126D01*
X431444Y-882548D01*
X431444Y-884224D01*
X433222Y-888085D01*
X439013Y-897382D01*
X466496Y-924001D01*
X482092Y-937869D01*
X491235Y-945235D01*
X504088Y-954735D01*
X520293Y-965301D01*
X528828Y-970635D01*
X533298Y-973785D01*
X538378Y-975258D01*
X542848Y-974852D01*
X543763Y-973937D01*
X545287Y-968502D01*
X545287Y-955243D01*
X543610Y-946505D01*
X539597Y-934161D01*
X534720Y-924052D01*
X529488Y-915517D01*
X524103Y-908507D01*
X518566Y-902411D01*
X509270Y-894740D01*
X501599Y-890066D01*
X491896Y-885799D01*
X481380Y-882599D01*
X472135Y-880719D01*
X462381Y-879449D01*
G37*
G36*
X426161Y-948639D02*
G01*
X418388Y-949452D01*
X411480Y-950976D01*
X403707Y-953719D01*
X396392Y-957427D01*
X390194Y-961542D01*
X383387Y-967333D01*
X377037Y-974953D01*
X373126Y-980744D01*
X368249Y-990955D01*
X365506Y-1000201D01*
X364083Y-1011478D01*
X364083Y-1022603D01*
X365353Y-1032205D01*
X366826Y-1038656D01*
X370078Y-1048715D01*
X375970Y-1060958D01*
X381762Y-1069797D01*
X387502Y-1076960D01*
X394106Y-1083919D01*
X402793Y-1091184D01*
X411683Y-1097127D01*
X422503Y-1102512D01*
X431901Y-1105763D01*
X441756Y-1107744D01*
X457352Y-1108151D01*
X468071Y-1106220D01*
X475640Y-1103833D01*
X483920Y-1099921D01*
X489864Y-1096060D01*
X496722Y-1090320D01*
X501497Y-1084834D01*
X506679Y-1077620D01*
X511149Y-1068425D01*
X513842Y-1060196D01*
X515264Y-1053185D01*
X516331Y-1044143D01*
X515772Y-1031595D01*
X514350Y-1023518D01*
X512521Y-1016203D01*
X510336Y-1009700D01*
X505968Y-999744D01*
X500126Y-990041D01*
X493522Y-981405D01*
X484885Y-972362D01*
X477977Y-966571D01*
X469239Y-960678D01*
X459181Y-955548D01*
X451815Y-952601D01*
X444042Y-950315D01*
X436676Y-949147D01*
G37*
G36*
X274015Y-954989D02*
G01*
X262077Y-955090D01*
X253288Y-956310D01*
X239115Y-959967D01*
X229260Y-964184D01*
X218084Y-970940D01*
X208889Y-978255D01*
X202742Y-984808D01*
X197104Y-991920D01*
X191871Y-999845D01*
X186690Y-1010005D01*
X183591Y-1018032D01*
X180746Y-1028547D01*
X179374Y-1038606D01*
X179324Y-1050544D01*
X180340Y-1058824D01*
X182219Y-1066596D01*
X184912Y-1073810D01*
X189534Y-1082852D01*
X196240Y-1091844D01*
X203962Y-1099159D01*
X212394Y-1104900D01*
X219862Y-1108608D01*
X229108Y-1111707D01*
X237794Y-1113078D01*
X245160Y-1113688D01*
X255219Y-1112621D01*
X263652Y-1110792D01*
X271272Y-1108202D01*
X279755Y-1104442D01*
X289356Y-1098753D01*
X298754Y-1091692D01*
X309829Y-1080363D01*
X316738Y-1071067D01*
X321462Y-1063244D01*
X326440Y-1052830D01*
X330098Y-1041857D01*
X331978Y-1032662D01*
X333095Y-1020622D01*
X331978Y-1007922D01*
X330606Y-1001521D01*
X328269Y-994206D01*
X324205Y-985570D01*
X319176Y-978052D01*
X312521Y-970889D01*
X304292Y-964539D01*
X292354Y-958697D01*
X281787Y-955954D01*
G37*
G36*
X549910Y-997610D02*
G01*
X546150Y-999337D01*
X542899Y-1003350D01*
X539699Y-1009751D01*
X537260Y-1017574D01*
X536194Y-1028090D01*
X536194Y-1054252D01*
X537768Y-1068425D01*
X539597Y-1078992D01*
X541782Y-1088593D01*
X545592Y-1103528D01*
X548843Y-1112824D01*
X553008Y-1121156D01*
X557428Y-1128014D01*
X561848Y-1131316D01*
X564743Y-1132840D01*
X568502Y-1132840D01*
X572160Y-1130960D01*
X575919Y-1127556D01*
X580694Y-1121613D01*
X585012Y-1114856D01*
X589432Y-1106017D01*
X592785Y-1097076D01*
X595071Y-1087678D01*
X596544Y-1076706D01*
X596036Y-1062482D01*
X594512Y-1052372D01*
X592277Y-1043787D01*
X589026Y-1034999D01*
X583946Y-1025347D01*
X578764Y-1018082D01*
X571652Y-1010564D01*
X565505Y-1005535D01*
X557174Y-999998D01*
X553415Y-998118D01*
G37*
G36*
X145643Y-999439D02*
G01*
X140665Y-999490D01*
X135585Y-1001572D01*
X131013Y-1004671D01*
X123494Y-1010513D01*
X117195Y-1016660D01*
X112318Y-1022603D01*
X106883Y-1030833D01*
X102463Y-1040028D01*
X99161Y-1049832D01*
X96824Y-1061110D01*
X96316Y-1079449D01*
X97840Y-1089964D01*
X100177Y-1099108D01*
X103174Y-1106932D01*
X106527Y-1113637D01*
X110489Y-1119784D01*
X117195Y-1127810D01*
X122631Y-1131874D01*
X126136Y-1132840D01*
X129794Y-1131570D01*
X134010Y-1128115D01*
X134010Y-1127556D01*
X139903Y-1120851D01*
X143205Y-1114501D01*
X148539Y-1100074D01*
X151790Y-1089964D01*
X155041Y-1076706D01*
X157327Y-1062482D01*
X158292Y-1053287D01*
X158851Y-1036370D01*
X156108Y-1013917D01*
X154533Y-1009294D01*
X152196Y-1004569D01*
X149606Y-1001369D01*
G37*
G36*
X353110Y-1097991D02*
G01*
X344119Y-1098143D01*
X340918Y-1098448D01*
X334975Y-1099413D01*
X324815Y-1100632D01*
X313893Y-1105001D01*
X305104Y-1109370D01*
X295097Y-1116025D01*
X284073Y-1127099D01*
X278892Y-1134872D01*
X274777Y-1143152D01*
X271475Y-1152906D01*
X270052Y-1162405D01*
X270510Y-1180693D01*
X272034Y-1187602D01*
X275082Y-1196898D01*
X278739Y-1204163D01*
X284530Y-1212748D01*
X294182Y-1222756D01*
X303631Y-1230376D01*
X311251Y-1234998D01*
X318211Y-1238199D01*
X325780Y-1240891D01*
X336804Y-1243279D01*
X346303Y-1244193D01*
X353771Y-1244193D01*
X366115Y-1242771D01*
X378053Y-1239672D01*
X387705Y-1235913D01*
X396595Y-1231138D01*
X405079Y-1225194D01*
X415188Y-1215085D01*
X421944Y-1205026D01*
X425348Y-1197660D01*
X427735Y-1190802D01*
X429768Y-1181150D01*
X429768Y-1165148D01*
X427735Y-1155496D01*
X425043Y-1147521D01*
X420776Y-1138986D01*
X416001Y-1131671D01*
X408990Y-1123289D01*
X402336Y-1117092D01*
X394106Y-1110996D01*
X386384Y-1106678D01*
X379425Y-1103630D01*
X369316Y-1100378D01*
X362000Y-1098956D01*
G37*
G36*
X524713Y-1125067D02*
G01*
X520598Y-1125118D01*
X515772Y-1126388D01*
X506831Y-1129690D01*
X498703Y-1133957D01*
X488950Y-1142136D01*
X483006Y-1147673D01*
X462483Y-1167892D01*
X455117Y-1177036D01*
X448767Y-1186688D01*
X441655Y-1200962D01*
X437946Y-1211478D01*
X435101Y-1222857D01*
X433730Y-1232255D01*
X433730Y-1238605D01*
X434695Y-1248105D01*
X436473Y-1255776D01*
X439369Y-1261770D01*
X443433Y-1266139D01*
X447243Y-1268374D01*
X452729Y-1270050D01*
X475183Y-1269796D01*
X484733Y-1267460D01*
X495350Y-1263853D01*
X506374Y-1258519D01*
X515061Y-1252778D01*
X520598Y-1248562D01*
X530961Y-1238504D01*
X537972Y-1229309D01*
X543814Y-1219657D01*
X549097Y-1208684D01*
X552500Y-1200099D01*
X555091Y-1189837D01*
X556209Y-1178407D01*
X555599Y-1169263D01*
X554228Y-1160526D01*
X551484Y-1150112D01*
X547725Y-1139901D01*
X544982Y-1134465D01*
X540004Y-1129284D01*
X534720Y-1126439D01*
X528828Y-1125067D01*
G37*
G36*
X164490Y-1137158D02*
G01*
X158038Y-1137716D01*
X153009Y-1139190D01*
X148590Y-1142034D01*
X144119Y-1146657D01*
X140462Y-1154125D01*
X138379Y-1161948D01*
X138430Y-1185316D01*
X139547Y-1192174D01*
X140919Y-1198473D01*
X143510Y-1205992D01*
X147116Y-1213256D01*
X157480Y-1231595D01*
X163068Y-1239316D01*
X171754Y-1248359D01*
X179628Y-1254607D01*
X185572Y-1258468D01*
X196545Y-1263853D01*
X208025Y-1267510D01*
X214426Y-1268933D01*
X228650Y-1270863D01*
X236423Y-1270406D01*
X241858Y-1268933D01*
X246532Y-1266596D01*
X250952Y-1262278D01*
X254203Y-1256487D01*
X255930Y-1250899D01*
X257302Y-1242568D01*
X257302Y-1237284D01*
X256336Y-1230680D01*
X254457Y-1221028D01*
X250545Y-1209141D01*
X245414Y-1197864D01*
X239014Y-1187145D01*
X234137Y-1180084D01*
X225907Y-1170178D01*
X216255Y-1160678D01*
X207213Y-1153363D01*
X198831Y-1147826D01*
X185115Y-1141120D01*
X179120Y-1139190D01*
X169976Y-1137462D01*
G37*
G36*
X343662Y-1266240D02*
G01*
X332689Y-1267053D01*
X320751Y-1268526D01*
X309778Y-1270812D01*
X300278Y-1273556D01*
X291439Y-1276807D01*
X280873Y-1281836D01*
X274370Y-1285900D01*
X270967Y-1289659D01*
X269240Y-1293469D01*
X269189Y-1299057D01*
X272542Y-1305712D01*
X281787Y-1314856D01*
X290982Y-1322273D01*
X300583Y-1328572D01*
X312166Y-1334312D01*
X323494Y-1338072D01*
X332943Y-1339951D01*
X343662Y-1341018D01*
X357886Y-1340459D01*
X367030Y-1339037D01*
X377393Y-1336294D01*
X384251Y-1333550D01*
X391820Y-1329791D01*
X398221Y-1325626D01*
X404622Y-1320292D01*
X409803Y-1315466D01*
X419963Y-1303782D01*
X423316Y-1298600D01*
X425043Y-1293723D01*
X424992Y-1290269D01*
X423113Y-1286103D01*
X418744Y-1281988D01*
X411378Y-1278077D01*
X399135Y-1272997D01*
X392684Y-1270863D01*
X381254Y-1268425D01*
X367944Y-1266596D01*
G37*
G36*
X100634Y-2099360D02*
G01*
X99364Y-2100630D01*
X99523Y-2241905D01*
X128066Y-2241905D01*
X128930Y-2240838D01*
X192633Y-2240838D01*
X193954Y-2241804D01*
X194716Y-2245715D01*
X196291Y-2248763D01*
X196291Y-2250744D01*
X198221Y-2254402D01*
X198221Y-2255977D01*
X200152Y-2260600D01*
X200202Y-2262378D01*
X202082Y-2266238D01*
X202082Y-2267813D01*
X203708Y-2270912D01*
X204419Y-2275078D01*
X205587Y-2276398D01*
X206400Y-2280564D01*
X207467Y-2282190D01*
X208279Y-2286711D01*
X209499Y-2288032D01*
X210210Y-2292502D01*
X211429Y-2294331D01*
X212191Y-2298344D01*
X213360Y-2299665D01*
X214121Y-2303881D01*
X215646Y-2306929D01*
X215646Y-2309012D01*
X217627Y-2312670D01*
X217627Y-2314549D01*
X220167Y-2320036D01*
X220878Y-2320137D01*
X223367Y-2315464D01*
X223469Y-2312771D01*
X225348Y-2309672D01*
X225348Y-2307894D01*
X227279Y-2304237D01*
X227279Y-2302154D01*
X229260Y-2298496D01*
X229260Y-2296718D01*
X231190Y-2293061D01*
X231190Y-2291029D01*
X232714Y-2288184D01*
X233527Y-2284476D01*
X234645Y-2283256D01*
X235305Y-2279802D01*
X236982Y-2276703D01*
X236982Y-2274773D01*
X238912Y-2271115D01*
X238912Y-2269134D01*
X240842Y-2265476D01*
X240842Y-2264206D01*
X242773Y-2260041D01*
X242824Y-2258517D01*
X244703Y-2254605D01*
X244754Y-2252675D01*
X246583Y-2249170D01*
X247142Y-2246071D01*
X248615Y-2243683D01*
X248615Y-2241753D01*
X249682Y-2240838D01*
X289102Y-2241042D01*
X290982Y-2244445D01*
X291642Y-2247900D01*
X293166Y-2249881D01*
X293166Y-2251913D01*
X294995Y-2255418D01*
X295554Y-2258212D01*
X296621Y-2259126D01*
X297434Y-2262886D01*
X299008Y-2265476D01*
X299008Y-2267407D01*
X300939Y-2270506D01*
X300939Y-2272436D01*
X302768Y-2275941D01*
X303276Y-2278532D01*
X304800Y-2280513D01*
X304800Y-2282901D01*
X306730Y-2286000D01*
X306730Y-2288032D01*
X308559Y-2291435D01*
X309067Y-2294026D01*
X310642Y-2296007D01*
X310642Y-2298242D01*
X312572Y-2301900D01*
X312572Y-2303272D01*
X314401Y-2306929D01*
X314909Y-2309520D01*
X316433Y-2311501D01*
X316433Y-2313940D01*
X318008Y-2316480D01*
X318770Y-2319985D01*
X320802Y-2323033D01*
X321665Y-2322779D01*
X324205Y-2317953D01*
X324205Y-2316632D01*
X326136Y-2313533D01*
X326136Y-2311704D01*
X327609Y-2309672D01*
X328472Y-2306472D01*
X329641Y-2305507D01*
X330098Y-2302510D01*
X331927Y-2300020D01*
X331927Y-2298141D01*
X333806Y-2294940D01*
X334264Y-2292350D01*
X335838Y-2290368D01*
X335838Y-2288641D01*
X337362Y-2286660D01*
X337870Y-2284069D01*
X339699Y-2280920D01*
X339699Y-2279802D01*
X341630Y-2276144D01*
X341680Y-2274773D01*
X343560Y-2271674D01*
X343560Y-2270099D01*
X345490Y-2267000D01*
X345541Y-2265476D01*
X347472Y-2262378D01*
X347472Y-2260955D01*
X349300Y-2257704D01*
X349758Y-2255113D01*
X351332Y-2253132D01*
X351332Y-2251659D01*
X353161Y-2248408D01*
X353669Y-2245817D01*
X355193Y-2243836D01*
X355193Y-2241753D01*
X356717Y-2239822D01*
X357276Y-2237587D01*
X359105Y-2234387D01*
X359105Y-2232964D01*
X361035Y-2230170D01*
X361492Y-2226513D01*
X360476Y-2225294D01*
X346202Y-2225497D01*
X345592Y-2224430D01*
X384098Y-2185314D01*
X412089Y-2156561D01*
X422046Y-2145944D01*
X422605Y-2145893D01*
X424535Y-2146655D01*
X423773Y-2148840D01*
X424027Y-2256180D01*
X424383Y-2257704D01*
X421893Y-2257958D01*
X420573Y-2255774D01*
X412242Y-2247036D01*
X409956Y-2248204D01*
X409448Y-2249474D01*
X409448Y-2251049D01*
X407974Y-2253437D01*
X407060Y-2256942D01*
X405587Y-2258771D01*
X405587Y-2260041D01*
X403656Y-2263698D01*
X403656Y-2264968D01*
X401828Y-2268169D01*
X401320Y-2270760D01*
X399796Y-2272741D01*
X399796Y-2274824D01*
X397865Y-2277465D01*
X397865Y-2279446D01*
X395884Y-2282088D01*
X395884Y-2284120D01*
X393954Y-2286762D01*
X393954Y-2288336D01*
X392480Y-2290826D01*
X391566Y-2294128D01*
X390093Y-2296007D01*
X390093Y-2298141D01*
X388569Y-2300020D01*
X388061Y-2302306D01*
X386283Y-2305405D01*
X385826Y-2307996D01*
X384251Y-2309977D01*
X384251Y-2311603D01*
X382778Y-2314041D01*
X381863Y-2317394D01*
X380390Y-2319274D01*
X380390Y-2321356D01*
X378917Y-2322728D01*
X378053Y-2326690D01*
X376834Y-2328011D01*
X376072Y-2331364D01*
X374904Y-2332685D01*
X374142Y-2335987D01*
X373126Y-2337155D01*
X372160Y-2340660D01*
X370687Y-2342489D01*
X370687Y-2344166D01*
X368757Y-2347264D01*
X368757Y-2348788D01*
X367284Y-2351278D01*
X366369Y-2354630D01*
X365353Y-2355799D01*
X364540Y-2358898D01*
X363423Y-2360472D01*
X362508Y-2363876D01*
X361035Y-2365756D01*
X361035Y-2367889D01*
X359511Y-2369210D01*
X358905Y-2372055D01*
X366826Y-2372055D01*
X366826Y-2367940D01*
X368655Y-2364689D01*
X369163Y-2362098D01*
X370687Y-2360117D01*
X370687Y-2358034D01*
X372211Y-2356104D01*
X372770Y-2353818D01*
X374497Y-2350719D01*
X375005Y-2347925D01*
X376529Y-2346553D01*
X376529Y-2344674D01*
X378358Y-2341422D01*
X378815Y-2338882D01*
X380390Y-2336901D01*
X380390Y-2335123D01*
X381965Y-2333193D01*
X382422Y-2330602D01*
X384251Y-2327402D01*
X384251Y-2326335D01*
X386232Y-2322677D01*
X386232Y-2321204D01*
X387756Y-2319274D01*
X388467Y-2316022D01*
X389636Y-2314702D01*
X390550Y-2311247D01*
X392023Y-2309368D01*
X392023Y-2307590D01*
X394817Y-2302459D01*
X395427Y-2302865D01*
X397611Y-2307336D01*
X397510Y-2308758D01*
X396240Y-2310130D01*
X395630Y-2314143D01*
X393954Y-2315311D01*
X393954Y-2316632D01*
X392023Y-2319731D01*
X392023Y-2321102D01*
X390093Y-2324760D01*
X390093Y-2327198D01*
X387756Y-2329637D01*
X387756Y-2330856D01*
X386232Y-2332837D01*
X386232Y-2333955D01*
X383895Y-2339492D01*
X382422Y-2342235D01*
X381863Y-2344928D01*
X380695Y-2346655D01*
X379984Y-2349855D01*
X378460Y-2351836D01*
X378460Y-2353868D01*
X376529Y-2356510D01*
X376529Y-2358085D01*
X374954Y-2360422D01*
X374091Y-2363520D01*
X372770Y-2365451D01*
X372262Y-2368143D01*
X370992Y-2369515D01*
X370484Y-2374188D01*
X369925Y-2374747D01*
X367842Y-2373985D01*
X366826Y-2372055D01*
X358905Y-2372055D01*
X358648Y-2373172D01*
X357479Y-2374544D01*
X356717Y-2377846D01*
X355498Y-2379167D01*
X354787Y-2382520D01*
X354330Y-2382977D01*
X371094Y-2382977D01*
X371094Y-2381046D01*
X372414Y-2379624D01*
X372719Y-2375357D01*
X374396Y-2373985D01*
X376478Y-2369718D01*
X376936Y-2367483D01*
X378460Y-2365552D01*
X378460Y-2363927D01*
X380288Y-2360422D01*
X380847Y-2358186D01*
X382320Y-2356256D01*
X382320Y-2353767D01*
X383895Y-2352344D01*
X385013Y-2348788D01*
X386588Y-2345740D01*
X386588Y-2344470D01*
X388061Y-2343150D01*
X388569Y-2340356D01*
X390093Y-2337562D01*
X390093Y-2336800D01*
X392430Y-2332177D01*
X392430Y-2331161D01*
X393954Y-2328265D01*
X393954Y-2326690D01*
X395478Y-2324252D01*
X396341Y-2320899D01*
X397865Y-2319070D01*
X397865Y-2315413D01*
X398780Y-2314498D01*
X399440Y-2314498D01*
X401320Y-2316530D01*
X401828Y-2319172D01*
X401472Y-2322931D01*
X399796Y-2325065D01*
X399796Y-2326792D01*
X398272Y-2328722D01*
X397510Y-2332024D01*
X396341Y-2333294D01*
X395528Y-2336393D01*
X393954Y-2338730D01*
X393954Y-2340762D01*
X392430Y-2342134D01*
X391922Y-2344928D01*
X390194Y-2348026D01*
X389636Y-2350312D01*
X388162Y-2352192D01*
X388162Y-2354478D01*
X386232Y-2357323D01*
X386232Y-2358491D01*
X384251Y-2362149D01*
X384251Y-2363622D01*
X382727Y-2365552D01*
X382016Y-2368804D01*
X380847Y-2370124D01*
X379933Y-2373579D01*
X378460Y-2375458D01*
X378460Y-2377592D01*
X376986Y-2379472D01*
X376123Y-2382672D01*
X375412Y-2383129D01*
X374142Y-2386990D01*
X373481Y-2387396D01*
X371094Y-2382977D01*
X354228Y-2383078D01*
X353720Y-2383688D01*
X352806Y-2387142D01*
X351332Y-2389022D01*
X351332Y-2390902D01*
X349402Y-2393746D01*
X349402Y-2395321D01*
X348383Y-2397252D01*
X376529Y-2397252D01*
X376529Y-2392527D01*
X378053Y-2391156D01*
X378561Y-2388362D01*
X380390Y-2385110D01*
X380390Y-2383637D01*
X382320Y-2380996D01*
X382371Y-2379014D01*
X384251Y-2375916D01*
X384251Y-2374747D01*
X386232Y-2371140D01*
X386232Y-2369261D01*
X387756Y-2367889D01*
X388213Y-2365095D01*
X389940Y-2362352D01*
X390448Y-2359812D01*
X392023Y-2357831D01*
X392023Y-2355799D01*
X393598Y-2353462D01*
X394411Y-2350363D01*
X395884Y-2348484D01*
X395884Y-2346401D01*
X397408Y-2344470D01*
X397916Y-2342235D01*
X399643Y-2339136D01*
X400151Y-2336546D01*
X401726Y-2334564D01*
X401726Y-2332736D01*
X404164Y-2328062D01*
X405130Y-2328062D01*
X407517Y-2332990D01*
X405739Y-2336393D01*
X405180Y-2338679D01*
X403656Y-2340559D01*
X403656Y-2342388D01*
X401726Y-2345232D01*
X401726Y-2346706D01*
X399846Y-2349957D01*
X399389Y-2352751D01*
X397865Y-2354173D01*
X397814Y-2356154D01*
X396290Y-2358491D01*
X395427Y-2361488D01*
X394055Y-2363520D01*
X393547Y-2366365D01*
X392430Y-2367280D01*
X391922Y-2370124D01*
X390194Y-2373223D01*
X389636Y-2375509D01*
X388162Y-2377389D01*
X388162Y-2379522D01*
X386689Y-2381402D01*
X385826Y-2384552D01*
X384657Y-2385517D01*
X384149Y-2388565D01*
X382320Y-2391257D01*
X382320Y-2392832D01*
X380390Y-2396490D01*
X380390Y-2398064D01*
X379374Y-2399436D01*
X377494Y-2399182D01*
X376529Y-2397252D01*
X348383Y-2397252D01*
X347573Y-2398826D01*
X347014Y-2401062D01*
X345490Y-2402992D01*
X345490Y-2405024D01*
X344369Y-2406802D01*
X381050Y-2406802D01*
X382320Y-2404110D01*
X382320Y-2402586D01*
X383844Y-2400655D01*
X384352Y-2398420D01*
X386080Y-2395321D01*
X386638Y-2393035D01*
X388162Y-2391156D01*
X388162Y-2389073D01*
X390093Y-2386431D01*
X390093Y-2385263D01*
X392023Y-2382113D01*
X392023Y-2380589D01*
X393954Y-2377490D01*
X393954Y-2375814D01*
X395884Y-2373477D01*
X395884Y-2371598D01*
X397408Y-2369667D01*
X397967Y-2367432D01*
X399694Y-2364333D01*
X400202Y-2362047D01*
X401726Y-2360117D01*
X401726Y-2358390D01*
X403250Y-2356408D01*
X403758Y-2353818D01*
X405180Y-2352243D01*
X405688Y-2349601D01*
X407466Y-2346858D01*
X407924Y-2344115D01*
X410260Y-2341575D01*
X411429Y-2342489D01*
X411429Y-2344572D01*
X412343Y-2345486D01*
X414375Y-2345486D01*
X415290Y-2344572D01*
X415290Y-2342896D01*
X416814Y-2340965D01*
X417525Y-2337714D01*
X418693Y-2336393D01*
X419455Y-2333498D01*
X421081Y-2331466D01*
X421081Y-2329383D01*
X423011Y-2326741D01*
X423011Y-2325776D01*
X424992Y-2322118D01*
X424992Y-2320798D01*
X426466Y-2318918D01*
X427380Y-2315514D01*
X428853Y-2313635D01*
X428853Y-2312365D01*
X430784Y-2309520D01*
X430784Y-2307234D01*
X432308Y-2305913D01*
X432816Y-2303475D01*
X434593Y-2300376D01*
X435101Y-2297887D01*
X436219Y-2296972D01*
X437083Y-2293772D01*
X438556Y-2291943D01*
X438556Y-2290165D01*
X440029Y-2288286D01*
X440588Y-2286000D01*
X442315Y-2282901D01*
X442823Y-2280666D01*
X444347Y-2278735D01*
X444347Y-2276805D01*
X446278Y-2274519D01*
X446278Y-2272385D01*
X447751Y-2270506D01*
X448564Y-2267610D01*
X450138Y-2265578D01*
X450189Y-2263902D01*
X452069Y-2260803D01*
X452120Y-2259177D01*
X453593Y-2257247D01*
X454151Y-2255012D01*
X455879Y-2251913D01*
X456438Y-2249627D01*
X457911Y-2247747D01*
X457911Y-2245664D01*
X459841Y-2243836D01*
X459841Y-2242159D01*
X460806Y-2240889D01*
X462788Y-2240584D01*
X495706Y-2240483D01*
X498144Y-2241956D01*
X498652Y-2243785D01*
X502056Y-2250338D01*
X504850Y-2256536D01*
X505612Y-2257704D01*
X507085Y-2260904D01*
X507847Y-2261412D01*
X508406Y-2263851D01*
X511606Y-2269947D01*
X512114Y-2270506D01*
X512622Y-2272995D01*
X513689Y-2273858D01*
X514604Y-2276703D01*
X516077Y-2278583D01*
X516077Y-2279853D01*
X518007Y-2282494D01*
X518007Y-2283714D01*
X519938Y-2286355D01*
X519938Y-2287625D01*
X521868Y-2290216D01*
X521868Y-2291130D01*
X523798Y-2294788D01*
X523798Y-2295855D01*
X525729Y-2298141D01*
X525729Y-2299716D01*
X527710Y-2302002D01*
X527710Y-2303729D01*
X529640Y-2306015D01*
X529640Y-2307742D01*
X531571Y-2310384D01*
X531571Y-2311755D01*
X533044Y-2313127D01*
X533806Y-2316022D01*
X535432Y-2318105D01*
X535432Y-2319528D01*
X536905Y-2321001D01*
X537413Y-2322830D01*
X540156Y-2328468D01*
X540816Y-2328875D01*
X541324Y-2331110D01*
X542696Y-2332939D01*
X543610Y-2335733D01*
X544677Y-2336647D01*
X545236Y-2339136D01*
X547065Y-2341829D01*
X547065Y-2343048D01*
X548995Y-2345639D01*
X548995Y-2346909D01*
X550926Y-2349550D01*
X550926Y-2350566D01*
X553262Y-2354935D01*
X553262Y-2355900D01*
X554380Y-2356815D01*
X555294Y-2359660D01*
X556768Y-2361488D01*
X556768Y-2362809D01*
X558698Y-2365451D01*
X558698Y-2366670D01*
X560527Y-2369210D01*
X561035Y-2371750D01*
X562559Y-2373172D01*
X562559Y-2375712D01*
X550722Y-2399792D01*
X550468Y-2400757D01*
X548995Y-2402586D01*
X548995Y-2403906D01*
X547065Y-2406497D01*
X547065Y-2407767D01*
X545134Y-2410409D01*
X545134Y-2411628D01*
X543255Y-2414168D01*
X542798Y-2416708D01*
X541274Y-2418130D01*
X541274Y-2419756D01*
X539292Y-2422398D01*
X539292Y-2423668D01*
X537362Y-2426258D01*
X537362Y-2427478D01*
X535432Y-2430576D01*
X535432Y-2431948D01*
X533908Y-2433472D01*
X533400Y-2435606D01*
X532028Y-2437180D01*
X531215Y-2440076D01*
X529640Y-2442108D01*
X529640Y-2443480D01*
X528167Y-2445308D01*
X527253Y-2448153D01*
X526135Y-2449068D01*
X526135Y-2449982D01*
X521411Y-2459634D01*
X520293Y-2460904D01*
X521208Y-2462885D01*
X523240Y-2463647D01*
X526338Y-2464104D01*
X529386Y-2465679D01*
X532282Y-2465679D01*
X534314Y-2466441D01*
X534060Y-2468930D01*
X532434Y-2469743D01*
X520903Y-2480614D01*
X516229Y-2484475D01*
X503478Y-2496108D01*
X499567Y-2499207D01*
X486003Y-2511602D01*
X475538Y-2520797D01*
X464566Y-2530805D01*
X463753Y-2529281D01*
X463753Y-2430119D01*
X464769Y-2429205D01*
X478078Y-2442057D01*
X478790Y-2441651D01*
X481177Y-2437384D01*
X481177Y-2435555D01*
X482701Y-2433624D01*
X483209Y-2431338D01*
X485038Y-2427884D01*
X485038Y-2426462D01*
X486968Y-2422855D01*
X486968Y-2421280D01*
X488899Y-2418181D01*
X488899Y-2416149D01*
X490423Y-2414219D01*
X491185Y-2410968D01*
X492404Y-2409596D01*
X493115Y-2405938D01*
X494284Y-2404618D01*
X495198Y-2401112D01*
X496671Y-2398725D01*
X496671Y-2396998D01*
X498195Y-2394864D01*
X499008Y-2391206D01*
X500481Y-2389124D01*
X500938Y-2386279D01*
X502056Y-2385364D01*
X502564Y-2382926D01*
X504139Y-2379675D01*
X502005Y-2374747D01*
X500532Y-2372918D01*
X500532Y-2371648D01*
X498601Y-2369007D01*
X498601Y-2367686D01*
X497179Y-2365857D01*
X496265Y-2363012D01*
X495198Y-2362098D01*
X494690Y-2359964D01*
X492810Y-2357374D01*
X492810Y-2356408D01*
X480618Y-2332329D01*
X479806Y-2332329D01*
X477316Y-2336952D01*
X477316Y-2338476D01*
X475335Y-2341372D01*
X475335Y-2342591D01*
X473405Y-2345690D01*
X473405Y-2347315D01*
X471474Y-2349906D01*
X471474Y-2351582D01*
X469544Y-2354173D01*
X469544Y-2356002D01*
X467614Y-2358847D01*
X467614Y-2360218D01*
X463854Y-2367788D01*
X463296Y-2370074D01*
X461772Y-2371953D01*
X461772Y-2373680D01*
X460298Y-2375611D01*
X459384Y-2379218D01*
X458317Y-2380081D01*
X457454Y-2383282D01*
X455980Y-2385161D01*
X455980Y-2386888D01*
X454456Y-2388768D01*
X453948Y-2391054D01*
X450240Y-2398826D01*
X449732Y-2401062D01*
X448208Y-2402992D01*
X448208Y-2404516D01*
X446735Y-2406599D01*
X446176Y-2408885D01*
X444449Y-2411984D01*
X443890Y-2414422D01*
X442823Y-2415387D01*
X441959Y-2418486D01*
X440537Y-2420518D01*
X440080Y-2423363D01*
X438912Y-2424277D01*
X438912Y-2425242D01*
X436676Y-2429814D01*
X436168Y-2431948D01*
X433679Y-2433472D01*
X392988Y-2433421D01*
X390499Y-2432659D01*
X390042Y-2430576D01*
X388162Y-2426614D01*
X388162Y-2425141D01*
X386334Y-2421686D01*
X385826Y-2418842D01*
X384657Y-2417927D01*
X384251Y-2415082D01*
X382422Y-2411222D01*
X381050Y-2406802D01*
X344369Y-2406802D01*
X343560Y-2408123D01*
X343560Y-2409698D01*
X341630Y-2412339D01*
X341630Y-2414371D01*
X340004Y-2416505D01*
X339242Y-2419705D01*
X338074Y-2421026D01*
X337362Y-2424277D01*
X335838Y-2426258D01*
X335838Y-2427732D01*
X333451Y-2432659D01*
X331774Y-2433116D01*
X303682Y-2433116D01*
X301752Y-2432253D01*
X300990Y-2430221D01*
X300482Y-2427935D01*
X299008Y-2426004D01*
X299008Y-2423972D01*
X297078Y-2420366D01*
X297078Y-2418588D01*
X295503Y-2416048D01*
X294690Y-2412441D01*
X293166Y-2410510D01*
X293166Y-2408123D01*
X291236Y-2405024D01*
X291236Y-2403043D01*
X289407Y-2399588D01*
X288950Y-2396998D01*
X287375Y-2395016D01*
X287375Y-2392984D01*
X285445Y-2389327D01*
X285445Y-2387904D01*
X283870Y-2384856D01*
X283057Y-2381453D01*
X281584Y-2379522D01*
X281584Y-2377490D01*
X279603Y-2373833D01*
X279603Y-2372461D01*
X277672Y-2368804D01*
X277672Y-2367026D01*
X275844Y-2363520D01*
X275336Y-2360726D01*
X274218Y-2359812D01*
X273354Y-2355646D01*
X272288Y-2354732D01*
X271475Y-2350719D01*
X269951Y-2348433D01*
X269900Y-2346502D01*
X268020Y-2343404D01*
X267970Y-2341422D01*
X266090Y-2338324D01*
X266039Y-2336749D01*
X265125Y-2335834D01*
X263093Y-2335834D01*
X262178Y-2336749D01*
X262178Y-2339136D01*
X260248Y-2342997D01*
X260248Y-2344521D01*
X258317Y-2348433D01*
X258317Y-2350414D01*
X256489Y-2353818D01*
X256032Y-2356866D01*
X254762Y-2358186D01*
X254152Y-2362098D01*
X252831Y-2364130D01*
X252120Y-2368143D01*
X250850Y-2369515D01*
X250190Y-2373172D01*
X248970Y-2374493D01*
X248361Y-2378252D01*
X246684Y-2381351D01*
X246684Y-2383383D01*
X245211Y-2385263D01*
X244348Y-2389835D01*
X243179Y-2391105D01*
X242468Y-2394915D01*
X240842Y-2398014D01*
X240842Y-2399588D01*
X239267Y-2402535D01*
X238556Y-2406446D01*
X236982Y-2408428D01*
X236982Y-2410815D01*
X235051Y-2413914D01*
X235051Y-2416098D01*
X233121Y-2419705D01*
X233121Y-2421534D01*
X231190Y-2425141D01*
X231190Y-2426716D01*
X229260Y-2430576D01*
X229260Y-2432253D01*
X228142Y-2433116D01*
X191668Y-2432913D01*
X190855Y-2432100D01*
X190042Y-2427579D01*
X188620Y-2425547D01*
X188163Y-2422296D01*
X186690Y-2419756D01*
X186182Y-2416251D01*
X185013Y-2414981D01*
X184302Y-2410510D01*
X183083Y-2408732D01*
X182219Y-2404668D01*
X180797Y-2402281D01*
X180797Y-2400147D01*
X178866Y-2395524D01*
X178866Y-2394153D01*
X176936Y-2390495D01*
X176936Y-2388514D01*
X174955Y-2384856D01*
X174955Y-2382469D01*
X173024Y-2378811D01*
X173024Y-2376678D01*
X171450Y-2373782D01*
X170637Y-2369769D01*
X169164Y-2367432D01*
X169164Y-2365095D01*
X167233Y-2361438D01*
X167233Y-2359253D01*
X165303Y-2355392D01*
X165252Y-2353462D01*
X163372Y-2349601D01*
X163322Y-2347620D01*
X161391Y-2344013D01*
X161391Y-2342235D01*
X159512Y-2338324D01*
X159461Y-2335987D01*
X157530Y-2332380D01*
X157530Y-2330196D01*
X155702Y-2326690D01*
X155143Y-2323236D01*
X154025Y-2321966D01*
X153314Y-2317800D01*
X151739Y-2314702D01*
X151688Y-2312771D01*
X149809Y-2308860D01*
X149758Y-2306929D01*
X147828Y-2303068D01*
X147828Y-2301138D01*
X145897Y-2297480D01*
X145897Y-2295702D01*
X143967Y-2291842D01*
X143967Y-2289505D01*
X142036Y-2285847D01*
X141986Y-2283714D01*
X140106Y-2279802D01*
X140106Y-2278176D01*
X138125Y-2274519D01*
X138125Y-2272080D01*
X136245Y-2268169D01*
X136194Y-2266797D01*
X134264Y-2262225D01*
X134264Y-2260447D01*
X132334Y-2256536D01*
X132334Y-2254605D01*
X130403Y-2250998D01*
X130403Y-2249119D01*
X128574Y-2245715D01*
X128066Y-2241905D01*
X99523Y-2241905D01*
X99618Y-2366619D01*
X100888Y-2372918D01*
X101752Y-2383282D01*
X102870Y-2386380D01*
X103632Y-2394915D01*
X104800Y-2397760D01*
X105562Y-2404364D01*
X106730Y-2406700D01*
X107543Y-2412136D01*
X109067Y-2416098D01*
X109118Y-2418588D01*
X110998Y-2422448D01*
X111048Y-2424785D01*
X112928Y-2428646D01*
X112979Y-2430424D01*
X114909Y-2434234D01*
X114909Y-2435656D01*
X116839Y-2439263D01*
X116839Y-2441143D01*
X118414Y-2443124D01*
X118872Y-2445715D01*
X120243Y-2447239D01*
X120802Y-2449982D01*
X122631Y-2453182D01*
X122631Y-2454757D01*
X124561Y-2457043D01*
X124561Y-2458516D01*
X126542Y-2461158D01*
X126542Y-2462530D01*
X128473Y-2464816D01*
X128473Y-2466390D01*
X130200Y-2468575D01*
X133451Y-2474366D01*
X134721Y-2477312D01*
X135483Y-2477312D01*
X136652Y-2480208D01*
X137820Y-2481529D01*
X140462Y-2486558D01*
X141224Y-2487015D01*
X143967Y-2491130D01*
X143967Y-2491689D01*
X147828Y-2496312D01*
X147828Y-2496972D01*
X155803Y-2507132D01*
X167436Y-2520391D01*
X174853Y-2527858D01*
X187198Y-2539187D01*
X199847Y-2549194D01*
X201117Y-2550464D01*
X203047Y-2551430D01*
X206502Y-2554224D01*
X225602Y-2566416D01*
X226364Y-2566416D01*
X229006Y-2568397D01*
X230276Y-2568397D01*
X231648Y-2569870D01*
X234086Y-2570429D01*
X236270Y-2572258D01*
X237591Y-2572258D01*
X240233Y-2574188D01*
X241554Y-2574188D01*
X243433Y-2575661D01*
X246583Y-2576525D01*
X247497Y-2577642D01*
X249986Y-2578150D01*
X253136Y-2579979D01*
X255117Y-2579979D01*
X257048Y-2581554D01*
X260299Y-2582265D01*
X261670Y-2583535D01*
X265684Y-2584145D01*
X267055Y-2585415D01*
X271068Y-2586177D01*
X272846Y-2587345D01*
X276352Y-2587853D01*
X280771Y-2589682D01*
X283311Y-2589733D01*
X286766Y-2591308D01*
X290271Y-2591714D01*
X295859Y-2593594D01*
X299567Y-2593594D01*
X303834Y-2595118D01*
X311962Y-2595880D01*
X315874Y-2597048D01*
X326085Y-2597861D01*
X332130Y-2599131D01*
X598525Y-2599385D01*
X599389Y-2598318D01*
X599135Y-2332126D01*
X597814Y-2325928D01*
X597103Y-2315870D01*
X595884Y-2312416D01*
X595172Y-2303830D01*
X593598Y-2299411D01*
X593598Y-2295855D01*
X591718Y-2290267D01*
X591261Y-2286457D01*
X590092Y-2284679D01*
X589381Y-2279700D01*
X588111Y-2277262D01*
X587298Y-2272893D01*
X586232Y-2271217D01*
X585419Y-2267102D01*
X584149Y-2265680D01*
X583539Y-2261717D01*
X582269Y-2260295D01*
X581507Y-2257044D01*
X580034Y-2255113D01*
X579983Y-2253081D01*
X578459Y-2250744D01*
X577596Y-2247646D01*
X576122Y-2245817D01*
X576122Y-2244090D01*
X574192Y-2241499D01*
X574192Y-2240127D01*
X572262Y-2237841D01*
X572262Y-2236266D01*
X570433Y-2234082D01*
X569874Y-2231745D01*
X568401Y-2230374D01*
X568401Y-2229002D01*
X567029Y-2227122D01*
X564489Y-2222957D01*
X564489Y-2222500D01*
X561187Y-2217470D01*
X557936Y-2211984D01*
X550926Y-2202383D01*
X550926Y-2201773D01*
X540512Y-2188718D01*
X528574Y-2175560D01*
X519734Y-2166721D01*
X513130Y-2161184D01*
X507136Y-2155799D01*
X496976Y-2147824D01*
X496316Y-2147824D01*
X491693Y-2143963D01*
X491134Y-2143963D01*
X487019Y-2141220D01*
X486562Y-2140458D01*
X484073Y-2139289D01*
X480568Y-2136952D01*
X477672Y-2135682D01*
X477672Y-2135073D01*
X468172Y-2129790D01*
X466293Y-2128469D01*
X465023Y-2128469D01*
X462432Y-2126538D01*
X461162Y-2126538D01*
X458520Y-2124557D01*
X457250Y-2124557D01*
X455371Y-2123084D01*
X452170Y-2122271D01*
X451307Y-2121154D01*
X447649Y-2120239D01*
X446328Y-2119071D01*
X443077Y-2118360D01*
X441147Y-2116836D01*
X439470Y-2116836D01*
X436727Y-2115362D01*
X433324Y-2114397D01*
X430428Y-2112975D01*
X428650Y-2112924D01*
X424789Y-2111044D01*
X422452Y-2110994D01*
X418592Y-2109063D01*
X415493Y-2109063D01*
X412038Y-2107488D01*
X406704Y-2106726D01*
X404368Y-2105507D01*
X397967Y-2104898D01*
X394919Y-2103628D01*
X386842Y-2102916D01*
X383286Y-2101748D01*
X372922Y-2100884D01*
X366623Y-2099614D01*
G37*
G36*
X947724Y-527964D02*
G01*
X945946Y-553872D01*
X949502Y-556158D01*
X951687Y-554685D01*
X953922Y-553669D01*
X956259Y-553059D01*
X958900Y-552856D01*
X963726Y-553770D01*
X967536Y-556361D01*
X969975Y-560476D01*
X970838Y-566064D01*
X969822Y-571754D01*
X967181Y-576072D01*
X963320Y-578815D01*
X958646Y-579780D01*
X953973Y-579272D01*
X950214Y-577850D01*
X947166Y-575818D01*
X944676Y-573430D01*
X941374Y-577494D01*
X944473Y-580186D01*
X948334Y-582523D01*
X953160Y-584250D01*
X959154Y-584860D01*
X965809Y-583641D01*
X971600Y-579932D01*
X975614Y-573938D01*
X977188Y-565810D01*
X975817Y-557784D01*
X972210Y-552297D01*
X966876Y-549097D01*
X960424Y-548030D01*
X957935Y-548182D01*
X955700Y-548640D01*
X953668Y-549351D01*
X951788Y-550316D01*
X953312Y-533298D01*
X974394Y-533298D01*
X974394Y-527964D01*
G37*
G36*
X981252Y-527964D02*
G01*
X999286Y-583844D01*
X1006398Y-583844D01*
X1024178Y-527964D01*
X1017828Y-527964D01*
X1003096Y-577240D01*
X1002842Y-577240D01*
X987856Y-527964D01*
G37*
G36*
X969060Y-780948D02*
G01*
X963726Y-781507D01*
X958900Y-782980D01*
X954633Y-785469D01*
X950925Y-788771D01*
X947978Y-792937D01*
X945743Y-797915D01*
X944371Y-803554D01*
X943914Y-809904D01*
X944371Y-816356D01*
X945692Y-822045D01*
X947877Y-827024D01*
X950823Y-831189D01*
X954430Y-834491D01*
X958697Y-836879D01*
X963472Y-838403D01*
X968806Y-838860D01*
X974039Y-838403D01*
X978712Y-837031D01*
X982675Y-835050D01*
X985824Y-832510D01*
X985824Y-809396D01*
X967790Y-809396D01*
X967790Y-814476D01*
X979982Y-814476D01*
X979982Y-829716D01*
X977900Y-831240D01*
X975309Y-832358D01*
X972362Y-833069D01*
X969314Y-833272D01*
X961186Y-831646D01*
X955192Y-826922D01*
X951484Y-819556D01*
X950264Y-809904D01*
X951585Y-800150D01*
X955395Y-792835D01*
X961390Y-788162D01*
X969314Y-786536D01*
X973277Y-786993D01*
X976528Y-788162D01*
X979220Y-789889D01*
X981506Y-791870D01*
X985062Y-787806D01*
X982268Y-785368D01*
X978763Y-783183D01*
X974394Y-781558D01*
G37*
G36*
X999286Y-781964D02*
G01*
X999286Y-837844D01*
X1005128Y-837844D01*
X1005027Y-803046D01*
X1004366Y-790346D01*
X1004874Y-790346D01*
X1010970Y-801776D01*
X1031798Y-837844D01*
X1038402Y-837844D01*
X1038402Y-781964D01*
X1032306Y-781964D01*
X1032357Y-816610D01*
X1033322Y-829716D01*
X1032814Y-829716D01*
X1026718Y-818286D01*
X1005636Y-781964D01*
G37*
G36*
X1053896Y-781964D02*
G01*
X1053896Y-787298D01*
X1067104Y-787298D01*
X1071880Y-787704D01*
X1075994Y-788822D01*
X1079449Y-790651D01*
X1082243Y-793140D01*
X1084427Y-796340D01*
X1085951Y-800201D01*
X1086866Y-804621D01*
X1087170Y-809650D01*
X1086866Y-814730D01*
X1085951Y-819302D01*
X1084427Y-823214D01*
X1082243Y-826566D01*
X1079449Y-829208D01*
X1075994Y-831189D01*
X1071880Y-832358D01*
X1067104Y-832764D01*
X1060246Y-832764D01*
X1060246Y-787298D01*
X1053896Y-787298D01*
X1053896Y-837844D01*
X1067866Y-837844D01*
X1073861Y-837387D01*
X1079093Y-835914D01*
X1083513Y-833577D01*
X1087170Y-830326D01*
X1090066Y-826312D01*
X1092098Y-821486D01*
X1093317Y-815898D01*
X1093774Y-809650D01*
X1093317Y-803452D01*
X1092098Y-797966D01*
X1090015Y-793191D01*
X1087170Y-789279D01*
X1083462Y-786130D01*
X1078992Y-783844D01*
X1073658Y-782472D01*
X1067612Y-781964D01*
G37*
G36*
X959154Y-1034948D02*
G01*
X954633Y-1035507D01*
X950518Y-1036929D01*
X946861Y-1039063D01*
X943660Y-1041552D01*
X947216Y-1045616D01*
X949655Y-1043533D01*
X952449Y-1041806D01*
X955548Y-1040587D01*
X958900Y-1040028D01*
X962964Y-1040841D01*
X966012Y-1042771D01*
X967892Y-1045667D01*
X968552Y-1049426D01*
X967740Y-1053744D01*
X965047Y-1057198D01*
X960170Y-1059535D01*
X952804Y-1060348D01*
X952804Y-1065174D01*
X961034Y-1066038D01*
X966520Y-1068476D01*
X969619Y-1072184D01*
X970584Y-1076858D01*
X969721Y-1081379D01*
X967282Y-1084834D01*
X963625Y-1087018D01*
X958900Y-1087780D01*
X954328Y-1087221D01*
X950569Y-1085748D01*
X947470Y-1083614D01*
X944930Y-1081176D01*
X941628Y-1085240D01*
X944626Y-1088085D01*
X948486Y-1090523D01*
X953363Y-1092250D01*
X959408Y-1092860D01*
X966216Y-1091793D01*
X971753Y-1088593D01*
X975512Y-1083564D01*
X976934Y-1076858D01*
X975969Y-1071676D01*
X973429Y-1067460D01*
X969619Y-1064463D01*
X964996Y-1062634D01*
X964996Y-1062380D01*
X969010Y-1060399D01*
X972108Y-1057503D01*
X974140Y-1053642D01*
X974902Y-1048918D01*
X973734Y-1043025D01*
X970432Y-1038606D01*
X965453Y-1035913D01*
G37*
G36*
X1044244Y-1034948D02*
G01*
X1039571Y-1035507D01*
X1035507Y-1036929D01*
X1031951Y-1039063D01*
X1028750Y-1041552D01*
X1032052Y-1045616D01*
X1034643Y-1043533D01*
X1037539Y-1041806D01*
X1040637Y-1040587D01*
X1043990Y-1040028D01*
X1047953Y-1040841D01*
X1051001Y-1042771D01*
X1052931Y-1045667D01*
X1053642Y-1049426D01*
X1052830Y-1053744D01*
X1050137Y-1057198D01*
X1045260Y-1059535D01*
X1037894Y-1060348D01*
X1037894Y-1065174D01*
X1046124Y-1066038D01*
X1051610Y-1068476D01*
X1054709Y-1072184D01*
X1055674Y-1076858D01*
X1054811Y-1081379D01*
X1052372Y-1084834D01*
X1048715Y-1087018D01*
X1043990Y-1087780D01*
X1039418Y-1087221D01*
X1035608Y-1085748D01*
X1032459Y-1083614D01*
X1029766Y-1081176D01*
X1026718Y-1085240D01*
X1029716Y-1088085D01*
X1033576Y-1090523D01*
X1038352Y-1092250D01*
X1044244Y-1092860D01*
X1051153Y-1091793D01*
X1056690Y-1088593D01*
X1060399Y-1083564D01*
X1061770Y-1076858D01*
X1060805Y-1071676D01*
X1058316Y-1067460D01*
X1054557Y-1064463D01*
X1050086Y-1062634D01*
X1050086Y-1062380D01*
X1054100Y-1060399D01*
X1057198Y-1057503D01*
X1059230Y-1053642D01*
X1059992Y-1048918D01*
X1058824Y-1043025D01*
X1055522Y-1038606D01*
X1050544Y-1035913D01*
G37*
G36*
X981252Y-1035964D02*
G01*
X999286Y-1091844D01*
X1006398Y-1091844D01*
X1024178Y-1035964D01*
X1017828Y-1035964D01*
X1003096Y-1085240D01*
X1002842Y-1085240D01*
X987856Y-1035964D01*
G37*
D10*
X1447805Y-98552D02*
G01*
X1447805Y-241807D01*
X1400053Y-98552D02*
G01*
X1495557Y-98552D01*
X1540515Y-98552D02*
G01*
X1540515Y-241807D01*
X1540515Y-98552D02*
G01*
X1629161Y-98552D01*
X1540515Y-166878D02*
G01*
X1594871Y-166878D01*
X1540515Y-241807D02*
G01*
X1629161Y-241807D01*
X1776481Y-132842D02*
G01*
X1769623Y-119126D01*
X1755907Y-105410D01*
X1742191Y-98552D01*
X1715013Y-98552D01*
X1701297Y-105410D01*
X1687835Y-119126D01*
X1680977Y-132842D01*
X1674119Y-153162D01*
X1674119Y-187197D01*
X1680977Y-207771D01*
X1687835Y-221487D01*
X1701297Y-234950D01*
X1715013Y-241807D01*
X1742191Y-241807D01*
X1755907Y-234950D01*
X1769623Y-221487D01*
X1776481Y-207771D01*
X1821439Y-98552D02*
G01*
X1821439Y-241807D01*
X1821439Y-241807D02*
G01*
X1903227Y-241807D01*
X2002795Y-98552D02*
G01*
X1948185Y-241807D01*
X2002795Y-98552D02*
G01*
X2057151Y-241807D01*
X1968759Y-194055D02*
G01*
X2036831Y-194055D01*
X2102363Y-98552D02*
G01*
X2102363Y-241807D01*
X2102363Y-98552D02*
G01*
X2150115Y-98552D01*
X2170435Y-105410D01*
X2184151Y-119126D01*
X2191009Y-132842D01*
X2197613Y-153162D01*
X2197613Y-187197D01*
X2191009Y-207771D01*
X2184151Y-221487D01*
X2170435Y-234950D01*
X2150115Y-241807D01*
X2102363Y-241807D01*
X2283719Y-98552D02*
G01*
X2270003Y-105410D01*
X2256287Y-119126D01*
X2249429Y-132842D01*
X2242825Y-153162D01*
X2242825Y-187197D01*
X2249429Y-207771D01*
X2256287Y-221487D01*
X2270003Y-234950D01*
X2283719Y-241807D01*
X2310897Y-241807D01*
X2324613Y-234950D01*
X2338075Y-221487D01*
X2344933Y-207771D01*
X2351791Y-187197D01*
X2351791Y-153162D01*
X2344933Y-132842D01*
X2338075Y-119126D01*
X2324613Y-105410D01*
X2310897Y-98552D01*
X2283719Y-98552D01*
X2501905Y-98552D02*
G01*
X2501905Y-241807D01*
X2501905Y-98552D02*
G01*
X2556261Y-241807D01*
X2610871Y-98552D02*
G01*
X2556261Y-241807D01*
X2610871Y-98552D02*
G01*
X2610871Y-241807D01*
X2710439Y-98552D02*
G01*
X2655829Y-241807D01*
X2710439Y-98552D02*
G01*
X2765049Y-241807D01*
X2676403Y-194055D02*
G01*
X2744475Y-194055D01*
X2912369Y-132842D02*
G01*
X2905511Y-119126D01*
X2891795Y-105410D01*
X2878079Y-98552D01*
X2850901Y-98552D01*
X2837185Y-105410D01*
X2823723Y-119126D01*
X2816865Y-132842D01*
X2810007Y-153162D01*
X2810007Y-187197D01*
X2816865Y-207771D01*
X2823723Y-221487D01*
X2837185Y-234950D01*
X2850901Y-241807D01*
X2878079Y-241807D01*
X2891795Y-234950D01*
X2905511Y-221487D01*
X2912369Y-207771D01*
X2957327Y-98552D02*
G01*
X2957327Y-241807D01*
X2957327Y-98552D02*
G01*
X3018541Y-98552D01*
X3039115Y-105410D01*
X3045973Y-112268D01*
X3052831Y-125984D01*
X3052831Y-139445D01*
X3045973Y-153162D01*
X3039115Y-160020D01*
X3018541Y-166878D01*
X2957327Y-166878D01*
X3005079Y-166878D02*
G01*
X3052831Y-241807D01*
X3138683Y-98552D02*
G01*
X3124967Y-105410D01*
X3111251Y-119126D01*
X3104647Y-132842D01*
X3097789Y-153162D01*
X3097789Y-187197D01*
X3104647Y-207771D01*
X3111251Y-221487D01*
X3124967Y-234950D01*
X3138683Y-241807D01*
X3165861Y-241807D01*
X3179577Y-234950D01*
X3193293Y-221487D01*
X3199897Y-207771D01*
X3206755Y-187197D01*
X3206755Y-153162D01*
X3199897Y-132842D01*
X3193293Y-119126D01*
X3179577Y-105410D01*
X3165861Y-98552D01*
X3138683Y-98552D01*
X3356869Y-98552D02*
G01*
X3356869Y-241807D01*
X3356869Y-98552D02*
G01*
X3418083Y-98552D01*
X3438657Y-105410D01*
X3445515Y-112268D01*
X3452373Y-125984D01*
X3452373Y-139445D01*
X3445515Y-153162D01*
X3438657Y-160020D01*
X3418083Y-166878D01*
X3356869Y-166878D02*
G01*
X3418083Y-166878D01*
X3438657Y-173736D01*
X3445515Y-180339D01*
X3452373Y-194055D01*
X3452373Y-214629D01*
X3445515Y-228092D01*
X3438657Y-234950D01*
X3418083Y-241807D01*
X3356869Y-241807D01*
X3497331Y-98552D02*
G01*
X3497331Y-241807D01*
X3497331Y-98552D02*
G01*
X3585977Y-98552D01*
X3497331Y-166878D02*
G01*
X3551687Y-166878D01*
X3497331Y-241807D02*
G01*
X3585977Y-241807D01*
X3678687Y-98552D02*
G01*
X3678687Y-241807D01*
X3630935Y-98552D02*
G01*
X3726439Y-98552D01*
X3826007Y-98552D02*
G01*
X3771397Y-241807D01*
X3826007Y-98552D02*
G01*
X3880363Y-241807D01*
X3791717Y-194055D02*
G01*
X3860043Y-194055D01*
X4030477Y-146304D02*
G01*
X4071371Y-241807D01*
X4112265Y-146304D02*
G01*
X4071371Y-241807D01*
X4198117Y-98552D02*
G01*
X4177797Y-105410D01*
X4164081Y-125984D01*
X4157223Y-160020D01*
X4157223Y-180339D01*
X4164081Y-214629D01*
X4177797Y-234950D01*
X4198117Y-241807D01*
X4211833Y-241807D01*
X4232153Y-234950D01*
X4245869Y-214629D01*
X4252727Y-180339D01*
X4252727Y-160020D01*
X4245869Y-125984D01*
X4232153Y-105410D01*
X4211833Y-98552D01*
X4198117Y-98552D01*
X4304543Y-207771D02*
G01*
X4297685Y-214629D01*
X4304543Y-221487D01*
X4311401Y-214629D01*
X4304543Y-207771D01*
X4370075Y-98552D02*
G01*
X4445005Y-98552D01*
X4404111Y-153162D01*
X4424431Y-153162D01*
X4438147Y-160020D01*
X4445005Y-166878D01*
X4451863Y-187197D01*
X4451863Y-200913D01*
X4445005Y-221487D01*
X4431289Y-234950D01*
X4410969Y-241807D01*
X4390395Y-241807D01*
X4370075Y-234950D01*
X4363217Y-228092D01*
X4356359Y-214629D01*
X4503679Y-207771D02*
G01*
X4496821Y-214629D01*
X4503679Y-221487D01*
X4510537Y-214629D01*
X4503679Y-207771D01*
X4555495Y-125984D02*
G01*
X4568957Y-119126D01*
X4589531Y-98552D01*
X4589531Y-241807D01*
X5449148Y-3024898D02*
G01*
X5544398Y-3024898D01*
X5449148Y-3024898D02*
G01*
X5449148Y-2965970D01*
X5494614Y-3024898D02*
G01*
X5494614Y-2988576D01*
X5449148Y-2935998D02*
G01*
X5544398Y-2935998D01*
X5449148Y-2935998D02*
G01*
X5449148Y-2876816D01*
X5494614Y-2935998D02*
G01*
X5494614Y-2899422D01*
X5544398Y-2935998D02*
G01*
X5544398Y-2876816D01*
X5449148Y-2846844D02*
G01*
X5544398Y-2846844D01*
X5449148Y-2784868D02*
G01*
X5544398Y-2784868D01*
X5449148Y-2816872D02*
G01*
X5449148Y-2753118D01*
X5449148Y-2695968D02*
G01*
X5453720Y-2704858D01*
X5462610Y-2714002D01*
X5471754Y-2718574D01*
X5485470Y-2723146D01*
X5508076Y-2723146D01*
X5521792Y-2718574D01*
X5530936Y-2714002D01*
X5540080Y-2704858D01*
X5544398Y-2695968D01*
X5544398Y-2677680D01*
X5540080Y-2668536D01*
X5530936Y-2659646D01*
X5521792Y-2655074D01*
X5508076Y-2650502D01*
X5485470Y-2650502D01*
X5471754Y-2655074D01*
X5462610Y-2659646D01*
X5453720Y-2668536D01*
X5449148Y-2677680D01*
X5449148Y-2695968D01*
X5449148Y-2550426D02*
G01*
X5544398Y-2550426D01*
X5449148Y-2550426D02*
G01*
X5449148Y-2509532D01*
X5453720Y-2495816D01*
X5458038Y-2491244D01*
X5467182Y-2486926D01*
X5480898Y-2486926D01*
X5490042Y-2491244D01*
X5494614Y-2495816D01*
X5499186Y-2509532D01*
X5499186Y-2550426D01*
X5449148Y-2429522D02*
G01*
X5453720Y-2438666D01*
X5462610Y-2447810D01*
X5471754Y-2452382D01*
X5485470Y-2456700D01*
X5508076Y-2456700D01*
X5521792Y-2452382D01*
X5530936Y-2447810D01*
X5540080Y-2438666D01*
X5544398Y-2429522D01*
X5544398Y-2411234D01*
X5540080Y-2402344D01*
X5530936Y-2393200D01*
X5521792Y-2388628D01*
X5508076Y-2384056D01*
X5485470Y-2384056D01*
X5471754Y-2388628D01*
X5462610Y-2393200D01*
X5453720Y-2402344D01*
X5449148Y-2411234D01*
X5449148Y-2429522D01*
X5449148Y-2354084D02*
G01*
X5544398Y-2354084D01*
X5449148Y-2354084D02*
G01*
X5449148Y-2313190D01*
X5453720Y-2299474D01*
X5458038Y-2294902D01*
X5467182Y-2290330D01*
X5476326Y-2290330D01*
X5485470Y-2294902D01*
X5490042Y-2299474D01*
X5494614Y-2313190D01*
X5494614Y-2354084D01*
X5494614Y-2322334D02*
G01*
X5544398Y-2290330D01*
X5490042Y-2255786D02*
G01*
X5494614Y-2260358D01*
X5499186Y-2255786D01*
X5494614Y-2251468D01*
X5490042Y-2255786D01*
X5521792Y-2255786D02*
G01*
X5526364Y-2260358D01*
X5530936Y-2255786D01*
X5526364Y-2251468D01*
X5521792Y-2255786D01*
X5650570Y-3024898D02*
G01*
X5746074Y-3024898D01*
X5650570Y-3024898D02*
G01*
X5746074Y-2961398D01*
X5650570Y-2961398D02*
G01*
X5746074Y-2961398D01*
X5650570Y-2931426D02*
G01*
X5746074Y-2931426D01*
X5673430Y-2833128D02*
G01*
X5664286Y-2837700D01*
X5655142Y-2846844D01*
X5650570Y-2855988D01*
X5650570Y-2874022D01*
X5655142Y-2883166D01*
X5664286Y-2892310D01*
X5673430Y-2896882D01*
X5687146Y-2901454D01*
X5709752Y-2901454D01*
X5723468Y-2896882D01*
X5732612Y-2892310D01*
X5741502Y-2883166D01*
X5746074Y-2874022D01*
X5746074Y-2855988D01*
X5741502Y-2846844D01*
X5732612Y-2837700D01*
X5723468Y-2833128D01*
X5650570Y-2775978D02*
G01*
X5655142Y-2784868D01*
X5664286Y-2794012D01*
X5673430Y-2798584D01*
X5687146Y-2803156D01*
X5709752Y-2803156D01*
X5723468Y-2798584D01*
X5732612Y-2794012D01*
X5741502Y-2784868D01*
X5746074Y-2775978D01*
X5746074Y-2757690D01*
X5741502Y-2748546D01*
X5732612Y-2739656D01*
X5723468Y-2735084D01*
X5709752Y-2730512D01*
X5687146Y-2730512D01*
X5673430Y-2735084D01*
X5664286Y-2739656D01*
X5655142Y-2748546D01*
X5650570Y-2757690D01*
X5650570Y-2775978D01*
X5650570Y-2700540D02*
G01*
X5746074Y-2700540D01*
X5746074Y-2700540D02*
G01*
X5746074Y-2645930D01*
X5650570Y-2579636D02*
G01*
X5746074Y-2615958D01*
X5650570Y-2579636D02*
G01*
X5746074Y-2543060D01*
X5714324Y-2602242D02*
G01*
X5714324Y-2556776D01*
X5664286Y-2449588D02*
G01*
X5655142Y-2458732D01*
X5650570Y-2472194D01*
X5650570Y-2490482D01*
X5655142Y-2504198D01*
X5664286Y-2513088D01*
X5673430Y-2513088D01*
X5682574Y-2508516D01*
X5687146Y-2504198D01*
X5691464Y-2495054D01*
X5700608Y-2467622D01*
X5705180Y-2458732D01*
X5709752Y-2454160D01*
X5718896Y-2449588D01*
X5732612Y-2449588D01*
X5741502Y-2458732D01*
X5746074Y-2472194D01*
X5746074Y-2490482D01*
X5741502Y-2504198D01*
X5732612Y-2513088D01*
X5650570Y-2349512D02*
G01*
X5746074Y-2349512D01*
X5650570Y-2349512D02*
G01*
X5746074Y-2286012D01*
X5650570Y-2286012D02*
G01*
X5746074Y-2286012D01*
X5650570Y-2219464D02*
G01*
X5746074Y-2255786D01*
X5650570Y-2219464D02*
G01*
X5746074Y-2183142D01*
X5714324Y-2242324D02*
G01*
X5714324Y-2196858D01*
X5664286Y-2089416D02*
G01*
X5655142Y-2098560D01*
X5650570Y-2112276D01*
X5650570Y-2130564D01*
X5655142Y-2144026D01*
X5664286Y-2153170D01*
X5673430Y-2153170D01*
X5682574Y-2148598D01*
X5687146Y-2144026D01*
X5691464Y-2134882D01*
X5700608Y-2107704D01*
X5705180Y-2098560D01*
X5709752Y-2093988D01*
X5718896Y-2089416D01*
X5732612Y-2089416D01*
X5741502Y-2098560D01*
X5746074Y-2112276D01*
X5746074Y-2130564D01*
X5741502Y-2144026D01*
X5732612Y-2153170D01*
X5650570Y-2023122D02*
G01*
X5746074Y-2059444D01*
X5650570Y-2023122D02*
G01*
X5746074Y-1986800D01*
X5714324Y-2045982D02*
G01*
X5714324Y-2000516D01*
X5650570Y-1956828D02*
G01*
X5746074Y-1956828D01*
X5650570Y-1956828D02*
G01*
X5650570Y-1915934D01*
X5655142Y-1902218D01*
X5659714Y-1897646D01*
X5668858Y-1893074D01*
X5678002Y-1893074D01*
X5687146Y-1897646D01*
X5691464Y-1902218D01*
X5696036Y-1915934D01*
X5696036Y-1956828D01*
X5696036Y-1925078D02*
G01*
X5746074Y-1893074D01*
X5650570Y-1863102D02*
G01*
X5746074Y-1863102D01*
X5650570Y-1805952D02*
G01*
X5655142Y-1815096D01*
X5664286Y-1823986D01*
X5673430Y-1828558D01*
X5687146Y-1833130D01*
X5709752Y-1833130D01*
X5723468Y-1828558D01*
X5732612Y-1823986D01*
X5741502Y-1815096D01*
X5746074Y-1805952D01*
X5746074Y-1787664D01*
X5741502Y-1778520D01*
X5732612Y-1769630D01*
X5723468Y-1765058D01*
X5709752Y-1760486D01*
X5687146Y-1760486D01*
X5673430Y-1765058D01*
X5664286Y-1769630D01*
X5655142Y-1778520D01*
X5650570Y-1787664D01*
X5650570Y-1805952D01*
X5650570Y-1660410D02*
G01*
X5746074Y-1660410D01*
X5650570Y-1660410D02*
G01*
X5650570Y-1601228D01*
X5696036Y-1660410D02*
G01*
X5696036Y-1624088D01*
X5650570Y-1571256D02*
G01*
X5746074Y-1571256D01*
X5650570Y-1571256D02*
G01*
X5650570Y-1512328D01*
X5696036Y-1571256D02*
G01*
X5696036Y-1534934D01*
X5746074Y-1571256D02*
G01*
X5746074Y-1512328D01*
X5650570Y-1482356D02*
G01*
X5746074Y-1482356D01*
X5650570Y-1482356D02*
G01*
X5650570Y-1441462D01*
X5655142Y-1427746D01*
X5659714Y-1423174D01*
X5668858Y-1418602D01*
X5678002Y-1418602D01*
X5687146Y-1423174D01*
X5691464Y-1427746D01*
X5696036Y-1441462D01*
X5696036Y-1482356D01*
X5696036Y-1450352D02*
G01*
X5746074Y-1418602D01*
X5650570Y-1388630D02*
G01*
X5746074Y-1388630D01*
X5650570Y-1388630D02*
G01*
X5650570Y-1347736D01*
X5655142Y-1334020D01*
X5659714Y-1329448D01*
X5668858Y-1324876D01*
X5678002Y-1324876D01*
X5687146Y-1329448D01*
X5691464Y-1334020D01*
X5696036Y-1347736D01*
X5696036Y-1388630D01*
X5696036Y-1356880D02*
G01*
X5746074Y-1324876D01*
X5650570Y-1294904D02*
G01*
X5746074Y-1294904D01*
X5650570Y-1294904D02*
G01*
X5650570Y-1235976D01*
X5696036Y-1294904D02*
G01*
X5696036Y-1258582D01*
X5746074Y-1294904D02*
G01*
X5746074Y-1235976D01*
X5650570Y-1206004D02*
G01*
X5746074Y-1206004D01*
X5650570Y-1175778D02*
G01*
X5746074Y-1175778D01*
X5650570Y-1175778D02*
G01*
X5650570Y-1134884D01*
X5655142Y-1121422D01*
X5659714Y-1116850D01*
X5668858Y-1112278D01*
X5678002Y-1112278D01*
X5687146Y-1116850D01*
X5691464Y-1121422D01*
X5696036Y-1134884D01*
X5696036Y-1175778D01*
X5696036Y-1144028D02*
G01*
X5746074Y-1112278D01*
X5650570Y-1045984D02*
G01*
X5746074Y-1082306D01*
X5650570Y-1045984D02*
G01*
X5746074Y-1009408D01*
X5714324Y-1068590D02*
G01*
X5714324Y-1023124D01*
X1550047Y-11699163D02*
G01*
X1550047Y-11794413D01*
X1550047Y-11699163D02*
G01*
X1608975Y-11699163D01*
X1550047Y-11744629D02*
G01*
X1586369Y-11744629D01*
X1550047Y-11794413D02*
G01*
X1608975Y-11794413D01*
X1639201Y-11730913D02*
G01*
X1639201Y-11794413D01*
X1639201Y-11748947D02*
G01*
X1652663Y-11735485D01*
X1661807Y-11730913D01*
X1675523Y-11730913D01*
X1684667Y-11735485D01*
X1688985Y-11748947D01*
X1688985Y-11794413D01*
X1688985Y-11748947D02*
G01*
X1702701Y-11735485D01*
X1711845Y-11730913D01*
X1725561Y-11730913D01*
X1734451Y-11735485D01*
X1739023Y-11748947D01*
X1739023Y-11794413D01*
X1893709Y-11744629D02*
G01*
X1884565Y-11735485D01*
X1875421Y-11730913D01*
X1861705Y-11730913D01*
X1852815Y-11735485D01*
X1843671Y-11744629D01*
X1839099Y-11758091D01*
X1839099Y-11767235D01*
X1843671Y-11780951D01*
X1852815Y-11790095D01*
X1861705Y-11794413D01*
X1875421Y-11794413D01*
X1884565Y-11790095D01*
X1893709Y-11780951D01*
X1946287Y-11730913D02*
G01*
X1937143Y-11735485D01*
X1928253Y-11744629D01*
X1923681Y-11758091D01*
X1923681Y-11767235D01*
X1928253Y-11780951D01*
X1937143Y-11790095D01*
X1946287Y-11794413D01*
X1960003Y-11794413D01*
X1969147Y-11790095D01*
X1978291Y-11780951D01*
X1982609Y-11767235D01*
X1982609Y-11758091D01*
X1978291Y-11744629D01*
X1969147Y-11735485D01*
X1960003Y-11730913D01*
X1946287Y-11730913D01*
X2012835Y-11699163D02*
G01*
X2012835Y-11794413D01*
X2097163Y-11730913D02*
G01*
X2097163Y-11794413D01*
X2097163Y-11744629D02*
G01*
X2088273Y-11735485D01*
X2079129Y-11730913D01*
X2065413Y-11730913D01*
X2056269Y-11735485D01*
X2047379Y-11744629D01*
X2042807Y-11758091D01*
X2042807Y-11767235D01*
X2047379Y-11780951D01*
X2056269Y-11790095D01*
X2065413Y-11794413D01*
X2079129Y-11794413D01*
X2088273Y-11790095D01*
X2097163Y-11780951D01*
X2127389Y-11699163D02*
G01*
X2127389Y-11794413D01*
X2127389Y-11744629D02*
G01*
X2136279Y-11735485D01*
X2145423Y-11730913D01*
X2159139Y-11730913D01*
X2168283Y-11735485D01*
X2177173Y-11744629D01*
X2181745Y-11758091D01*
X2181745Y-11767235D01*
X2177173Y-11780951D01*
X2168283Y-11790095D01*
X2159139Y-11794413D01*
X2145423Y-11794413D01*
X2136279Y-11790095D01*
X2127389Y-11780951D01*
X2234577Y-11730913D02*
G01*
X2225433Y-11735485D01*
X2216289Y-11744629D01*
X2211717Y-11758091D01*
X2211717Y-11767235D01*
X2216289Y-11780951D01*
X2225433Y-11790095D01*
X2234577Y-11794413D01*
X2248293Y-11794413D01*
X2257183Y-11790095D01*
X2266327Y-11780951D01*
X2270899Y-11767235D01*
X2270899Y-11758091D01*
X2266327Y-11744629D01*
X2257183Y-11735485D01*
X2248293Y-11730913D01*
X2234577Y-11730913D01*
X2300871Y-11730913D02*
G01*
X2300871Y-11794413D01*
X2300871Y-11758091D02*
G01*
X2305443Y-11744629D01*
X2314587Y-11735485D01*
X2323731Y-11730913D01*
X2337193Y-11730913D01*
X2421775Y-11730913D02*
G01*
X2421775Y-11794413D01*
X2421775Y-11744629D02*
G01*
X2412631Y-11735485D01*
X2403741Y-11730913D01*
X2390025Y-11730913D01*
X2380881Y-11735485D01*
X2371737Y-11744629D01*
X2367165Y-11758091D01*
X2367165Y-11767235D01*
X2371737Y-11780951D01*
X2380881Y-11790095D01*
X2390025Y-11794413D01*
X2403741Y-11794413D01*
X2412631Y-11790095D01*
X2421775Y-11780951D01*
X2506357Y-11744629D02*
G01*
X2497213Y-11735485D01*
X2488069Y-11730913D01*
X2474607Y-11730913D01*
X2465463Y-11735485D01*
X2456319Y-11744629D01*
X2451747Y-11758091D01*
X2451747Y-11767235D01*
X2456319Y-11780951D01*
X2465463Y-11790095D01*
X2474607Y-11794413D01*
X2488069Y-11794413D01*
X2497213Y-11790095D01*
X2506357Y-11780951D01*
X2590939Y-11730913D02*
G01*
X2590939Y-11794413D01*
X2590939Y-11744629D02*
G01*
X2581795Y-11735485D01*
X2572651Y-11730913D01*
X2559189Y-11730913D01*
X2550045Y-11735485D01*
X2540901Y-11744629D01*
X2536329Y-11758091D01*
X2536329Y-11767235D01*
X2540901Y-11780951D01*
X2550045Y-11790095D01*
X2559189Y-11794413D01*
X2572651Y-11794413D01*
X2581795Y-11790095D01*
X2590939Y-11780951D01*
X2643517Y-11730913D02*
G01*
X2634627Y-11735485D01*
X2625483Y-11744629D01*
X2620911Y-11758091D01*
X2620911Y-11767235D01*
X2625483Y-11780951D01*
X2634627Y-11790095D01*
X2643517Y-11794413D01*
X2657233Y-11794413D01*
X2666377Y-11790095D01*
X2675521Y-11780951D01*
X2680093Y-11767235D01*
X2680093Y-11758091D01*
X2675521Y-11744629D01*
X2666377Y-11735485D01*
X2657233Y-11730913D01*
X2643517Y-11730913D01*
X2834525Y-11744629D02*
G01*
X2825381Y-11735485D01*
X2816237Y-11730913D01*
X2802775Y-11730913D01*
X2793631Y-11735485D01*
X2784487Y-11744629D01*
X2779915Y-11758091D01*
X2779915Y-11767235D01*
X2784487Y-11780951D01*
X2793631Y-11790095D01*
X2802775Y-11794413D01*
X2816237Y-11794413D01*
X2825381Y-11790095D01*
X2834525Y-11780951D01*
X2887357Y-11730913D02*
G01*
X2878213Y-11735485D01*
X2869069Y-11744629D01*
X2864497Y-11758091D01*
X2864497Y-11767235D01*
X2869069Y-11780951D01*
X2878213Y-11790095D01*
X2887357Y-11794413D01*
X2900819Y-11794413D01*
X2909963Y-11790095D01*
X2919107Y-11780951D01*
X2923679Y-11767235D01*
X2923679Y-11758091D01*
X2919107Y-11744629D01*
X2909963Y-11735485D01*
X2900819Y-11730913D01*
X2887357Y-11730913D01*
X2953651Y-11730913D02*
G01*
X2953651Y-11794413D01*
X2953651Y-11748947D02*
G01*
X2967367Y-11735485D01*
X2976257Y-11730913D01*
X2989973Y-11730913D01*
X2999117Y-11735485D01*
X3003689Y-11748947D01*
X3003689Y-11794413D01*
X3003689Y-11748947D02*
G01*
X3017151Y-11735485D01*
X3026295Y-11730913D01*
X3040011Y-11730913D01*
X3049155Y-11735485D01*
X3053727Y-11748947D01*
X3053727Y-11794413D01*
X3088271Y-11740057D02*
G01*
X3083699Y-11744629D01*
X3088271Y-11748947D01*
X3092843Y-11744629D01*
X3088271Y-11740057D01*
X3088271Y-11771807D02*
G01*
X3083699Y-11776379D01*
X3088271Y-11780951D01*
X3092843Y-11776379D01*
X3088271Y-11771807D01*
X3228987Y-11699163D02*
G01*
X3192665Y-11794413D01*
X3228987Y-11699163D02*
G01*
X3265563Y-11794413D01*
X3206381Y-11762663D02*
G01*
X3251847Y-11762663D01*
X3295535Y-11699163D02*
G01*
X3295535Y-11794413D01*
X3325507Y-11730913D02*
G01*
X3352685Y-11794413D01*
X3380117Y-11730913D02*
G01*
X3352685Y-11794413D01*
X3464445Y-11730913D02*
G01*
X3464445Y-11794413D01*
X3464445Y-11744629D02*
G01*
X3455555Y-11735485D01*
X3446411Y-11730913D01*
X3432695Y-11730913D01*
X3423551Y-11735485D01*
X3414661Y-11744629D01*
X3410089Y-11758091D01*
X3410089Y-11767235D01*
X3414661Y-11780951D01*
X3423551Y-11790095D01*
X3432695Y-11794413D01*
X3446411Y-11794413D01*
X3455555Y-11790095D01*
X3464445Y-11780951D01*
X3494417Y-11730913D02*
G01*
X3494417Y-11794413D01*
X3494417Y-11758091D02*
G01*
X3498989Y-11744629D01*
X3508133Y-11735485D01*
X3517277Y-11730913D01*
X3530993Y-11730913D01*
X3583571Y-11730913D02*
G01*
X3574427Y-11735485D01*
X3565537Y-11744629D01*
X3560965Y-11758091D01*
X3560965Y-11767235D01*
X3565537Y-11780951D01*
X3574427Y-11790095D01*
X3583571Y-11794413D01*
X3597287Y-11794413D01*
X3606431Y-11790095D01*
X3615321Y-11780951D01*
X3619893Y-11767235D01*
X3619893Y-11758091D01*
X3615321Y-11744629D01*
X3606431Y-11735485D01*
X3597287Y-11730913D01*
X3583571Y-11730913D01*
X3719969Y-11699163D02*
G01*
X3719969Y-11794413D01*
X3719969Y-11699163D02*
G01*
X3760863Y-11699163D01*
X3774579Y-11703735D01*
X3779151Y-11708053D01*
X3783723Y-11717197D01*
X3783723Y-11726341D01*
X3779151Y-11735485D01*
X3774579Y-11740057D01*
X3760863Y-11744629D01*
X3719969Y-11744629D01*
X3751719Y-11744629D02*
G01*
X3783723Y-11794413D01*
X3868051Y-11730913D02*
G01*
X3868051Y-11794413D01*
X3868051Y-11744629D02*
G01*
X3859161Y-11735485D01*
X3850017Y-11730913D01*
X3836301Y-11730913D01*
X3827157Y-11735485D01*
X3818267Y-11744629D01*
X3813695Y-11758091D01*
X3813695Y-11767235D01*
X3818267Y-11780951D01*
X3827157Y-11790095D01*
X3836301Y-11794413D01*
X3850017Y-11794413D01*
X3859161Y-11790095D01*
X3868051Y-11780951D01*
X3952633Y-11699163D02*
G01*
X3952633Y-11794413D01*
X3952633Y-11744629D02*
G01*
X3943743Y-11735485D01*
X3934599Y-11730913D01*
X3920883Y-11730913D01*
X3911739Y-11735485D01*
X3902595Y-11744629D01*
X3898277Y-11758091D01*
X3898277Y-11767235D01*
X3902595Y-11780951D01*
X3911739Y-11790095D01*
X3920883Y-11794413D01*
X3934599Y-11794413D01*
X3943743Y-11790095D01*
X3952633Y-11780951D01*
X4037215Y-11730913D02*
G01*
X4037215Y-11794413D01*
X4037215Y-11744629D02*
G01*
X4028071Y-11735485D01*
X4019181Y-11730913D01*
X4005465Y-11730913D01*
X3996321Y-11735485D01*
X3987177Y-11744629D01*
X3982605Y-11758091D01*
X3982605Y-11767235D01*
X3987177Y-11780951D01*
X3996321Y-11790095D01*
X4005465Y-11794413D01*
X4019181Y-11794413D01*
X4028071Y-11790095D01*
X4037215Y-11780951D01*
X4067187Y-11730913D02*
G01*
X4094619Y-11794413D01*
X4121797Y-11730913D02*
G01*
X4094619Y-11794413D01*
X4151769Y-11758091D02*
G01*
X4206379Y-11758091D01*
X4206379Y-11748947D01*
X4201807Y-11740057D01*
X4197235Y-11735485D01*
X4188091Y-11730913D01*
X4174629Y-11730913D01*
X4165485Y-11735485D01*
X4156341Y-11744629D01*
X4151769Y-11758091D01*
X4151769Y-11767235D01*
X4156341Y-11780951D01*
X4165485Y-11790095D01*
X4174629Y-11794413D01*
X4188091Y-11794413D01*
X4197235Y-11790095D01*
X4206379Y-11780951D01*
X4236351Y-11699163D02*
G01*
X4236351Y-11794413D01*
X4266323Y-11699163D02*
G01*
X4266323Y-11794413D01*
X4296295Y-11699163D02*
G01*
X4300867Y-11703735D01*
X4305439Y-11699163D01*
X4300867Y-11694591D01*
X4296295Y-11699163D01*
X4300867Y-11730913D02*
G01*
X4300867Y-11794413D01*
X4405515Y-11758091D02*
G01*
X4459871Y-11758091D01*
X4459871Y-11748947D01*
X4455553Y-11740057D01*
X4450981Y-11735485D01*
X4441837Y-11730913D01*
X4428121Y-11730913D01*
X4418977Y-11735485D01*
X4410087Y-11744629D01*
X4405515Y-11758091D01*
X4405515Y-11767235D01*
X4410087Y-11780951D01*
X4418977Y-11790095D01*
X4428121Y-11794413D01*
X4441837Y-11794413D01*
X4450981Y-11790095D01*
X4459871Y-11780951D01*
X2179967Y-11900585D02*
G01*
X2179967Y-11996089D01*
X2179967Y-11996089D02*
G01*
X2234577Y-11996089D01*
X2319159Y-11932589D02*
G01*
X2319159Y-11996089D01*
X2319159Y-11946051D02*
G01*
X2310015Y-11936907D01*
X2300871Y-11932589D01*
X2287155Y-11932589D01*
X2278265Y-11936907D01*
X2269121Y-11946051D01*
X2264549Y-11959767D01*
X2264549Y-11968911D01*
X2269121Y-11982373D01*
X2278265Y-11991517D01*
X2287155Y-11996089D01*
X2300871Y-11996089D01*
X2310015Y-11991517D01*
X2319159Y-11982373D01*
X2349131Y-11900585D02*
G01*
X2349131Y-11996089D01*
X2349131Y-11946051D02*
G01*
X2358275Y-11936907D01*
X2367165Y-11932589D01*
X2380881Y-11932589D01*
X2390025Y-11936907D01*
X2399169Y-11946051D01*
X2403741Y-11959767D01*
X2403741Y-11968911D01*
X2399169Y-11982373D01*
X2390025Y-11991517D01*
X2380881Y-11996089D01*
X2367165Y-11996089D01*
X2358275Y-11991517D01*
X2349131Y-11982373D01*
X2503563Y-11900585D02*
G01*
X2503563Y-11996089D01*
X2503563Y-11900585D02*
G01*
X2539885Y-11996089D01*
X2576461Y-11900585D02*
G01*
X2539885Y-11996089D01*
X2576461Y-11900585D02*
G01*
X2576461Y-11996089D01*
X2660789Y-11932589D02*
G01*
X2660789Y-11996089D01*
X2660789Y-11946051D02*
G01*
X2651899Y-11936907D01*
X2642755Y-11932589D01*
X2629039Y-11932589D01*
X2619895Y-11936907D01*
X2611005Y-11946051D01*
X2606433Y-11959767D01*
X2606433Y-11968911D01*
X2611005Y-11982373D01*
X2619895Y-11991517D01*
X2629039Y-11996089D01*
X2642755Y-11996089D01*
X2651899Y-11991517D01*
X2660789Y-11982373D01*
X2691015Y-11900585D02*
G01*
X2691015Y-11996089D01*
X2736481Y-11932589D02*
G01*
X2691015Y-11978055D01*
X2709049Y-11959767D02*
G01*
X2740799Y-11996089D01*
X2771025Y-11959767D02*
G01*
X2825381Y-11959767D01*
X2825381Y-11950623D01*
X2820809Y-11941479D01*
X2816237Y-11936907D01*
X2807347Y-11932589D01*
X2793631Y-11932589D01*
X2784487Y-11936907D01*
X2775343Y-11946051D01*
X2771025Y-11959767D01*
X2771025Y-11968911D01*
X2775343Y-11982373D01*
X2784487Y-11991517D01*
X2793631Y-11996089D01*
X2807347Y-11996089D01*
X2816237Y-11991517D01*
X2825381Y-11982373D01*
X2855353Y-11932589D02*
G01*
X2855353Y-11996089D01*
X2855353Y-11959767D02*
G01*
X2859925Y-11946051D01*
X2869069Y-11936907D01*
X2878213Y-11932589D01*
X2891929Y-11932589D01*
X2991751Y-11900585D02*
G01*
X2991751Y-11996089D01*
X3058299Y-11900585D02*
G01*
X3049155Y-11900585D01*
X3040011Y-11905157D01*
X3035439Y-11918873D01*
X3035439Y-11996089D01*
X3021723Y-11932589D02*
G01*
X3053727Y-11932589D01*
X3088271Y-11959767D02*
G01*
X3142627Y-11959767D01*
X3142627Y-11950623D01*
X3138055Y-11941479D01*
X3133737Y-11936907D01*
X3124593Y-11932589D01*
X3110877Y-11932589D01*
X3101733Y-11936907D01*
X3092843Y-11946051D01*
X3088271Y-11959767D01*
X3088271Y-11968911D01*
X3092843Y-11982373D01*
X3101733Y-11991517D01*
X3110877Y-11996089D01*
X3124593Y-11996089D01*
X3133737Y-11991517D01*
X3142627Y-11982373D01*
X3222637Y-11946051D02*
G01*
X3218065Y-11936907D01*
X3204603Y-11932589D01*
X3190887Y-11932589D01*
X3177171Y-11936907D01*
X3172599Y-11946051D01*
X3177171Y-11955195D01*
X3186315Y-11959767D01*
X3209175Y-11964339D01*
X3218065Y-11968911D01*
X3222637Y-11978055D01*
X3222637Y-11982373D01*
X3218065Y-11991517D01*
X3204603Y-11996089D01*
X3190887Y-11996089D01*
X3177171Y-11991517D01*
X3172599Y-11982373D01*
X3386467Y-11914301D02*
G01*
X3377323Y-11905157D01*
X3363607Y-11900585D01*
X3345573Y-11900585D01*
X3331857Y-11905157D01*
X3322713Y-11914301D01*
X3322713Y-11923445D01*
X3327285Y-11932589D01*
X3331857Y-11936907D01*
X3341001Y-11941479D01*
X3368179Y-11950623D01*
X3377323Y-11955195D01*
X3381895Y-11959767D01*
X3386467Y-11968911D01*
X3386467Y-11982373D01*
X3377323Y-11991517D01*
X3363607Y-11996089D01*
X3345573Y-11996089D01*
X3331857Y-11991517D01*
X3322713Y-11982373D01*
X3416439Y-11959767D02*
G01*
X3470795Y-11959767D01*
X3470795Y-11950623D01*
X3466477Y-11941479D01*
X3461905Y-11936907D01*
X3452761Y-11932589D01*
X3439045Y-11932589D01*
X3429901Y-11936907D01*
X3421011Y-11946051D01*
X3416439Y-11959767D01*
X3416439Y-11968911D01*
X3421011Y-11982373D01*
X3429901Y-11991517D01*
X3439045Y-11996089D01*
X3452761Y-11996089D01*
X3461905Y-11991517D01*
X3470795Y-11982373D01*
X3501021Y-11932589D02*
G01*
X3501021Y-11996089D01*
X3501021Y-11959767D02*
G01*
X3505339Y-11946051D01*
X3514483Y-11936907D01*
X3523627Y-11932589D01*
X3537343Y-11932589D01*
X3567315Y-11932589D02*
G01*
X3567315Y-11996089D01*
X3567315Y-11959767D02*
G01*
X3571887Y-11946051D01*
X3580777Y-11936907D01*
X3589921Y-11932589D01*
X3603637Y-11932589D01*
X3688219Y-11932589D02*
G01*
X3688219Y-11996089D01*
X3688219Y-11946051D02*
G01*
X3679075Y-11936907D01*
X3669931Y-11932589D01*
X3656469Y-11932589D01*
X3647325Y-11936907D01*
X3638181Y-11946051D01*
X3633609Y-11959767D01*
X3633609Y-11968911D01*
X3638181Y-11982373D01*
X3647325Y-11991517D01*
X3656469Y-11996089D01*
X3669931Y-11996089D01*
X3679075Y-11991517D01*
X3688219Y-11982373D01*
X2674030Y-2725072D02*
G01*
X2769534Y-2725072D01*
X2674030Y-2725072D02*
G01*
X2674030Y-2684178D01*
X2678602Y-2670462D01*
X2683174Y-2665890D01*
X2692318Y-2661318D01*
X2701462Y-2661318D01*
X2710352Y-2665890D01*
X2714924Y-2670462D01*
X2719496Y-2684178D01*
X2719496Y-2725072D01*
X2719496Y-2693068D02*
G01*
X2769534Y-2661318D01*
X2674030Y-2631346D02*
G01*
X2769534Y-2631346D01*
X2674030Y-2631346D02*
G01*
X2674030Y-2590452D01*
X2678602Y-2576736D01*
X2683174Y-2572164D01*
X2692318Y-2567846D01*
X2705780Y-2567846D01*
X2714924Y-2572164D01*
X2719496Y-2576736D01*
X2724068Y-2590452D01*
X2724068Y-2631346D01*
X2696890Y-2533302D02*
G01*
X2692318Y-2533302D01*
X2683174Y-2528730D01*
X2678602Y-2524158D01*
X2674030Y-2515014D01*
X2674030Y-2496726D01*
X2678602Y-2487836D01*
X2683174Y-2483264D01*
X2692318Y-2478692D01*
X2701462Y-2478692D01*
X2710352Y-2483264D01*
X2724068Y-2492154D01*
X2769534Y-2537620D01*
X2769534Y-2474120D01*
X2674030Y-2416716D02*
G01*
X2678602Y-2430432D01*
X2692318Y-2439576D01*
X2714924Y-2444148D01*
X2728640Y-2444148D01*
X2751246Y-2439576D01*
X2764962Y-2430432D01*
X2769534Y-2416716D01*
X2769534Y-2407826D01*
X2764962Y-2394110D01*
X2751246Y-2384966D01*
X2728640Y-2380394D01*
X2714924Y-2380394D01*
X2692318Y-2384966D01*
X2678602Y-2394110D01*
X2674030Y-2407826D01*
X2674030Y-2416716D01*
X2674030Y-2304956D02*
G01*
X2737784Y-2350422D01*
X2737784Y-2282350D01*
X2674030Y-2304956D02*
G01*
X2769534Y-2304956D01*
X2674030Y-2224946D02*
G01*
X2678602Y-2238662D01*
X2692318Y-2247806D01*
X2714924Y-2252378D01*
X2728640Y-2252378D01*
X2751246Y-2247806D01*
X2764962Y-2238662D01*
X2769534Y-2224946D01*
X2769534Y-2215802D01*
X2764962Y-2202340D01*
X2751246Y-2193196D01*
X2728640Y-2188624D01*
X2714924Y-2188624D01*
X2692318Y-2193196D01*
X2678602Y-2202340D01*
X2674030Y-2215802D01*
X2674030Y-2224946D01*
X2674030Y-2025048D02*
G01*
X2769534Y-2088548D01*
X2674030Y-2088548D02*
G01*
X2674030Y-2025048D01*
X2769534Y-2088548D02*
G01*
X2769534Y-2025048D01*
X2674030Y-1995076D02*
G01*
X2769534Y-1995076D01*
X2674030Y-1995076D02*
G01*
X2674030Y-1935894D01*
X2719496Y-1995076D02*
G01*
X2719496Y-1958754D01*
X2769534Y-1995076D02*
G01*
X2769534Y-1935894D01*
X2674030Y-1905922D02*
G01*
X2769534Y-1905922D01*
X2674030Y-1905922D02*
G01*
X2674030Y-1865028D01*
X2678602Y-1851312D01*
X2683174Y-1846740D01*
X2692318Y-1842168D01*
X2701462Y-1842168D01*
X2710352Y-1846740D01*
X2714924Y-1851312D01*
X2719496Y-1865028D01*
X2719496Y-1905922D01*
X2719496Y-1874172D02*
G01*
X2769534Y-1842168D01*
X2674030Y-1785018D02*
G01*
X2678602Y-1794162D01*
X2687746Y-1803306D01*
X2696890Y-1807624D01*
X2710352Y-1812196D01*
X2733212Y-1812196D01*
X2746928Y-1807624D01*
X2755818Y-1803306D01*
X2764962Y-1794162D01*
X2769534Y-1785018D01*
X2769534Y-1766730D01*
X2764962Y-1757840D01*
X2755818Y-1748696D01*
X2746928Y-1744124D01*
X2733212Y-1739552D01*
X2710352Y-1739552D01*
X2696890Y-1744124D01*
X2687746Y-1748696D01*
X2678602Y-1757840D01*
X2674030Y-1766730D01*
X2674030Y-1785018D01*
X2655996Y-1639476D02*
G01*
X2801284Y-1639476D01*
X2687746Y-1475900D02*
G01*
X2678602Y-1485044D01*
X2674030Y-1498760D01*
X2674030Y-1516794D01*
X2678602Y-1530510D01*
X2687746Y-1539654D01*
X2696890Y-1539654D01*
X2705780Y-1535082D01*
X2710352Y-1530510D01*
X2714924Y-1521366D01*
X2724068Y-1494188D01*
X2728640Y-1485044D01*
X2733212Y-1480472D01*
X2742356Y-1475900D01*
X2755818Y-1475900D01*
X2764962Y-1485044D01*
X2769534Y-1498760D01*
X2769534Y-1516794D01*
X2764962Y-1530510D01*
X2755818Y-1539654D01*
X2674030Y-1445928D02*
G01*
X2769534Y-1423068D01*
X2674030Y-1400462D02*
G01*
X2769534Y-1423068D01*
X2674030Y-1400462D02*
G01*
X2769534Y-1377602D01*
X2674030Y-1354996D02*
G01*
X2769534Y-1377602D01*
X2674030Y-1325024D02*
G01*
X2769534Y-1325024D01*
X2674030Y-1263302D02*
G01*
X2769534Y-1263302D01*
X2674030Y-1295052D02*
G01*
X2674030Y-1231298D01*
X2696890Y-1133254D02*
G01*
X2687746Y-1137826D01*
X2678602Y-1146716D01*
X2674030Y-1155860D01*
X2674030Y-1174148D01*
X2678602Y-1183292D01*
X2687746Y-1192182D01*
X2696890Y-1196754D01*
X2710352Y-1201326D01*
X2733212Y-1201326D01*
X2746928Y-1196754D01*
X2755818Y-1192182D01*
X2764962Y-1183292D01*
X2769534Y-1174148D01*
X2769534Y-1155860D01*
X2764962Y-1146716D01*
X2755818Y-1137826D01*
X2746928Y-1133254D01*
X2674030Y-1103282D02*
G01*
X2769534Y-1103282D01*
X2674030Y-1039528D02*
G01*
X2769534Y-1039528D01*
X2719496Y-1103282D02*
G01*
X2719496Y-1039528D01*
X2674030Y-939452D02*
G01*
X2769534Y-939452D01*
X2674030Y-939452D02*
G01*
X2674030Y-898558D01*
X2678602Y-885096D01*
X2683174Y-880524D01*
X2692318Y-875952D01*
X2701462Y-875952D01*
X2710352Y-880524D01*
X2714924Y-885096D01*
X2719496Y-898558D01*
X2719496Y-939452D02*
G01*
X2719496Y-898558D01*
X2724068Y-885096D01*
X2728640Y-880524D01*
X2737784Y-875952D01*
X2751246Y-875952D01*
X2760390Y-880524D01*
X2764962Y-885096D01*
X2769534Y-898558D01*
X2769534Y-939452D01*
X2674030Y-845980D02*
G01*
X2769534Y-845980D01*
X2674030Y-845980D02*
G01*
X2674030Y-805086D01*
X2678602Y-791370D01*
X2683174Y-786798D01*
X2692318Y-782226D01*
X2701462Y-782226D01*
X2710352Y-786798D01*
X2714924Y-791370D01*
X2719496Y-805086D01*
X2719496Y-845980D01*
X2719496Y-813976D02*
G01*
X2769534Y-782226D01*
X2674030Y-725076D02*
G01*
X2678602Y-733966D01*
X2687746Y-743110D01*
X2696890Y-747682D01*
X2710352Y-752254D01*
X2733212Y-752254D01*
X2746928Y-747682D01*
X2755818Y-743110D01*
X2764962Y-733966D01*
X2769534Y-725076D01*
X2769534Y-706788D01*
X2764962Y-697644D01*
X2755818Y-688754D01*
X2746928Y-684182D01*
X2733212Y-679610D01*
X2710352Y-679610D01*
X2696890Y-684182D01*
X2687746Y-688754D01*
X2678602Y-697644D01*
X2674030Y-706788D01*
X2674030Y-725076D01*
X2674030Y-649638D02*
G01*
X2769534Y-626778D01*
X2674030Y-604172D02*
G01*
X2769534Y-626778D01*
X2674030Y-604172D02*
G01*
X2769534Y-581312D01*
X2674030Y-558706D02*
G01*
X2769534Y-581312D01*
X2674030Y-528734D02*
G01*
X2769534Y-528734D01*
X2674030Y-528734D02*
G01*
X2769534Y-464980D01*
X2674030Y-464980D02*
G01*
X2769534Y-464980D01*
D11*
X3849946Y-620013D02*
G01*
X3849946Y-813815D01*
X3849946Y-620013D02*
G01*
X3970088Y-620013D01*
X3849946Y-712215D02*
G01*
X3923860Y-712215D01*
X3849946Y-813815D02*
G01*
X3970088Y-813815D01*
X4169478Y-666242D02*
G01*
X4160334Y-647700D01*
X4141792Y-629157D01*
X4123504Y-620013D01*
X4086420Y-620013D01*
X4067878Y-629157D01*
X4049590Y-647700D01*
X4040192Y-666242D01*
X4031048Y-693928D01*
X4031048Y-739902D01*
X4040192Y-767842D01*
X4049590Y-786129D01*
X4067878Y-804671D01*
X4086420Y-813815D01*
X4123504Y-813815D01*
X4141792Y-804671D01*
X4160334Y-786129D01*
X4169478Y-767842D01*
X4230438Y-656844D02*
G01*
X4248980Y-647700D01*
X4276666Y-620013D01*
X4276666Y-813815D01*
X4337626Y-656844D02*
G01*
X4356168Y-647700D01*
X4383854Y-620013D01*
X4383854Y-813815D01*
D10*
X3599891Y-2949155D02*
G01*
X3636467Y-3044659D01*
X3672789Y-2949155D02*
G01*
X3636467Y-3044659D01*
X3729939Y-2949155D02*
G01*
X3720795Y-2953727D01*
X3711905Y-2962617D01*
X3707333Y-2971761D01*
X3702761Y-2985477D01*
X3702761Y-3008083D01*
X3707333Y-3021799D01*
X3711905Y-3030943D01*
X3720795Y-3040087D01*
X3729939Y-3044659D01*
X3748227Y-3044659D01*
X3757371Y-3040087D01*
X3766261Y-3030943D01*
X3770833Y-3021799D01*
X3775405Y-3008083D01*
X3775405Y-2985477D01*
X3770833Y-2971761D01*
X3766261Y-2962617D01*
X3757371Y-2953727D01*
X3748227Y-2949155D01*
X3729939Y-2949155D01*
X3805377Y-2949155D02*
G01*
X3805377Y-3044659D01*
X3805377Y-3044659D02*
G01*
X3859987Y-3044659D01*
X3889959Y-2949155D02*
G01*
X3889959Y-3017227D01*
X3894531Y-3030943D01*
X3903675Y-3040087D01*
X3917391Y-3044659D01*
X3926281Y-3044659D01*
X3939997Y-3040087D01*
X3949141Y-3030943D01*
X3953713Y-3017227D01*
X3953713Y-2949155D01*
X3983685Y-2949155D02*
G01*
X3983685Y-3044659D01*
X3983685Y-2949155D02*
G01*
X4020007Y-3044659D01*
X4056329Y-2949155D02*
G01*
X4020007Y-3044659D01*
X4056329Y-2949155D02*
G01*
X4056329Y-3044659D01*
X4086301Y-2949155D02*
G01*
X4086301Y-3044659D01*
X4086301Y-2949155D02*
G01*
X4145483Y-2949155D01*
X4086301Y-2994621D02*
G01*
X4122623Y-2994621D01*
X4086301Y-3044659D02*
G01*
X4145483Y-3044659D01*
X4245559Y-2949155D02*
G01*
X4245559Y-3044659D01*
X4309059Y-2949155D02*
G01*
X4245559Y-3012655D01*
X4268165Y-2990049D02*
G01*
X4309059Y-3044659D01*
X4339031Y-2949155D02*
G01*
X4339031Y-3044659D01*
X4339031Y-2949155D02*
G01*
X4402785Y-3044659D01*
X4402785Y-2949155D02*
G01*
X4402785Y-3044659D01*
X4459935Y-2949155D02*
G01*
X4450791Y-2953727D01*
X4441901Y-2962617D01*
X4437329Y-2971761D01*
X4432757Y-2985477D01*
X4432757Y-3008083D01*
X4437329Y-3021799D01*
X4441901Y-3030943D01*
X4450791Y-3040087D01*
X4459935Y-3044659D01*
X4478223Y-3044659D01*
X4487367Y-3040087D01*
X4496257Y-3030943D01*
X4500829Y-3021799D01*
X4505401Y-3008083D01*
X4505401Y-2985477D01*
X4500829Y-2971761D01*
X4496257Y-2962617D01*
X4487367Y-2953727D01*
X4478223Y-2949155D01*
X4459935Y-2949155D01*
X4535373Y-2949155D02*
G01*
X4535373Y-3044659D01*
X4535373Y-2949155D02*
G01*
X4576267Y-2949155D01*
X4589983Y-2953727D01*
X4594555Y-2958299D01*
X4599127Y-2967189D01*
X4599127Y-2976333D01*
X4594555Y-2985477D01*
X4589983Y-2990049D01*
X4576267Y-2994621D01*
X4535373Y-2994621D02*
G01*
X4576267Y-2994621D01*
X4589983Y-2999193D01*
X4594555Y-3003511D01*
X4599127Y-3012655D01*
X4599127Y-3026371D01*
X4594555Y-3035515D01*
X4589983Y-3040087D01*
X4576267Y-3044659D01*
X4535373Y-3044659D01*
D12*
X4011358Y-2374757D02*
G01*
X4000944Y-2364343D01*
X3985450Y-2359263D01*
X3964622Y-2359263D01*
X3949128Y-2364343D01*
X3938714Y-2374757D01*
X3938714Y-2385171D01*
X3943794Y-2395585D01*
X3949128Y-2400919D01*
X3959542Y-2405999D01*
X3990784Y-2416413D01*
X4000944Y-2421493D01*
X4006278Y-2426827D01*
X4011358Y-2437241D01*
X4011358Y-2452735D01*
X4000944Y-2463149D01*
X3985450Y-2468229D01*
X3964622Y-2468229D01*
X3949128Y-2463149D01*
X3938714Y-2452735D01*
X4045648Y-2359263D02*
G01*
X4071810Y-2468229D01*
X4097718Y-2359263D02*
G01*
X4071810Y-2468229D01*
X4097718Y-2359263D02*
G01*
X4123626Y-2468229D01*
X4149534Y-2359263D02*
G01*
X4123626Y-2468229D01*
X4183824Y-2380091D02*
G01*
X4194238Y-2374757D01*
X4209986Y-2359263D01*
X4209986Y-2468229D01*
X4254690Y-2359263D02*
G01*
X4311840Y-2359263D01*
X4280598Y-2400919D01*
X4296092Y-2400919D01*
X4306506Y-2405999D01*
X4311840Y-2411079D01*
X4316920Y-2426827D01*
X4316920Y-2437241D01*
X4311840Y-2452735D01*
X4301426Y-2463149D01*
X4285678Y-2468229D01*
X4270184Y-2468229D01*
X4254690Y-2463149D01*
X4249356Y-2458069D01*
X4244276Y-2447655D01*
X1180998Y-9332264D02*
G01*
X1180998Y-9441230D01*
X1180998Y-9332264D02*
G01*
X1217320Y-9332264D01*
X1233068Y-9337344D01*
X1243228Y-9347758D01*
X1248562Y-9358172D01*
X1253642Y-9373920D01*
X1253642Y-9399828D01*
X1248562Y-9415322D01*
X1243228Y-9425736D01*
X1233068Y-9436150D01*
X1217320Y-9441230D01*
X1180998Y-9441230D01*
X1287932Y-9353092D02*
G01*
X1298346Y-9347758D01*
X1314094Y-9332264D01*
X1314094Y-9441230D01*
X2980994Y-9332264D02*
G01*
X2980994Y-9441230D01*
X2980994Y-9332264D02*
G01*
X3017316Y-9332264D01*
X3033064Y-9337344D01*
X3043224Y-9347758D01*
X3048558Y-9358172D01*
X3053638Y-9373920D01*
X3053638Y-9399828D01*
X3048558Y-9415322D01*
X3043224Y-9425736D01*
X3033064Y-9436150D01*
X3017316Y-9441230D01*
X2980994Y-9441230D01*
X3093262Y-9358172D02*
G01*
X3093262Y-9353092D01*
X3098342Y-9342678D01*
X3103676Y-9337344D01*
X3114090Y-9332264D01*
X3134664Y-9332264D01*
X3145078Y-9337344D01*
X3150412Y-9342678D01*
X3155492Y-9353092D01*
X3155492Y-9363506D01*
X3150412Y-9373920D01*
X3139998Y-9389414D01*
X3087928Y-9441230D01*
X3160826Y-9441230D01*
X4780991Y-9332264D02*
G01*
X4780991Y-9441230D01*
X4780991Y-9332264D02*
G01*
X4817313Y-9332264D01*
X4833061Y-9337344D01*
X4843221Y-9347758D01*
X4848555Y-9358172D01*
X4853635Y-9373920D01*
X4853635Y-9399828D01*
X4848555Y-9415322D01*
X4843221Y-9425736D01*
X4833061Y-9436150D01*
X4817313Y-9441230D01*
X4780991Y-9441230D01*
X4898339Y-9332264D02*
G01*
X4955489Y-9332264D01*
X4924501Y-9373920D01*
X4939995Y-9373920D01*
X4950409Y-9379000D01*
X4955489Y-9384080D01*
X4960823Y-9399828D01*
X4960823Y-9410242D01*
X4955489Y-9425736D01*
X4945075Y-9436150D01*
X4929581Y-9441230D01*
X4914087Y-9441230D01*
X4898339Y-9436150D01*
X4893259Y-9431070D01*
X4887925Y-9420656D01*
X1180998Y-7232269D02*
G01*
X1180998Y-7341235D01*
X1180998Y-7232269D02*
G01*
X1217320Y-7232269D01*
X1233068Y-7237348D01*
X1243228Y-7247762D01*
X1248562Y-7258177D01*
X1253642Y-7273925D01*
X1253642Y-7299833D01*
X1248562Y-7315327D01*
X1243228Y-7325740D01*
X1233068Y-7336154D01*
X1217320Y-7341235D01*
X1180998Y-7341235D01*
X1340002Y-7232269D02*
G01*
X1287932Y-7304912D01*
X1365910Y-7304912D01*
X1340002Y-7232269D02*
G01*
X1340002Y-7341235D01*
X2980994Y-7232269D02*
G01*
X2980994Y-7341235D01*
X2980994Y-7232269D02*
G01*
X3017316Y-7232269D01*
X3033064Y-7237348D01*
X3043224Y-7247762D01*
X3048558Y-7258177D01*
X3053638Y-7273925D01*
X3053638Y-7299833D01*
X3048558Y-7315327D01*
X3043224Y-7325740D01*
X3033064Y-7336154D01*
X3017316Y-7341235D01*
X2980994Y-7341235D01*
X3150412Y-7232269D02*
G01*
X3098342Y-7232269D01*
X3093262Y-7279004D01*
X3098342Y-7273925D01*
X3114090Y-7268590D01*
X3129584Y-7268590D01*
X3145078Y-7273925D01*
X3155492Y-7284085D01*
X3160826Y-7299833D01*
X3160826Y-7310246D01*
X3155492Y-7325740D01*
X3145078Y-7336154D01*
X3129584Y-7341235D01*
X3114090Y-7341235D01*
X3098342Y-7336154D01*
X3093262Y-7331075D01*
X3087928Y-7320661D01*
X4780991Y-7232269D02*
G01*
X4780991Y-7341235D01*
X4780991Y-7232269D02*
G01*
X4817313Y-7232269D01*
X4833061Y-7237348D01*
X4843221Y-7247762D01*
X4848555Y-7258177D01*
X4853635Y-7273925D01*
X4853635Y-7299833D01*
X4848555Y-7315327D01*
X4843221Y-7325740D01*
X4833061Y-7336154D01*
X4817313Y-7341235D01*
X4780991Y-7341235D01*
X4950409Y-7247762D02*
G01*
X4945075Y-7237348D01*
X4929581Y-7232269D01*
X4919167Y-7232269D01*
X4903673Y-7237348D01*
X4893259Y-7253096D01*
X4887925Y-7279004D01*
X4887925Y-7304912D01*
X4893259Y-7325740D01*
X4903673Y-7336154D01*
X4919167Y-7341235D01*
X4924501Y-7341235D01*
X4939995Y-7336154D01*
X4950409Y-7325740D01*
X4955489Y-7310246D01*
X4955489Y-7304912D01*
X4950409Y-7289419D01*
X4939995Y-7279004D01*
X4924501Y-7273925D01*
X4919167Y-7273925D01*
X4903673Y-7279004D01*
X4893259Y-7289419D01*
X4887925Y-7304912D01*
X1180998Y-5132273D02*
G01*
X1180998Y-5241239D01*
X1180998Y-5132273D02*
G01*
X1217320Y-5132273D01*
X1233068Y-5137353D01*
X1243228Y-5147767D01*
X1248562Y-5158181D01*
X1253642Y-5173929D01*
X1253642Y-5199837D01*
X1248562Y-5215331D01*
X1243228Y-5225745D01*
X1233068Y-5236159D01*
X1217320Y-5241239D01*
X1180998Y-5241239D01*
X1360830Y-5132273D02*
G01*
X1308760Y-5241239D01*
X1287932Y-5132273D02*
G01*
X1360830Y-5132273D01*
X2980994Y-5132273D02*
G01*
X2980994Y-5241239D01*
X2980994Y-5132273D02*
G01*
X3017316Y-5132273D01*
X3033064Y-5137353D01*
X3043224Y-5147767D01*
X3048558Y-5158181D01*
X3053638Y-5173929D01*
X3053638Y-5199837D01*
X3048558Y-5215331D01*
X3043224Y-5225745D01*
X3033064Y-5236159D01*
X3017316Y-5241239D01*
X2980994Y-5241239D01*
X3114090Y-5132273D02*
G01*
X3098342Y-5137353D01*
X3093262Y-5147767D01*
X3093262Y-5158181D01*
X3098342Y-5168595D01*
X3108756Y-5173929D01*
X3129584Y-5179009D01*
X3145078Y-5184089D01*
X3155492Y-5194503D01*
X3160826Y-5204917D01*
X3160826Y-5220665D01*
X3155492Y-5231079D01*
X3150412Y-5236159D01*
X3134664Y-5241239D01*
X3114090Y-5241239D01*
X3098342Y-5236159D01*
X3093262Y-5231079D01*
X3087928Y-5220665D01*
X3087928Y-5204917D01*
X3093262Y-5194503D01*
X3103676Y-5184089D01*
X3119170Y-5179009D01*
X3139998Y-5173929D01*
X3150412Y-5168595D01*
X3155492Y-5158181D01*
X3155492Y-5147767D01*
X3150412Y-5137353D01*
X3134664Y-5132273D01*
X3114090Y-5132273D01*
X4780991Y-5132273D02*
G01*
X4780991Y-5241239D01*
X4780991Y-5132273D02*
G01*
X4817313Y-5132273D01*
X4833061Y-5137353D01*
X4843221Y-5147767D01*
X4848555Y-5158181D01*
X4853635Y-5173929D01*
X4853635Y-5199837D01*
X4848555Y-5215331D01*
X4843221Y-5225745D01*
X4833061Y-5236159D01*
X4817313Y-5241239D01*
X4780991Y-5241239D01*
X4955489Y-5168595D02*
G01*
X4950409Y-5184089D01*
X4939995Y-5194503D01*
X4924501Y-5199837D01*
X4919167Y-5199837D01*
X4903673Y-5194503D01*
X4893259Y-5184089D01*
X4887925Y-5168595D01*
X4887925Y-5163515D01*
X4893259Y-5147767D01*
X4903673Y-5137353D01*
X4919167Y-5132273D01*
X4924501Y-5132273D01*
X4939995Y-5137353D01*
X4950409Y-5147767D01*
X4955489Y-5168595D01*
X4955489Y-5194503D01*
X4950409Y-5220665D01*
X4939995Y-5236159D01*
X4924501Y-5241239D01*
X4914087Y-5241239D01*
X4898339Y-5236159D01*
X4893259Y-5225745D01*
X1180998Y-3132277D02*
G01*
X1180998Y-3241243D01*
X1180998Y-3132277D02*
G01*
X1217320Y-3132277D01*
X1233068Y-3137357D01*
X1243228Y-3147771D01*
X1248562Y-3158185D01*
X1253642Y-3173933D01*
X1253642Y-3199841D01*
X1248562Y-3215335D01*
X1243228Y-3225749D01*
X1233068Y-3236163D01*
X1217320Y-3241243D01*
X1180998Y-3241243D01*
X1287932Y-3153105D02*
G01*
X1298346Y-3147771D01*
X1314094Y-3132277D01*
X1314094Y-3241243D01*
X1379372Y-3132277D02*
G01*
X1363878Y-3137357D01*
X1353464Y-3153105D01*
X1348384Y-3179013D01*
X1348384Y-3194507D01*
X1353464Y-3220669D01*
X1363878Y-3236163D01*
X1379372Y-3241243D01*
X1389786Y-3241243D01*
X1405534Y-3236163D01*
X1415948Y-3220669D01*
X1421028Y-3194507D01*
X1421028Y-3179013D01*
X1415948Y-3153105D01*
X1405534Y-3137357D01*
X1389786Y-3132277D01*
X1379372Y-3132277D01*
X2980994Y-3032277D02*
G01*
X2980994Y-3141243D01*
X2980994Y-3032277D02*
G01*
X3017316Y-3032277D01*
X3033064Y-3037357D01*
X3043224Y-3047771D01*
X3048558Y-3058185D01*
X3053638Y-3073933D01*
X3053638Y-3099841D01*
X3048558Y-3115335D01*
X3043224Y-3125749D01*
X3033064Y-3136163D01*
X3017316Y-3141243D01*
X2980994Y-3141243D01*
X3087928Y-3053105D02*
G01*
X3098342Y-3047771D01*
X3114090Y-3032277D01*
X3114090Y-3141243D01*
X3148380Y-3053105D02*
G01*
X3158794Y-3047771D01*
X3174288Y-3032277D01*
X3174288Y-3141243D01*
X4780991Y-3132277D02*
G01*
X4780991Y-3241243D01*
X4780991Y-3132277D02*
G01*
X4817313Y-3132277D01*
X4833061Y-3137357D01*
X4843221Y-3147771D01*
X4848555Y-3158185D01*
X4853635Y-3173933D01*
X4853635Y-3199841D01*
X4848555Y-3215335D01*
X4843221Y-3225749D01*
X4833061Y-3236163D01*
X4817313Y-3241243D01*
X4780991Y-3241243D01*
X4887925Y-3153105D02*
G01*
X4898339Y-3147771D01*
X4914087Y-3132277D01*
X4914087Y-3241243D01*
X4953457Y-3158185D02*
G01*
X4953457Y-3153105D01*
X4958791Y-3142691D01*
X4963871Y-3137357D01*
X4974285Y-3132277D01*
X4995113Y-3132277D01*
X5005527Y-3137357D01*
X5010607Y-3142691D01*
X5015941Y-3153105D01*
X5015941Y-3163519D01*
X5010607Y-3173933D01*
X5000193Y-3189427D01*
X4948377Y-3241243D01*
X5021021Y-3241243D01*
X799972Y-284530D02*
G01*
X799972Y-362508D01*
X805306Y-378256D01*
X815467Y-388670D01*
X831214Y-393750D01*
X841629Y-393750D01*
X857122Y-388670D01*
X867537Y-378256D01*
X872617Y-362508D01*
X872617Y-284530D01*
X906906Y-305358D02*
G01*
X917320Y-300278D01*
X933069Y-284530D01*
X933069Y-393750D01*
D11*
X1396756Y-584774D02*
G01*
X1396756Y-652846D01*
X1401328Y-666562D01*
X1410472Y-675706D01*
X1423934Y-680278D01*
X1433078Y-680278D01*
X1446794Y-675706D01*
X1455938Y-666562D01*
X1460510Y-652846D01*
X1460510Y-584774D01*
X1553982Y-598236D02*
G01*
X1544838Y-589346D01*
X1531376Y-584774D01*
X1513088Y-584774D01*
X1499626Y-589346D01*
X1490482Y-598236D01*
X1490482Y-607380D01*
X1495054Y-616524D01*
X1499626Y-621096D01*
X1508516Y-625668D01*
X1535948Y-634812D01*
X1544838Y-639130D01*
X1549410Y-643702D01*
X1553982Y-652846D01*
X1553982Y-666562D01*
X1544838Y-675706D01*
X1531376Y-680278D01*
X1513088Y-680278D01*
X1499626Y-675706D01*
X1490482Y-666562D01*
X1583954Y-584774D02*
G01*
X1583954Y-680278D01*
X1583954Y-584774D02*
G01*
X1624848Y-584774D01*
X1638564Y-589346D01*
X1643136Y-593918D01*
X1647708Y-602808D01*
X1647708Y-611952D01*
X1643136Y-621096D01*
X1638564Y-625668D01*
X1624848Y-630240D01*
X1583954Y-630240D02*
G01*
X1624848Y-630240D01*
X1638564Y-634812D01*
X1643136Y-639130D01*
X1647708Y-648274D01*
X1647708Y-661990D01*
X1643136Y-671134D01*
X1638564Y-675706D01*
X1624848Y-680278D01*
X1583954Y-680278D01*
X1677680Y-639130D02*
G01*
X1759468Y-639130D01*
X1857766Y-607380D02*
G01*
X1853194Y-598236D01*
X1844050Y-589346D01*
X1834906Y-584774D01*
X1816872Y-584774D01*
X1807728Y-589346D01*
X1798584Y-598236D01*
X1794012Y-607380D01*
X1789440Y-621096D01*
X1789440Y-643702D01*
X1794012Y-657418D01*
X1798584Y-666562D01*
X1807728Y-675706D01*
X1816872Y-680278D01*
X1834906Y-680278D01*
X1844050Y-675706D01*
X1853194Y-666562D01*
X1857766Y-657418D01*
D12*
X1572869Y-3800297D02*
G01*
X1562455Y-3789883D01*
X1546707Y-3784549D01*
X1526133Y-3784549D01*
X1510385Y-3789883D01*
X1499971Y-3800297D01*
X1499971Y-3810711D01*
X1505305Y-3820871D01*
X1510385Y-3826205D01*
X1520799Y-3831285D01*
X1552041Y-3841699D01*
X1562455Y-3847033D01*
X1567535Y-3852113D01*
X1572869Y-3862527D01*
X1572869Y-3878021D01*
X1562455Y-3888435D01*
X1546707Y-3893769D01*
X1526133Y-3893769D01*
X1510385Y-3888435D01*
X1499971Y-3878021D01*
X1607159Y-3784549D02*
G01*
X1633067Y-3893769D01*
X1658975Y-3784549D02*
G01*
X1633067Y-3893769D01*
X1658975Y-3784549D02*
G01*
X1684883Y-3893769D01*
X1711045Y-3784549D02*
G01*
X1684883Y-3893769D01*
X1745335Y-3805377D02*
G01*
X1755749Y-3800297D01*
X1771243Y-3784549D01*
X1771243Y-3893769D01*
X1836775Y-3784549D02*
G01*
X1821027Y-3789883D01*
X1810613Y-3805377D01*
X1805533Y-3831285D01*
X1805533Y-3847033D01*
X1810613Y-3872941D01*
X1821027Y-3888435D01*
X1836775Y-3893769D01*
X1847189Y-3893769D01*
X1862683Y-3888435D01*
X1873097Y-3872941D01*
X1878177Y-3847033D01*
X1878177Y-3831285D01*
X1873097Y-3805377D01*
X1862683Y-3789883D01*
X1847189Y-3784549D01*
X1836775Y-3784549D01*
X5172608Y-3800297D02*
G01*
X5162448Y-3789883D01*
X5146700Y-3784549D01*
X5125872Y-3784549D01*
X5110378Y-3789883D01*
X5099964Y-3800297D01*
X5099964Y-3810711D01*
X5105298Y-3820871D01*
X5110378Y-3826205D01*
X5120792Y-3831285D01*
X5152034Y-3841699D01*
X5162448Y-3847033D01*
X5167528Y-3852113D01*
X5172608Y-3862527D01*
X5172608Y-3878021D01*
X5162448Y-3888435D01*
X5146700Y-3893769D01*
X5125872Y-3893769D01*
X5110378Y-3888435D01*
X5099964Y-3878021D01*
X5206898Y-3784549D02*
G01*
X5233060Y-3893769D01*
X5258968Y-3784549D02*
G01*
X5233060Y-3893769D01*
X5258968Y-3784549D02*
G01*
X5284876Y-3893769D01*
X5311038Y-3784549D02*
G01*
X5284876Y-3893769D01*
X5345328Y-3805377D02*
G01*
X5355488Y-3800297D01*
X5371236Y-3784549D01*
X5371236Y-3893769D01*
X5410606Y-3810711D02*
G01*
X5410606Y-3805377D01*
X5415940Y-3794963D01*
X5421020Y-3789883D01*
X5431434Y-3784549D01*
X5452262Y-3784549D01*
X5462676Y-3789883D01*
X5467756Y-3794963D01*
X5473090Y-3805377D01*
X5473090Y-3815791D01*
X5467756Y-3826205D01*
X5457342Y-3841699D01*
X5405526Y-3893769D01*
X5478170Y-3893769D01*
X3372535Y-3800195D02*
G01*
X3362121Y-3789781D01*
X3346627Y-3784701D01*
X3325799Y-3784701D01*
X3310305Y-3789781D01*
X3299891Y-3800195D01*
X3299891Y-3810609D01*
X3304971Y-3821023D01*
X3310305Y-3826357D01*
X3320719Y-3831437D01*
X3351961Y-3841851D01*
X3362121Y-3846931D01*
X3367455Y-3852265D01*
X3372535Y-3862679D01*
X3372535Y-3878173D01*
X3362121Y-3888587D01*
X3346627Y-3893667D01*
X3325799Y-3893667D01*
X3310305Y-3888587D01*
X3299891Y-3878173D01*
X3406825Y-3784701D02*
G01*
X3432987Y-3893667D01*
X3458895Y-3784701D02*
G01*
X3432987Y-3893667D01*
X3458895Y-3784701D02*
G01*
X3484803Y-3893667D01*
X3510711Y-3784701D02*
G01*
X3484803Y-3893667D01*
X3545001Y-3805529D02*
G01*
X3555415Y-3800195D01*
X3571163Y-3784701D01*
X3571163Y-3893667D01*
X3605453Y-3805529D02*
G01*
X3615867Y-3800195D01*
X3631361Y-3784701D01*
X3631361Y-3893667D01*
X1572666Y-10000284D02*
G01*
X1562252Y-9989870D01*
X1546758Y-9984536D01*
X1525930Y-9984536D01*
X1510182Y-9989870D01*
X1500022Y-10000284D01*
X1500022Y-10010698D01*
X1505102Y-10021112D01*
X1510182Y-10026192D01*
X1520596Y-10031526D01*
X1551838Y-10041686D01*
X1562252Y-10047020D01*
X1567332Y-10052100D01*
X1572666Y-10062514D01*
X1572666Y-10078262D01*
X1562252Y-10088676D01*
X1546758Y-10093756D01*
X1525930Y-10093756D01*
X1510182Y-10088676D01*
X1500022Y-10078262D01*
X1606956Y-9984536D02*
G01*
X1632864Y-10093756D01*
X1658772Y-9984536D02*
G01*
X1632864Y-10093756D01*
X1658772Y-9984536D02*
G01*
X1684934Y-10093756D01*
X1710842Y-9984536D02*
G01*
X1684934Y-10093756D01*
X1745132Y-10005364D02*
G01*
X1755546Y-10000284D01*
X1771040Y-9984536D01*
X1771040Y-10093756D01*
X3372510Y-10000284D02*
G01*
X3362350Y-9989870D01*
X3346602Y-9984536D01*
X3325774Y-9984536D01*
X3310280Y-9989870D01*
X3299866Y-10000284D01*
X3299866Y-10010698D01*
X3305200Y-10021112D01*
X3310280Y-10026192D01*
X3320694Y-10031526D01*
X3351936Y-10041686D01*
X3362350Y-10047020D01*
X3367430Y-10052100D01*
X3372510Y-10062514D01*
X3372510Y-10078262D01*
X3362350Y-10088676D01*
X3346602Y-10093756D01*
X3325774Y-10093756D01*
X3310280Y-10088676D01*
X3299866Y-10078262D01*
X3406800Y-9984536D02*
G01*
X3432962Y-10093756D01*
X3458870Y-9984536D02*
G01*
X3432962Y-10093756D01*
X3458870Y-9984536D02*
G01*
X3484778Y-10093756D01*
X3510940Y-9984536D02*
G01*
X3484778Y-10093756D01*
X3550310Y-10010698D02*
G01*
X3550310Y-10005364D01*
X3555390Y-9994950D01*
X3560724Y-9989870D01*
X3571138Y-9984536D01*
X3591966Y-9984536D01*
X3602380Y-9989870D01*
X3607460Y-9994950D01*
X3612540Y-10005364D01*
X3612540Y-10015778D01*
X3607460Y-10026192D01*
X3597046Y-10041686D01*
X3545230Y-10093756D01*
X3617874Y-10093756D01*
X5172608Y-10000284D02*
G01*
X5162194Y-9989870D01*
X5146700Y-9984536D01*
X5125872Y-9984536D01*
X5110378Y-9989870D01*
X5099964Y-10000284D01*
X5099964Y-10010698D01*
X5105044Y-10021112D01*
X5110378Y-10026192D01*
X5120792Y-10031526D01*
X5151780Y-10041686D01*
X5162194Y-10047020D01*
X5167528Y-10052100D01*
X5172608Y-10062514D01*
X5172608Y-10078262D01*
X5162194Y-10088676D01*
X5146700Y-10093756D01*
X5125872Y-10093756D01*
X5110378Y-10088676D01*
X5099964Y-10078262D01*
X5206898Y-9984536D02*
G01*
X5232806Y-10093756D01*
X5258968Y-9984536D02*
G01*
X5232806Y-10093756D01*
X5258968Y-9984536D02*
G01*
X5284876Y-10093756D01*
X5310784Y-9984536D02*
G01*
X5284876Y-10093756D01*
X5355488Y-9984536D02*
G01*
X5412638Y-9984536D01*
X5381396Y-10026192D01*
X5397144Y-10026192D01*
X5407558Y-10031526D01*
X5412638Y-10036606D01*
X5417972Y-10052100D01*
X5417972Y-10062514D01*
X5412638Y-10078262D01*
X5402224Y-10088676D01*
X5386730Y-10093756D01*
X5370982Y-10093756D01*
X5355488Y-10088676D01*
X5350408Y-10083342D01*
X5345074Y-10072928D01*
X1572666Y-7900212D02*
G01*
X1562252Y-7889798D01*
X1546758Y-7884718D01*
X1525930Y-7884718D01*
X1510182Y-7889798D01*
X1500022Y-7900212D01*
X1500022Y-7910626D01*
X1505102Y-7921040D01*
X1510182Y-7926120D01*
X1520596Y-7931454D01*
X1551838Y-7941868D01*
X1562252Y-7946948D01*
X1567332Y-7952282D01*
X1572666Y-7962696D01*
X1572666Y-7978190D01*
X1562252Y-7988604D01*
X1546758Y-7993684D01*
X1525930Y-7993684D01*
X1510182Y-7988604D01*
X1500022Y-7978190D01*
X1606956Y-7884718D02*
G01*
X1632864Y-7993684D01*
X1658772Y-7884718D02*
G01*
X1632864Y-7993684D01*
X1658772Y-7884718D02*
G01*
X1684934Y-7993684D01*
X1710842Y-7884718D02*
G01*
X1684934Y-7993684D01*
X1797202Y-7884718D02*
G01*
X1745132Y-7957362D01*
X1823110Y-7957362D01*
X1797202Y-7884718D02*
G01*
X1797202Y-7993684D01*
X3372510Y-7900212D02*
G01*
X3362350Y-7889798D01*
X3346602Y-7884718D01*
X3325774Y-7884718D01*
X3310280Y-7889798D01*
X3299866Y-7900212D01*
X3299866Y-7910626D01*
X3305200Y-7921040D01*
X3310280Y-7926120D01*
X3320694Y-7931454D01*
X3351936Y-7941868D01*
X3362350Y-7946948D01*
X3367430Y-7952282D01*
X3372510Y-7962696D01*
X3372510Y-7978190D01*
X3362350Y-7988604D01*
X3346602Y-7993684D01*
X3325774Y-7993684D01*
X3310280Y-7988604D01*
X3299866Y-7978190D01*
X3406800Y-7884718D02*
G01*
X3432962Y-7993684D01*
X3458870Y-7884718D02*
G01*
X3432962Y-7993684D01*
X3458870Y-7884718D02*
G01*
X3484778Y-7993684D01*
X3510940Y-7884718D02*
G01*
X3484778Y-7993684D01*
X3607460Y-7884718D02*
G01*
X3555390Y-7884718D01*
X3550310Y-7931454D01*
X3555390Y-7926120D01*
X3571138Y-7921040D01*
X3586632Y-7921040D01*
X3602380Y-7926120D01*
X3612540Y-7936534D01*
X3617874Y-7952282D01*
X3617874Y-7962696D01*
X3612540Y-7978190D01*
X3602380Y-7988604D01*
X3586632Y-7993684D01*
X3571138Y-7993684D01*
X3555390Y-7988604D01*
X3550310Y-7983270D01*
X3545230Y-7973110D01*
X5172608Y-7900212D02*
G01*
X5162194Y-7889798D01*
X5146700Y-7884718D01*
X5125872Y-7884718D01*
X5110378Y-7889798D01*
X5099964Y-7900212D01*
X5099964Y-7910626D01*
X5105044Y-7921040D01*
X5110378Y-7926120D01*
X5120792Y-7931454D01*
X5151780Y-7941868D01*
X5162194Y-7946948D01*
X5167528Y-7952282D01*
X5172608Y-7962696D01*
X5172608Y-7978190D01*
X5162194Y-7988604D01*
X5146700Y-7993684D01*
X5125872Y-7993684D01*
X5110378Y-7988604D01*
X5099964Y-7978190D01*
X5206898Y-7884718D02*
G01*
X5232806Y-7993684D01*
X5258968Y-7884718D02*
G01*
X5232806Y-7993684D01*
X5258968Y-7884718D02*
G01*
X5284876Y-7993684D01*
X5310784Y-7884718D02*
G01*
X5284876Y-7993684D01*
X5407558Y-7900212D02*
G01*
X5402224Y-7889798D01*
X5386730Y-7884718D01*
X5376316Y-7884718D01*
X5360822Y-7889798D01*
X5350408Y-7905546D01*
X5345074Y-7931454D01*
X5345074Y-7957362D01*
X5350408Y-7978190D01*
X5360822Y-7988604D01*
X5376316Y-7993684D01*
X5381396Y-7993684D01*
X5397144Y-7988604D01*
X5407558Y-7978190D01*
X5412638Y-7962696D01*
X5412638Y-7957362D01*
X5407558Y-7941868D01*
X5397144Y-7931454D01*
X5381396Y-7926120D01*
X5376316Y-7926120D01*
X5360822Y-7931454D01*
X5350408Y-7941868D01*
X5345074Y-7957362D01*
X1572666Y-5800140D02*
G01*
X1562252Y-5789980D01*
X1546758Y-5784646D01*
X1525930Y-5784646D01*
X1510436Y-5789980D01*
X1500022Y-5800140D01*
X1500022Y-5810554D01*
X1505102Y-5820968D01*
X1510436Y-5826302D01*
X1520850Y-5831382D01*
X1551838Y-5841796D01*
X1562252Y-5847130D01*
X1567586Y-5852210D01*
X1572666Y-5862624D01*
X1572666Y-5878118D01*
X1562252Y-5888532D01*
X1546758Y-5893866D01*
X1525930Y-5893866D01*
X1510436Y-5888532D01*
X1500022Y-5878118D01*
X1606956Y-5784646D02*
G01*
X1633118Y-5893866D01*
X1659026Y-5784646D02*
G01*
X1633118Y-5893866D01*
X1659026Y-5784646D02*
G01*
X1684934Y-5893866D01*
X1710842Y-5784646D02*
G01*
X1684934Y-5893866D01*
X1818030Y-5784646D02*
G01*
X1765960Y-5893866D01*
X1745132Y-5784646D02*
G01*
X1818030Y-5784646D01*
X3372764Y-5800140D02*
G01*
X3362350Y-5789980D01*
X3346856Y-5784646D01*
X3326028Y-5784646D01*
X3310280Y-5789980D01*
X3300120Y-5800140D01*
X3300120Y-5810554D01*
X3305200Y-5820968D01*
X3310280Y-5826302D01*
X3320694Y-5831382D01*
X3351936Y-5841796D01*
X3362350Y-5847130D01*
X3367430Y-5852210D01*
X3372764Y-5862624D01*
X3372764Y-5878118D01*
X3362350Y-5888532D01*
X3346856Y-5893866D01*
X3326028Y-5893866D01*
X3310280Y-5888532D01*
X3300120Y-5878118D01*
X3407054Y-5784646D02*
G01*
X3432962Y-5893866D01*
X3458870Y-5784646D02*
G01*
X3432962Y-5893866D01*
X3458870Y-5784646D02*
G01*
X3485032Y-5893866D01*
X3510940Y-5784646D02*
G01*
X3485032Y-5893866D01*
X3571138Y-5784646D02*
G01*
X3555644Y-5789980D01*
X3550310Y-5800140D01*
X3550310Y-5810554D01*
X3555644Y-5820968D01*
X3566058Y-5826302D01*
X3586886Y-5831382D01*
X3602380Y-5836716D01*
X3612794Y-5847130D01*
X3617874Y-5857290D01*
X3617874Y-5873038D01*
X3612794Y-5883452D01*
X3607460Y-5888532D01*
X3591966Y-5893866D01*
X3571138Y-5893866D01*
X3555644Y-5888532D01*
X3550310Y-5883452D01*
X3545230Y-5873038D01*
X3545230Y-5857290D01*
X3550310Y-5847130D01*
X3560724Y-5836716D01*
X3576472Y-5831382D01*
X3597300Y-5826302D01*
X3607460Y-5820968D01*
X3612794Y-5810554D01*
X3612794Y-5800140D01*
X3607460Y-5789980D01*
X3591966Y-5784646D01*
X3571138Y-5784646D01*
X5172608Y-5800140D02*
G01*
X5162448Y-5789980D01*
X5146700Y-5784646D01*
X5125872Y-5784646D01*
X5110378Y-5789980D01*
X5099964Y-5800140D01*
X5099964Y-5810554D01*
X5105298Y-5820968D01*
X5110378Y-5826302D01*
X5120792Y-5831382D01*
X5152034Y-5841796D01*
X5162448Y-5847130D01*
X5167528Y-5852210D01*
X5172608Y-5862624D01*
X5172608Y-5878118D01*
X5162448Y-5888532D01*
X5146700Y-5893866D01*
X5125872Y-5893866D01*
X5110378Y-5888532D01*
X5099964Y-5878118D01*
X5206898Y-5784646D02*
G01*
X5233060Y-5893866D01*
X5258968Y-5784646D02*
G01*
X5233060Y-5893866D01*
X5258968Y-5784646D02*
G01*
X5284876Y-5893866D01*
X5311038Y-5784646D02*
G01*
X5284876Y-5893866D01*
X5412638Y-5820968D02*
G01*
X5407558Y-5836716D01*
X5397144Y-5847130D01*
X5381650Y-5852210D01*
X5376316Y-5852210D01*
X5360822Y-5847130D01*
X5350408Y-5836716D01*
X5345328Y-5820968D01*
X5345328Y-5815888D01*
X5350408Y-5800140D01*
X5360822Y-5789980D01*
X5376316Y-5784646D01*
X5381650Y-5784646D01*
X5397144Y-5789980D01*
X5407558Y-5800140D01*
X5412638Y-5820968D01*
X5412638Y-5847130D01*
X5407558Y-5873038D01*
X5397144Y-5888532D01*
X5381650Y-5893866D01*
X5371236Y-5893866D01*
X5355488Y-5888532D01*
X5350408Y-5878118D01*
G36*
X799998Y-2899968D02*
G01*
X920343Y-2999994D01*
X2300020Y-2999994D01*
X2399995Y-2899968D01*
G37*
G36*
X1349908Y-11549938D02*
G01*
X1249883Y-11849912D01*
X1349908Y-11824919D01*
X1349908Y-12074956D01*
X1449882Y-11774932D01*
X1349908Y-11799925D01*
G37*
G36*
X1074877Y-11549938D02*
G01*
X974902Y-11849912D01*
X1074877Y-11824919D01*
X1074877Y-12074956D01*
X1174902Y-11774932D01*
X1074877Y-11799925D01*
G37*
G36*
X799998Y-11549989D02*
G01*
X699973Y-11849963D01*
X799998Y-11824970D01*
X799998Y-12074956D01*
X899972Y-11774982D01*
X799998Y-11799976D01*
G37*
G36*
X4650079Y-11549989D02*
G01*
X4550105Y-11850014D01*
X4650079Y-11825020D01*
X4650079Y-12075007D01*
X4750104Y-11775033D01*
X4650079Y-11800027D01*
G37*
G36*
X4925009Y-11549989D02*
G01*
X4824984Y-11849963D01*
X4925009Y-11824970D01*
X4925009Y-12074956D01*
X5024983Y-11774982D01*
X4925009Y-11799976D01*
G37*
G36*
X5199989Y-11549989D02*
G01*
X5099964Y-11849963D01*
X5199989Y-11824970D01*
X5199989Y-12074956D01*
X5300014Y-11774982D01*
X5199989Y-11799976D01*
G37*
D10*
X749998Y-175000D02*
G01*
X1249997Y-175000D01*
X2574988Y-11699974D02*
G01*
X2624996Y-11699974D01*
X2499992Y-11799973D02*
G01*
X2499992Y-11824977D01*
X4774989Y-174998D02*
G01*
X5249986Y-174998D01*
D13*
X200004Y-11399979D02*
G01*
X300004Y-11399979D01*
X200004Y-11499974D01*
X100004Y-11399979D01*
X200004Y-11399979D01*
X200004Y-3599990D02*
G01*
X200004Y-11399979D01*
X200004Y-3599990D02*
G01*
X300004Y-3599990D01*
X200004Y-3499990D01*
X100004Y-3599990D01*
X200004Y-3599990D01*
X5800090Y-11400028D02*
G01*
X5899911Y-11400028D01*
X5800090Y-11499850D01*
X5700013Y-11400028D01*
X5800090Y-11400028D01*
X5799988Y-3599992D02*
G01*
X5799988Y-11399977D01*
X5800090Y-3599942D02*
G01*
X5899911Y-3599942D01*
X5800090Y-3499865D01*
X5700013Y-3599942D01*
X5800090Y-3599942D01*
D14*
X3899994Y-11399987D02*
G01*
X3899994Y-11499977D01*
X3999984Y-11499977D02*
G01*
X3799994Y-11499977D01*
X1999995Y-11499977D02*
G01*
X2199995Y-11499977D01*
X2099995Y-11399982D02*
G01*
X2099995Y-11499977D01*
X2099889Y-5500004D02*
G01*
X2099995Y-5299989D01*
X3899992Y-5499988D02*
G01*
X3899992Y-5299994D01*
X3898226Y-7350013D02*
G01*
X3898226Y-7550007D01*
X2099889Y-3500008D02*
G01*
X2099889Y-3400021D01*
X1999899Y-3400021D02*
G01*
X2199888Y-3400021D01*
X3899890Y-3500015D02*
G01*
X3899890Y-3400021D01*
X3999890Y-3400021D02*
G01*
X3799890Y-3400021D01*
X3999890Y-5400017D02*
G01*
X3799890Y-5400017D01*
X1999899Y-5400017D02*
G01*
X2199888Y-5400017D01*
X3798239Y-7450013D02*
G01*
X3998229Y-7450013D01*
X3799890Y-9550008D02*
G01*
X3999877Y-9550008D01*
X3899877Y-9450009D02*
G01*
X3899877Y-9650003D01*
X1999899Y-9550008D02*
G01*
X2199888Y-9550008D01*
X2099889Y-9450009D02*
G01*
X2099889Y-9650003D01*
X2099889Y-7350005D02*
G01*
X2099889Y-7550007D01*
X1999899Y-7450007D02*
G01*
X2199888Y-7450007D01*
D15*
X4724996Y-1278379D02*
G01*
X4724996Y-1019995D01*
X4724996Y-1778378D02*
G01*
X4724996Y-1421640D01*
X4724996Y-2189998D02*
G01*
X4724996Y-1921639D01*
X4309785Y-1019995D02*
G01*
X4724996Y-1019995D01*
X3524999Y-2189998D02*
G01*
X3946387Y-2189998D01*
X4303608Y-2189998D02*
G01*
X4724996Y-2189998D01*
X3524999Y-1019995D02*
G01*
X3524999Y-2189998D01*
X3524999Y-1019995D02*
G01*
X3940210Y-1019995D01*
X1344498Y-9498380D02*
G01*
X1344498Y-9701580D01*
D10*
X1001598Y-9485680D02*
G01*
X1401597Y-9485680D01*
X1401597Y-9705670D01*
X1001598Y-9705670D01*
X1001598Y-9485680D01*
D15*
X3144494Y-9498380D02*
G01*
X3144494Y-9701580D01*
D10*
X2801594Y-9485680D02*
G01*
X3201593Y-9485680D01*
X3201593Y-9705670D01*
X2801594Y-9705670D01*
X2801594Y-9485680D01*
D15*
X4944490Y-9498380D02*
G01*
X4944490Y-9701580D01*
D10*
X4601590Y-9485680D02*
G01*
X5001590Y-9485680D01*
X5001590Y-9705670D01*
X4601590Y-9705670D01*
X4601590Y-9485680D01*
D15*
X1344498Y-7398385D02*
G01*
X1344498Y-7601585D01*
D10*
X1001598Y-7385685D02*
G01*
X1401597Y-7385685D01*
X1401597Y-7605674D01*
X1001598Y-7605674D01*
X1001598Y-7385685D01*
D15*
X3144494Y-7398385D02*
G01*
X3144494Y-7601585D01*
D10*
X2801594Y-7385685D02*
G01*
X3201593Y-7385685D01*
X3201593Y-7605674D01*
X2801594Y-7605674D01*
X2801594Y-7385685D01*
D15*
X4944490Y-7398385D02*
G01*
X4944490Y-7601585D01*
D10*
X4601590Y-7385685D02*
G01*
X5001590Y-7385685D01*
X5001590Y-7605674D01*
X4601590Y-7605674D01*
X4601590Y-7385685D01*
D15*
X1344498Y-5298389D02*
G01*
X1344498Y-5501589D01*
D10*
X1001598Y-5285689D02*
G01*
X1401597Y-5285689D01*
X1401597Y-5505678D01*
X1001598Y-5505678D01*
X1001598Y-5285689D01*
D15*
X3144494Y-5298389D02*
G01*
X3144494Y-5501589D01*
D10*
X2801594Y-5285689D02*
G01*
X3201593Y-5285689D01*
X3201593Y-5505678D01*
X2801594Y-5505678D01*
X2801594Y-5285689D01*
D15*
X4944490Y-5298389D02*
G01*
X4944490Y-5501589D01*
D10*
X4601590Y-5285689D02*
G01*
X5001590Y-5285689D01*
X5001590Y-5505678D01*
X4601590Y-5505678D01*
X4601590Y-5285689D01*
D15*
X1344498Y-3298393D02*
G01*
X1344498Y-3501593D01*
D10*
X1001598Y-3285693D02*
G01*
X1401597Y-3285693D01*
X1401597Y-3505682D01*
X1001598Y-3505682D01*
X1001598Y-3285693D01*
D15*
X3144494Y-3198393D02*
G01*
X3144494Y-3401593D01*
D10*
X2801594Y-3185693D02*
G01*
X3201593Y-3185693D01*
X3201593Y-3405682D01*
X2801594Y-3405682D01*
X2801594Y-3185693D01*
D15*
X4944490Y-3298393D02*
G01*
X4944490Y-3501593D01*
D10*
X4601590Y-3285693D02*
G01*
X5001590Y-3285693D01*
X5001590Y-3505682D01*
X4601590Y-3505682D01*
X4601590Y-3285693D01*
D15*
X1169949Y-950020D02*
G01*
X2029970Y-950008D01*
X2029970Y-335013D02*
G01*
X2029970Y-950008D01*
X1169949Y-335081D02*
G01*
X2029970Y-335013D01*
X1169967Y-335013D02*
G01*
X1169967Y-950008D01*
X2399967Y-425008D02*
G01*
X2029968Y-425008D01*
X699965Y-525007D02*
G01*
X699996Y-2675016D01*
X2499967Y-525007D02*
G01*
X2499967Y-2675003D01*
X2399967Y-2775010D02*
G01*
X799970Y-2775010D01*
X1169964Y-425008D02*
G01*
X799970Y-425008D01*
D14*
X1700049Y-5164990D02*
G01*
X1815048Y-5164990D01*
X699998Y-5164990D02*
G01*
X585000Y-5164990D01*
X1699999Y-3634994D02*
G01*
X1814997Y-3634994D01*
X585000Y-3634994D02*
G01*
X699998Y-3634994D01*
X434949Y-5014991D02*
G01*
X434949Y-3784991D01*
X1965045Y-3784991D02*
G01*
X1965045Y-5014991D01*
X5300042Y-5164990D02*
G01*
X5415041Y-5164990D01*
X4299991Y-5164990D02*
G01*
X4184992Y-5164990D01*
X5299991Y-3634994D02*
G01*
X5414990Y-3634994D01*
X4184992Y-3634994D02*
G01*
X4299991Y-3634994D01*
X4034942Y-5014991D02*
G01*
X4034942Y-3784991D01*
X5565038Y-3784991D02*
G01*
X5565038Y-5014991D01*
X3499944Y-5165016D02*
G01*
X3614943Y-5165016D01*
X2499893Y-5165016D02*
G01*
X2384894Y-5165016D01*
X3499893Y-3635019D02*
G01*
X3614892Y-3635019D01*
X2384894Y-3635019D02*
G01*
X2499893Y-3635019D01*
X2234844Y-5015016D02*
G01*
X2234844Y-3785016D01*
X3764940Y-3785016D02*
G01*
X3764940Y-5015016D01*
X1699846Y-11364978D02*
G01*
X1814845Y-11364978D01*
X699795Y-11364978D02*
G01*
X584796Y-11364978D01*
X1699795Y-9834981D02*
G01*
X1814794Y-9834981D01*
X584796Y-9834981D02*
G01*
X699795Y-9834981D01*
X434746Y-11214978D02*
G01*
X434746Y-9984978D01*
X1964842Y-9984978D02*
G01*
X1964842Y-11214978D01*
X3499944Y-11364978D02*
G01*
X3614943Y-11364978D01*
X2499893Y-11364978D02*
G01*
X2384894Y-11364978D01*
X3499893Y-9834981D02*
G01*
X3614892Y-9834981D01*
X2384894Y-9834981D02*
G01*
X2499893Y-9834981D01*
X2234844Y-11214978D02*
G01*
X2234844Y-9984978D01*
X3764940Y-9984978D02*
G01*
X3764940Y-11214978D01*
X5300042Y-11364978D02*
G01*
X5415041Y-11364978D01*
X4299991Y-11364978D02*
G01*
X4184992Y-11364978D01*
X5299991Y-9834981D02*
G01*
X5414990Y-9834981D01*
X4184992Y-9834981D02*
G01*
X4299991Y-9834981D01*
X4034942Y-11214978D02*
G01*
X4034942Y-9984978D01*
X5565038Y-9984978D02*
G01*
X5565038Y-11214978D01*
X1699846Y-9264906D02*
G01*
X1814845Y-9264906D01*
X699795Y-9264906D02*
G01*
X584796Y-9264906D01*
X1699795Y-7734909D02*
G01*
X1814794Y-7734909D01*
X584796Y-7734909D02*
G01*
X699795Y-7734909D01*
X434746Y-9114906D02*
G01*
X434746Y-7884906D01*
X1964842Y-7884906D02*
G01*
X1964842Y-9114906D01*
X3499944Y-9264906D02*
G01*
X3614943Y-9264906D01*
X2499893Y-9264906D02*
G01*
X2384894Y-9264906D01*
X3499893Y-7734909D02*
G01*
X3614892Y-7734909D01*
X2384894Y-7734909D02*
G01*
X2499893Y-7734909D01*
X2234844Y-9114906D02*
G01*
X2234844Y-7884906D01*
X3764940Y-7884906D02*
G01*
X3764940Y-9114906D01*
X5300042Y-9264906D02*
G01*
X5415041Y-9264906D01*
X4299991Y-9264906D02*
G01*
X4184992Y-9264906D01*
X5299991Y-7734909D02*
G01*
X5414990Y-7734909D01*
X4184992Y-7734909D02*
G01*
X4299991Y-7734909D01*
X4034942Y-9114906D02*
G01*
X4034942Y-7884906D01*
X5565038Y-7884906D02*
G01*
X5565038Y-9114906D01*
X1699846Y-7165088D02*
G01*
X1814845Y-7165088D01*
X699795Y-7165088D02*
G01*
X584796Y-7165088D01*
X1699795Y-5635091D02*
G01*
X1814794Y-5635091D01*
X584796Y-5635091D02*
G01*
X699795Y-5635091D01*
X434746Y-7015088D02*
G01*
X434746Y-5785088D01*
X1964842Y-5785088D02*
G01*
X1964842Y-7015088D01*
X3499944Y-7165088D02*
G01*
X3614943Y-7165088D01*
X2499893Y-7165088D02*
G01*
X2384894Y-7165088D01*
X3499893Y-5635091D02*
G01*
X3614892Y-5635091D01*
X2384894Y-5635091D02*
G01*
X2499893Y-5635091D01*
X2234844Y-7015088D02*
G01*
X2234844Y-5785088D01*
X3764940Y-5785088D02*
G01*
X3764940Y-7015088D01*
X5300042Y-7165088D02*
G01*
X5415041Y-7165088D01*
X4299991Y-7165088D02*
G01*
X4184992Y-7165088D01*
X5299991Y-5635091D02*
G01*
X5414990Y-5635091D01*
X4184992Y-5635091D02*
G01*
X4299991Y-5635091D01*
X4034942Y-7015088D02*
G01*
X4034942Y-5785088D01*
X5565038Y-5785088D02*
G01*
X5565038Y-7015088D01*
D10*
G75*
G01*
X2949994Y-2099996D02*
G03*
X3621090Y-2773324I1174997J500001D01*
G75*
G01*
X4626661Y-2771104D02*
G03*
X5299994Y-2100003I-499998J1174998D01*
G75*
G01*
X5296090Y-1098354D02*
G03*
X4624992Y-425031I-1174993J-500009D01*
G75*
G01*
X3623323Y-428930D02*
G03*
X2949994Y-1100031I500004J-1174996D01*
D15*
G75*
G01*
X799965Y-425006D02*
G03*
X699966Y-525005I0J-99999D01*
G75*
G01*
X2399960Y-2775006D02*
G03*
X2499959Y-2675006I0J100000D01*
G75*
G01*
X2499959Y-525010D02*
G03*
X2399960Y-425011I-99999J0D01*
G75*
G01*
X699988Y-2675016D02*
G03*
X799988Y-2775024I100000J-8D01*
D14*
G75*
G01*
X1964997Y-3784991D02*
G03*
X1814998Y-3634994I-149999J-3D01*
G75*
G01*
X1815048Y-5164991D02*
G03*
X1965046Y-5014991I-2J150000D01*
G75*
G01*
X435000Y-5014994D02*
G03*
X585000Y-5164991I150000J3D01*
G75*
G01*
X584947Y-3634991D02*
G03*
X434950Y-3784991I2J-150000D01*
G75*
G01*
X5564990Y-3784991D02*
G03*
X5414990Y-3634994I-150000J-3D01*
G75*
G01*
X5415041Y-5164991D02*
G03*
X5565038Y-5014991I-2J150000D01*
G75*
G01*
X4034993Y-5014994D02*
G03*
X4184993Y-5164991I150000J3D01*
G75*
G01*
X4184940Y-3634991D02*
G03*
X4034942Y-3784991I2J-150000D01*
G75*
G01*
X3764892Y-3785017D02*
G03*
X3614892Y-3635019I-150000J-2D01*
G75*
G01*
X3614943Y-5165016D02*
G03*
X3764940Y-5015017I-2J149999D01*
G75*
G01*
X2234895Y-5015019D02*
G03*
X2384895Y-5165016I150000J2D01*
G75*
G01*
X2384842Y-3635017D02*
G03*
X2234844Y-3785017I2J-150000D01*
G75*
G01*
X1964794Y-9984979D02*
G03*
X1814794Y-9834982I-150000J-2D01*
G75*
G01*
X1814845Y-11364979D02*
G03*
X1964842Y-11214979I-2J150000D01*
G75*
G01*
X434797Y-11214981D02*
G03*
X584797Y-11364979I150000J2D01*
G75*
G01*
X584744Y-9834979D02*
G03*
X434746Y-9984979I2J-150000D01*
G75*
G01*
X3764892Y-9984979D02*
G03*
X3614892Y-9834982I-150000J-2D01*
G75*
G01*
X3614943Y-11364979D02*
G03*
X3764940Y-11214979I-2J150000D01*
G75*
G01*
X2234895Y-11214981D02*
G03*
X2384895Y-11364979I150000J2D01*
G75*
G01*
X2384842Y-9834979D02*
G03*
X2234844Y-9984979I2J-150000D01*
G75*
G01*
X5564990Y-9984979D02*
G03*
X5414990Y-9834982I-150000J-2D01*
G75*
G01*
X5415041Y-11364979D02*
G03*
X5565038Y-11214979I-2J150000D01*
G75*
G01*
X4034993Y-11214981D02*
G03*
X4184993Y-11364979I150000J2D01*
G75*
G01*
X4184940Y-9834979D02*
G03*
X4034942Y-9984979I2J-150000D01*
G75*
G01*
X1964794Y-7884907D02*
G03*
X1814794Y-7734910I-150000J-2D01*
G75*
G01*
X1814845Y-9264907D02*
G03*
X1964842Y-9114907I-2J150000D01*
G75*
G01*
X434797Y-9114909D02*
G03*
X584797Y-9264907I150000J2D01*
G75*
G01*
X584744Y-7734907D02*
G03*
X434746Y-7884907I2J-150000D01*
G75*
G01*
X3764892Y-7884907D02*
G03*
X3614892Y-7734910I-150000J-2D01*
G75*
G01*
X3614943Y-9264907D02*
G03*
X3764940Y-9114907I-2J150000D01*
G75*
G01*
X2234895Y-9114909D02*
G03*
X2384895Y-9264907I150000J2D01*
G75*
G01*
X2384842Y-7734907D02*
G03*
X2234844Y-7884907I2J-150000D01*
G75*
G01*
X5564990Y-7884907D02*
G03*
X5414990Y-7734910I-150000J-2D01*
G75*
G01*
X5415041Y-9264907D02*
G03*
X5565038Y-9114907I-2J150000D01*
G75*
G01*
X4034993Y-9114909D02*
G03*
X4184993Y-9264907I150000J2D01*
G75*
G01*
X4184940Y-7734907D02*
G03*
X4034942Y-7884907I2J-150000D01*
G75*
G01*
X1964794Y-5785089D02*
G03*
X1814794Y-5635092I-150000J-2D01*
G75*
G01*
X1814845Y-7165089D02*
G03*
X1964842Y-7015089I-2J150000D01*
G75*
G01*
X434797Y-7015091D02*
G03*
X584797Y-7165089I150000J2D01*
G75*
G01*
X584744Y-5635089D02*
G03*
X434746Y-5785089I2J-150000D01*
G75*
G01*
X3764892Y-5785089D02*
G03*
X3614892Y-5635092I-150000J-2D01*
G75*
G01*
X3614943Y-7165089D02*
G03*
X3764940Y-7015089I-2J150000D01*
G75*
G01*
X2234895Y-7015091D02*
G03*
X2384895Y-7165089I150000J2D01*
G75*
G01*
X2384842Y-5635089D02*
G03*
X2234844Y-5785089I2J-150000D01*
G75*
G01*
X5564990Y-5785089D02*
G03*
X5414990Y-5635092I-150000J-2D01*
G75*
G01*
X5415041Y-7165089D02*
G03*
X5565038Y-7015089I-2J150000D01*
G75*
G01*
X4034993Y-7015091D02*
G03*
X4184993Y-7165089I150000J2D01*
G75*
G01*
X4184940Y-5635089D02*
G03*
X4034942Y-5785089I2J-150000D01*
D15*
G75*
G01
X5300243Y-1599997D02*
G03X5300243Y-1599997I-1175258J0D01*
G75*
G01
X4219880Y-1610004D02*
G03X4219880Y-1610004I-94869J0D01*
G75*
G01
X4389018Y-1610004D02*
G03X4389018Y-1610004I-264008J0D01*
D14*
G75*
G01
X1499997Y-4399991D02*
G03X1499997Y-4399991I-299999J0D01*
G75*
G01
X5099990Y-4399991D02*
G03X5099990Y-4399991I-299999J0D01*
G75*
G01
X3299892Y-4400017D02*
G03X3299892Y-4400017I-299999J0D01*
G75*
G01
X1499794Y-10599979D02*
G03X1499794Y-10599979I-299999J0D01*
G75*
G01
X3299892Y-10599979D02*
G03X3299892Y-10599979I-299999J0D01*
G75*
G01
X5099990Y-10599979D02*
G03X5099990Y-10599979I-299999J0D01*
G75*
G01
X1499794Y-8499907D02*
G03X1499794Y-8499907I-299999J0D01*
G75*
G01
X3299892Y-8499907D02*
G03X3299892Y-8499907I-299999J0D01*
G75*
G01
X5099990Y-8499907D02*
G03X5099990Y-8499907I-299999J0D01*
G75*
G01
X1499794Y-6400089D02*
G03X1499794Y-6400089I-299999J0D01*
G75*
G01
X3299892Y-6400089D02*
G03X3299892Y-6400089I-299999J0D01*
G75*
G01
X5099990Y-6400089D02*
G03X5099990Y-6400089I-299999J0D01*
M02*
