G04 Layer: BottomLayer*
G04 Panelize: , Column: 1, Row: 1, Board Size: 60mm x 122mm, Panelized Board Size: 60mm x 122mm*
G04 EasyEDA v6.5.51, 2025-09-19 10:35:32*
G04 a322cfbdb26646d094ce3ed81cfbf044,3c8b1c4139ec4bbbaae9228842dbec63,10*
G04 Gerber Generator version 0.2*
G04 Scale: 100 percent, Rotated: No, Reflected: No *
G04 Dimensions in millimeters *
G04 leading zeros omitted , absolute positions ,4 integer and 5 decimal *
%FSLAX45Y45*%
%MOMM*%

%ADD10C,0.5000*%
%ADD11C,2.0000*%
%ADD12C,1.0000*%
%ADD13C,1.8000*%
%ADD14C,4.5000*%
%ADD15C,4.0000*%
%ADD16C,0.0173*%

%LPD*%
G36*
X400608Y-12174067D02*
G01*
X374142Y-12173153D01*
X348742Y-12170511D01*
X323545Y-12166142D01*
X298754Y-12160097D01*
X274421Y-12152325D01*
X250647Y-12142927D01*
X227584Y-12131954D01*
X205333Y-12119406D01*
X183997Y-12105386D01*
X163677Y-12089942D01*
X144424Y-12073128D01*
X126390Y-12055043D01*
X109626Y-12035790D01*
X94183Y-12015419D01*
X80213Y-11994032D01*
X67716Y-11971782D01*
X56743Y-11948668D01*
X47396Y-11924893D01*
X39725Y-11900560D01*
X33680Y-11875719D01*
X29362Y-11850573D01*
X26771Y-11825173D01*
X25908Y-11799366D01*
X25908Y-400608D01*
X26822Y-374142D01*
X29464Y-348742D01*
X33832Y-323545D01*
X39878Y-298754D01*
X47650Y-274421D01*
X57048Y-250647D01*
X68021Y-227584D01*
X80568Y-205333D01*
X94589Y-183997D01*
X110032Y-163677D01*
X126847Y-144424D01*
X144932Y-126390D01*
X164185Y-109626D01*
X184556Y-94183D01*
X205943Y-80213D01*
X228193Y-67716D01*
X251307Y-56743D01*
X275082Y-47396D01*
X299415Y-39725D01*
X324256Y-33680D01*
X349402Y-29362D01*
X374802Y-26771D01*
X400608Y-25908D01*
X5599379Y-25908D01*
X5625846Y-26822D01*
X5651246Y-29464D01*
X5676442Y-33832D01*
X5701233Y-39878D01*
X5725566Y-47650D01*
X5749340Y-57048D01*
X5772404Y-68021D01*
X5794654Y-80568D01*
X5815990Y-94589D01*
X5836310Y-110032D01*
X5855563Y-126847D01*
X5873597Y-144932D01*
X5890361Y-164185D01*
X5905804Y-184556D01*
X5919774Y-205943D01*
X5932271Y-228193D01*
X5943244Y-251307D01*
X5952591Y-275082D01*
X5960262Y-299415D01*
X5966307Y-324256D01*
X5970625Y-349402D01*
X5973216Y-374802D01*
X5974080Y-400608D01*
X5974080Y-3085439D01*
X5973216Y-3089554D01*
X5970727Y-3092958D01*
X5967120Y-3095091D01*
X5962904Y-3095548D01*
X5958890Y-3094278D01*
X5955741Y-3091434D01*
X5954014Y-3087624D01*
X5952083Y-3080816D01*
X5950204Y-3076346D01*
X5947968Y-3072079D01*
X5945378Y-3067964D01*
X5942431Y-3064154D01*
X5939028Y-3060395D01*
X5189524Y-2310892D01*
X5185765Y-2307488D01*
X5181955Y-2304542D01*
X5177840Y-2301951D01*
X5173573Y-2299716D01*
X5169103Y-2297836D01*
X5164480Y-2296414D01*
X5159756Y-2295347D01*
X5154930Y-2294737D01*
X5149900Y-2294483D01*
X3602228Y-2294483D01*
X3598367Y-2293721D01*
X3595065Y-2291537D01*
X3158540Y-1855012D01*
X3156356Y-1851710D01*
X3155594Y-1847850D01*
X3155594Y-1733600D01*
X3156356Y-1729689D01*
X3158540Y-1726387D01*
X3161842Y-1724202D01*
X3165754Y-1723440D01*
X3169615Y-1724202D01*
X3172917Y-1726387D01*
X3189122Y-1742592D01*
X3191154Y-1745589D01*
X3244850Y-1863750D01*
X3249117Y-1884375D01*
X3254095Y-1899056D01*
X3260699Y-1912975D01*
X3268979Y-1926082D01*
X3278784Y-1938172D01*
X3289808Y-1948840D01*
X3302101Y-1958238D01*
X3315411Y-1966112D01*
X3329584Y-1972310D01*
X3344367Y-1976831D01*
X3359556Y-1979574D01*
X3374999Y-1980488D01*
X3390442Y-1979574D01*
X3405632Y-1976831D01*
X3420414Y-1972310D01*
X3434587Y-1966112D01*
X3447897Y-1958238D01*
X3460191Y-1948840D01*
X3471265Y-1938070D01*
X3481019Y-1926082D01*
X3489248Y-1912975D01*
X3495903Y-1899056D01*
X3500882Y-1884375D01*
X3504031Y-1869287D01*
X3505454Y-1853844D01*
X3504996Y-1838401D01*
X3502710Y-1823110D01*
X3498596Y-1808225D01*
X3492804Y-1793900D01*
X3485337Y-1780336D01*
X3476345Y-1767789D01*
X3465880Y-1756359D01*
X3454196Y-1746300D01*
X3441344Y-1737614D01*
X3434587Y-1734159D01*
X3431286Y-1731467D01*
X3429406Y-1727555D01*
X3429304Y-1723186D01*
X3428492Y-1724456D01*
X3425291Y-1726641D01*
X3421481Y-1727504D01*
X3417671Y-1726895D01*
X3413099Y-1725218D01*
X3398062Y-1721561D01*
X3391966Y-1720850D01*
X3388969Y-1719986D01*
X3324606Y-1690725D01*
X3321456Y-1688490D01*
X3319373Y-1685239D01*
X3318662Y-1681480D01*
X3318662Y-1656334D01*
X3265576Y-1656334D01*
X3261664Y-1655572D01*
X3258362Y-1653387D01*
X3256178Y-1650085D01*
X3255416Y-1646174D01*
X3255416Y-1553819D01*
X3256178Y-1549908D01*
X3258362Y-1546606D01*
X3261664Y-1544421D01*
X3265576Y-1543659D01*
X3318662Y-1543659D01*
X3318713Y-1481429D01*
X3315411Y-1484172D01*
X3308654Y-1487627D01*
X3295802Y-1496263D01*
X3284118Y-1506372D01*
X3273094Y-1518513D01*
X3269792Y-1520901D01*
X3265881Y-1521815D01*
X3261867Y-1521104D01*
X3258464Y-1518970D01*
X3256229Y-1515618D01*
X3255416Y-1511655D01*
X3255416Y-1437995D01*
X3256229Y-1433931D01*
X3258616Y-1430578D01*
X3262172Y-1428394D01*
X3266236Y-1427835D01*
X3270250Y-1428953D01*
X3273450Y-1431594D01*
X3278733Y-1438097D01*
X3289808Y-1448866D01*
X3302101Y-1458214D01*
X3315919Y-1466392D01*
X3319068Y-1469288D01*
X3320745Y-1473301D01*
X3320643Y-1476959D01*
X3321354Y-1475790D01*
X3324402Y-1473555D01*
X3328009Y-1472590D01*
X3331768Y-1472996D01*
X3344367Y-1476857D01*
X3359556Y-1479550D01*
X3374999Y-1480464D01*
X3390442Y-1479550D01*
X3405632Y-1476857D01*
X3418230Y-1472996D01*
X3421989Y-1472590D01*
X3425596Y-1473555D01*
X3428644Y-1475790D01*
X3429355Y-1476959D01*
X3429254Y-1473301D01*
X3430930Y-1469288D01*
X3434079Y-1466392D01*
X3447897Y-1458214D01*
X3460191Y-1448866D01*
X3471265Y-1438097D01*
X3481019Y-1426057D01*
X3489248Y-1413002D01*
X3495903Y-1399032D01*
X3500882Y-1384401D01*
X3504031Y-1369263D01*
X3505454Y-1353870D01*
X3504996Y-1338427D01*
X3502710Y-1323136D01*
X3498596Y-1308201D01*
X3492804Y-1293876D01*
X3485337Y-1280363D01*
X3476345Y-1267764D01*
X3465880Y-1256385D01*
X3454196Y-1246276D01*
X3441344Y-1237640D01*
X3427577Y-1230579D01*
X3413404Y-1225296D01*
X3410000Y-1223213D01*
X3407664Y-1219911D01*
X3406800Y-1215999D01*
X3407511Y-1212037D01*
X3409696Y-1208684D01*
X3412998Y-1206398D01*
X3416909Y-1205636D01*
X3472942Y-1205636D01*
X3476802Y-1206398D01*
X3480104Y-1208582D01*
X4160469Y-1888998D01*
X4164228Y-1892401D01*
X4168038Y-1895348D01*
X4172153Y-1897938D01*
X4176420Y-1900174D01*
X4180890Y-1902053D01*
X4185513Y-1903475D01*
X4190237Y-1904542D01*
X4195064Y-1905152D01*
X4200093Y-1905406D01*
X4617618Y-1905406D01*
X4621174Y-1906016D01*
X4742992Y-1951786D01*
X4745583Y-1953260D01*
X4752086Y-1958238D01*
X4765395Y-1966112D01*
X4779568Y-1972310D01*
X4794351Y-1976831D01*
X4809540Y-1979574D01*
X4824984Y-1980488D01*
X4840427Y-1979574D01*
X4855667Y-1976831D01*
X4870450Y-1972310D01*
X4884572Y-1966112D01*
X4897882Y-1958238D01*
X4910175Y-1948840D01*
X4921300Y-1938070D01*
X4931003Y-1926082D01*
X4939284Y-1912975D01*
X4945938Y-1899056D01*
X4950866Y-1884375D01*
X4954066Y-1869287D01*
X4955438Y-1853844D01*
X4954981Y-1838401D01*
X4952695Y-1823110D01*
X4948631Y-1808225D01*
X4942789Y-1793900D01*
X4935321Y-1780336D01*
X4926330Y-1767789D01*
X4915916Y-1756359D01*
X4904181Y-1746300D01*
X4891379Y-1737614D01*
X4877612Y-1730603D01*
X4863134Y-1725218D01*
X4848098Y-1721561D01*
X4832604Y-1719732D01*
X4827473Y-1719580D01*
X4817364Y-1719732D01*
X4801920Y-1721561D01*
X4786884Y-1725218D01*
X4772406Y-1730603D01*
X4758639Y-1737614D01*
X4745532Y-1746554D01*
X4742434Y-1748383D01*
X4621225Y-1793748D01*
X4617669Y-1794357D01*
X4227068Y-1794357D01*
X4223207Y-1793595D01*
X4219905Y-1791411D01*
X3539540Y-1110996D01*
X3535781Y-1107592D01*
X3531971Y-1104646D01*
X3527856Y-1102055D01*
X3523589Y-1099820D01*
X3519119Y-1097940D01*
X3514496Y-1096518D01*
X3509772Y-1095451D01*
X3504946Y-1094841D01*
X3499916Y-1094587D01*
X3277362Y-1094587D01*
X3273501Y-1093825D01*
X3270199Y-1091641D01*
X2808528Y-629970D01*
X2806344Y-626668D01*
X2805582Y-622808D01*
X2805582Y-425145D01*
X2805328Y-420065D01*
X2804718Y-415290D01*
X2803652Y-410565D01*
X2802229Y-405942D01*
X2800350Y-401472D01*
X2798114Y-397205D01*
X2795473Y-393090D01*
X2792577Y-389280D01*
X2789123Y-385521D01*
X2589276Y-185928D01*
X2585567Y-182524D01*
X2581706Y-179578D01*
X2577642Y-176987D01*
X2573324Y-174752D01*
X2568905Y-172872D01*
X2564231Y-171450D01*
X2559558Y-170383D01*
X2554681Y-169773D01*
X2549702Y-169519D01*
X2175205Y-169519D01*
X2170176Y-169773D01*
X2165350Y-170383D01*
X2160625Y-171450D01*
X2156002Y-172872D01*
X2151532Y-174752D01*
X2147265Y-176987D01*
X2143150Y-179578D01*
X2139340Y-182524D01*
X2135581Y-185928D01*
X1935988Y-385521D01*
X1932584Y-389280D01*
X1929638Y-393090D01*
X1927047Y-397205D01*
X1924812Y-401472D01*
X1922932Y-405942D01*
X1921510Y-410565D01*
X1920443Y-415290D01*
X1919833Y-420116D01*
X1919579Y-425145D01*
X1919579Y-1497736D01*
X1918817Y-1501648D01*
X1916633Y-1504950D01*
X1879955Y-1541475D01*
X1876653Y-1543659D01*
X1872792Y-1544421D01*
X1025093Y-1544421D01*
X1021638Y-1543812D01*
X911098Y-1503984D01*
X908405Y-1502511D01*
X904494Y-1499565D01*
X891692Y-1492148D01*
X878027Y-1486357D01*
X865378Y-1482801D01*
X861568Y-1480718D01*
X858926Y-1477264D01*
X858012Y-1472996D01*
X858926Y-1468780D01*
X861568Y-1465275D01*
X865378Y-1463243D01*
X878027Y-1459636D01*
X891692Y-1453845D01*
X904494Y-1446428D01*
X916381Y-1437487D01*
X926998Y-1427175D01*
X936294Y-1415643D01*
X944118Y-1402994D01*
X950315Y-1389532D01*
X954836Y-1375410D01*
X957529Y-1360830D01*
X958443Y-1345996D01*
X957529Y-1331214D01*
X954836Y-1316634D01*
X950315Y-1302461D01*
X944118Y-1288999D01*
X936294Y-1276400D01*
X926998Y-1264818D01*
X916381Y-1254506D01*
X904494Y-1245565D01*
X891692Y-1238148D01*
X878027Y-1232357D01*
X865378Y-1228801D01*
X861568Y-1226718D01*
X858926Y-1223264D01*
X858012Y-1218996D01*
X858926Y-1214780D01*
X861568Y-1211275D01*
X865378Y-1209243D01*
X878027Y-1205636D01*
X891692Y-1199845D01*
X904494Y-1192428D01*
X916381Y-1183487D01*
X926998Y-1173175D01*
X936294Y-1161643D01*
X944118Y-1148994D01*
X950315Y-1135532D01*
X954836Y-1121410D01*
X957529Y-1106830D01*
X958443Y-1091996D01*
X957529Y-1077214D01*
X954836Y-1062634D01*
X950315Y-1048461D01*
X944118Y-1034999D01*
X936294Y-1022400D01*
X926998Y-1010818D01*
X916381Y-1000506D01*
X904494Y-991565D01*
X891692Y-984148D01*
X878027Y-978357D01*
X863752Y-974293D01*
X849071Y-972058D01*
X834237Y-971600D01*
X819505Y-972972D01*
X804976Y-976121D01*
X791006Y-981049D01*
X777697Y-987653D01*
X765352Y-995832D01*
X754075Y-1005484D01*
X744118Y-1016457D01*
X735533Y-1028598D01*
X728522Y-1041653D01*
X723138Y-1055471D01*
X719531Y-1069848D01*
X717702Y-1084580D01*
X717702Y-1099413D01*
X719531Y-1114145D01*
X723138Y-1128522D01*
X728522Y-1142390D01*
X735533Y-1155446D01*
X744118Y-1167536D01*
X754075Y-1178509D01*
X765352Y-1188161D01*
X777697Y-1196340D01*
X791006Y-1202944D01*
X804976Y-1207922D01*
X810412Y-1209090D01*
X813968Y-1210614D01*
X816711Y-1213408D01*
X818184Y-1217066D01*
X818184Y-1220978D01*
X816711Y-1224584D01*
X813968Y-1227378D01*
X810412Y-1228953D01*
X804976Y-1230122D01*
X791006Y-1235049D01*
X777697Y-1241653D01*
X765352Y-1249832D01*
X754075Y-1259484D01*
X744118Y-1270457D01*
X735533Y-1282598D01*
X728522Y-1295654D01*
X723138Y-1309471D01*
X719531Y-1323848D01*
X717702Y-1338580D01*
X717702Y-1353413D01*
X719531Y-1368145D01*
X723138Y-1382522D01*
X728522Y-1396390D01*
X735533Y-1409446D01*
X744118Y-1421536D01*
X754075Y-1432509D01*
X765352Y-1442161D01*
X777697Y-1450340D01*
X791006Y-1456944D01*
X804976Y-1461871D01*
X810412Y-1463090D01*
X814019Y-1464614D01*
X816711Y-1467408D01*
X818184Y-1471066D01*
X818184Y-1474978D01*
X816711Y-1478584D01*
X814019Y-1481378D01*
X810412Y-1482953D01*
X804976Y-1484122D01*
X791006Y-1489049D01*
X777697Y-1495653D01*
X765352Y-1503832D01*
X754075Y-1513484D01*
X744118Y-1524457D01*
X735533Y-1536598D01*
X728522Y-1549654D01*
X723138Y-1563471D01*
X719531Y-1577848D01*
X717702Y-1592580D01*
X717702Y-1607413D01*
X719531Y-1622145D01*
X723138Y-1636522D01*
X728522Y-1650390D01*
X735533Y-1663446D01*
X744118Y-1675536D01*
X754075Y-1686509D01*
X765352Y-1696161D01*
X777697Y-1704339D01*
X791006Y-1710943D01*
X804976Y-1715871D01*
X810412Y-1717090D01*
X814019Y-1718614D01*
X816711Y-1721408D01*
X818184Y-1725066D01*
X818184Y-1728978D01*
X816711Y-1732584D01*
X814019Y-1735378D01*
X810412Y-1736953D01*
X804976Y-1738122D01*
X791006Y-1743049D01*
X777697Y-1749653D01*
X765352Y-1757832D01*
X754075Y-1767484D01*
X744118Y-1778457D01*
X735533Y-1790598D01*
X728522Y-1803654D01*
X723138Y-1817471D01*
X719531Y-1831848D01*
X717702Y-1846580D01*
X717702Y-1861413D01*
X719531Y-1876145D01*
X723138Y-1890522D01*
X728522Y-1904390D01*
X735533Y-1917446D01*
X744118Y-1929536D01*
X754075Y-1940509D01*
X765352Y-1950161D01*
X777697Y-1958339D01*
X791006Y-1964943D01*
X804976Y-1969871D01*
X810412Y-1971090D01*
X814019Y-1972614D01*
X816711Y-1975408D01*
X818184Y-1979066D01*
X818184Y-1982978D01*
X816711Y-1986584D01*
X814019Y-1989378D01*
X810412Y-1990953D01*
X804976Y-1992122D01*
X791006Y-1997049D01*
X777697Y-2003653D01*
X765352Y-2011832D01*
X754075Y-2021484D01*
X744118Y-2032457D01*
X735533Y-2044598D01*
X728522Y-2057654D01*
X723138Y-2071471D01*
X719531Y-2085848D01*
X717702Y-2100580D01*
X717702Y-2115413D01*
X719531Y-2130145D01*
X723138Y-2144522D01*
X728522Y-2158390D01*
X735533Y-2171446D01*
X744118Y-2183536D01*
X754075Y-2194509D01*
X765352Y-2204161D01*
X777697Y-2212340D01*
X791006Y-2218944D01*
X804976Y-2223871D01*
X810412Y-2225090D01*
X814019Y-2226614D01*
X816711Y-2229408D01*
X818184Y-2233066D01*
X818184Y-2236978D01*
X816711Y-2240584D01*
X814019Y-2243378D01*
X810412Y-2244953D01*
X804976Y-2246122D01*
X791006Y-2251049D01*
X777697Y-2257653D01*
X765352Y-2265832D01*
X754075Y-2275484D01*
X744118Y-2286457D01*
X735533Y-2298598D01*
X728522Y-2311654D01*
X723138Y-2325471D01*
X719531Y-2339848D01*
X717702Y-2354580D01*
X717702Y-2369413D01*
X719531Y-2384145D01*
X723138Y-2398522D01*
X728522Y-2412390D01*
X735533Y-2425446D01*
X744118Y-2437536D01*
X754075Y-2448509D01*
X765352Y-2458161D01*
X777697Y-2466340D01*
X791006Y-2472944D01*
X804976Y-2477871D01*
X810412Y-2479090D01*
X813968Y-2480614D01*
X816711Y-2483408D01*
X818184Y-2487066D01*
X818184Y-2490978D01*
X816711Y-2494584D01*
X813968Y-2497378D01*
X810412Y-2498953D01*
X804976Y-2500122D01*
X791006Y-2505049D01*
X777697Y-2511653D01*
X765352Y-2519832D01*
X754075Y-2529484D01*
X744118Y-2540457D01*
X735533Y-2552598D01*
X728522Y-2565654D01*
X723138Y-2579471D01*
X719531Y-2593848D01*
X717702Y-2608580D01*
X717702Y-2623413D01*
X719531Y-2638145D01*
X723138Y-2652522D01*
X728522Y-2666339D01*
X735533Y-2679446D01*
X744118Y-2691536D01*
X754075Y-2702509D01*
X765352Y-2712161D01*
X777697Y-2720340D01*
X791006Y-2726944D01*
X804976Y-2731871D01*
X819505Y-2735072D01*
X834237Y-2736443D01*
X849071Y-2735986D01*
X863752Y-2733700D01*
X878027Y-2729636D01*
X891692Y-2723845D01*
X904494Y-2716428D01*
X916381Y-2707487D01*
X926998Y-2697175D01*
X936294Y-2685643D01*
X944118Y-2672994D01*
X950315Y-2659532D01*
X956513Y-2640533D01*
X959205Y-2637688D01*
X962761Y-2636113D01*
X966673Y-2636012D01*
X970330Y-2637383D01*
X973226Y-2640025D01*
X974902Y-2643530D01*
X977137Y-2652522D01*
X982522Y-2666339D01*
X989533Y-2679446D01*
X998118Y-2691536D01*
X1008075Y-2702509D01*
X1019352Y-2712161D01*
X1031697Y-2720340D01*
X1045006Y-2726944D01*
X1058976Y-2731871D01*
X1073505Y-2735072D01*
X1088237Y-2736443D01*
X1103071Y-2735986D01*
X1117752Y-2733700D01*
X1132027Y-2729636D01*
X1145692Y-2723845D01*
X1158494Y-2716428D01*
X1170381Y-2707487D01*
X1180998Y-2697175D01*
X1190294Y-2685643D01*
X1198118Y-2672994D01*
X1204315Y-2659532D01*
X1210513Y-2640380D01*
X1213307Y-2637586D01*
X1216914Y-2636012D01*
X1220876Y-2635961D01*
X1224534Y-2637383D01*
X1227378Y-2640126D01*
X1228953Y-2643733D01*
X1230122Y-2649016D01*
X1235049Y-2663037D01*
X1241653Y-2676296D01*
X1249883Y-2688640D01*
X1259535Y-2699918D01*
X1270457Y-2709926D01*
X1282598Y-2718511D01*
X1295654Y-2725521D01*
X1309471Y-2730855D01*
X1323898Y-2734462D01*
X1338580Y-2736291D01*
X1353413Y-2736291D01*
X1368145Y-2734462D01*
X1382522Y-2730855D01*
X1396390Y-2725521D01*
X1409446Y-2718511D01*
X1421536Y-2709926D01*
X1432509Y-2699918D01*
X1442161Y-2688640D01*
X1450340Y-2676296D01*
X1456994Y-2663037D01*
X1461922Y-2649016D01*
X1463090Y-2643632D01*
X1464665Y-2640025D01*
X1467459Y-2637282D01*
X1471066Y-2635808D01*
X1474978Y-2635808D01*
X1478584Y-2637282D01*
X1481378Y-2640025D01*
X1482953Y-2643632D01*
X1484122Y-2649016D01*
X1489049Y-2662986D01*
X1495653Y-2676296D01*
X1503019Y-2687421D01*
X1504137Y-2689555D01*
X1543862Y-2799689D01*
X1544472Y-2803144D01*
X1544472Y-3212846D01*
X1543862Y-3216300D01*
X1503984Y-3326892D01*
X1502714Y-3329279D01*
X1497533Y-3336544D01*
X1490522Y-3349650D01*
X1485188Y-3363468D01*
X1481582Y-3377844D01*
X1479753Y-3392627D01*
X1479702Y-3407257D01*
X1481582Y-3422142D01*
X1485188Y-3436518D01*
X1490522Y-3450336D01*
X1497533Y-3463442D01*
X1506118Y-3475532D01*
X1516126Y-3486505D01*
X1527403Y-3496157D01*
X1539748Y-3504336D01*
X1553057Y-3510940D01*
X1567027Y-3515868D01*
X1581505Y-3519068D01*
X1596288Y-3520440D01*
X1611122Y-3519982D01*
X1625752Y-3517696D01*
X1640027Y-3513632D01*
X1653692Y-3507841D01*
X1666544Y-3500424D01*
X1678381Y-3491484D01*
X1689049Y-3481171D01*
X1698345Y-3469589D01*
X1706168Y-3456990D01*
X1712366Y-3443528D01*
X1716836Y-3429406D01*
X1718868Y-3418484D01*
X1719681Y-3416046D01*
X1769567Y-3309772D01*
X1771548Y-3306927D01*
X2070049Y-3008426D01*
X2073351Y-3006242D01*
X2077212Y-3005480D01*
X3334359Y-3005480D01*
X3338271Y-3006242D01*
X3341573Y-3008426D01*
X3343757Y-3011728D01*
X3344519Y-3015640D01*
X3344519Y-3112871D01*
X3343910Y-3116326D01*
X3303981Y-3226866D01*
X3302711Y-3229254D01*
X3297529Y-3236569D01*
X3290519Y-3249625D01*
X3285185Y-3263442D01*
X3281578Y-3277870D01*
X3279749Y-3292652D01*
X3279698Y-3307283D01*
X3281578Y-3322116D01*
X3285185Y-3336544D01*
X3290519Y-3350361D01*
X3297529Y-3363417D01*
X3306114Y-3375507D01*
X3316122Y-3386480D01*
X3327400Y-3396132D01*
X3339744Y-3404362D01*
X3353054Y-3410965D01*
X3367024Y-3415893D01*
X3381501Y-3419043D01*
X3396284Y-3420414D01*
X3411118Y-3419957D01*
X3425748Y-3417671D01*
X3440023Y-3413607D01*
X3453688Y-3407867D01*
X3466541Y-3400450D01*
X3478377Y-3391509D01*
X3489045Y-3381146D01*
X3498342Y-3369614D01*
X3506165Y-3357016D01*
X3512362Y-3343503D01*
X3516833Y-3329381D01*
X3519576Y-3314801D01*
X3520490Y-3300018D01*
X3519576Y-3285185D01*
X3516833Y-3270605D01*
X3512362Y-3256483D01*
X3506165Y-3242970D01*
X3495903Y-3226460D01*
X3456178Y-3116326D01*
X3455568Y-3112871D01*
X3455568Y-3015640D01*
X3456330Y-3011728D01*
X3458514Y-3008426D01*
X3461816Y-3006242D01*
X3465728Y-3005480D01*
X3996740Y-3005480D01*
X4001058Y-3006445D01*
X4004614Y-3009188D01*
X4006596Y-3013202D01*
X4006646Y-3017672D01*
X4004818Y-3021736D01*
X4001414Y-3024632D01*
X3997147Y-3026867D01*
X3993032Y-3029458D01*
X3989222Y-3032404D01*
X3985463Y-3035808D01*
X3579926Y-3441395D01*
X3576624Y-3443579D01*
X3572764Y-3444341D01*
X3327146Y-3444341D01*
X3323285Y-3443579D01*
X3319983Y-3441395D01*
X2939288Y-3060954D01*
X2935579Y-3057550D01*
X2931718Y-3054604D01*
X2927654Y-3052013D01*
X2923336Y-3049778D01*
X2918917Y-3047898D01*
X2914243Y-3046476D01*
X2909570Y-3045409D01*
X2904744Y-3044799D01*
X2899714Y-3044545D01*
X2200097Y-3044545D01*
X2195068Y-3044799D01*
X2190242Y-3045409D01*
X2185517Y-3046476D01*
X2180894Y-3047898D01*
X2176424Y-3049778D01*
X2172157Y-3052013D01*
X2168042Y-3054604D01*
X2164232Y-3057550D01*
X2160473Y-3060954D01*
X1519986Y-3701491D01*
X1516684Y-3703675D01*
X1512824Y-3704437D01*
X1387094Y-3704437D01*
X1383639Y-3703828D01*
X1273149Y-3663950D01*
X1270457Y-3662527D01*
X1266545Y-3659530D01*
X1253693Y-3652113D01*
X1240028Y-3646373D01*
X1225753Y-3642309D01*
X1211122Y-3640023D01*
X1196289Y-3639565D01*
X1181506Y-3640937D01*
X1167028Y-3644087D01*
X1153058Y-3649014D01*
X1139748Y-3655669D01*
X1127404Y-3663848D01*
X1116126Y-3673500D01*
X1106119Y-3684473D01*
X1097534Y-3696563D01*
X1090523Y-3709619D01*
X1085189Y-3723487D01*
X1081582Y-3737864D01*
X1079703Y-3752697D01*
X1079500Y-3760520D01*
X1079703Y-3767226D01*
X1081582Y-3782110D01*
X1085189Y-3796537D01*
X1090523Y-3810355D01*
X1097534Y-3823411D01*
X1106119Y-3835552D01*
X1115872Y-3846220D01*
X1117549Y-3848760D01*
X1131976Y-3879900D01*
X1132941Y-3883914D01*
X1132230Y-3887927D01*
X1129944Y-3891381D01*
X967435Y-4053992D01*
X964031Y-4056227D01*
X960018Y-4056989D01*
X956056Y-4056075D01*
X952753Y-4053687D01*
X950671Y-4050233D01*
X950112Y-4046220D01*
X950468Y-4039971D01*
X949553Y-4025188D01*
X946861Y-4010609D01*
X942340Y-3996486D01*
X936142Y-3982974D01*
X928319Y-3970375D01*
X919022Y-3958844D01*
X914552Y-3954475D01*
X912774Y-3952189D01*
X856792Y-3852621D01*
X855827Y-3850182D01*
X855522Y-3847642D01*
X855522Y-3587089D01*
X856132Y-3583686D01*
X895858Y-3473551D01*
X906170Y-3456990D01*
X912368Y-3443528D01*
X916838Y-3429406D01*
X919581Y-3414776D01*
X920496Y-3399993D01*
X919581Y-3385210D01*
X916838Y-3370579D01*
X912368Y-3356457D01*
X906170Y-3342995D01*
X898347Y-3330397D01*
X889050Y-3318814D01*
X878382Y-3308502D01*
X866546Y-3299561D01*
X853694Y-3292144D01*
X840028Y-3286353D01*
X825753Y-3282289D01*
X811123Y-3280003D01*
X796290Y-3279546D01*
X781507Y-3280918D01*
X767029Y-3284118D01*
X753059Y-3289046D01*
X739749Y-3295650D01*
X727405Y-3303828D01*
X716127Y-3313480D01*
X706120Y-3324453D01*
X697534Y-3336544D01*
X690524Y-3349650D01*
X685190Y-3363468D01*
X681583Y-3377844D01*
X679754Y-3392576D01*
X679754Y-3407410D01*
X681583Y-3422142D01*
X685190Y-3436518D01*
X690524Y-3450336D01*
X697534Y-3463442D01*
X702716Y-3470706D01*
X703986Y-3473094D01*
X743864Y-3583635D01*
X744474Y-3587089D01*
X744474Y-3863136D01*
X744321Y-3864914D01*
X722985Y-3984040D01*
X721918Y-3987037D01*
X720547Y-3989628D01*
X715162Y-4003446D01*
X711555Y-4017873D01*
X709726Y-4032554D01*
X709726Y-4047388D01*
X711555Y-4062120D01*
X715162Y-4076496D01*
X720547Y-4090365D01*
X727557Y-4103420D01*
X736142Y-4115511D01*
X746099Y-4126484D01*
X757377Y-4136136D01*
X769772Y-4144314D01*
X783031Y-4150969D01*
X797001Y-4155897D01*
X811530Y-4159046D01*
X826262Y-4160418D01*
X836574Y-4160113D01*
X840536Y-4160774D01*
X843940Y-4162907D01*
X846226Y-4166209D01*
X847039Y-4170172D01*
X846277Y-4174083D01*
X844092Y-4177436D01*
X760984Y-4260596D01*
X757580Y-4264304D01*
X754634Y-4268165D01*
X752043Y-4272229D01*
X749808Y-4276547D01*
X747928Y-4280966D01*
X746506Y-4285640D01*
X745439Y-4290314D01*
X744829Y-4295140D01*
X744575Y-4300169D01*
X744575Y-4799888D01*
X744829Y-4804918D01*
X745439Y-4809744D01*
X746506Y-4814468D01*
X747928Y-4819091D01*
X749808Y-4823561D01*
X752043Y-4827828D01*
X754634Y-4831943D01*
X757580Y-4835753D01*
X760984Y-4839512D01*
X1141425Y-5219903D01*
X1143609Y-5223205D01*
X1144371Y-5227066D01*
X1144371Y-5572963D01*
X1143762Y-5576417D01*
X1103782Y-5686907D01*
X1102563Y-5689346D01*
X1097330Y-5696661D01*
X1090320Y-5709716D01*
X1084986Y-5723585D01*
X1081379Y-5737961D01*
X1079500Y-5752795D01*
X1079296Y-5760770D01*
X1079500Y-5767324D01*
X1081379Y-5782208D01*
X1084986Y-5796635D01*
X1090320Y-5810453D01*
X1097330Y-5823508D01*
X1105916Y-5835650D01*
X1115720Y-5846368D01*
X1117447Y-5848959D01*
X1131925Y-5880150D01*
X1132890Y-5884164D01*
X1132179Y-5888228D01*
X1129944Y-5891631D01*
X967232Y-6054344D01*
X963828Y-6056579D01*
X959815Y-6057341D01*
X955852Y-6056426D01*
X952550Y-6054039D01*
X950468Y-6050584D01*
X949858Y-6046520D01*
X950264Y-6040069D01*
X949350Y-6025286D01*
X946658Y-6010706D01*
X942136Y-5996584D01*
X935939Y-5983071D01*
X928116Y-5970473D01*
X918819Y-5958941D01*
X914450Y-5954674D01*
X912672Y-5952337D01*
X856792Y-5852718D01*
X855827Y-5850331D01*
X855522Y-5847740D01*
X855522Y-5587085D01*
X856132Y-5583682D01*
X895858Y-5473547D01*
X906170Y-5456986D01*
X912368Y-5443524D01*
X916838Y-5429402D01*
X919581Y-5414772D01*
X920496Y-5399989D01*
X919581Y-5385206D01*
X916838Y-5370576D01*
X912368Y-5356453D01*
X906170Y-5342991D01*
X898347Y-5330393D01*
X889050Y-5318810D01*
X878382Y-5308498D01*
X866546Y-5299557D01*
X853694Y-5292140D01*
X840028Y-5286349D01*
X825753Y-5282285D01*
X811123Y-5279999D01*
X796290Y-5279542D01*
X781507Y-5280914D01*
X767029Y-5284114D01*
X753059Y-5289042D01*
X739749Y-5295646D01*
X727405Y-5303824D01*
X716127Y-5313476D01*
X706120Y-5324449D01*
X697534Y-5336540D01*
X690524Y-5349646D01*
X685190Y-5363464D01*
X681583Y-5377840D01*
X679754Y-5392572D01*
X679754Y-5407406D01*
X681583Y-5422138D01*
X685190Y-5436514D01*
X690524Y-5450332D01*
X697534Y-5463438D01*
X702716Y-5470702D01*
X703986Y-5473090D01*
X743864Y-5583631D01*
X744474Y-5587085D01*
X744474Y-5863132D01*
X744321Y-5864961D01*
X722833Y-5983986D01*
X721817Y-5986983D01*
X720344Y-5989726D01*
X714959Y-6003544D01*
X711352Y-6017971D01*
X709523Y-6032652D01*
X709523Y-6047486D01*
X711352Y-6062218D01*
X714959Y-6076594D01*
X720344Y-6090462D01*
X727354Y-6103518D01*
X735939Y-6115608D01*
X745896Y-6126581D01*
X757174Y-6136233D01*
X769569Y-6144412D01*
X782828Y-6151067D01*
X796798Y-6155994D01*
X811326Y-6159144D01*
X826058Y-6160516D01*
X836523Y-6160211D01*
X840486Y-6160871D01*
X843889Y-6163005D01*
X846175Y-6166307D01*
X846988Y-6170269D01*
X846226Y-6174181D01*
X844042Y-6177534D01*
X760984Y-6260541D01*
X757580Y-6264300D01*
X754634Y-6268110D01*
X752043Y-6272225D01*
X749808Y-6276492D01*
X747928Y-6280962D01*
X746506Y-6285585D01*
X745439Y-6290310D01*
X744829Y-6295136D01*
X744575Y-6300165D01*
X744575Y-7000036D01*
X744829Y-7005066D01*
X745439Y-7009892D01*
X746506Y-7014616D01*
X747928Y-7019239D01*
X749808Y-7023709D01*
X752043Y-7027976D01*
X754634Y-7032091D01*
X757580Y-7035901D01*
X760984Y-7039660D01*
X1141425Y-7420051D01*
X1143609Y-7423353D01*
X1144371Y-7427214D01*
X1144371Y-7672781D01*
X1143762Y-7676235D01*
X1103782Y-7786725D01*
X1102563Y-7789164D01*
X1097330Y-7796479D01*
X1090320Y-7809534D01*
X1084986Y-7823403D01*
X1081379Y-7837779D01*
X1079500Y-7852613D01*
X1079296Y-7860588D01*
X1079500Y-7867142D01*
X1081379Y-7882026D01*
X1084986Y-7896453D01*
X1090320Y-7910271D01*
X1097330Y-7923326D01*
X1105916Y-7935468D01*
X1115720Y-7946186D01*
X1117447Y-7948777D01*
X1131976Y-7980019D01*
X1132890Y-7983981D01*
X1132179Y-7988046D01*
X1129944Y-7991449D01*
X967181Y-8154314D01*
X963828Y-8156549D01*
X959815Y-8157260D01*
X955852Y-8156397D01*
X952550Y-8154009D01*
X950417Y-8150504D01*
X949858Y-8146491D01*
X950264Y-8139887D01*
X949350Y-8125104D01*
X946658Y-8110524D01*
X942136Y-8096402D01*
X935939Y-8082889D01*
X928116Y-8070291D01*
X918819Y-8058759D01*
X914450Y-8054492D01*
X912672Y-8052155D01*
X856792Y-7952536D01*
X855827Y-7950149D01*
X855522Y-7947558D01*
X855522Y-7687106D01*
X856132Y-7683652D01*
X895858Y-7573568D01*
X906170Y-7557008D01*
X912368Y-7543495D01*
X916838Y-7529372D01*
X919581Y-7514793D01*
X920496Y-7500010D01*
X919581Y-7485176D01*
X916838Y-7470597D01*
X912368Y-7456474D01*
X906170Y-7442962D01*
X898347Y-7430363D01*
X889050Y-7418831D01*
X878382Y-7408468D01*
X866546Y-7399528D01*
X853694Y-7392111D01*
X840028Y-7386370D01*
X825753Y-7382306D01*
X811123Y-7380020D01*
X796290Y-7379563D01*
X781507Y-7380935D01*
X767029Y-7384084D01*
X753059Y-7389012D01*
X739749Y-7395616D01*
X727405Y-7403846D01*
X716127Y-7413498D01*
X706120Y-7424470D01*
X697534Y-7436561D01*
X690524Y-7449616D01*
X685190Y-7463434D01*
X681583Y-7477861D01*
X679754Y-7492542D01*
X679754Y-7507427D01*
X681583Y-7522108D01*
X685190Y-7536535D01*
X690524Y-7550353D01*
X697534Y-7563408D01*
X702716Y-7570673D01*
X703986Y-7573111D01*
X743864Y-7683652D01*
X744474Y-7687106D01*
X744474Y-7962950D01*
X744321Y-7964779D01*
X722833Y-8083803D01*
X721817Y-8086801D01*
X720344Y-8089544D01*
X714959Y-8103362D01*
X711352Y-8117789D01*
X709523Y-8132470D01*
X709523Y-8147303D01*
X711352Y-8162036D01*
X714959Y-8176412D01*
X720344Y-8190280D01*
X727354Y-8203336D01*
X735939Y-8215426D01*
X745896Y-8226399D01*
X757174Y-8236051D01*
X769569Y-8244230D01*
X782828Y-8250885D01*
X796798Y-8255812D01*
X811326Y-8258962D01*
X826058Y-8260334D01*
X836726Y-8260029D01*
X840689Y-8260689D01*
X844092Y-8262823D01*
X846378Y-8266125D01*
X847191Y-8270036D01*
X846429Y-8273999D01*
X844245Y-8277352D01*
X760984Y-8360664D01*
X757580Y-8364372D01*
X754634Y-8368233D01*
X752043Y-8372297D01*
X749808Y-8376615D01*
X747928Y-8381034D01*
X746506Y-8385708D01*
X745439Y-8390382D01*
X744829Y-8395208D01*
X744575Y-8400237D01*
X744575Y-9000032D01*
X744829Y-9005062D01*
X745439Y-9009888D01*
X746506Y-9014612D01*
X747928Y-9019235D01*
X749808Y-9023705D01*
X752043Y-9027972D01*
X754634Y-9032087D01*
X757580Y-9035897D01*
X760984Y-9039656D01*
X941527Y-9220149D01*
X943711Y-9223451D01*
X944473Y-9227312D01*
X944473Y-9799878D01*
X944727Y-9804908D01*
X945337Y-9809734D01*
X946403Y-9814458D01*
X947826Y-9819081D01*
X949706Y-9823551D01*
X951941Y-9827818D01*
X954532Y-9831933D01*
X957478Y-9835743D01*
X960882Y-9839502D01*
X1014984Y-9893554D01*
X1016203Y-9895027D01*
X1083919Y-9994442D01*
X1084986Y-9996525D01*
X1090320Y-10010343D01*
X1097330Y-10023398D01*
X1105916Y-10035540D01*
X1115923Y-10046462D01*
X1127201Y-10056114D01*
X1139545Y-10064343D01*
X1152855Y-10070947D01*
X1166825Y-10075875D01*
X1181303Y-10079024D01*
X1196086Y-10080396D01*
X1210919Y-10079939D01*
X1225550Y-10077704D01*
X1239824Y-10073640D01*
X1253490Y-10067848D01*
X1266342Y-10060432D01*
X1278178Y-10051491D01*
X1288846Y-10041128D01*
X1298143Y-10029596D01*
X1305966Y-10016998D01*
X1312164Y-10003485D01*
X1316634Y-9989362D01*
X1319377Y-9974783D01*
X1319530Y-9971836D01*
X1320495Y-9968077D01*
X1322832Y-9964978D01*
X1326083Y-9962946D01*
X1329893Y-9962286D01*
X1333652Y-9963099D01*
X1336852Y-9965283D01*
X1410665Y-10039096D01*
X1414424Y-10042499D01*
X1418234Y-10045446D01*
X1422349Y-10048036D01*
X1426616Y-10050272D01*
X1431086Y-10052151D01*
X1435709Y-10053574D01*
X1440434Y-10054640D01*
X1445260Y-10055250D01*
X1450289Y-10055504D01*
X1874824Y-10055504D01*
X1879854Y-10055250D01*
X1884680Y-10054640D01*
X1889404Y-10053574D01*
X1894027Y-10052151D01*
X1898497Y-10050272D01*
X1902764Y-10048036D01*
X1906879Y-10045446D01*
X1910689Y-10042499D01*
X1914448Y-10039096D01*
X2470099Y-9483394D01*
X2473401Y-9481210D01*
X2477262Y-9480448D01*
X2528976Y-9480448D01*
X2533142Y-9481362D01*
X2536596Y-9483902D01*
X2538679Y-9487662D01*
X2539034Y-9491929D01*
X2537561Y-9495993D01*
X2534564Y-9499041D01*
X2527401Y-9503816D01*
X2516124Y-9513468D01*
X2506116Y-9524441D01*
X2497531Y-9536531D01*
X2490520Y-9549638D01*
X2485186Y-9563455D01*
X2481580Y-9577832D01*
X2479751Y-9592564D01*
X2479751Y-9607397D01*
X2481580Y-9622129D01*
X2485186Y-9636506D01*
X2490520Y-9650323D01*
X2497531Y-9663430D01*
X2502712Y-9670643D01*
X2503932Y-9673082D01*
X2543860Y-9783673D01*
X2544470Y-9787128D01*
X2544470Y-10063022D01*
X2544318Y-10064851D01*
X2522931Y-10183926D01*
X2521864Y-10186974D01*
X2520442Y-10189616D01*
X2515057Y-10203434D01*
X2511450Y-10217861D01*
X2509621Y-10232542D01*
X2509621Y-10247376D01*
X2511450Y-10262108D01*
X2515057Y-10276484D01*
X2520442Y-10290352D01*
X2527452Y-10303408D01*
X2536037Y-10315498D01*
X2545994Y-10326471D01*
X2557272Y-10336123D01*
X2569667Y-10344302D01*
X2582926Y-10350957D01*
X2596896Y-10355884D01*
X2611424Y-10359034D01*
X2626156Y-10360406D01*
X2640990Y-10359948D01*
X2655671Y-10357662D01*
X2669946Y-10353598D01*
X2683611Y-10347858D01*
X2696464Y-10340441D01*
X2708300Y-10331500D01*
X2718917Y-10321137D01*
X2728214Y-10309606D01*
X2736037Y-10296956D01*
X2742234Y-10283494D01*
X2746756Y-10269372D01*
X2749448Y-10254792D01*
X2750362Y-10239959D01*
X2749448Y-10225176D01*
X2746756Y-10210596D01*
X2742234Y-10196474D01*
X2736037Y-10182961D01*
X2728214Y-10170363D01*
X2718917Y-10158831D01*
X2714498Y-10154513D01*
X2712720Y-10152227D01*
X2656789Y-10052608D01*
X2655824Y-10050221D01*
X2655519Y-10047630D01*
X2655519Y-9787077D01*
X2656128Y-9783622D01*
X2695854Y-9673539D01*
X2706166Y-9656978D01*
X2712364Y-9643516D01*
X2716834Y-9629394D01*
X2719578Y-9614763D01*
X2720492Y-9599980D01*
X2719578Y-9585198D01*
X2716834Y-9570567D01*
X2712364Y-9556445D01*
X2706166Y-9542983D01*
X2698343Y-9530384D01*
X2689047Y-9518802D01*
X2678379Y-9508490D01*
X2666288Y-9499396D01*
X2663037Y-9496399D01*
X2661361Y-9492335D01*
X2661564Y-9487966D01*
X2663596Y-9484055D01*
X2667050Y-9481362D01*
X2671368Y-9480448D01*
X2697734Y-9480448D01*
X2701594Y-9481210D01*
X2704896Y-9483394D01*
X2741625Y-9520123D01*
X2743809Y-9523425D01*
X2744571Y-9527286D01*
X2744470Y-9799878D01*
X2745587Y-9810851D01*
X2748330Y-9820148D01*
X2752598Y-9828834D01*
X2758338Y-9836607D01*
X2765653Y-9843617D01*
X2819095Y-9886391D01*
X2821432Y-9889032D01*
X2882747Y-9989210D01*
X2883966Y-9992004D01*
X2885084Y-9996525D01*
X2890418Y-10010343D01*
X2897428Y-10023398D01*
X2906014Y-10035540D01*
X2916021Y-10046462D01*
X2927299Y-10056114D01*
X2939643Y-10064343D01*
X2952902Y-10070947D01*
X2966923Y-10075875D01*
X2981401Y-10079024D01*
X2996184Y-10080396D01*
X3011017Y-10079939D01*
X3025648Y-10077704D01*
X3039922Y-10073640D01*
X3053588Y-10067848D01*
X3066440Y-10060432D01*
X3078276Y-10051491D01*
X3088944Y-10041128D01*
X3098241Y-10029596D01*
X3100679Y-10025634D01*
X3103727Y-10022484D01*
X3107791Y-10020909D01*
X3112109Y-10021214D01*
X3115919Y-10023246D01*
X3118561Y-10026700D01*
X3119475Y-10030968D01*
X3119475Y-10149890D01*
X3119729Y-10154920D01*
X3120339Y-10159746D01*
X3121406Y-10164470D01*
X3122828Y-10169093D01*
X3124708Y-10173563D01*
X3126943Y-10177830D01*
X3129534Y-10181945D01*
X3132480Y-10185755D01*
X3135884Y-10189514D01*
X4185361Y-11238992D01*
X4189120Y-11242395D01*
X4192930Y-11245342D01*
X4197045Y-11247932D01*
X4201312Y-11250168D01*
X4205782Y-11252047D01*
X4210405Y-11253470D01*
X4215130Y-11254536D01*
X4219956Y-11255146D01*
X4224985Y-11255400D01*
X5199684Y-11255400D01*
X5204714Y-11255146D01*
X5209540Y-11254536D01*
X5214264Y-11253470D01*
X5218887Y-11252047D01*
X5223357Y-11250168D01*
X5227624Y-11247932D01*
X5231688Y-11245342D01*
X5235549Y-11242395D01*
X5239308Y-11238992D01*
X5938977Y-10539526D01*
X5942431Y-10535767D01*
X5945378Y-10531957D01*
X5947968Y-10527842D01*
X5950204Y-10523575D01*
X5952083Y-10519105D01*
X5954014Y-10512298D01*
X5955741Y-10508437D01*
X5958890Y-10505643D01*
X5962904Y-10504373D01*
X5967120Y-10504830D01*
X5970727Y-10506964D01*
X5973216Y-10510367D01*
X5974080Y-10514482D01*
X5974080Y-11799366D01*
X5973165Y-11825833D01*
X5970524Y-11851233D01*
X5966155Y-11876430D01*
X5960110Y-11901220D01*
X5952337Y-11925554D01*
X5942939Y-11949328D01*
X5931966Y-11972391D01*
X5919419Y-11994642D01*
X5905398Y-12015978D01*
X5889955Y-12036298D01*
X5873140Y-12055551D01*
X5855055Y-12073585D01*
X5835802Y-12090349D01*
X5815431Y-12105792D01*
X5794044Y-12119762D01*
X5771794Y-12132259D01*
X5748680Y-12143232D01*
X5724906Y-12152579D01*
X5700572Y-12160250D01*
X5675731Y-12166295D01*
X5650585Y-12170613D01*
X5625185Y-12173204D01*
X5599379Y-12174067D01*
G37*

%LPC*%
G36*
X405231Y-12030405D02*
G01*
X426161Y-12028982D01*
X446887Y-12025630D01*
X467207Y-12020448D01*
X486968Y-12013438D01*
X506018Y-12004649D01*
X524205Y-11994134D01*
X541375Y-11982043D01*
X557326Y-11968429D01*
X572008Y-11953443D01*
X585216Y-11937136D01*
X596950Y-11919762D01*
X607009Y-11901322D01*
X615391Y-11882069D01*
X621944Y-11862155D01*
X626668Y-11841734D01*
X629564Y-11820956D01*
X630478Y-11799976D01*
X629564Y-11778996D01*
X626668Y-11758218D01*
X621944Y-11737797D01*
X615391Y-11717883D01*
X607009Y-11698630D01*
X596950Y-11680190D01*
X585216Y-11662816D01*
X572008Y-11646509D01*
X557326Y-11631523D01*
X541375Y-11617909D01*
X524205Y-11605818D01*
X506018Y-11595303D01*
X486968Y-11586514D01*
X467207Y-11579504D01*
X446887Y-11574322D01*
X426161Y-11570970D01*
X405231Y-11569547D01*
X384251Y-11570004D01*
X363423Y-11572392D01*
X342900Y-11576659D01*
X322834Y-11582806D01*
X303377Y-11590731D01*
X284734Y-11600383D01*
X267055Y-11611660D01*
X250494Y-11624513D01*
X235153Y-11638838D01*
X221183Y-11654536D01*
X208737Y-11671350D01*
X197815Y-11689283D01*
X188569Y-11708130D01*
X181102Y-11727738D01*
X175463Y-11747957D01*
X171653Y-11768582D01*
X169722Y-11789460D01*
X169722Y-11810492D01*
X171653Y-11831370D01*
X175463Y-11851995D01*
X181102Y-11872214D01*
X188569Y-11891822D01*
X197815Y-11910669D01*
X208737Y-11928602D01*
X221183Y-11945416D01*
X235153Y-11961114D01*
X250494Y-11975439D01*
X267055Y-11988292D01*
X284734Y-11999569D01*
X303377Y-12009221D01*
X322834Y-12017146D01*
X342900Y-12023293D01*
X363423Y-12027560D01*
X384251Y-12029948D01*
G37*
G36*
X5605221Y-12030405D02*
G01*
X5626150Y-12028982D01*
X5646877Y-12025630D01*
X5667197Y-12020448D01*
X5686958Y-12013438D01*
X5706008Y-12004649D01*
X5724194Y-11994134D01*
X5741365Y-11982043D01*
X5757316Y-11968429D01*
X5771997Y-11953443D01*
X5785205Y-11937136D01*
X5796940Y-11919762D01*
X5806998Y-11901322D01*
X5815380Y-11882069D01*
X5821934Y-11862155D01*
X5826658Y-11841734D01*
X5829554Y-11820956D01*
X5830468Y-11799976D01*
X5829554Y-11778996D01*
X5826658Y-11758218D01*
X5821934Y-11737797D01*
X5815380Y-11717883D01*
X5806998Y-11698630D01*
X5796940Y-11680190D01*
X5785205Y-11662816D01*
X5771997Y-11646509D01*
X5757316Y-11631523D01*
X5741365Y-11617909D01*
X5724194Y-11605818D01*
X5706008Y-11595303D01*
X5686958Y-11586514D01*
X5667197Y-11579504D01*
X5646877Y-11574322D01*
X5626150Y-11570970D01*
X5605221Y-11569547D01*
X5584240Y-11570004D01*
X5563412Y-11572392D01*
X5542889Y-11576659D01*
X5522823Y-11582806D01*
X5503367Y-11590731D01*
X5484723Y-11600383D01*
X5467045Y-11611660D01*
X5450484Y-11624513D01*
X5435142Y-11638838D01*
X5421172Y-11654536D01*
X5408726Y-11671350D01*
X5397804Y-11689283D01*
X5388559Y-11708130D01*
X5381091Y-11727738D01*
X5375452Y-11747957D01*
X5371642Y-11768582D01*
X5369712Y-11789460D01*
X5369712Y-11810492D01*
X5371642Y-11831370D01*
X5375452Y-11851995D01*
X5381091Y-11872214D01*
X5388559Y-11891822D01*
X5397804Y-11910669D01*
X5408726Y-11928602D01*
X5421172Y-11945416D01*
X5435142Y-11961114D01*
X5450484Y-11975439D01*
X5467045Y-11988292D01*
X5484723Y-11999569D01*
X5503367Y-12009221D01*
X5522823Y-12017146D01*
X5542889Y-12023293D01*
X5563412Y-12027560D01*
X5584240Y-12029948D01*
G37*
G36*
X2999892Y-10855502D02*
G01*
X3022142Y-10854486D01*
X3044240Y-10851591D01*
X3066034Y-10846765D01*
X3087268Y-10840059D01*
X3107893Y-10831525D01*
X3127654Y-10821263D01*
X3146450Y-10809274D01*
X3164128Y-10795711D01*
X3180537Y-10780623D01*
X3195624Y-10764215D01*
X3209188Y-10746536D01*
X3221177Y-10727740D01*
X3231438Y-10707979D01*
X3239973Y-10687354D01*
X3246678Y-10666120D01*
X3251504Y-10644327D01*
X3254400Y-10622229D01*
X3255416Y-10599978D01*
X3254400Y-10577728D01*
X3251504Y-10555630D01*
X3246678Y-10533837D01*
X3239973Y-10512602D01*
X3231438Y-10491978D01*
X3221177Y-10472216D01*
X3209188Y-10453420D01*
X3195624Y-10435742D01*
X3180537Y-10419334D01*
X3164128Y-10404246D01*
X3146450Y-10390682D01*
X3127654Y-10378694D01*
X3107893Y-10368432D01*
X3087268Y-10359898D01*
X3066034Y-10353192D01*
X3044240Y-10348366D01*
X3022142Y-10345470D01*
X2999892Y-10344454D01*
X2977642Y-10345470D01*
X2955544Y-10348366D01*
X2933750Y-10353192D01*
X2912516Y-10359898D01*
X2891891Y-10368432D01*
X2872130Y-10378694D01*
X2853334Y-10390682D01*
X2835656Y-10404246D01*
X2819247Y-10419334D01*
X2804160Y-10435742D01*
X2790596Y-10453420D01*
X2778607Y-10472216D01*
X2768346Y-10491978D01*
X2759811Y-10512602D01*
X2753106Y-10533837D01*
X2748280Y-10555630D01*
X2745384Y-10577728D01*
X2744368Y-10599978D01*
X2745384Y-10622229D01*
X2748280Y-10644327D01*
X2753106Y-10666120D01*
X2759811Y-10687354D01*
X2768346Y-10707979D01*
X2778607Y-10727740D01*
X2790596Y-10746536D01*
X2804160Y-10764215D01*
X2819247Y-10780623D01*
X2835656Y-10795711D01*
X2853334Y-10809274D01*
X2872130Y-10821263D01*
X2891891Y-10831525D01*
X2912516Y-10840059D01*
X2933750Y-10846765D01*
X2955544Y-10851591D01*
X2977642Y-10854486D01*
G37*
G36*
X1199794Y-10855502D02*
G01*
X1222044Y-10854486D01*
X1244142Y-10851591D01*
X1265936Y-10846765D01*
X1287170Y-10840059D01*
X1307795Y-10831525D01*
X1327556Y-10821263D01*
X1346352Y-10809274D01*
X1364030Y-10795711D01*
X1380439Y-10780623D01*
X1395526Y-10764215D01*
X1409090Y-10746536D01*
X1421079Y-10727740D01*
X1431340Y-10707979D01*
X1439875Y-10687354D01*
X1446580Y-10666120D01*
X1451406Y-10644327D01*
X1454302Y-10622229D01*
X1455318Y-10599978D01*
X1454302Y-10577728D01*
X1451406Y-10555630D01*
X1446580Y-10533837D01*
X1439875Y-10512602D01*
X1431340Y-10491978D01*
X1421079Y-10472216D01*
X1409090Y-10453420D01*
X1395526Y-10435742D01*
X1380439Y-10419334D01*
X1364030Y-10404246D01*
X1346352Y-10390682D01*
X1327556Y-10378694D01*
X1307795Y-10368432D01*
X1287170Y-10359898D01*
X1265936Y-10353192D01*
X1244142Y-10348366D01*
X1222044Y-10345470D01*
X1199794Y-10344454D01*
X1177544Y-10345470D01*
X1155446Y-10348366D01*
X1133652Y-10353192D01*
X1112418Y-10359898D01*
X1091793Y-10368432D01*
X1072032Y-10378694D01*
X1053236Y-10390682D01*
X1035558Y-10404246D01*
X1019149Y-10419334D01*
X1004062Y-10435742D01*
X990498Y-10453420D01*
X978509Y-10472216D01*
X968248Y-10491978D01*
X959713Y-10512602D01*
X953008Y-10533837D01*
X948182Y-10555630D01*
X945286Y-10577728D01*
X944270Y-10599978D01*
X945286Y-10622229D01*
X948182Y-10644327D01*
X953008Y-10666120D01*
X959713Y-10687354D01*
X968248Y-10707979D01*
X978509Y-10727740D01*
X990498Y-10746536D01*
X1004062Y-10764215D01*
X1019149Y-10780623D01*
X1035558Y-10795711D01*
X1053236Y-10809274D01*
X1072032Y-10821263D01*
X1091793Y-10831525D01*
X1112418Y-10840059D01*
X1133652Y-10846765D01*
X1155446Y-10851591D01*
X1177544Y-10854486D01*
G37*
G36*
X826058Y-10360406D02*
G01*
X840892Y-10359948D01*
X855573Y-10357662D01*
X869848Y-10353598D01*
X883513Y-10347858D01*
X896366Y-10340441D01*
X908202Y-10331500D01*
X918819Y-10321137D01*
X928116Y-10309606D01*
X935939Y-10296956D01*
X942136Y-10283494D01*
X946658Y-10269372D01*
X949350Y-10254792D01*
X950264Y-10239959D01*
X949350Y-10225176D01*
X946658Y-10210596D01*
X942136Y-10196474D01*
X935939Y-10182961D01*
X928116Y-10170363D01*
X918819Y-10158831D01*
X914450Y-10154564D01*
X912672Y-10152227D01*
X856792Y-10052608D01*
X855827Y-10050221D01*
X855522Y-10047630D01*
X855522Y-9787077D01*
X856132Y-9783673D01*
X895858Y-9673539D01*
X906170Y-9656978D01*
X912368Y-9643516D01*
X916838Y-9629394D01*
X919581Y-9614763D01*
X920496Y-9599980D01*
X919581Y-9585198D01*
X916838Y-9570567D01*
X912368Y-9556445D01*
X906170Y-9542983D01*
X898347Y-9530384D01*
X889050Y-9518802D01*
X878382Y-9508490D01*
X866546Y-9499549D01*
X853694Y-9492132D01*
X840028Y-9486341D01*
X825753Y-9482277D01*
X811123Y-9479991D01*
X796290Y-9479534D01*
X781507Y-9480905D01*
X767029Y-9484106D01*
X753059Y-9489033D01*
X739749Y-9495637D01*
X727405Y-9503816D01*
X716127Y-9513468D01*
X706120Y-9524441D01*
X697534Y-9536531D01*
X690524Y-9549638D01*
X685190Y-9563455D01*
X681583Y-9577832D01*
X679754Y-9592564D01*
X679754Y-9607397D01*
X681583Y-9622129D01*
X685190Y-9636506D01*
X690524Y-9650323D01*
X697534Y-9663430D01*
X702716Y-9670694D01*
X703986Y-9673082D01*
X743864Y-9783622D01*
X744474Y-9787077D01*
X744474Y-10063022D01*
X744321Y-10064851D01*
X722833Y-10183876D01*
X721817Y-10186873D01*
X720344Y-10189616D01*
X714959Y-10203434D01*
X711352Y-10217861D01*
X709523Y-10232542D01*
X709523Y-10247376D01*
X711352Y-10262108D01*
X714959Y-10276484D01*
X720344Y-10290352D01*
X727354Y-10303408D01*
X735939Y-10315498D01*
X745896Y-10326471D01*
X757174Y-10336123D01*
X769569Y-10344302D01*
X782828Y-10350957D01*
X796798Y-10355884D01*
X811326Y-10359034D01*
G37*
G36*
X4075176Y-2250897D02*
G01*
X4174642Y-2250897D01*
X4188510Y-2249932D01*
X4193082Y-2249220D01*
X4203954Y-2246579D01*
X4208373Y-2245156D01*
X4218686Y-2240889D01*
X4222851Y-2238756D01*
X4232351Y-2232914D01*
X4236110Y-2230170D01*
X4244644Y-2222957D01*
X4247946Y-2219655D01*
X4255160Y-2211120D01*
X4257903Y-2207361D01*
X4263745Y-2197862D01*
X4265879Y-2193696D01*
X4270146Y-2183384D01*
X4271568Y-2178964D01*
X4274210Y-2168093D01*
X4274921Y-2163470D01*
X4275785Y-2152345D01*
X4275785Y-2147671D01*
X4274921Y-2136546D01*
X4274210Y-2131923D01*
X4271568Y-2121052D01*
X4270146Y-2116632D01*
X4265879Y-2106320D01*
X4263745Y-2102154D01*
X4257903Y-2092655D01*
X4255160Y-2088896D01*
X4247946Y-2080361D01*
X4244644Y-2077059D01*
X4236110Y-2069846D01*
X4232351Y-2067102D01*
X4222851Y-2061260D01*
X4218686Y-2059127D01*
X4208373Y-2054860D01*
X4203954Y-2053437D01*
X4193082Y-2050796D01*
X4188510Y-2050084D01*
X4174642Y-2049119D01*
X4075379Y-2049119D01*
X4061510Y-2050084D01*
X4056938Y-2050796D01*
X4046067Y-2053437D01*
X4041648Y-2054860D01*
X4031335Y-2059127D01*
X4027170Y-2061260D01*
X4017619Y-2067102D01*
X4013860Y-2069846D01*
X4005376Y-2077059D01*
X4002074Y-2080361D01*
X3994810Y-2088896D01*
X3992067Y-2092655D01*
X3986225Y-2102154D01*
X3984142Y-2106320D01*
X3979875Y-2116632D01*
X3978401Y-2121052D01*
X3975811Y-2131923D01*
X3975049Y-2136546D01*
X3974185Y-2147671D01*
X3974185Y-2152345D01*
X3975049Y-2163470D01*
X3975811Y-2168093D01*
X3978401Y-2178964D01*
X3979875Y-2183384D01*
X3984142Y-2193696D01*
X3986225Y-2197862D01*
X3992067Y-2207361D01*
X3994810Y-2211120D01*
X4002074Y-2219655D01*
X4005376Y-2222957D01*
X4013860Y-2230170D01*
X4017619Y-2232914D01*
X4027170Y-2238756D01*
X4031335Y-2240889D01*
X4041648Y-2245156D01*
X4046067Y-2246579D01*
X4056938Y-2249220D01*
X4061510Y-2249932D01*
G37*
G36*
X3430981Y-1719275D02*
G01*
X3434079Y-1716379D01*
X3447897Y-1708200D01*
X3460191Y-1698853D01*
X3471265Y-1688084D01*
X3481019Y-1676095D01*
X3489248Y-1662988D01*
X3492449Y-1656334D01*
X3431336Y-1656334D01*
X3431336Y-1717344D01*
G37*
G36*
X3431336Y-1543659D02*
G01*
X3492652Y-1543659D01*
X3485337Y-1530350D01*
X3476345Y-1517751D01*
X3465880Y-1506372D01*
X3454196Y-1496263D01*
X3441344Y-1487627D01*
X3434587Y-1484172D01*
X3430981Y-1480870D01*
X3431336Y-1482699D01*
G37*
G36*
X4881372Y-1467510D02*
G01*
X4884572Y-1466088D01*
X4897882Y-1458214D01*
X4910175Y-1448866D01*
X4921300Y-1438097D01*
X4931003Y-1426057D01*
X4939284Y-1413002D01*
X4942433Y-1406347D01*
X4881372Y-1406347D01*
G37*
G36*
X4768646Y-1467510D02*
G01*
X4768646Y-1406347D01*
X4707534Y-1406347D01*
X4710734Y-1413002D01*
X4718964Y-1426057D01*
X4728718Y-1438097D01*
X4739792Y-1448866D01*
X4752086Y-1458214D01*
X4765395Y-1466088D01*
G37*
G36*
X4881372Y-1293672D02*
G01*
X4942687Y-1293672D01*
X4935321Y-1280363D01*
X4926330Y-1267764D01*
X4915916Y-1256385D01*
X4904181Y-1246276D01*
X4891379Y-1237640D01*
X4881372Y-1232509D01*
G37*
G36*
X4707331Y-1293672D02*
G01*
X4768646Y-1293672D01*
X4768646Y-1232509D01*
X4758639Y-1237640D01*
X4745837Y-1246276D01*
X4734102Y-1256385D01*
X4723688Y-1267764D01*
X4714646Y-1280363D01*
G37*
G36*
X4075633Y-1150924D02*
G01*
X4174642Y-1150924D01*
X4188510Y-1149959D01*
X4193082Y-1149197D01*
X4203954Y-1146606D01*
X4208373Y-1145184D01*
X4218686Y-1140866D01*
X4222851Y-1138783D01*
X4232351Y-1132941D01*
X4236161Y-1130198D01*
X4244644Y-1122934D01*
X4247946Y-1119632D01*
X4255160Y-1111148D01*
X4257903Y-1107389D01*
X4263745Y-1097838D01*
X4265879Y-1093724D01*
X4270146Y-1083360D01*
X4271619Y-1078941D01*
X4274210Y-1068070D01*
X4274921Y-1063498D01*
X4275785Y-1052322D01*
X4275785Y-1047699D01*
X4274921Y-1036523D01*
X4274210Y-1031951D01*
X4271619Y-1021080D01*
X4270146Y-1016660D01*
X4265879Y-1006348D01*
X4263745Y-1002182D01*
X4257903Y-992632D01*
X4255160Y-988872D01*
X4247946Y-980389D01*
X4244644Y-977087D01*
X4236161Y-969822D01*
X4232351Y-967079D01*
X4222851Y-961237D01*
X4218686Y-959154D01*
X4208373Y-954887D01*
X4203954Y-953414D01*
X4193082Y-950823D01*
X4188510Y-950112D01*
X4174642Y-949096D01*
X4075379Y-949096D01*
X4061510Y-950112D01*
X4056938Y-950823D01*
X4046067Y-953414D01*
X4041648Y-954887D01*
X4031335Y-959154D01*
X4027170Y-961237D01*
X4017619Y-967079D01*
X4013860Y-969822D01*
X4005376Y-977087D01*
X4002074Y-980389D01*
X3994810Y-988872D01*
X3992067Y-992632D01*
X3986225Y-1002182D01*
X3984142Y-1006348D01*
X3979875Y-1016660D01*
X3978401Y-1021080D01*
X3975811Y-1031951D01*
X3975100Y-1036523D01*
X3974185Y-1047699D01*
X3974185Y-1052322D01*
X3975100Y-1063498D01*
X3975811Y-1068070D01*
X3978401Y-1078941D01*
X3979875Y-1083360D01*
X3984142Y-1093724D01*
X3986225Y-1097838D01*
X3992067Y-1107389D01*
X3994810Y-1111148D01*
X4002074Y-1119632D01*
X4005376Y-1122934D01*
X4013860Y-1130198D01*
X4017619Y-1132941D01*
X4027170Y-1138783D01*
X4031335Y-1140866D01*
X4041648Y-1145184D01*
X4046067Y-1146606D01*
X4056938Y-1149197D01*
X4061561Y-1149959D01*
G37*
G36*
X889304Y-946861D02*
G01*
X891692Y-945845D01*
X904494Y-938428D01*
X916381Y-929487D01*
X926998Y-919175D01*
X936294Y-907643D01*
X944118Y-894994D01*
X946708Y-889355D01*
X889304Y-889355D01*
G37*
G36*
X786638Y-946759D02*
G01*
X786638Y-889355D01*
X729030Y-889355D01*
X735533Y-901446D01*
X744118Y-913536D01*
X754075Y-924509D01*
X765352Y-934161D01*
X777697Y-942340D01*
G37*
G36*
X889304Y-786638D02*
G01*
X946708Y-786638D01*
X944118Y-780999D01*
X936294Y-768400D01*
X926998Y-756818D01*
X916381Y-746506D01*
X904494Y-737565D01*
X891692Y-730148D01*
X889304Y-729132D01*
G37*
G36*
X729030Y-786638D02*
G01*
X786638Y-786638D01*
X786638Y-729234D01*
X777697Y-733653D01*
X765352Y-741832D01*
X754075Y-751484D01*
X744118Y-762457D01*
X735533Y-774598D01*
G37*
G36*
X834237Y-704443D02*
G01*
X849071Y-703986D01*
X863752Y-701700D01*
X878027Y-697636D01*
X891692Y-691845D01*
X904494Y-684428D01*
X916381Y-675487D01*
X926998Y-665175D01*
X936294Y-653643D01*
X944118Y-640994D01*
X950315Y-627532D01*
X954836Y-613410D01*
X957529Y-598830D01*
X958443Y-583996D01*
X957529Y-569214D01*
X954836Y-554634D01*
X950315Y-540461D01*
X944118Y-526999D01*
X936294Y-514400D01*
X926998Y-502818D01*
X916381Y-492506D01*
X904494Y-483565D01*
X891692Y-476148D01*
X878027Y-470357D01*
X863752Y-466293D01*
X849071Y-464058D01*
X834237Y-463600D01*
X819505Y-464972D01*
X804976Y-468122D01*
X791006Y-473049D01*
X777697Y-479653D01*
X765352Y-487832D01*
X754075Y-497484D01*
X744118Y-508457D01*
X735533Y-520598D01*
X728522Y-533654D01*
X723138Y-547471D01*
X719531Y-561848D01*
X717702Y-576580D01*
X717702Y-591413D01*
X719531Y-606145D01*
X723138Y-620522D01*
X728522Y-634390D01*
X735533Y-647446D01*
X744118Y-659536D01*
X754075Y-670509D01*
X765352Y-680161D01*
X777697Y-688340D01*
X791006Y-694944D01*
X804976Y-699922D01*
X819505Y-703072D01*
G37*
G36*
X405231Y-630428D02*
G01*
X426161Y-629005D01*
X446887Y-625652D01*
X467207Y-620471D01*
X486968Y-613460D01*
X506018Y-604672D01*
X524205Y-594156D01*
X541375Y-582066D01*
X557326Y-568452D01*
X572008Y-553466D01*
X585216Y-537159D01*
X596950Y-519785D01*
X607009Y-501345D01*
X615391Y-482092D01*
X621944Y-462178D01*
X626668Y-441756D01*
X629564Y-420979D01*
X630478Y-399999D01*
X629564Y-379018D01*
X626668Y-358241D01*
X621944Y-337820D01*
X615391Y-317906D01*
X607009Y-298653D01*
X596950Y-280212D01*
X585216Y-262839D01*
X572008Y-246532D01*
X557326Y-231546D01*
X541375Y-217932D01*
X524205Y-205841D01*
X506018Y-195326D01*
X486968Y-186537D01*
X467207Y-179527D01*
X446887Y-174345D01*
X426161Y-170992D01*
X405231Y-169570D01*
X384251Y-170027D01*
X363423Y-172415D01*
X342900Y-176682D01*
X322834Y-182829D01*
X303377Y-190754D01*
X284734Y-200406D01*
X267055Y-211683D01*
X250494Y-224536D01*
X235153Y-238861D01*
X221183Y-254558D01*
X208737Y-271373D01*
X197815Y-289306D01*
X188569Y-308152D01*
X181102Y-327761D01*
X175463Y-347980D01*
X171653Y-368604D01*
X169722Y-389483D01*
X169722Y-410514D01*
X171653Y-431393D01*
X175463Y-452018D01*
X181102Y-472236D01*
X188569Y-491845D01*
X197815Y-510692D01*
X208737Y-528624D01*
X221183Y-545439D01*
X235153Y-561136D01*
X250494Y-575462D01*
X267055Y-588314D01*
X284734Y-599592D01*
X303377Y-609244D01*
X322834Y-617169D01*
X342900Y-623316D01*
X363423Y-627583D01*
X384251Y-629970D01*
G37*
G36*
X5589473Y-630275D02*
G01*
X5610504Y-630275D01*
X5631383Y-628345D01*
X5652008Y-624535D01*
X5672226Y-618896D01*
X5691835Y-611428D01*
X5710682Y-602183D01*
X5728614Y-591261D01*
X5745429Y-578815D01*
X5761126Y-564845D01*
X5775452Y-549503D01*
X5788304Y-532942D01*
X5799582Y-515264D01*
X5809234Y-496620D01*
X5817158Y-477164D01*
X5823305Y-457098D01*
X5827572Y-436575D01*
X5829960Y-415747D01*
X5830417Y-394766D01*
X5828995Y-373837D01*
X5825642Y-353110D01*
X5820460Y-332790D01*
X5813450Y-313029D01*
X5804662Y-293979D01*
X5794146Y-275793D01*
X5782056Y-258622D01*
X5768441Y-242671D01*
X5753455Y-227990D01*
X5737148Y-214782D01*
X5719775Y-203047D01*
X5701334Y-192989D01*
X5682081Y-184607D01*
X5662168Y-178054D01*
X5641746Y-173329D01*
X5620969Y-170434D01*
X5599988Y-169519D01*
X5579008Y-170434D01*
X5558231Y-173329D01*
X5537809Y-178054D01*
X5517896Y-184607D01*
X5498642Y-192989D01*
X5480202Y-203047D01*
X5462828Y-214782D01*
X5446522Y-227990D01*
X5431536Y-242671D01*
X5417921Y-258622D01*
X5405831Y-275793D01*
X5395315Y-293979D01*
X5386527Y-313029D01*
X5379516Y-332790D01*
X5374335Y-353110D01*
X5370982Y-373837D01*
X5369560Y-394766D01*
X5370017Y-415747D01*
X5372404Y-436575D01*
X5376672Y-457098D01*
X5382818Y-477164D01*
X5390743Y-496620D01*
X5400395Y-515264D01*
X5411673Y-532942D01*
X5424525Y-549503D01*
X5438851Y-564845D01*
X5454548Y-578815D01*
X5471363Y-591261D01*
X5489295Y-602183D01*
X5508142Y-611428D01*
X5527751Y-618896D01*
X5547969Y-624535D01*
X5568594Y-628345D01*
G37*

%LPD*%
G36*
X3213912Y-1228598D02*
G01*
X3188309Y-1273708D01*
X3325571Y-1436928D01*
X3424377Y-1263091D01*
G37*
G36*
X3251250Y-1690878D02*
G01*
X3215894Y-1726234D01*
X3304235Y-1920697D01*
X3445713Y-1779320D01*
G37*
G36*
X4825085Y-1750009D02*
G01*
X4625035Y-1824888D01*
X4624984Y-1874875D01*
X4824933Y-1950008D01*
G37*
G36*
X1709521Y-9454997D02*
G01*
X1536344Y-9536379D01*
X1663649Y-9663582D01*
X1744929Y-9490303D01*
G37*
G36*
X709980Y-9599980D02*
G01*
X775004Y-9779965D01*
X824992Y-9779965D01*
X890016Y-9599980D01*
G37*
G36*
X3374999Y-9419996D02*
G01*
X3309975Y-9599980D01*
X3490010Y-9599980D01*
X3424986Y-9419996D01*
G37*
G36*
X3490010Y-9599930D02*
G01*
X3309975Y-9599980D01*
X3375050Y-9779965D01*
X3425037Y-9779965D01*
G37*
G36*
X2509977Y-9599980D02*
G01*
X2575001Y-9779965D01*
X2624988Y-9779965D01*
X2690012Y-9599980D01*
G37*
G36*
X5090363Y-9455048D02*
G01*
X5055006Y-9490405D01*
X5136388Y-9663633D01*
X5263642Y-9536328D01*
G37*
G36*
X4309973Y-9599980D02*
G01*
X4374997Y-9779965D01*
X4424984Y-9779965D01*
X4490008Y-9599980D01*
G37*
G36*
X1709521Y-7354976D02*
G01*
X1536344Y-7436358D01*
X1663649Y-7563612D01*
X1744929Y-7390333D01*
G37*
G36*
X709980Y-7499959D02*
G01*
X775004Y-7679994D01*
X824992Y-7679994D01*
X890016Y-7499959D01*
G37*
G36*
X3463594Y-7436307D02*
G01*
X3336391Y-7563662D01*
X3509670Y-7644841D01*
X3545027Y-7609484D01*
G37*
G36*
X3374999Y-7319975D02*
G01*
X3309975Y-7499959D01*
X3490010Y-7499959D01*
X3424986Y-7319975D01*
G37*
G36*
X2509977Y-7499959D02*
G01*
X2575001Y-7679994D01*
X2624988Y-7679994D01*
X2690012Y-7499959D01*
G37*
G36*
X5090414Y-7355027D02*
G01*
X5055057Y-7390384D01*
X5136337Y-7563612D01*
X5263642Y-7436358D01*
G37*
G36*
X4309973Y-7499959D02*
G01*
X4374997Y-7679994D01*
X4424984Y-7679994D01*
X4490008Y-7499959D01*
G37*
G36*
X1709623Y-5255056D02*
G01*
X1536344Y-5336336D01*
X1663649Y-5463641D01*
X1744980Y-5290413D01*
G37*
G36*
X709980Y-5399989D02*
G01*
X775004Y-5579973D01*
X824992Y-5579973D01*
X890016Y-5399989D01*
G37*
G36*
X3490010Y-5399938D02*
G01*
X3309975Y-5399989D01*
X3375050Y-5579973D01*
X3425037Y-5579973D01*
G37*
G36*
X3374999Y-5220004D02*
G01*
X3309975Y-5399989D01*
X3490010Y-5399989D01*
X3424986Y-5220004D01*
G37*
G36*
X2509977Y-5399989D02*
G01*
X2575001Y-5579973D01*
X2624988Y-5579973D01*
X2690012Y-5399989D01*
G37*
G36*
X5090363Y-5255056D02*
G01*
X5055006Y-5290413D01*
X5136388Y-5463641D01*
X5263591Y-5336336D01*
G37*
G36*
X4309973Y-5399989D02*
G01*
X4374997Y-5579973D01*
X4424984Y-5579973D01*
X4490008Y-5399989D01*
G37*
G36*
X1709623Y-3255060D02*
G01*
X1536344Y-3336340D01*
X1663649Y-3463645D01*
X1744929Y-3290417D01*
G37*
G36*
X1575003Y-3220008D02*
G01*
X1509979Y-3399993D01*
X1690014Y-3399993D01*
X1624990Y-3220008D01*
G37*
G36*
X709980Y-3399993D02*
G01*
X775004Y-3579977D01*
X824992Y-3579977D01*
X890016Y-3399993D01*
G37*
G36*
X3375050Y-3119983D02*
G01*
X3309975Y-3299968D01*
X3490010Y-3300018D01*
X3425037Y-3119983D01*
G37*
G36*
X3375050Y-3119983D02*
G01*
X3309975Y-3299968D01*
X3490010Y-3300018D01*
X3425037Y-3119983D01*
G37*
G36*
X2509977Y-3299968D02*
G01*
X2575001Y-3480003D01*
X2624988Y-3480003D01*
X2690012Y-3299968D01*
G37*
G36*
X5090312Y-3255111D02*
G01*
X5054955Y-3290468D01*
X5136388Y-3463645D01*
X5263591Y-3336290D01*
G37*
G36*
X4309973Y-3399993D02*
G01*
X4374997Y-3579977D01*
X4424984Y-3579977D01*
X4490008Y-3399993D01*
G37*
G36*
X837946Y-1510030D02*
G01*
X838047Y-1690014D01*
X1017981Y-1624939D01*
X1017981Y-1574952D01*
G37*
G36*
X837946Y-1764030D02*
G01*
X838047Y-1944014D01*
X1017981Y-1878939D01*
X1017981Y-1828952D01*
G37*
G36*
X837946Y-2018030D02*
G01*
X838047Y-2198014D01*
X1017981Y-2132939D01*
X1017981Y-2082952D01*
G37*
G36*
X2361946Y-748030D02*
G01*
X2362047Y-928014D01*
X2487930Y-862939D01*
X2487930Y-812952D01*
G37*
G36*
X2361946Y-2272030D02*
G01*
X2362047Y-2452014D01*
X2542032Y-2386939D01*
X2541981Y-2336952D01*
G37*
G36*
X2361946Y-2018030D02*
G01*
X2362047Y-2198014D01*
X2542032Y-2132939D01*
X2541981Y-2082952D01*
G37*
G36*
X2361946Y-1764030D02*
G01*
X2362047Y-1944014D01*
X2542032Y-1878939D01*
X2541981Y-1828952D01*
G37*
G36*
X2361946Y-1256030D02*
G01*
X2362047Y-1436014D01*
X2542032Y-1370939D01*
X2541981Y-1320952D01*
G37*
G36*
X2361946Y-1002030D02*
G01*
X2362047Y-1182014D01*
X2542032Y-1116939D01*
X2541981Y-1066952D01*
G37*
G36*
X1509979Y-2615996D02*
G01*
X1575003Y-2796032D01*
X1624990Y-2796032D01*
X1690014Y-2615996D01*
G37*
G36*
X1109980Y-3759911D02*
G01*
X1174902Y-3899915D01*
X1224889Y-3899915D01*
X1290015Y-3760063D01*
G37*
G36*
X1199997Y-3669995D02*
G01*
X1199997Y-3849979D01*
X1379982Y-3784955D01*
X1379982Y-3734968D01*
G37*
G36*
X824992Y-3858310D02*
G01*
X775004Y-3866743D01*
X741273Y-4055008D01*
X918718Y-4024985D01*
G37*
G36*
X4846828Y-3683152D02*
G01*
X4753152Y-3836822D01*
X4940300Y-3875633D01*
X4967071Y-3831691D01*
G37*
G36*
X4799990Y-3669995D02*
G01*
X4799990Y-3849979D01*
X4979974Y-3784955D01*
X4979974Y-3734968D01*
G37*
G36*
X4424984Y-3858310D02*
G01*
X4374997Y-3866743D01*
X4341266Y-4055008D01*
X4518710Y-4024985D01*
G37*
G36*
X3089910Y-3759962D02*
G01*
X2909874Y-3760063D01*
X2975000Y-3900170D01*
X3024987Y-3900170D01*
G37*
G36*
X2999841Y-3669995D02*
G01*
X2999892Y-3850030D01*
X3179876Y-3784955D01*
X3179876Y-3734968D01*
G37*
G36*
X2624988Y-3858310D02*
G01*
X2575001Y-3866743D01*
X2541168Y-4054957D01*
X2718663Y-4025087D01*
G37*
G36*
X1069035Y-9833762D02*
G01*
X1039266Y-9874707D01*
X1146911Y-10032796D01*
X1252677Y-9887153D01*
G37*
G36*
X824992Y-10058247D02*
G01*
X775004Y-10066680D01*
X741019Y-10254894D01*
X918565Y-10225074D01*
G37*
G36*
X2874975Y-9827971D02*
G01*
X2843733Y-9867036D01*
X2943656Y-10030256D01*
X3056128Y-9889693D01*
G37*
G36*
X2624988Y-10058247D02*
G01*
X2575001Y-10066680D01*
X2541168Y-10254945D01*
X2718663Y-10225024D01*
G37*
G36*
X4820005Y-9872218D02*
G01*
X4779975Y-10047732D01*
X4969814Y-10024973D01*
X4981194Y-9974986D01*
G37*
G36*
X4424984Y-10058298D02*
G01*
X4374997Y-10066731D01*
X4341266Y-10254996D01*
X4518710Y-10224973D01*
G37*
G36*
X1174902Y-7679893D02*
G01*
X1109776Y-7859877D01*
X1289812Y-7859979D01*
X1224889Y-7679944D01*
G37*
G36*
X1289812Y-7859826D02*
G01*
X1109776Y-7859979D01*
X1174902Y-7999984D01*
X1224889Y-7999984D01*
G37*
G36*
X824992Y-7958175D02*
G01*
X775004Y-7966608D01*
X741019Y-8154822D01*
X918565Y-8125002D01*
G37*
G36*
X3089910Y-7859826D02*
G01*
X2909874Y-7859979D01*
X2975000Y-7999984D01*
X3024987Y-7999984D01*
G37*
G36*
X2624988Y-7958226D02*
G01*
X2575001Y-7966608D01*
X2541168Y-8154873D01*
X2718663Y-8124952D01*
G37*
G36*
X4960874Y-7774990D02*
G01*
X4770018Y-7775041D01*
X4829962Y-7944764D01*
X4978552Y-7824978D01*
G37*
G36*
X4424984Y-7958226D02*
G01*
X4374997Y-7966659D01*
X4341266Y-8154924D01*
X4518710Y-8124901D01*
G37*
G36*
X1289812Y-5760008D02*
G01*
X1109776Y-5760161D01*
X1174902Y-5900166D01*
X1224889Y-5900166D01*
G37*
G36*
X1174902Y-5580075D02*
G01*
X1109776Y-5760008D01*
X1289812Y-5760110D01*
X1224889Y-5580075D01*
G37*
G36*
X824992Y-5858408D02*
G01*
X775004Y-5866790D01*
X741019Y-6055004D01*
X918565Y-6025184D01*
G37*
G36*
X2975000Y-5580075D02*
G01*
X2909874Y-5760008D01*
X3089910Y-5760110D01*
X3024987Y-5580075D01*
G37*
G36*
X2624988Y-5858408D02*
G01*
X2575001Y-5866790D01*
X2541168Y-6055055D01*
X2718663Y-6025134D01*
G37*
G36*
X4960823Y-5675020D02*
G01*
X4769967Y-5675223D01*
X4830013Y-5844946D01*
X4978501Y-5725007D01*
G37*
G36*
X4424984Y-5858408D02*
G01*
X4374997Y-5866841D01*
X4341266Y-6055106D01*
X4518710Y-6025083D01*
G37*
D10*
X2361945Y-1091945D02*
G01*
X2592070Y-1091945D01*
X2999993Y-1499870D01*
X2999993Y-1949957D01*
X3500120Y-2450084D01*
X5100065Y-2450084D01*
X5800090Y-3150107D01*
X5800090Y-10400029D01*
X5100065Y-11100054D01*
X4299965Y-11100054D01*
X3275075Y-10075163D01*
X3275075Y-9774936D01*
X3150108Y-9649968D01*
X3150108Y-9525000D01*
X2800095Y-9174987D01*
X2275077Y-9174987D01*
X1700021Y-9750044D01*
X1500123Y-9750044D01*
X1424939Y-9674860D01*
X1424939Y-9525000D01*
X2024888Y-8925052D01*
X3474974Y-8925052D01*
X3700018Y-8700008D01*
X3700018Y-7799831D01*
X3400043Y-7499858D01*
X2361945Y-837945D02*
G01*
X2487929Y-837945D01*
X3100070Y-1450086D01*
X3100070Y-1875028D01*
X3575050Y-2350007D01*
X5150104Y-2350007D01*
X5899911Y-3099815D01*
X5899911Y-10500105D01*
X5199888Y-11199876D01*
X4224781Y-11199876D01*
X3175000Y-10150094D01*
X3175000Y-9874986D01*
X2999993Y-9699980D01*
X2999993Y-9538208D01*
X2767075Y-9305289D01*
X2394711Y-9305289D01*
X1800097Y-9899904D01*
X1499870Y-9899904D01*
X1230376Y-9630410D01*
X1230376Y-9469628D01*
X1899920Y-8800084D01*
X3399790Y-8800084D01*
X3599941Y-8599931D01*
X3599941Y-7999984D01*
X3199891Y-7599934D01*
X3199891Y-7499858D01*
X2899918Y-7199884D01*
X2200147Y-7199884D01*
X1700021Y-7700010D01*
X1499870Y-7700010D01*
X1380236Y-7580121D01*
X1380236Y-7419847D01*
X1999995Y-6800087D01*
X3199891Y-6800087D01*
X3400043Y-6599936D01*
X3400043Y-5400039D01*
X2999993Y-7860029D02*
G01*
X2999993Y-7999984D01*
X2374900Y-8625078D01*
X1700021Y-8625078D01*
X1150112Y-9174987D01*
X1150112Y-9700005D01*
X1450086Y-9999979D01*
X1875028Y-9999979D01*
X2450084Y-9424924D01*
X2724911Y-9424924D01*
X2800095Y-9500108D01*
X2799994Y-9799980D01*
X2999892Y-9959975D01*
X5199888Y-3400044D02*
G01*
X4749800Y-2949955D01*
X3400043Y-2949955D01*
X3400043Y-3299968D01*
X799998Y-3399993D02*
G01*
X799998Y-4009999D01*
X829995Y-4039996D01*
X3400043Y-3299968D02*
G01*
X3400043Y-2949955D01*
X2050034Y-2949955D01*
X1599945Y-3400044D01*
X4800091Y-3759962D02*
G01*
X4860036Y-3759962D01*
X5400040Y-4299965D01*
X5400040Y-5499862D01*
X5199888Y-5700013D01*
X4860036Y-5700013D01*
X4800091Y-5759957D01*
X5199989Y-7799984D02*
G01*
X5199989Y-9199981D01*
X5399989Y-9399981D01*
X5399989Y-9799980D01*
X5199989Y-9999979D01*
X4839995Y-9999979D01*
X4799990Y-9959975D01*
X5199989Y-5699988D02*
G01*
X5199989Y-6999986D01*
X5499988Y-7299985D01*
X5499988Y-7499985D01*
X5199989Y-7799984D01*
X4859909Y-7799984D01*
X4799990Y-7859903D01*
X3399993Y-7499985D02*
G01*
X3399995Y-7099988D01*
X1599945Y-7499858D02*
G01*
X1999995Y-7100062D01*
X4800091Y-7100062D01*
X5199888Y-7499858D01*
X3399993Y-5399989D02*
G01*
X3399993Y-4899913D01*
X1599945Y-5400039D02*
G01*
X2100072Y-4899913D01*
X4700015Y-4899913D01*
X5199888Y-5400039D01*
X4399991Y-9599980D02*
G01*
X4399991Y-10209987D01*
X4429988Y-10239984D01*
X2599994Y-9599980D02*
G01*
X2599994Y-10210088D01*
X2629890Y-10239984D01*
X799998Y-9599980D02*
G01*
X799998Y-10210190D01*
X829792Y-10239984D01*
X4399991Y-7499985D02*
G01*
X4399991Y-8109915D01*
X4429988Y-8139912D01*
X2599994Y-7499985D02*
G01*
X2599994Y-8110016D01*
X2629890Y-8139912D01*
X4399991Y-5399989D02*
G01*
X4399991Y-6010097D01*
X4429988Y-6040094D01*
X2599994Y-5399989D02*
G01*
X2599994Y-6010198D01*
X2629890Y-6040094D01*
X799998Y-5399989D02*
G01*
X799998Y-6010300D01*
X829792Y-6040094D01*
X799998Y-7499985D02*
G01*
X799998Y-8110118D01*
X829792Y-8139912D01*
X4399991Y-3399993D02*
G01*
X4399991Y-4009999D01*
X4429988Y-4039996D01*
X2599994Y-3299993D02*
G01*
X2599994Y-4010126D01*
X2629890Y-4040022D01*
X1199895Y-5759957D02*
G01*
X1199895Y-5900165D01*
X800100Y-6299962D01*
X800100Y-7000239D01*
X1199895Y-7400036D01*
X1199895Y-7860029D01*
X1199895Y-3759962D02*
G01*
X1199895Y-3899915D01*
X800100Y-4299965D01*
X800100Y-4800092D01*
X1199895Y-5199887D01*
X1199895Y-5759957D01*
X1199895Y-7860029D02*
G01*
X1199895Y-7999984D01*
X800100Y-8400034D01*
X800100Y-9000236D01*
X999997Y-9200134D01*
X999997Y-9800081D01*
X1160018Y-9960102D01*
X1199895Y-9960102D01*
X2999993Y-3759962D02*
G01*
X2999993Y-3900170D01*
X2199893Y-4700015D01*
X2050034Y-4700015D01*
X1450086Y-5299963D01*
X1450086Y-5299963D01*
X1449997Y-5299989D02*
G01*
X1450086Y-5299963D01*
X1450086Y-5550154D01*
X1499870Y-5599937D01*
X1999995Y-5599937D01*
X2400045Y-5199887D01*
X2700020Y-5199887D01*
X2999993Y-5499862D01*
X2999993Y-5759957D01*
X1499870Y-5599937D02*
G01*
X1800097Y-5899912D01*
X1800097Y-6599936D01*
X1299971Y-7100062D01*
X1299971Y-7724902D01*
X1700021Y-8124952D01*
X1700021Y-8625078D01*
X1599945Y-9599929D02*
G01*
X2149856Y-9050020D01*
X4649977Y-9050020D01*
X5199888Y-9599929D01*
X3399993Y-9599980D02*
G01*
X3399993Y-9050020D01*
X1599996Y-2616022D02*
G01*
X1599996Y-3399993D01*
X3374897Y-1849881D02*
G01*
X3199891Y-1674876D01*
X3199891Y-1399794D01*
X2549906Y-749807D01*
X2549906Y-525018D01*
X2450084Y-424942D01*
X2275077Y-424942D01*
X2175002Y-525018D01*
X2175002Y-1625092D01*
X1691894Y-2107945D01*
X837945Y-2107945D01*
X3400043Y-9599929D02*
G01*
X3400043Y-9999979D01*
X4400041Y-10999978D01*
X4999990Y-10999978D01*
X5700013Y-10299954D01*
X5700013Y-3200145D01*
X5049774Y-2549905D01*
X3449827Y-2549905D01*
X2899918Y-1999995D01*
X2899918Y-1549907D01*
X2695956Y-1345945D01*
X2361945Y-1345945D01*
X2361945Y-1853945D02*
G01*
X2604008Y-1853945D01*
X3400043Y-2649981D01*
X4999990Y-2649981D01*
X5599938Y-3249929D01*
X5599938Y-3599942D01*
X5439918Y-3759962D01*
X4800091Y-3759962D01*
X2361945Y-2107945D02*
G01*
X2708147Y-2107945D01*
X3350006Y-2750057D01*
X4950206Y-2750057D01*
X5500115Y-3299968D01*
X5500115Y-3525012D01*
X5374893Y-3649979D01*
X4949952Y-3649979D01*
X4549902Y-3249929D01*
X4150106Y-3249929D01*
X3640074Y-3759962D01*
X2999993Y-3759962D01*
X2361945Y-2361945D02*
G01*
X2812034Y-2361945D01*
X3299968Y-2849879D01*
X4899659Y-2849879D01*
X5374893Y-3325113D01*
X5374893Y-3474973D01*
X5299963Y-3549904D01*
X5074920Y-3549904D01*
X4599940Y-3074923D01*
X4024884Y-3074923D01*
X3599941Y-3499865D01*
X3299968Y-3499865D01*
X2899918Y-3100070D01*
X2199893Y-3100070D01*
X1540002Y-3759962D01*
X1199895Y-3759962D01*
X3374897Y-1350010D02*
G01*
X3299968Y-1350010D01*
X2649981Y-700023D01*
X2649981Y-474979D01*
X2500122Y-325120D01*
X2224786Y-325120D01*
X2074925Y-474979D01*
X2074925Y-1575054D01*
X1796034Y-1853945D01*
X837945Y-1853945D01*
X4824984Y-1849881D02*
G01*
X4199890Y-1849881D01*
X3500120Y-1150112D01*
X3250184Y-1150112D01*
X2750058Y-649986D01*
X2750058Y-424942D01*
X2549906Y-225044D01*
X2175002Y-225044D01*
X1975104Y-424942D01*
X1975104Y-1525015D01*
X1899920Y-1599945D01*
X837945Y-1599945D01*
D11*
G01*
X3374974Y-1350010D03*
G01*
X3374974Y-1850009D03*
G01*
X3374974Y-1599996D03*
G01*
X4825009Y-1850009D03*
G01*
X4825009Y-1350010D03*
D12*
G01*
X4125010Y-2150008D03*
G01*
X4125010Y-1050010D03*
D13*
G01*
X1599996Y-9599980D03*
G01*
X799998Y-9599980D03*
G01*
X3399993Y-9599980D03*
G01*
X2599994Y-9599980D03*
G01*
X5199989Y-9599980D03*
G01*
X4399991Y-9599980D03*
G01*
X1599996Y-7499985D03*
G01*
X799998Y-7499985D03*
G01*
X3399993Y-7499985D03*
G01*
X2599994Y-7499985D03*
G01*
X5199989Y-7499985D03*
G01*
X4399991Y-7499985D03*
G01*
X1599996Y-5399989D03*
G01*
X799998Y-5399989D03*
G01*
X3399993Y-5399989D03*
G01*
X2599994Y-5399989D03*
G01*
X5199989Y-5399989D03*
G01*
X4399991Y-5399989D03*
G01*
X1599996Y-3399993D03*
G01*
X799998Y-3399993D03*
G01*
X3399993Y-3299993D03*
G01*
X2599994Y-3299993D03*
G01*
X5199989Y-3399993D03*
G01*
X4399991Y-3399993D03*
G01*
X837996Y-584022D03*
G01*
X837996Y-838022D03*
G01*
X837996Y-1092022D03*
G01*
X837996Y-1346022D03*
G01*
X837996Y-1600022D03*
G01*
X837996Y-1854022D03*
G01*
X837996Y-2108022D03*
G01*
X837996Y-2362022D03*
G01*
X837996Y-2616022D03*
G01*
X1091996Y-2616022D03*
G01*
X2361996Y-838022D03*
G01*
X2107996Y-2616022D03*
G01*
X2361996Y-2616022D03*
G01*
X2361996Y-2362022D03*
G01*
X2361996Y-2108022D03*
G01*
X2361996Y-1854022D03*
G01*
X2361996Y-1600022D03*
G01*
X2361996Y-1346022D03*
G01*
X2361996Y-1092022D03*
G01*
X2361996Y-584022D03*
G01*
X1345996Y-2616022D03*
G01*
X1853996Y-2616022D03*
G01*
X1599996Y-2616022D03*
G01*
X1199997Y-3759987D03*
G01*
X829995Y-4039996D03*
D14*
G01*
X1199997Y-4399991D03*
D13*
G01*
X4799990Y-3759987D03*
G01*
X4429988Y-4039996D03*
D14*
G01*
X4799990Y-4399991D03*
D13*
G01*
X2999892Y-3760012D03*
G01*
X2629890Y-4040022D03*
D14*
G01*
X2999892Y-4400016D03*
D13*
G01*
X1199794Y-9959975D03*
G01*
X829792Y-10239984D03*
D14*
G01*
X1199794Y-10599978D03*
D13*
G01*
X2999892Y-9959975D03*
G01*
X2629890Y-10239984D03*
D14*
G01*
X2999892Y-10599978D03*
D13*
G01*
X4799990Y-9959975D03*
G01*
X4429988Y-10239984D03*
D14*
G01*
X4799990Y-10599978D03*
D13*
G01*
X1199794Y-7859903D03*
G01*
X829792Y-8139912D03*
D14*
G01*
X1199794Y-8499906D03*
D13*
G01*
X2999892Y-7859903D03*
G01*
X2629890Y-8139912D03*
D14*
G01*
X2999892Y-8499906D03*
D13*
G01*
X4799990Y-7859903D03*
G01*
X4429988Y-8139912D03*
D14*
G01*
X4799990Y-8499906D03*
D13*
G01*
X1199794Y-5760085D03*
G01*
X829792Y-6040094D03*
D14*
G01*
X1199794Y-6400088D03*
D13*
G01*
X2999892Y-5760085D03*
G01*
X2629890Y-6040094D03*
D14*
G01*
X2999892Y-6400088D03*
D13*
G01*
X4799990Y-5760085D03*
G01*
X4429988Y-6040094D03*
D14*
G01*
X4799990Y-6400088D03*
D15*
G01*
X399999Y-399999D03*
G01*
X5599988Y-399999D03*
G01*
X5599988Y-11799976D03*
G01*
X399999Y-11799976D03*
M02*
