G04 Layer: BottomLayer*
G04 EasyEDA v6.5.51, 2025-09-03 10:09:53*
G04 82822ffc499f437880ef7a522e439a80,3c8b1c4139ec4bbbaae9228842dbec63,10*
G04 Gerber Generator version 0.2*
G04 Scale: 100 percent, Rotated: No, Reflected: No *
G04 Dimensions in millimeters *
G04 leading zeros omitted , absolute positions ,4 integer and 5 decimal *
%FSLAX45Y45*%
%MOMM*%

%ADD10C,0.5000*%
%ADD11C,1.8000*%
%ADD12C,4.5000*%
%ADD13C,3.0000*%
%ADD14C,2.0000*%
%ADD15C,0.0106*%

%LPD*%
D10*
X2361945Y-938021D02*
G01*
X2800095Y-1376171D01*
X2800095Y-1800097D01*
X3299968Y-2299970D01*
X5299963Y-2299970D01*
X5899911Y-2899918D01*
X5899911Y-10500105D01*
X5199888Y-11199876D01*
X4299711Y-11199876D01*
X3199891Y-10100055D01*
X3199891Y-9738360D01*
X3100070Y-9638284D01*
X3100070Y-9599929D01*
X2805175Y-9305289D01*
X2394711Y-9305289D01*
X1800097Y-9899904D01*
X1499870Y-9899904D01*
X1230376Y-9630410D01*
X1230376Y-9469628D01*
X1899920Y-8800084D01*
X3399790Y-8800084D01*
X3599941Y-8599931D01*
X3599941Y-7999984D01*
X3199891Y-7599934D01*
X3199891Y-7499858D01*
X2899918Y-7199884D01*
X2200147Y-7199884D01*
X1700021Y-7700010D01*
X1499870Y-7700010D01*
X1380236Y-7580121D01*
X1380236Y-7419847D01*
X1999995Y-6800087D01*
X3199891Y-6800087D01*
X3400043Y-6599936D01*
X3400043Y-5400039D01*
X2361945Y-1192021D02*
G01*
X2391918Y-1192021D01*
X2700020Y-1500123D01*
X2700020Y-1899920D01*
X3200145Y-2400045D01*
X5199888Y-2400045D01*
X5800090Y-2999994D01*
X5800090Y-10400029D01*
X5100065Y-11100054D01*
X4325111Y-11100054D01*
X3299968Y-10074910D01*
X3299968Y-9724897D01*
X3249929Y-9674860D01*
X3249929Y-9424924D01*
X2999993Y-9174987D01*
X2275077Y-9174987D01*
X1700021Y-9750044D01*
X1525015Y-9750044D01*
X1424939Y-9649968D01*
X1424939Y-9525000D01*
X2024888Y-8925052D01*
X3474974Y-8925052D01*
X3700018Y-8700008D01*
X3700018Y-7799831D01*
X3400043Y-7499858D01*
X2361945Y-1446021D02*
G01*
X2446020Y-1446021D01*
X2599943Y-1599945D01*
X2599943Y-1999995D01*
X3100070Y-2500121D01*
X5100065Y-2500121D01*
X5700013Y-3100070D01*
X5700013Y-10299954D01*
X4999990Y-10999978D01*
X4400041Y-10999978D01*
X3400043Y-9999979D01*
X3400043Y-9599929D01*
X2361945Y-1954021D02*
G01*
X2361945Y-1961895D01*
X2999993Y-2599944D01*
X4999990Y-2599944D01*
X5599938Y-3199892D01*
X5599938Y-3599942D01*
X5439918Y-3759962D01*
X4800091Y-3759962D01*
X2361945Y-2208021D02*
G01*
X2407920Y-2208021D01*
X2899918Y-2700020D01*
X4899913Y-2700020D01*
X5500115Y-3299968D01*
X5500115Y-3525012D01*
X5374893Y-3649979D01*
X4949952Y-3649979D01*
X4549902Y-3249929D01*
X4150106Y-3249929D01*
X3640074Y-3759962D01*
X2999993Y-3759962D01*
X2361945Y-2462021D02*
G01*
X2700020Y-2800095D01*
X4849875Y-2800095D01*
X5374893Y-3325113D01*
X5374893Y-3474973D01*
X5299963Y-3549904D01*
X5074920Y-3549904D01*
X4599940Y-3074923D01*
X4024884Y-3074923D01*
X3599941Y-3499865D01*
X3299968Y-3499865D01*
X2899918Y-3100070D01*
X2199893Y-3100070D01*
X1540002Y-3759962D01*
X1199895Y-3759962D01*
X3399993Y-9599980D02*
G01*
X3399993Y-9050020D01*
X1599945Y-9599929D02*
G01*
X2149856Y-9050020D01*
X4649977Y-9050020D01*
X5199888Y-9599929D01*
X1499870Y-5599937D02*
G01*
X1800097Y-5899912D01*
X1800097Y-6599936D01*
X1299971Y-7100062D01*
X1299971Y-7724902D01*
X1700021Y-8124952D01*
X1700021Y-8625078D01*
X2999993Y-9960102D02*
G01*
X2999993Y-9700005D01*
X2724911Y-9424924D01*
X2450084Y-9424924D01*
X1875028Y-9999979D01*
X1450086Y-9999979D01*
X1150112Y-9700005D01*
X1150112Y-9174987D01*
X1700021Y-8625078D01*
X2374900Y-8625078D01*
X2999993Y-7999984D01*
X2999993Y-7860029D01*
X1449997Y-5299989D02*
G01*
X1450086Y-5299963D01*
X1450086Y-5550154D01*
X1499870Y-5599937D01*
X1999995Y-5599937D01*
X2400045Y-5199887D01*
X2700020Y-5199887D01*
X2999993Y-5499862D01*
X2999993Y-5759957D01*
X2999993Y-3759962D02*
G01*
X2999993Y-3900170D01*
X2199893Y-4700015D01*
X2050034Y-4700015D01*
X1450086Y-5299963D01*
X1450086Y-5299963D01*
X1199895Y-7860029D02*
G01*
X1199895Y-7999984D01*
X800100Y-8400034D01*
X800100Y-9000236D01*
X999997Y-9200134D01*
X999997Y-9800081D01*
X1160018Y-9960102D01*
X1199895Y-9960102D01*
X1199895Y-3759962D02*
G01*
X1199895Y-3899915D01*
X800100Y-4299965D01*
X800100Y-4800092D01*
X1199895Y-5199887D01*
X1199895Y-5759957D01*
X1199895Y-5759957D02*
G01*
X1199895Y-5900165D01*
X800100Y-6299962D01*
X800100Y-7000239D01*
X1199895Y-7400036D01*
X1199895Y-7860029D01*
X799998Y-3399993D02*
G01*
X799998Y-4009999D01*
X829995Y-4039996D01*
X2599994Y-3299993D02*
G01*
X2599994Y-4010126D01*
X2629890Y-4040022D01*
X4399991Y-3399993D02*
G01*
X4399991Y-4009999D01*
X4429988Y-4039996D01*
X799998Y-7499985D02*
G01*
X799998Y-8110118D01*
X829792Y-8139912D01*
X799998Y-5399989D02*
G01*
X799998Y-6010300D01*
X829792Y-6040094D01*
X2599994Y-5399989D02*
G01*
X2599994Y-6010198D01*
X2629890Y-6040094D01*
X4399991Y-5399989D02*
G01*
X4399991Y-6010097D01*
X4429988Y-6040094D01*
X2599994Y-7499985D02*
G01*
X2599994Y-8110016D01*
X2629890Y-8139912D01*
X4399991Y-7499985D02*
G01*
X4399991Y-8109915D01*
X4429988Y-8139912D01*
X799998Y-9599980D02*
G01*
X799998Y-10210190D01*
X829792Y-10239984D01*
X2599994Y-9599980D02*
G01*
X2599994Y-10210088D01*
X2629890Y-10239984D01*
X4399991Y-9599980D02*
G01*
X4399991Y-10209987D01*
X4429988Y-10239984D01*
X1599945Y-5400039D02*
G01*
X2100072Y-4899913D01*
X4700015Y-4899913D01*
X5199888Y-5400039D01*
X3399993Y-5399989D02*
G01*
X3399993Y-4899913D01*
X1599945Y-7499858D02*
G01*
X1999995Y-7100062D01*
X4800091Y-7100062D01*
X5199888Y-7499858D01*
X3399993Y-7499985D02*
G01*
X3399995Y-7099988D01*
X5199989Y-5699988D02*
G01*
X5199989Y-6999986D01*
X5499988Y-7299985D01*
X5499988Y-7499985D01*
X5199989Y-7799984D01*
X4859909Y-7799984D01*
X4799990Y-7859903D01*
X5199989Y-7799984D02*
G01*
X5199989Y-9199981D01*
X5399989Y-9399981D01*
X5399989Y-9799980D01*
X5199989Y-9999979D01*
X4839995Y-9999979D01*
X4799990Y-9959975D01*
X4800091Y-3759962D02*
G01*
X4860036Y-3759962D01*
X5400040Y-4299965D01*
X5400040Y-5499862D01*
X5199888Y-5700013D01*
X4860036Y-5700013D01*
X4800091Y-5759957D01*
X1599996Y-2716021D02*
G01*
X1599996Y-3399993D01*
X5199888Y-3400044D02*
G01*
X5100065Y-3400044D01*
X4649977Y-2949955D01*
X3400043Y-2949955D01*
X3400043Y-3299968D01*
X3400043Y-3299968D02*
G01*
X3400043Y-2949955D01*
X2050034Y-2949955D01*
X1599945Y-3400044D01*
D11*
G01*
X1599996Y-9599980D03*
G01*
X799998Y-9599980D03*
G01*
X3399993Y-9599980D03*
G01*
X2599994Y-9599980D03*
G01*
X5199989Y-9599980D03*
G01*
X4399991Y-9599980D03*
G01*
X1599996Y-7499985D03*
G01*
X799998Y-7499985D03*
G01*
X3399993Y-7499985D03*
G01*
X2599994Y-7499985D03*
G01*
X5199989Y-7499985D03*
G01*
X4399991Y-7499985D03*
G01*
X1599996Y-5399989D03*
G01*
X799998Y-5399989D03*
G01*
X3399993Y-5399989D03*
G01*
X2599994Y-5399989D03*
G01*
X5199989Y-5399989D03*
G01*
X4399991Y-5399989D03*
G01*
X1599996Y-3399993D03*
G01*
X799998Y-3399993D03*
G01*
X3399993Y-3299993D03*
G01*
X2599994Y-3299993D03*
G01*
X5199989Y-3399993D03*
G01*
X4399991Y-3399993D03*
G01*
X837996Y-684021D03*
G01*
X837996Y-938021D03*
G01*
X837996Y-1192021D03*
G01*
X837996Y-1446021D03*
G01*
X837996Y-1700021D03*
G01*
X837996Y-1954021D03*
G01*
X837996Y-2208021D03*
G01*
X837996Y-2462021D03*
G01*
X837996Y-2716021D03*
G01*
X1091996Y-2716021D03*
G01*
X2361996Y-938021D03*
G01*
X2107996Y-2716021D03*
G01*
X2361996Y-2716021D03*
G01*
X2361996Y-2462021D03*
G01*
X2361996Y-2208021D03*
G01*
X2361996Y-1954021D03*
G01*
X2361996Y-1700021D03*
G01*
X2361996Y-1446021D03*
G01*
X2361996Y-1192021D03*
G01*
X2361996Y-684021D03*
G01*
X1345996Y-2716021D03*
G01*
X1853996Y-2716021D03*
G01*
X1599996Y-2716021D03*
G01*
X1199997Y-3759987D03*
G01*
X829995Y-4039996D03*
D12*
G01*
X1199997Y-4399991D03*
D11*
G01*
X4799990Y-3759987D03*
G01*
X4429988Y-4039996D03*
D12*
G01*
X4799990Y-4399991D03*
D11*
G01*
X2999892Y-3760012D03*
G01*
X2629890Y-4040022D03*
D12*
G01*
X2999892Y-4400016D03*
D11*
G01*
X1199794Y-9959975D03*
G01*
X829792Y-10239984D03*
D12*
G01*
X1199794Y-10599978D03*
D11*
G01*
X2999892Y-9959975D03*
G01*
X2629890Y-10239984D03*
D12*
G01*
X2999892Y-10599978D03*
D11*
G01*
X4799990Y-9959975D03*
G01*
X4429988Y-10239984D03*
D12*
G01*
X4799990Y-10599978D03*
D11*
G01*
X1199794Y-7859903D03*
G01*
X829792Y-8139912D03*
D12*
G01*
X1199794Y-8499906D03*
D11*
G01*
X2999892Y-7859903D03*
G01*
X2629890Y-8139912D03*
D12*
G01*
X2999892Y-8499906D03*
D11*
G01*
X4799990Y-7859903D03*
G01*
X4429988Y-8139912D03*
D12*
G01*
X4799990Y-8499906D03*
D11*
G01*
X1199794Y-5760085D03*
G01*
X829792Y-6040094D03*
D12*
G01*
X1199794Y-6400088D03*
D11*
G01*
X2999892Y-5760085D03*
G01*
X2629890Y-6040094D03*
D12*
G01*
X2999892Y-6400088D03*
D11*
G01*
X4799990Y-5760085D03*
G01*
X4429988Y-6040094D03*
D12*
G01*
X4799990Y-6400088D03*
D13*
G01*
X399999Y-399999D03*
G01*
X5599988Y-399999D03*
D14*
G01*
X5499887Y-11600002D03*
G01*
X499897Y-11600002D03*
G01*
X5799988Y-2499995D03*
G01*
X199999Y-2499995D03*
M02*
