M48
METRIC,LZ,000.000
;FILE_FORMAT=3:3
;TYPE=PLATED
;Layer: PTH_Through
;EasyEDA v6.5.51, 2025-09-01 10:00:17
;d25c321112d94009bea4b7554ae9d0e3,3c8b1c4139ec4bbbaae9228842dbec63,10
;Gerber Generator version 0.2
;Holesize 1 = 0.800 mm
T01C0.800
;Holesize 2 = 0.914 mm
T02C0.914
;Holesize 3 = 1.000 mm
T03C1.000
;Holesize 4 = 2.000 mm
T04C2.000
;Holesize 5 = 3.000 mm
T05C3.000
;Holesize 6 = 4.501 mm
T06C4.501
%
G05
G90
T01
X016000Y-034000
X008000Y-034000
X034000Y-034000
X026000Y-034000
X052000Y-034000
X044000Y-034000
X015999Y-096000
X007999Y-096000
X033999Y-096000
X025999Y-096000
X051999Y-096000
X043999Y-096000
X015999Y-075000
X007999Y-075000
X033999Y-075000
X025999Y-075000
X051999Y-075000
X043999Y-075000
X015998Y-054000
X007998Y-054000
X033998Y-054000
X025998Y-054000
X051998Y-054000
X043998Y-054000
T02
X008380Y-006840
X008380Y-009380
X008380Y-011920
X008380Y-014460
X008380Y-017000
X008380Y-019540
X008380Y-022080
X008380Y-024620
X008380Y-027160
X010920Y-027160
X023620Y-009380
X021080Y-027160
X023620Y-027160
X023620Y-024620
X023620Y-022080
X023620Y-019540
X023620Y-017000
X023620Y-014460
X023620Y-011920
X023619Y-006840
X013460Y-027160
X018540Y-027160
X016000Y-027160
T03
X012000Y-037600
X008300Y-040400
X048000Y-037600
X044300Y-040400
X029999Y-037600
X026299Y-040400
X011998Y-099600
X008298Y-102400
X029999Y-099600
X026299Y-102400
X048000Y-099600
X044300Y-102400
X011998Y-078599
X008298Y-081399
X029999Y-078599
X026299Y-081399
X048000Y-078599
X044300Y-081399
X011998Y-057601
X008298Y-060401
X029999Y-057601
X026299Y-060401
X048000Y-057601
X044300Y-060401
T04
X054999Y-116000
X004999Y-116000
X058000Y-025000
X002000Y-025000
T05
X004000Y-004000
X056000Y-004000
T06
X012000Y-044000
X048000Y-044000
X029999Y-044000
X011998Y-106000
X029999Y-106000
X048000Y-106000
X011998Y-084999
X029999Y-084999
X048000Y-084999
X011998Y-064001
X029999Y-064001
X048000Y-064001
M30
