G04 Layer: BottomLayer*
G04 EasyEDA v6.5.51, 2025-09-01 10:00:17*
G04 d25c321112d94009bea4b7554ae9d0e3,3c8b1c4139ec4bbbaae9228842dbec63,10*
G04 Gerber Generator version 0.2*
G04 Scale: 100 percent, Rotated: No, Reflected: No *
G04 Dimensions in millimeters *
G04 leading zeros omitted , absolute positions ,4 integer and 5 decimal *
%FSLAX45Y45*%
%MOMM*%

%ADD10C,0.6000*%
%ADD11C,1.5240*%
%ADD12C,1.4000*%
%ADD13C,1.8000*%
%ADD14C,4.5000*%
%ADD15C,3.0000*%
%ADD16C,2.0000*%
%ADD17C,0.0195*%

%LPD*%
D10*
X4399790Y-5400039D02*
G01*
X4429991Y-5430240D01*
X4429991Y-6040094D01*
X2599794Y-5400039D02*
G01*
X2629893Y-5430138D01*
X2629893Y-6040094D01*
X799797Y-5400039D02*
G01*
X829795Y-5430037D01*
X829795Y-6040094D01*
X4399892Y-7500010D02*
G01*
X4429991Y-7530109D01*
X4429991Y-8139912D01*
X2599895Y-7500010D02*
G01*
X2629893Y-7530007D01*
X2629893Y-8139912D01*
X799899Y-7500010D02*
G01*
X829795Y-7529906D01*
X829795Y-8139912D01*
X4399892Y-9600006D02*
G01*
X4429991Y-9630105D01*
X4429991Y-10239984D01*
X2599895Y-9600006D02*
G01*
X2629893Y-9630003D01*
X2629893Y-10239984D01*
X799899Y-9600006D02*
G01*
X799899Y-10210088D01*
X829795Y-10239984D01*
X4399993Y-3399993D02*
G01*
X4429991Y-3429990D01*
X4429991Y-4039996D01*
X2629893Y-4040022D02*
G01*
X2599997Y-4010126D01*
X2599997Y-3399993D01*
X829998Y-4039996D02*
G01*
X829998Y-3429990D01*
X800000Y-3399993D01*
X3009496Y-5985205D02*
G01*
X2798930Y-6195771D01*
X2409243Y-6195771D01*
X2106907Y-5893435D01*
X1907364Y-5893435D01*
X1462001Y-5448071D01*
X1462001Y-5311114D01*
X1578485Y-5194630D01*
X1578485Y-3804361D01*
X695784Y-2921660D01*
X695784Y-617067D01*
X775058Y-537794D01*
X906833Y-537794D01*
X974371Y-605332D01*
X974371Y-627862D01*
X1599999Y-1253489D01*
X1599999Y-1445996D01*
X2361999Y-2207996D01*
X2999894Y-5760085D02*
G01*
X3009496Y-5769686D01*
X3009496Y-5985205D01*
X2999894Y-7859903D02*
G01*
X2999894Y-6821703D01*
X3286762Y-6534835D01*
X3286762Y-6262496D01*
X3009496Y-5985205D01*
X2999894Y-3760012D02*
G01*
X2999894Y-2845892D01*
X2361999Y-2207996D01*
X2999894Y-9959975D02*
G01*
X2999894Y-9032544D01*
X3286864Y-8745575D01*
X3286864Y-8146872D01*
X2999894Y-7859903D01*
X4799992Y-3974592D02*
G01*
X4078810Y-4695774D01*
X2701724Y-4695774D01*
X1467360Y-3461410D01*
X1467360Y-3334969D01*
X1940638Y-2861690D01*
X2414120Y-2861690D01*
X2499083Y-2776728D01*
X2499083Y-2599080D01*
X2361999Y-2461996D01*
X4799992Y-3759987D02*
G01*
X4799992Y-3974592D01*
X4799992Y-7859903D02*
G01*
X5028745Y-7859903D01*
X4799992Y-5760085D02*
G01*
X5028669Y-5760085D01*
X1599796Y-5400039D02*
G01*
X1731520Y-5268315D01*
X3268068Y-5268315D01*
X3399792Y-5400039D01*
X5199788Y-5400039D02*
G01*
X5068928Y-5269179D01*
X3530653Y-5269179D01*
X3399792Y-5400039D01*
X2169822Y-8843746D02*
G01*
X2169822Y-8069935D01*
X1599897Y-7500010D01*
X2361999Y-937996D02*
G01*
X1613588Y-189585D01*
X299036Y-189585D01*
X188673Y-299948D01*
X188673Y-496138D01*
X478360Y-785825D01*
X478360Y-8333359D01*
X998628Y-8853627D01*
X998628Y-9975189D01*
X1136957Y-10113518D01*
X1260883Y-10113518D01*
X1465861Y-9908539D01*
X1465861Y-9547707D01*
X2169822Y-8843746D01*
X2169822Y-8843746D02*
G01*
X2839544Y-9513468D01*
X2839544Y-10032542D01*
X2929155Y-10122154D01*
X3054149Y-10122154D01*
X3201088Y-9975214D01*
X3201088Y-9037574D01*
X3399894Y-8838768D01*
X3399894Y-7500010D01*
X3399894Y-7500010D02*
G01*
X3530704Y-7369200D01*
X5069080Y-7369200D01*
X5199890Y-7500010D01*
X1199796Y-5760085D02*
G01*
X1199796Y-5177256D01*
X1488315Y-4888737D01*
X1488315Y-4048302D01*
X1200000Y-3759987D01*
X1199796Y-9959975D02*
G01*
X1199796Y-9608362D01*
X1487299Y-9320860D01*
X1487299Y-8147405D01*
X1199796Y-7859903D01*
X1199796Y-7859903D02*
G01*
X1199796Y-7508595D01*
X1487197Y-7221194D01*
X1487197Y-6047486D01*
X1199796Y-5760085D01*
X3399995Y-3399993D02*
G01*
X3399995Y-3594633D01*
X2804035Y-4190593D01*
X2390599Y-4190593D01*
X1599999Y-3399993D01*
X2361999Y-1445996D02*
G01*
X3399995Y-2483993D01*
X3399995Y-3399993D01*
X3399995Y-3399993D02*
G01*
X3541041Y-3258946D01*
X5058945Y-3258946D01*
X5199992Y-3399993D01*
X3399894Y-9600006D02*
G01*
X3530704Y-9469196D01*
X4509543Y-9469196D01*
X4640353Y-9600006D01*
X5199890Y-9600006D02*
G01*
X4640353Y-9600006D01*
X3399894Y-9600006D02*
G01*
X3399894Y-9916795D01*
X3092198Y-10224490D01*
X2893113Y-10224490D01*
X2749374Y-10080752D01*
X2749374Y-9564166D01*
X2651356Y-9466148D01*
X1733755Y-9466148D01*
X1599897Y-9600006D01*
X4800091Y-9960102D02*
G01*
X5290058Y-9960102D01*
X5500115Y-9750044D01*
X5500115Y-7999984D01*
X5359908Y-7860029D01*
X5028691Y-7860029D01*
X5028691Y-7860029D02*
G01*
X5340095Y-7860029D01*
X5500115Y-7700010D01*
X5500115Y-5999987D01*
X5260086Y-5759957D01*
X5028691Y-5759957D01*
X5028691Y-5759957D02*
G01*
X5239765Y-5759957D01*
X5500115Y-5499862D01*
X5500115Y-4674615D01*
X4800091Y-3974592D01*
X2362001Y-1954009D02*
G01*
X1799996Y-1392003D01*
X1799996Y-1199997D01*
X999997Y-399999D01*
X699998Y-399999D01*
X599998Y-499998D01*
X599998Y-2999994D01*
X1199997Y-3599992D01*
X1199997Y-3759987D01*
X2361945Y-1192021D02*
G01*
X2491993Y-1192021D01*
X4400041Y-3100070D01*
X5199888Y-3100070D01*
X5700013Y-3599942D01*
X5700013Y-9800081D01*
X5400040Y-10100055D01*
X5299963Y-10100055D01*
X5199888Y-10199878D01*
X4800091Y-10199878D01*
X4640072Y-10040112D01*
X4640072Y-9860026D01*
X4700015Y-9800081D01*
X5299963Y-9800081D01*
X5400040Y-9700005D01*
X5400040Y-8599931D01*
X4999990Y-8199881D01*
X4800091Y-8199881D01*
X4599940Y-7999984D01*
X4599940Y-7800086D01*
X4700015Y-7700010D01*
X5299963Y-7700010D01*
X5400040Y-7599934D01*
X5400040Y-6299962D01*
X5100065Y-5999987D01*
X4700015Y-5999987D01*
X4599940Y-5899912D01*
X4599940Y-5599937D01*
X4700015Y-5499862D01*
X5099811Y-5499862D01*
X5199888Y-5400039D01*
X4640325Y-9599929D02*
G01*
X4549902Y-9599929D01*
X4549902Y-10124947D01*
X4724908Y-10299954D01*
X5400040Y-10299954D01*
X5899911Y-9800081D01*
X5899911Y-3499865D01*
X5199888Y-2800095D01*
X4478020Y-2800095D01*
X2361945Y-684021D01*
D11*
G01*
X837996Y-684021D03*
G01*
X837996Y-938021D03*
G01*
X837996Y-1192021D03*
G01*
X837996Y-1446021D03*
G01*
X837996Y-1700021D03*
G01*
X837996Y-1954021D03*
G01*
X837996Y-2208021D03*
G01*
X837996Y-2462021D03*
G01*
X837996Y-2716021D03*
G01*
X1091996Y-2716021D03*
G01*
X2361996Y-938021D03*
G01*
X2107996Y-2716021D03*
G01*
X2361996Y-2716021D03*
G01*
X2361996Y-2462021D03*
G01*
X2361996Y-2208021D03*
G01*
X2361996Y-1954021D03*
G01*
X2361996Y-1700021D03*
G01*
X2361996Y-1446021D03*
G01*
X2361996Y-1192021D03*
G01*
X2361996Y-684021D03*
G01*
X1345996Y-2716021D03*
G01*
X1853996Y-2716021D03*
G01*
X1599996Y-2716021D03*
D12*
G01*
X1599996Y-3399993D03*
G01*
X799998Y-3399993D03*
G01*
X3399993Y-3399993D03*
G01*
X2599994Y-3399993D03*
D13*
G01*
X1199997Y-3759987D03*
G01*
X829995Y-4039996D03*
D14*
G01*
X1199997Y-4399991D03*
D13*
G01*
X4799990Y-3759987D03*
G01*
X4429988Y-4039996D03*
D14*
G01*
X4799990Y-4399991D03*
D12*
G01*
X5199989Y-3399993D03*
G01*
X4399991Y-3399993D03*
D13*
G01*
X2999892Y-3760012D03*
G01*
X2629890Y-4040022D03*
D14*
G01*
X2999892Y-4400016D03*
D13*
G01*
X1199794Y-9959975D03*
G01*
X829792Y-10239984D03*
D14*
G01*
X1199794Y-10599978D03*
D13*
G01*
X2999892Y-9959975D03*
G01*
X2629890Y-10239984D03*
D14*
G01*
X2999892Y-10599978D03*
D13*
G01*
X4799990Y-9959975D03*
G01*
X4429988Y-10239984D03*
D14*
G01*
X4799990Y-10599978D03*
D13*
G01*
X1199794Y-7859903D03*
G01*
X829792Y-8139912D03*
D14*
G01*
X1199794Y-8499906D03*
D13*
G01*
X2999892Y-7859903D03*
G01*
X2629890Y-8139912D03*
D14*
G01*
X2999892Y-8499906D03*
D13*
G01*
X4799990Y-7859903D03*
G01*
X4429988Y-8139912D03*
D14*
G01*
X4799990Y-8499906D03*
D13*
G01*
X1199794Y-5760085D03*
G01*
X829792Y-6040094D03*
D14*
G01*
X1199794Y-6400088D03*
D13*
G01*
X2999892Y-5760085D03*
G01*
X2629890Y-6040094D03*
D14*
G01*
X2999892Y-6400088D03*
D13*
G01*
X4799990Y-5760085D03*
G01*
X4429988Y-6040094D03*
D14*
G01*
X4799990Y-6400088D03*
D12*
G01*
X1599895Y-9600006D03*
G01*
X799896Y-9600006D03*
G01*
X3399891Y-9600006D03*
G01*
X2599893Y-9600006D03*
G01*
X5199888Y-9600006D03*
G01*
X4399889Y-9600006D03*
G01*
X1599895Y-7500010D03*
G01*
X799896Y-7500010D03*
G01*
X3399891Y-7500010D03*
G01*
X2599893Y-7500010D03*
G01*
X5199888Y-7500010D03*
G01*
X4399889Y-7500010D03*
G01*
X1599793Y-5400039D03*
G01*
X799795Y-5400039D03*
G01*
X3399790Y-5400039D03*
G01*
X2599791Y-5400039D03*
G01*
X5199786Y-5400039D03*
G01*
X4399788Y-5400039D03*
D15*
G01*
X399999Y-399999D03*
G01*
X5599988Y-399999D03*
D16*
G01*
X5499887Y-11600002D03*
G01*
X499897Y-11600002D03*
G01*
X5799988Y-2499995D03*
G01*
X199999Y-2499995D03*
M02*
